<svg width="16" height="16" viewBox="0 0 16 16" xmlns="http://www.w3.org/2000/svg">
	<path fill-rule="evenodd" clip-rule="evenodd" d="M1.5 1C1.77614 1 2 1.22386 2 1.5V14.5C2 14.7761 1.77614 15 1.5 15C1.22386 15 1 14.7761 1 14.5V1.5C1 1.22386 1.22386 1 1.5 1ZM14.5 1C14.7761 1 15 1.22386 15 1.5V14.5C15 14.7761 14.7761 15 14.5 15C14.2239 15 14 14.7761 14 14.5V1.5C14 1.22386 14.2239 1 14.5 1ZM12.4772 3.85086C12.5596 4.11443 12.4127 4.39487 12.1491 4.47724L5.67631 6.5L12.1491 8.52276C12.4127 8.60513 12.5596 8.88557 12.4772 9.14914C12.3949 9.41271 12.1144 9.55961 11.8509 9.47724L3.85086 6.97724C3.64212 6.91201 3.5 6.71869 3.5 6.5C3.5 6.28131 3.64212 6.08799 3.85086 6.02276L11.8509 3.52276C12.1144 3.44039 12.3949 3.58729 12.4772 3.85086ZM3.5 11.5C3.5 11.2239 3.72386 11 4 11H12C12.2761 11 12.5 11.2239 12.5 11.5C12.5 11.7761 12.2761 12 12 12H4C3.72386 12 3.5 11.7761 3.5 11.5Z" />
</svg>
