<svg width="16" height="16" viewBox="0 0 16 16" xmlns="http://www.w3.org/2000/svg">
	<path fill-rule="evenodd" clip-rule="evenodd" d="M5 0.553782C5 0.192073 5.34867 -0.0673645 5.69513 0.0365428L7.73299 0.647721C8.08075 0.752018 8.50009 0.903977 8.83954 1.15022C9.192 1.4059 9.5 1.79771 9.5 2.35717V3.62997C9.5 3.99601 9.1466 4.25063 8.80331 4.14654L6 3.29656V6.50002C6 7.60459 5.10457 8.50002 4 8.50002C2.89543 8.50002 2 7.60459 2 6.50002C2 5.39546 2.89543 4.50002 4 4.50002C4.36429 4.50002 4.70583 4.59742 5 4.76759V0.553782ZM4 5.50002C4.55228 5.50002 5 5.94774 5 6.50002C5 7.05231 4.55228 7.50002 4 7.50002C3.44772 7.50002 3 7.05231 3 6.50002C3 5.94774 3.44772 5.50002 4 5.50002ZM6 2.2516L8.5 3.00962V2.35717C8.5 2.21711 8.43769 2.09412 8.25234 1.95967C8.05398 1.81577 7.76799 1.70222 7.44572 1.60557L6 1.17198V2.2516Z" />
	<path fill-rule="evenodd" clip-rule="evenodd" d="M11 11C10.2316 11 9.53076 10.7112 9 10.2361V15.5C9 15.7762 8.77614 16 8.5 16C8.22386 16 8 15.7762 8 15.5V8.00002C8 6.34317 9.34315 5.00002 11 5.00002C12.6569 5.00002 14 6.34317 14 8.00002C14 9.65688 12.6569 11 11 11ZM11 10C12.1046 10 13 9.10459 13 8.00002C13 6.89546 12.1046 6.00002 11 6.00002C9.89543 6.00002 9 6.89546 9 8.00002C9 9.10459 9.89543 10 11 10Z" />
	<path d="M4.5 9.50002C4.5 9.22388 4.27614 9.00002 4 9.00002C3.72386 9.00002 3.5 9.22388 3.5 9.50002C3.5 10.239 3.9115 10.9303 4.48893 11.4204C5.07318 11.9164 5.8737 12.25 6.75 12.25C7.02614 12.25 7.25 12.0262 7.25 11.75C7.25 11.4739 7.02614 11.25 6.75 11.25C6.1263 11.25 5.55182 11.011 5.13607 10.6581C4.7135 10.2993 4.5 9.8656 4.5 9.50002Z" />
</svg>
