<svg width="16" height="16" viewBox="0 0 16 16" xmlns="http://www.w3.org/2000/svg">
	<path d="M15.8516 12.8516C15.9505 12.7526 16 12.6354 16 12.5V2.5C16 2.36458 15.9505 2.2474 15.8516 2.14844C15.7526 2.04948 15.6354 2 15.5 2C15.3646 2 15.2474 2.04948 15.1484 2.14844C15.0495 2.2474 15 2.36458 15 2.5V12.5C15 12.6354 15.0495 12.7526 15.1484 12.8516C15.2474 12.9505 15.3646 13 15.5 13C15.6354 13 15.7526 12.9505 15.8516 12.8516Z" />
	<path d="M13.8516 7.85156C13.9505 7.7526 14 7.63542 14 7.5C14 7.36458 13.9505 7.2474 13.8516 7.14844L9.35156 2.64844C9.2526 2.54948 9.13542 2.5 9 2.5C8.86458 2.5 8.7474 2.54948 8.64844 2.64844C8.54948 2.7474 8.5 2.86458 8.5 3C8.5 3.13542 8.54948 3.2526 8.64844 3.35156L12.2969 7H7.66308C8.06621 7.28389 8.42948 7.62057 8.74284 8H12.2969L9.89114 10.4057C9.96253 10.7594 10 11.1253 10 11.5C10 11.5693 9.99872 11.6383 9.99618 11.707L13.8516 7.85156Z" />
	<path d="M0.29421 7.95562C0.599036 7.59428 0.949579 7.27277 1.33692 7H0.5C0.364583 7 0.247396 7.04948 0.148438 7.14844C0.0494792 7.2474 0 7.36458 0 7.5C0 7.63542 0.0494792 7.7526 0.148438 7.85156C0.193285 7.89641 0.241876 7.93109 0.29421 7.95562Z" />
	<path d="M9 11.5C9 12.1198 8.88021 12.7031 8.64062 13.25C8.40625 13.7969 8.08594 14.2734 7.67969 14.6797C7.27344 15.0859 6.79688 15.4089 6.25 15.6484C5.70312 15.8828 5.11979 16 4.5 16C3.875 16 3.28906 15.8828 2.74219 15.6484C2.19531 15.4141 1.71875 15.0938 1.3125 14.6875C0.90625 14.2812 0.585938 13.8047 0.351562 13.2578C0.117188 12.7109 0 12.125 0 11.5C0 10.8802 0.117188 10.2969 0.351562 9.75C0.591146 9.20312 0.914062 8.72656 1.32031 8.32031C1.72656 7.91406 2.20312 7.59375 2.75 7.35938C3.29688 7.11979 3.88021 7 4.5 7C4.91146 7 5.30729 7.05469 5.6875 7.16406C6.07292 7.26823 6.43229 7.41927 6.76562 7.61719C7.09896 7.8099 7.40365 8.04427 7.67969 8.32031C7.95573 8.59635 8.1901 8.90104 8.38281 9.23438C8.58073 9.56771 8.73177 9.92708 8.83594 10.3125C8.94531 10.6927 9 11.0885 9 11.5ZM1.70312 13.5938L6.59375 8.70312C6.27604 8.45833 5.9375 8.28125 5.57812 8.17188C5.21875 8.05729 4.83854 8 4.4375 8C3.97917 8 3.54167 8.09375 3.125 8.28125C2.71354 8.46875 2.34896 8.72135 2.03125 9.03906C1.71875 9.35156 1.46875 9.71615 1.28125 10.1328C1.09375 10.5443 1 10.9792 1 11.4375C1 11.8385 1.05469 12.2188 1.16406 12.5781C1.27865 12.9375 1.45833 13.276 1.70312 13.5938ZM7.29688 9.40625L2.40625 14.2969C2.72396 14.5417 3.0625 14.7213 3.42188 14.8359C3.78125 14.9453 4.16146 15 4.5625 15C5.02083 15 5.45573 14.9062 5.86719 14.7188C6.28385 14.5312 6.64844 14.2812 6.96094 13.9688C7.27865 13.651 7.53125 13.2865 7.71875 12.875C7.90625 12.4583 8 12.0208 8 11.5625C8 11.1615 7.94271 10.7812 7.82812 10.4219C7.71875 10.0625 7.54167 9.72396 7.29688 9.40625Z" />
</svg>
