<svg width="16" height="16" viewBox="0 0 16 16" xmlns="http://www.w3.org/2000/svg">
	<path d="M9.41422 1.63503C9.60948 1.43977 9.60948 1.12319 9.41422 0.927923L7.29289 -1.1934C7.09763 -1.38866 6.78104 -1.38866 6.58578 -1.1934C6.39052 -0.998135 6.39052 -0.681553 6.58578 -0.48629L7.58264 0.510563C5.80518 0.609107 4.05488 1.33754 2.69671 2.6957C-0.232237 5.62463 -0.232237 10.3734 2.69671 13.3023C2.95359 13.5592 3.2247 13.7937 3.50757 14.0058C3.72852 14.1714 4.04191 14.1266 4.20756 13.9057C4.3732 13.6847 4.32838 13.3713 4.10743 13.2057C3.86235 13.0219 3.6271 12.8185 3.40382 12.5952C0.865399 10.0568 0.865399 5.94121 3.40382 3.40281C4.68997 2.11666 6.38002 1.48223 8.0664 1.49934C8.50016 1.50373 8.97366 1.55873 9.3976 1.65165L9.41422 1.63503ZM6.58578 14.363L6.60167 14.3471C7.0102 14.4366 7.43311 14.4878 7.86644 14.4965L7.85963 14.5033C7.88379 14.5 7.90849 14.4984 7.9336 14.4987C9.61998 14.5158 11.31 13.8813 12.5962 12.5952C15.1346 10.0568 15.1346 5.9412 12.5962 3.40279C12.3729 3.17952 12.1377 2.97606 11.8926 2.79231C11.6716 2.62667 11.6268 2.31327 11.7924 2.09233C11.9581 1.87139 12.2715 1.82656 12.4924 1.99221C12.7753 2.20428 13.0464 2.43881 13.3033 2.69569C16.2322 5.62462 16.2322 10.3734 13.3033 13.3023C11.9451 14.6605 10.1948 15.3889 8.41736 15.4874L9.41422 16.4843C9.60948 16.6795 9.60948 16.9961 9.41422 17.1914C9.21896 17.3866 8.90237 17.3866 8.70711 17.1914L6.58578 15.0701C6.39052 14.8748 6.39052 14.5582 6.58578 14.363ZM10.3536 6.14547C10.5488 6.34073 10.5488 6.65731 10.3536 6.85258L7.35355 9.85258C7.15829 10.0478 6.84171 10.0478 6.64645 9.85258L5.14645 8.35258C4.95118 8.15731 4.95118 7.84073 5.14645 7.64547C5.34171 7.45021 5.65829 7.45021 5.85355 7.64547L7 8.79192L9.64645 6.14547C9.84171 5.95021 10.1583 5.95021 10.3536 6.14547ZM3 7.99902C3 5.2376 5.23858 2.99902 8 2.99902C10.7614 2.99902 13 5.2376 13 7.99902C13 10.7604 10.7614 12.999 8 12.999C5.23858 12.999 3 10.7604 3 7.99902ZM8 3.99902C5.79086 3.99902 4 5.78988 4 7.99902C4 10.2082 5.79086 11.999 8 11.999C10.2091 11.999 12 10.2082 12 7.99902C12 5.78988 10.2091 3.99902 8 3.99902Z" />
</svg>
