<svg width="16" height="16" viewBox="0 0 16 16" xmlns="http://www.w3.org/2000/svg">
	<path d="M3.85355 0.646447C4.04882 0.841709 4.04882 1.15829 3.85355 1.35355L2.20711 3H9C12.3137 3 15 5.68629 15 9C15 12.3137 12.3137 15 9 15C5.68629 15 3 12.3137 3 9C3 8.72386 3.22386 8.5 3.5 8.5C3.77614 8.5 4 8.72386 4 9C4 11.7614 6.23858 14 9 14C11.7614 14 14 11.7614 14 9C14 6.23858 11.7614 4 9 4H2.20711L3.85355 5.64645C4.04882 5.84171 4.04882 6.15829 3.85355 6.35355C3.65829 6.54882 3.34171 6.54882 3.14645 6.35355L0.646447 3.85355C0.451184 3.65829 0.451184 3.34171 0.646447 3.14645L3.14645 0.646447C3.34171 0.451184 3.65829 0.451184 3.85355 0.646447Z" />
</svg>
