<svg width="16" height="16" viewBox="0 0 16 16" xmlns="http://www.w3.org/2000/svg">
	<path d="M3.35355 4.64645C3.54882 4.84171 3.54882 5.15829 3.35355 5.35355L1.70711 7H6.5C6.77614 7 7 7.22386 7 7.5C7 7.77614 6.77614 8 6.5 8H1.70711L3.35355 9.64645C3.54882 9.84171 3.54882 10.1583 3.35355 10.3536C3.15829 10.5488 2.84171 10.5488 2.64645 10.3536L0.146447 7.85355C-0.0488155 7.65829 -0.0488155 7.34171 0.146447 7.14645L2.64645 4.64645C2.84171 4.45118 3.15829 4.45118 3.35355 4.64645ZM12.6464 4.64645C12.8417 4.45118 13.1583 4.45118 13.3536 4.64645L15.8536 7.14645C16.0488 7.34171 16.0488 7.65829 15.8536 7.85355L13.3536 10.3536C13.1583 10.5488 12.8417 10.5488 12.6464 10.3536C12.4512 10.1583 12.4512 9.84171 12.6464 9.64645L14.2929 8H9.5C9.22386 8 9 7.77614 9 7.5C9 7.22386 9.22386 7 9.5 7H14.2929L12.6464 5.35355C12.4512 5.15829 12.4512 4.84171 12.6464 4.64645Z" />
</svg>
