<svg width="16" height="16" viewBox="0 0 16 16" xmlns="http://www.w3.org/2000/svg">
	<path d="M0.5 2C0.776142 2 1 2.22386 1 2.5V13.5C1 13.7761 0.776142 14 0.5 14C0.223858 14 0 13.7761 0 13.5V2.5C0 2.22386 0.223858 2 0.5 2ZM3 8C3 7.72386 3.22386 7.5 3.5 7.5H14.2929L11.1464 4.35355C10.9512 4.15829 10.9512 3.84171 11.1464 3.64645C11.3417 3.45118 11.6583 3.45118 11.8536 3.64645L15.8536 7.64645C15.9061 7.69898 15.9445 7.76028 15.9688 7.82563C15.989 7.87992 16 7.93867 16 8C16 8.06133 15.989 8.12008 15.9687 8.17437C15.9445 8.23973 15.9061 8.30103 15.8536 8.35355L11.8536 12.3536C11.6583 12.5488 11.3417 12.5488 11.1464 12.3536C10.9512 12.1583 10.9512 11.8417 11.1464 11.6465L14.2929 8.5H3.5C3.22386 8.5 3 8.27614 3 8Z" />
</svg>
