<svg width="16" height="16" viewBox="0 0 16 16" xmlns="http://www.w3.org/2000/svg">
	<path d="M3.35355 4.64645C3.54882 4.84171 3.54882 5.15829 3.35355 5.35355L1.70711 7H6.3908C6.3482 6.83436 6.39175 6.65114 6.52145 6.52145C6.71671 6.32618 7.03329 6.32618 7.22855 6.52145L7.85355 7.14645C8.04882 7.34171 8.04882 7.65829 7.85355 7.85355L7.22855 8.47855C7.03329 8.67382 6.71671 8.67382 6.52145 8.47855C6.39175 8.34886 6.3482 8.16564 6.3908 8H1.70711L3.35355 9.64645C3.54882 9.84171 3.54882 10.1583 3.35355 10.3536C3.15829 10.5488 2.84171 10.5488 2.64645 10.3536L0.146447 7.85355C-0.0488155 7.65829 -0.0488155 7.34171 0.146447 7.14645L2.64645 4.64645C2.84171 4.45118 3.15829 4.45118 3.35355 4.64645Z" />
	<path d="M12.6464 4.64645C12.8417 4.45118 13.1583 4.45118 13.3536 4.64645L15.8536 7.14645C16.0488 7.34171 16.0488 7.65829 15.8536 7.85355L13.3536 10.3536C13.1583 10.5488 12.8417 10.5488 12.6464 10.3536C12.4512 10.1583 12.4512 9.84171 12.6464 9.64645L14.2929 8H10.1092C10.1518 8.16564 10.1082 8.34886 9.97855 8.47855C9.78329 8.67382 9.46671 8.67382 9.27145 8.47855L8.64645 7.85355C8.45118 7.65829 8.45118 7.34171 8.64645 7.14645L9.27145 6.52145C9.46671 6.32618 9.78329 6.32618 9.97855 6.52145C10.1082 6.65114 10.1518 6.83436 10.1092 7H14.2929L12.6464 5.35355C12.4512 5.15829 12.4512 4.84171 12.6464 4.64645Z" />
	<path d="M4.64645 4.64645C4.84171 4.45118 5.15829 4.45118 5.35355 4.64645L5.97855 5.27145C6.17382 5.46671 6.17382 5.78329 5.97855 5.97855C5.78329 6.17382 5.46671 6.17382 5.27145 5.97855L4.64645 5.35355C4.45118 5.15829 4.45118 4.84171 4.64645 4.64645Z" />
	<path d="M5.97855 9.02145C6.17382 9.21671 6.17382 9.53329 5.97855 9.72855L5.35355 10.3536C5.15829 10.5488 4.84171 10.5488 4.64645 10.3536C4.45118 10.1583 4.45118 9.84171 4.64645 9.64645L5.27145 9.02145C5.46671 8.82618 5.78329 8.82618 5.97855 9.02145Z" />
	<path d="M11.1464 4.64645C11.3417 4.45118 11.6583 4.45118 11.8536 4.64645C12.0488 4.84171 12.0488 5.15829 11.8536 5.35355L11.2286 5.97855C11.0333 6.17382 10.7167 6.17382 10.5214 5.97855C10.3262 5.78329 10.3262 5.46671 10.5214 5.27145L11.1464 4.64645Z" />
	<path d="M10.5214 9.72855C10.3262 9.53329 10.3262 9.21671 10.5214 9.02145C10.7167 8.82618 11.0333 8.82618 11.2286 9.02145L11.8536 9.64645C12.0488 9.84171 12.0488 10.1583 11.8536 10.3536C11.6583 10.5488 11.3417 10.5488 11.1464 10.3536L10.5214 9.72855Z" />
</svg>
