<svg width="16" height="16" viewBox="0 0 16 16" xmlns="http://www.w3.org/2000/svg">
	<path d="M1.5 9H6.5C6.74546 9 6.94961 9.17688 6.99194 9.41012L7 9.5V14.5C7 14.7761 6.77614 15 6.5 15C6.25454 15 6.05039 14.8231 6.00806 14.5899L6 14.5V10.706L0.853553 15.8536C0.658291 16.0488 0.341709 16.0488 0.146447 15.8536C-0.0271197 15.68 -0.046405 15.4106 0.0885911 15.2157L0.146447 15.1464L5.292 10H1.5C1.25454 10 1.05039 9.82312 1.00806 9.58988L1 9.5C1 9.25454 1.17688 9.05039 1.41012 9.00806L1.5 9H6.5H1.5ZM15.8536 0.146447C16.0271 0.320013 16.0464 0.589437 15.9114 0.784305L15.8536 0.853553L10.706 6H14.5C14.7455 6 14.9496 6.17688 14.9919 6.41012L15 6.5C15 6.74546 14.8231 6.94961 14.5899 6.99194L14.5 7L9.47964 6.99959L9.4112 6.99213L9.30896 6.96221L9.23299 6.92281L9.17786 6.88242L9.14645 6.85355L9.10896 6.81166L9.06675 6.74977L9.03761 6.69059L9.01661 6.62814L9.01109 6.60499C9.00383 6.5713 9 6.5361 9 6.5L9.00546 6.57392L9.00182 6.5428L9 1.5C9 1.22386 9.22386 1 9.5 1C9.74546 1 9.94961 1.17687 9.99194 1.41012L10 1.5V5.292L15.1464 0.146447C15.3417 -0.0488155 15.6583 -0.0488155 15.8536 0.146447Z" />
</svg>
