<svg width="16" height="16" viewBox="0 0 16 16" xmlns="http://www.w3.org/2000/svg">
	<path d="M12.8536 5.85355L14.8536 3.85355C15.0488 3.65829 15.0488 3.34171 14.8536 3.14645C14.6583 2.95118 14.3417 2.95118 14.1464 3.14645L13 4.29289V0.5C13 0.223857 12.7761 0 12.5 0C12.2239 0 12 0.223857 12 0.5V4.29289L10.8536 3.14645C10.6583 2.95118 10.3417 2.95118 10.1464 3.14645C9.95119 3.34171 9.95119 3.65829 10.1464 3.85355L12.1464 5.85355C12.3417 6.04882 12.6583 6.04882 12.8536 5.85355ZM1 3C1 1.89543 1.89543 1 3 1H7.5C7.77614 1 8 1.22386 8 1.5C8 1.77614 7.77614 2 7.5 2H3C2.44772 2 2 2.44772 2 3V13C2 13.5523 2.44772 14 3 14H7.5C7.77614 14 8 14.2239 8 14.5C8 14.7761 7.77614 15 7.5 15H3C1.89543 15 1 14.1046 1 13V3ZM14.8536 12.1464L12.8536 10.1464C12.6583 9.95118 12.3417 9.95118 12.1464 10.1464L10.1464 12.1464C9.95119 12.3417 9.95119 12.6583 10.1464 12.8536C10.3417 13.0488 10.6583 13.0488 10.8536 12.8536L12 11.7071V15.5C12 15.7761 12.2239 16 12.5 16C12.7761 16 13 15.7761 13 15.5V11.7071L14.1464 12.8536C14.3417 13.0488 14.6583 13.0488 14.8536 12.8536C15.0488 12.6583 15.0488 12.3417 14.8536 12.1464Z" />
</svg>
