<svg width="16" height="16" viewBox="0 0 16 16" xmlns="http://www.w3.org/2000/svg">
	<path fill-rule="evenodd" clip-rule="evenodd" d="M8 5C8.55228 5 9 4.55228 9 4C9 3.44772 8.55228 3 8 3C7.44772 3 7 3.44772 7 4C7 4.55228 7.44772 5 8 5ZM8 6C9.10457 6 10 5.10457 10 4C10 2.89543 9.10457 2 8 2C6.89543 2 6 2.89543 6 4C6 5.10457 6.89543 6 8 6Z" />
	<path d="M1.6735 9C2.79743 11.3658 5.2084 13 8 13C10.7916 13 13.2026 11.3658 14.3265 9H12.5C12.2239 9 12 8.77614 12 8.5C12 8.22386 12.2239 8 12.5 8H15.5C15.7761 8 16 8.22386 16 8.5V11.5C16 11.7761 15.7761 12 15.5 12C15.2239 12 15 11.7761 15 11.5V9.87578C13.6357 12.3346 11.0128 14 8 14C4.98718 14 2.36428 12.3346 0.999999 9.87578L0.999999 11.5C0.999999 11.7761 0.776142 12 0.499999 12C0.223857 12 0 11.7761 0 11.5V8.5C0 8.22386 0.223857 8 0.5 8H3.5C3.77614 8 4 8.22386 4 8.5C4 8.77614 3.77614 9 3.5 9H1.6735Z" />
</svg>
