<svg width="16" height="16" viewBox="0 0 16 16" xmlns="http://www.w3.org/2000/svg">
	<path d="M1 8C1 7.72386 1.22386 7.5 1.5 7.5H6V5C6 3.89543 6.89543 3 8 3H13.2929L11.6464 1.35355C11.4512 1.15829 11.4512 0.841709 11.6464 0.646446C11.8417 0.451184 12.1583 0.451184 12.3536 0.646446L14.8536 3.14645C15.0488 3.34171 15.0488 3.65829 14.8536 3.85355L12.3536 6.35355C12.1583 6.54882 11.8417 6.54882 11.6464 6.35355C11.4512 6.15829 11.4512 5.84171 11.6464 5.64645L13.2929 4H8C7.44772 4 7 4.44771 7 5L7 11C7 11.5523 7.44772 12 8 12H13.2929L11.6464 10.3536C11.4512 10.1583 11.4512 9.84171 11.6464 9.64645C11.8417 9.45118 12.1583 9.45118 12.3536 9.64645L14.8536 12.1464C15.0488 12.3417 15.0488 12.6583 14.8536 12.8536L12.3536 15.3536C12.1583 15.5488 11.8417 15.5488 11.6464 15.3536C11.4512 15.1583 11.4512 14.8417 11.6464 14.6464L13.2929 13H8C6.89543 13 6 12.1046 6 11V8.5H1.5C1.22386 8.5 1 8.27614 1 8Z" />
</svg>
