<svg width="16" height="16" viewBox="0 0 16 16" xmlns="http://www.w3.org/2000/svg">
	<path d="M3.64645 5.35355C3.45118 5.15829 3.45118 4.84171 3.64645 4.64645C3.84171 4.45118 4.15829 4.45118 4.35355 4.64645L6.85355 7.14645C7.04882 7.34171 7.04882 7.65829 6.85355 7.85355L4.35355 10.3536C4.15829 10.5488 3.84171 10.5488 3.64645 10.3536C3.45118 10.1583 3.45118 9.84171 3.64645 9.64645L5.29289 8H0.5C0.223857 8 0 7.77614 0 7.5C0 7.22386 0.223857 7 0.5 7H5.29289L3.64645 5.35355ZM12.3536 5.35355C12.5488 5.15829 12.5488 4.84171 12.3536 4.64645C12.1583 4.45118 11.8417 4.45118 11.6464 4.64645L9.14645 7.14645C8.95118 7.34171 8.95118 7.65829 9.14645 7.85355L11.6464 10.3536C11.8417 10.5488 12.1583 10.5488 12.3536 10.3536C12.5488 10.1583 12.5488 9.84171 12.3536 9.64645L10.7071 8H15.5C15.7761 8 16 7.77614 16 7.5C16 7.22386 15.7761 7 15.5 7H10.7071L12.3536 5.35355Z" />
</svg>
