<svg width="16" height="16" viewBox="0 0 16 16" xmlns="http://www.w3.org/2000/svg">
	<path d="M9.41422 2.92792C9.60948 3.12319 9.60948 3.43977 9.41422 3.63503L9.39841 3.65084C8.96193 3.55512 8.5029 3.50376 8.0664 3.49934C6.38002 3.48223 4.68997 4.11666 3.40382 5.40281C0.865399 7.94121 0.865399 12.0568 3.40382 14.5952C3.6271 14.8185 3.86235 15.0219 4.10743 15.2057C4.32838 15.3713 4.3732 15.6847 4.20756 15.9057C4.04191 16.1266 3.72852 16.1714 3.50757 16.0058C3.2247 15.7937 2.95359 15.5592 2.69671 15.3023C-0.232237 12.3734 -0.232237 7.62463 2.69671 4.6957C4.05488 3.33754 5.80518 2.60911 7.58264 2.51056L6.58578 1.51371C6.39052 1.31845 6.39052 1.00186 6.58578 0.806603C6.78104 0.611341 7.09763 0.611341 7.29289 0.806603L9.41422 2.92792Z" />
	<path d="M6.60162 16.3471L6.58578 16.363C6.39052 16.5582 6.39052 16.8748 6.58578 17.0701L8.70711 19.1914C8.90237 19.3866 9.21896 19.3866 9.41422 19.1914C9.60948 18.9961 9.60948 18.6795 9.41422 18.4843L8.41736 17.4874C10.1948 17.3889 11.9451 16.6605 13.3033 15.3023C16.2322 12.3734 16.2322 7.62462 13.3033 4.69569C13.0464 4.43881 12.7753 4.20428 12.4924 3.99221C12.2715 3.82656 11.9581 3.87139 11.7924 4.09233C11.6268 4.31327 11.6716 4.62667 11.8926 4.79231C12.1377 4.97606 12.3729 5.17952 12.5962 5.40279C15.1346 7.9412 15.1346 12.0568 12.5962 14.5952C11.31 15.8813 9.61998 16.5158 7.9336 16.4987C7.4995 16.4942 7.02588 16.4401 6.60162 16.3471Z" />
	<path fill-rule="evenodd" clip-rule="evenodd" d="M8 8C6.89543 8 6 8.89543 6 10C6 11.1046 6.89543 12 8 12C9.10457 12 10 11.1046 10 10C10 8.89543 9.10457 8 8 8ZM7 10C7 9.44771 7.44772 9 8 9C8.55228 9 9 9.44771 9 10C9 10.5523 8.55228 11 8 11C7.44772 11 7 10.5523 7 10Z" />
	<path fill-rule="evenodd" clip-rule="evenodd" d="M6.65537 4.66555C5.64933 4.91834 4.75334 5.44825 4.05328 6.16941C4.35821 6.62891 4.39729 7.23995 4.10284 7.74995C3.80813 8.2604 3.25871 8.5321 2.70782 8.49721C2.57245 8.97487 2.5 9.47897 2.5 10C2.5 10.521 2.57244 11.0251 2.70781 11.5027C3.2587 11.4678 3.80813 11.7395 4.10284 12.25C4.39729 12.76 4.3582 13.3711 4.05326 13.8306C4.75332 14.5517 5.64932 15.0817 6.65535 15.3344C6.90059 14.8399 7.41059 14.5 8 14.5C8.58941 14.5 9.09941 14.8399 9.34464 15.3344C10.3507 15.0817 11.2467 14.5517 11.9467 13.8306C11.6417 13.371 11.6026 12.7599 11.8971 12.2499C12.1918 11.7394 12.7413 11.4677 13.2922 11.5027C13.4276 11.025 13.5 10.521 13.5 10C13.5 9.47896 13.4275 8.97485 13.2922 8.49718C12.7412 8.53212 12.1918 8.26041 11.897 7.74993C11.6026 7.23991 11.6417 6.62884 11.9466 6.16933C11.2466 5.44821 10.3506 4.91833 9.34463 4.66555C9.0994 5.16006 8.5894 5.5 8 5.5C7.4106 5.5 6.9006 5.16006 6.65537 4.66555ZM5.24117 6.44455C5.37634 7.03701 5.29742 7.68088 4.96886 8.24995C4.64023 8.81917 4.12191 9.2095 3.54106 9.38861C3.51401 9.58821 3.5 9.79227 3.5 10C3.5 10.2077 3.51401 10.4117 3.54106 10.6113C4.12191 10.7904 4.64022 11.1808 4.96886 11.75C5.29743 12.3191 5.37634 12.963 5.24116 13.5554C5.56236 13.8051 5.91793 14.012 6.29929 14.1678C6.74491 13.7539 7.34238 13.5 8 13.5C8.65762 13.5 9.25509 13.7539 9.70071 14.1678C10.0821 14.012 10.4376 13.8051 10.7588 13.5555C10.6236 12.963 10.7025 12.319 11.0311 11.7499C11.3597 11.1807 11.8781 10.7903 12.459 10.6112C12.486 10.4117 12.5 10.2077 12.5 10C12.5 9.79228 12.486 9.58822 12.4589 9.38863C11.878 9.20953 11.3597 8.81919 11.031 8.24993C10.7024 7.68084 10.6235 7.03695 10.7587 6.44447C10.4375 6.19482 10.082 5.98799 9.70069 5.83219C9.25507 6.24603 8.65761 6.5 8 6.5C7.34239 6.5 6.74493 6.24603 6.29931 5.83219C5.91795 5.988 5.56238 6.19487 5.24117 6.44455Z" />
</svg>
