<svg width="16" height="16" viewBox="0 0 16 16" xmlns="http://www.w3.org/2000/svg">
	<path fill-rule="evenodd" clip-rule="evenodd" d="M8.45808 3.29959C8.37846 3.1176 8.19865 3 8 3C7.80135 3 7.62154 3.1176 7.54192 3.29959L4.04192 11.2996C3.93124 11.5526 4.0466 11.8474 4.29959 11.9581C4.55258 12.0688 4.8474 11.9534 4.95808 11.7004L6.30069 8.63158H9.69931L11.0419 11.7004C11.1526 11.9534 11.4474 12.0688 11.7004 11.9581C11.9534 11.8474 12.0688 11.5526 11.9581 11.2996L8.45808 3.29959ZM8 4.74745L9.26181 7.63158H6.73819L8 4.74745Z" />
	<path fill-rule="evenodd" clip-rule="evenodd" d="M16 8C16 12.4183 12.4183 16 8 16C3.58172 16 0 12.4183 0 8C0 3.58172 3.58172 0 8 0C12.4183 0 16 3.58172 16 8ZM15 8C15 11.866 11.866 15 8 15C4.13401 15 1 11.866 1 8C1 4.13401 4.13401 1 8 1C11.866 1 15 4.13401 15 8Z" />
</svg>
