<svg width="16" height="16" viewBox="0 0 16 16" xmlns="http://www.w3.org/2000/svg">
	<path d="M7.15898 14.8666C7.36292 15.0528 7.67918 15.0384 7.86536 14.8345C8.05154 14.6305 8.03714 14.3143 7.8332 14.1281L1.66535 8.49736H15.4961C15.7722 8.49736 15.9961 8.2735 15.9961 7.99736C15.9961 7.72122 15.7722 7.49736 15.4961 7.49736H1.66824L7.8332 1.86927C8.03714 1.68309 8.05154 1.36684 7.86536 1.16289C7.67918 0.958954 7.36292 0.944557 7.15898 1.13074L0.242631 7.44478C0.102683 7.57254 0.0228539 7.74008 0.00314236 7.91323C-0.0014925 7.94058 -0.00390625 7.96869 -0.00390625 7.99736C-0.00390625 8.02423 -0.00178671 8.05061 0.00229454 8.07633C0.0204692 8.25224 0.100582 8.4229 0.242631 8.55258L7.15898 14.8666Z" />
</svg>
