<svg width="16" height="16" viewBox="0 0 16 16" xmlns="http://www.w3.org/2000/svg">
	<path d="M8 0C3.58172 0 0 3.58172 0 8C0 12.4183 3.58172 16 8 16C10.0289 16 11.8814 15.2447 13.2916 14H8V15C4.13401 15 1 11.866 1 8C1 4.13401 4.13401 1 8 1H11.876C10.7278 0.362837 9.40625 0 8 0ZM8 2H13.2916C13.6375 2.30521 13.9567 2.63985 14.2454 3H8V2ZM14.9297 4H8V5H15.4185C15.2784 4.65398 15.1148 4.31998 14.9297 4ZM8 6H15.748C15.8318 6.32577 15.8957 6.65956 15.9381 7H8V6ZM16 8H8V9H15.9381C15.979 8.67241 16 8.33866 16 8ZM8 10H15.748C15.6597 10.3428 15.5494 10.6766 15.4185 11H8V10ZM14.9297 12H8V13H14.2454C14.4977 12.6853 14.7267 12.3511 14.9297 12Z" />
</svg>
