<svg width="16" height="16" viewBox="0 0 16 16" xmlns="http://www.w3.org/2000/svg">
	<path d="M7.99991 12.2122C8.38628 12.2122 8.69951 11.899 8.69951 11.5126C8.69951 11.1262 8.38628 10.813 7.99991 10.813C7.61353 10.813 7.3003 11.1262 7.3003 11.5126C7.3003 11.899 7.61353 12.2122 7.99991 12.2122Z" />
	<path fill-rule="evenodd" clip-rule="evenodd" d="M2.00059 2.7077L0.146447 0.853553C-0.0488155 0.658291 -0.0488155 0.341709 0.146447 0.146447C0.341709 -0.0488155 0.658291 -0.0488155 0.853553 0.146447L15.8536 15.1464C16.0488 15.3417 16.0488 15.6583 15.8536 15.8536C15.6583 16.0488 15.3417 16.0488 15.1464 15.8536L13.2923 13.9994C11.882 15.2445 10.0292 16 8.00001 16C6.65078 16 5.37829 15.6656 4.26225 15.0748L0.621278 15.9851C0.450891 16.0277 0.270647 15.9777 0.146457 15.8536C0.022267 15.7294 -0.0276575 15.5491 0.0149394 15.3787L0.925182 11.7378C0.334417 10.6217 1.05981e-05 9.34923 1.05981e-05 8C1.05981e-05 5.97079 0.755518 4.11804 2.00059 2.7077ZM12.5836 13.2907C11.3556 14.3556 9.75305 15 8.00001 15C6.75497 15 5.58726 14.6754 4.57531 14.1066C4.46399 14.044 4.33294 14.0264 4.20904 14.0574L1.18719 14.8128L1.94266 11.791C1.97363 11.6671 1.95602 11.536 1.89345 11.4247C1.32462 10.4128 1.00001 9.24504 1.00001 8C1.00001 6.24696 1.64442 4.64444 2.70927 3.41638L7.64244 8.34954C7.55167 8.61948 7.50001 8.92874 7.50001 9.29292C7.50001 9.56906 7.72387 9.79292 8.00001 9.79292C8.27615 9.79292 8.50001 9.56906 8.50001 9.29292C8.50001 9.26401 8.50045 9.23585 8.5013 9.20841L12.5836 13.2907Z" />
	<path d="M7.29582 4.11381L8.19652 5.01451C8.44888 5.05356 8.62662 5.1674 8.74974 5.30723C8.86876 5.44241 8.94824 5.6158 8.98185 5.79984L9.90142 6.71942C9.96457 6.5075 10 6.27043 10 6C10 5.52689 9.83872 5.0308 9.50028 4.64641C9.15318 4.25219 8.64033 4 8.00001 4C7.74411 4 7.50856 4.04028 7.29582 4.11381Z" />
	<path d="M15 8C15 9.11204 14.7407 10.1635 14.2793 11.0972L15.0206 11.8386C15.645 10.6991 16 9.39101 16 8C16 3.58172 12.4183 0 8.00001 0C6.609 0 5.3009 0.355016 4.16139 0.979384L4.90276 1.72076C5.8365 1.25931 6.88797 1 8.00001 1C11.866 1 15 4.13401 15 8Z" />
</svg>
