<svg width="16" height="16" viewBox="0 0 16 16" xmlns="http://www.w3.org/2000/svg">
	<path d="M7.99991 12.2122C8.38628 12.2122 8.69951 11.899 8.69951 11.5126C8.69951 11.1262 8.38628 10.813 7.99991 10.813C7.61353 10.813 7.3003 11.1262 7.3003 11.5126C7.3003 11.899 7.61353 12.2122 7.99991 12.2122Z" />
	<path fill-rule="evenodd" clip-rule="evenodd" d="M2.00059 2.7077L0.146447 0.853553C-0.0488155 0.658291 -0.0488155 0.341709 0.146447 0.146447C0.341709 -0.0488155 0.658291 -0.0488155 0.853553 0.146447L15.8536 15.1464C16.0488 15.3417 16.0488 15.6583 15.8536 15.8536C15.6583 16.0488 15.3417 16.0488 15.1464 15.8536L13.2923 13.9994C11.882 15.2445 10.0292 16 8.00001 16C6.65078 16 5.37829 15.6656 4.26225 15.0748L0.621278 15.9851C0.450891 16.0277 0.270647 15.9777 0.146457 15.8536C0.022267 15.7294 -0.0276575 15.5491 0.0149394 15.3787L0.925182 11.7378C0.334417 10.6217 1.05981e-05 9.34923 1.05981e-05 8C1.05981e-05 5.97079 0.755518 4.11804 2.00059 2.7077ZM12.5836 13.2907C11.3556 14.3556 9.75305 15 8.00001 15C6.75497 15 5.58726 14.6754 4.57531 14.1066C4.46399 14.044 4.33294 14.0264 4.20904 14.0574L1.18719 14.8128L1.94266 11.791C1.97363 11.6671 1.95602 11.536 1.89345 11.4247C1.32462 10.4128 1.00001 9.24504 1.00001 8C1.00001 6.24696 1.64442 4.64444 2.70927 3.41638L7.64244 8.34954C7.55167 8.61948 7.50001 8.92874 7.50001 9.29292C7.50001 9.56906 7.72387 9.79292 8.00001 9.79292C8.27615 9.79292 8.50001 9.56906 8.50001 9.29292C8.50001 9.26401 8.50045 9.23585 8.5013 9.20841L12.5836 13.2907Z" />
	<path d="M6.63198 4.51064L7.34016 5.21883C7.4915 5.09025 7.70436 5 8.00001 5C8.3597 5 8.59684 5.13358 8.74974 5.30723C8.9113 5.49072 9.00001 5.74463 9.00001 6C9.00001 6.31707 8.92861 6.52273 8.83371 6.68547L8.82369 6.70236L9.54291 7.42157C9.59718 7.34894 9.64951 7.27161 9.69756 7.18921C9.88392 6.86964 10 6.48947 10 6C10 5.52689 9.83872 5.0308 9.50028 4.64641C9.15318 4.25219 8.64033 4 8.00001 4C7.43664 4 6.97193 4.19522 6.63198 4.51064Z" />
	<path d="M15 8C15 9.39011 14.5948 10.6856 13.8961 11.7747L14.6178 12.4964C15.4901 11.215 16 9.66705 16 8C16 3.58172 12.4183 0 8.00001 0C6.33296 0 4.785 0.5099 3.50358 1.38225L4.22528 2.10394C5.31444 1.4052 6.6099 1 8.00001 1C11.866 1 15 4.13401 15 8Z" />
</svg>
