<svg width="16" height="16" viewBox="0 0 16 16" xmlns="http://www.w3.org/2000/svg">
	<path d="M2.66406 6C2.66406 5.90625 2.68229 5.82031 2.71875 5.74219C2.75521 5.65885 2.80208 5.58854 2.85938 5.53125C2.92188 5.46875 2.99219 5.41927 3.07031 5.38281C3.15365 5.34635 3.24219 5.32812 3.33594 5.32812C3.4349 5.32812 3.52083 5.34635 3.59375 5.38281C3.66667 5.41406 3.73698 5.46354 3.80469 5.53125L8 9.72656L12.1953 5.53125C12.3307 5.39583 12.487 5.32812 12.6641 5.32812C12.7578 5.32812 12.8438 5.34635 12.9219 5.38281C13.0052 5.41927 13.0755 5.46875 13.1328 5.53125C13.1953 5.58854 13.2448 5.65885 13.2812 5.74219C13.3177 5.82031 13.3359 5.90625 13.3359 6C13.3359 6.18229 13.2708 6.33854 13.1406 6.46875L8.46875 11.1406C8.33854 11.2708 8.18229 11.3359 8 11.3359C7.81771 11.3359 7.66146 11.2708 7.53125 11.1406L2.85938 6.46875C2.72917 6.33854 2.66406 6.18229 2.66406 6Z" />
</svg>
