<svg width="16" height="16" viewBox="0 0 16 16" xmlns="http://www.w3.org/2000/svg">
	<path d="M2 10.5C2 10.3646 2.04948 10.2474 2.14844 10.1484L7.64844 4.64844C7.7474 4.54948 7.86458 4.5 8 4.5C8.13542 4.5 8.2526 4.54948 8.35156 4.64844L13.8516 10.1484C13.9505 10.2474 14 10.3646 14 10.5C14 10.6354 13.9505 10.7526 13.8516 10.8516C13.7526 10.9505 13.6354 11 13.5 11C13.3646 11 13.2474 10.9505 13.1484 10.8516L8 5.71094L2.85156 10.8516C2.7526 10.9505 2.63542 11 2.5 11C2.36458 11 2.2474 10.9505 2.14844 10.8516C2.04948 10.7526 2 10.6354 2 10.5Z" />
</svg>

