<svg width="16" height="16" viewBox="0 0 16 16" xmlns="http://www.w3.org/2000/svg">
	<path d="M2.66406 10C2.66406 9.81771 2.72917 9.66146 2.85938 9.53125L7.53125 4.85938C7.66146 4.72917 7.81771 4.66406 8 4.66406C8.18229 4.66406 8.33854 4.72917 8.46875 4.85938L13.1406 9.53125C13.2708 9.66146 13.3359 9.81771 13.3359 10C13.3359 10.1875 13.2682 10.3464 13.1328 10.4766C13.0026 10.6016 12.8464 10.6641 12.6641 10.6641C12.4818 10.6641 12.3255 10.599 12.1953 10.4688L8 6.27344L3.80469 10.4688C3.67448 10.599 3.51823 10.6641 3.33594 10.6641C3.15365 10.6641 2.99479 10.6016 2.85938 10.4766C2.72917 10.3464 2.66406 10.1875 2.66406 10Z" />
</svg>
