<svg width="16" height="16" viewBox="0 0 16 16" xmlns="http://www.w3.org/2000/svg">
	<path d="M5.33594 12.6641C5.33594 12.4818 5.40104 12.3255 5.53125 12.1953L9.72656 8L5.53125 3.80469C5.40104 3.67448 5.33594 3.51823 5.33594 3.33594C5.33594 3.15365 5.39844 2.9974 5.52344 2.86719C5.65365 2.73177 5.8125 2.66406 6 2.66406C6.18229 2.66406 6.33854 2.72917 6.46875 2.85938L11.1406 7.53125C11.2708 7.66146 11.3359 7.81771 11.3359 8C11.3359 8.18229 11.2708 8.33854 11.1406 8.46875L6.46875 13.1406C6.33854 13.2708 6.18229 13.3359 6 13.3359C5.8125 13.3359 5.65365 13.2708 5.52344 13.1406C5.39844 13.0052 5.33594 12.8464 5.33594 12.6641Z" />
</svg>
