<svg width="7" height="12" viewBox="0 0 7 12" xmlns="http://www.w3.org/2000/svg">
	<path d="M0.335938 10.6641C0.335938 10.4818 0.401042 10.3255 0.53125 10.1953L4.72656 6L0.53125 1.80469C0.401042 1.67448 0.335938 1.51823 0.335938 1.33594C0.335938 1.15365 0.398438 0.997396 0.523438 0.867188C0.653646 0.731771 0.8125 0.664062 1 0.664062C1.18229 0.664062 1.33854 0.729167 1.46875 0.859375L6.14062 5.53125C6.27083 5.66146 6.33594 5.81771 6.33594 6C6.33594 6.18229 6.27083 6.33854 6.14062 6.46875L1.46875 11.1406C1.33854 11.2708 1.18229 11.3359 1 11.3359C0.8125 11.3359 0.653646 11.2708 0.523438 11.1406C0.398438 11.0052 0.335938 10.8464 0.335938 10.6641Z" />
</svg>
