<svg width="12" height="7" viewBox="0 0 12 7" xmlns="http://www.w3.org/2000/svg">
	<path d="M0.664062 6C0.664062 5.81771 0.729167 5.66146 0.859375 5.53125L5.53125 0.859375C5.66146 0.729167 5.81771 0.664062 6 0.664062C6.18229 0.664062 6.33854 0.729167 6.46875 0.859375L11.1406 5.53125C11.2708 5.66146 11.3359 5.81771 11.3359 6C11.3359 6.1875 11.2682 6.34635 11.1328 6.47656C11.0026 6.60156 10.8464 6.66406 10.6641 6.66406C10.4818 6.66406 10.3255 6.59896 10.1953 6.46875L6 2.27344L1.80469 6.46875C1.67448 6.59896 1.51823 6.66406 1.33594 6.66406C1.15365 6.66406 0.994792 6.60156 0.859375 6.47656C0.729167 6.34635 0.664062 6.1875 0.664062 6Z" />
</svg>
