<svg width="12" height="7" viewBox="0 0 12 7" xmlns="http://www.w3.org/2000/svg">
	<path d="M0.664062 1C0.664062 0.90625 0.682292 0.820312 0.71875 0.742188C0.755208 0.658854 0.802083 0.588542 0.859375 0.53125C0.921875 0.46875 0.992188 0.419271 1.07031 0.382812C1.15365 0.346354 1.24219 0.328125 1.33594 0.328125C1.4349 0.328125 1.52083 0.346354 1.59375 0.382812C1.66667 0.414062 1.73698 0.463542 1.80469 0.53125L6 4.72656L10.1953 0.53125C10.3307 0.395833 10.487 0.328125 10.6641 0.328125C10.7578 0.328125 10.8438 0.346354 10.9219 0.382812C11.0052 0.419271 11.0755 0.46875 11.1328 0.53125C11.1953 0.588542 11.2448 0.658854 11.2812 0.742188C11.3177 0.820312 11.3359 0.90625 11.3359 1C11.3359 1.18229 11.2708 1.33854 11.1406 1.46875L6.46875 6.14062C6.33854 6.27083 6.18229 6.33594 6 6.33594C5.81771 6.33594 5.66146 6.27083 5.53125 6.14062L0.859375 1.46875C0.729167 1.33854 0.664062 1.18229 0.664062 1Z" />
</svg>
