<svg width="16" height="16" viewBox="0 0 16 16" xmlns="http://www.w3.org/2000/svg">
	<path fill-rule="evenodd" clip-rule="evenodd" d="M0 3V13C0 14.1046 0.895431 15 2 15H14C15.1046 15 16 14.1046 16 13V3C16 1.89543 15.1046 1 14 1H2C0.895431 1 0 1.89543 0 3ZM1 13C1 13.5523 1.44772 14 2 14H3V13.9146C2.4174 13.7087 2 13.1531 2 12.5C2 11.8469 2.4174 11.2913 3 11.0854V11H1V13ZM4 13.9146C4.5826 13.7087 5 13.1531 5 12.5C5 11.8469 4.5826 11.2913 4 11.0854V11H6V14H4V13.9146ZM14 14H13V11H15V13C15 13.5523 14.5523 14 14 14ZM15 10H13V7H15V10ZM7 14V11H9V14H7ZM10 11V14H12V11H10ZM10 6H12V5.91465C11.4174 5.70873 11 5.15311 11 4.5C11 3.84689 11.4174 3.29127 12 3.08535V3H10V6ZM13 3.08535V3H14C14.5523 3 15 3.44772 15 4V6H13V5.91465C13.5826 5.70873 14 5.15311 14 4.5C14 3.84689 13.5826 3.29127 13 3.08535ZM9 7H7V7.08535C7.5826 7.29127 8 7.84689 8 8.5C8 9.15311 7.5826 9.70873 7 9.91465V10H9V7ZM6 7V7.08535C5.4174 7.29127 5 7.84689 5 8.5C5 9.15311 5.4174 9.70873 6 9.91465V10H4V7H6ZM10 10V7H12V10H10ZM9 6H7V3H9V6ZM4 3H6V6H4V3ZM3 7V10H1V7H3ZM3 3H2C1.44772 3 1 3.44772 1 4V6H3V3Z" />
</svg>
