<svg width="16" height="16" viewBox="0 0 16 16" xmlns="http://www.w3.org/2000/svg">
	<path d="M8.00003 0.5C8.27617 0.5 8.50003 0.723858 8.50003 1V1.5C8.50003 1.77614 8.27617 2 8.00003 2C7.72389 2 7.50003 1.77614 7.50003 1.5V1C7.50003 0.723858 7.72389 0.5 8.00003 0.5Z" />
	<path d="M8.00003 3C8.27617 3 8.50003 3.22386 8.50003 3.5V4.5C8.50003 4.77614 8.27617 5 8.00003 5C7.72389 5 7.50003 4.77614 7.50003 4.5V3.5C7.50003 3.22386 7.72389 3 8.00003 3Z" />
	<path fill-rule="evenodd" clip-rule="evenodd" d="M8.00003 6C8.27617 6 8.50003 6.22386 8.50003 6.5V6.56301C9.20283 6.7439 9.75613 7.2972 9.93702 8H11.5317C11.9768 8 12.399 8.19773 12.684 8.53972L14.4396 10.6465C14.8406 11.1276 14.9004 11.8072 14.5896 12.351L12.9342 15.2481C12.7971 15.4878 12.4917 15.5711 12.252 15.4341C12.0122 15.2971 11.9289 14.9917 12.0659 14.7519L13.7214 11.8548C13.825 11.6736 13.805 11.447 13.6714 11.2867L11.9158 9.17991C11.8208 9.06591 11.68 9 11.5317 9H9.93702C9.75613 9.7028 9.20283 10.2561 8.50003 10.437V13C8.50003 13.2761 8.27617 13.5 8.00003 13.5C7.72389 13.5 7.50003 13.2761 7.50003 13V10.437C6.79723 10.2561 6.24393 9.7028 6.06304 9H4.46841C4.32002 9 4.17929 9.06591 4.08429 9.17991L2.32867 11.2867C2.19502 11.447 2.17508 11.6736 2.27866 11.8548L3.93415 14.7519C4.07116 14.9917 3.98786 15.2971 3.7481 15.4341C3.50834 15.5711 3.20291 15.4878 3.06591 15.2481L1.41042 12.351C1.09969 11.8072 1.15951 11.1276 1.56045 10.6465L3.31607 8.53972C3.60106 8.19773 4.02324 8 4.46841 8H6.06304C6.24393 7.2972 6.79723 6.7439 7.50003 6.56301V6.5C7.50003 6.22386 7.72389 6 8.00003 6ZM7.00006 8.50777V8.49223C7.00424 7.94352 7.45034 7.5 8.00003 7.5C8.54974 7.5 8.99586 7.94356 9 8.49229V8.50771C8.99586 9.05644 8.54974 9.5 8.00003 9.5C7.45034 9.5 7.00424 9.05648 7.00006 8.50777Z" />
</svg>
