<svg width="16" height="16" viewBox="0 0 16 16" xmlns="http://www.w3.org/2000/svg">
	<path d="M14.5 5.5C14.5 5.66346 14.4888 5.82431 14.4671 5.98181L15.3038 6.81846C15.4314 6.40148 15.5 5.95876 15.5 5.5C15.5 3.01472 13.4853 1 11 1C8.51472 1 6.5 3.01472 6.5 5.5C6.5 6.70275 6.97186 7.79529 7.74056 8.60261L8.44795 7.89522C7.86008 7.26911 7.5 6.42661 7.5 5.5C7.5 3.567 9.067 2 11 2C12.933 2 14.5 3.567 14.5 5.5Z" />
	<path d="M1 2.5C1 2.22386 1.22386 2 1.5 2H5.5C5.77614 2 6 2.22386 6 2.5C6 2.77614 5.77614 3 5.5 3H1.5C1.22386 3 1 2.77614 1 2.5Z" />
	<path d="M0 5.5C0 5.22386 0.223858 5 0.5 5H4.5C4.77614 5 5 5.22386 5 5.5C5 5.77614 4.77614 6 4.5 6H0.5C0.223858 6 0 5.77614 0 5.5Z" />
	<path d="M1 8.5C1 8.22386 1.22386 8 1.5 8H5.5C5.77614 8 6 8.22386 6 8.5C6 8.77614 5.77614 9 5.5 9H1.5C1.22386 9 1 8.77614 1 8.5Z" />
	<path fill-rule="evenodd" clip-rule="evenodd" d="M6.43873 13.4658C5.85308 12.8801 5.85367 11.93 6.44004 11.3437L11.3435 6.44016C11.9299 5.85379 12.88 5.8532 13.4657 6.43885L15.561 8.53419C16.1467 9.11985 16.1461 10.07 15.5597 10.6563L11.216 15H13.747C14.0231 15 14.247 15.2239 14.247 15.5C14.247 15.7761 14.0231 16 13.747 16H9.65491V15.9988C9.25111 16.0151 8.84216 15.8692 8.53408 15.5611L6.43873 13.4658ZM12.0507 7.14727L8.45242 10.7455L11.2544 13.5475L14.8526 9.94922C15.0493 9.75255 15.0482 9.4356 14.8539 9.2413L12.7586 7.14596C12.5643 6.95165 12.2473 6.9506 12.0507 7.14727ZM10.5473 14.2546L7.74532 11.4526L7.14715 12.0508C6.95048 12.2474 6.95154 12.5644 7.14584 12.7587L9.24118 14.854C9.43549 15.0483 9.75243 15.0494 9.9491 14.8527L10.5473 14.2546Z" />
</svg>
