<svg width="16" height="16" viewBox="0 0 16 16" xmlns="http://www.w3.org/2000/svg">
	<path d="M6.43875 13.4658C5.8531 12.8801 5.85369 11.93 6.44006 11.3437L11.3436 6.44016C11.9299 5.85379 12.88 5.8532 13.4657 6.43885L15.561 8.53419C16.1467 9.11985 16.1461 10.07 15.5597 10.6563L11.2161 15H13.747C14.0231 15 14.247 15.2239 14.247 15.5C14.247 15.7761 14.0231 16 13.747 16H9.65492V15.9988C9.25113 16.0151 8.84218 15.8692 8.53409 15.5611L6.43875 13.4658ZM12.0507 7.14727L8.45244 10.7455L11.2544 13.5475L14.8526 9.94922C15.0493 9.75255 15.0482 9.4356 14.8539 9.2413L12.7586 7.14596C12.5643 6.95165 12.2473 6.9506 12.0507 7.14727ZM10.5473 14.2546L7.74533 11.4526L7.14717 12.0508C6.95049 12.2474 6.95155 12.5644 7.14586 12.7587L9.2412 14.854C9.4355 15.0483 9.75245 15.0494 9.94912 14.8527L10.5473 14.2546Z" />
	<path d="M9.49643 1.78213C9.69169 1.58686 9.69169 1.27028 9.49643 1.07502C9.30117 0.879756 8.98458 0.879756 8.78932 1.07502L6.57145 3.29289L5.63929 2.36073C5.44402 2.16547 5.12744 2.16547 4.93218 2.36073C4.73692 2.55599 4.73692 2.87258 4.93218 3.06784L5.25843 3.39409L3.33669 5.31583C1.97987 6.67265 1.86975 8.80405 3.0063 10.2866L1.07504 12.2179C0.879773 12.4131 0.879773 12.7297 1.07504 12.925C1.2703 13.1202 1.58688 13.1202 1.78214 12.925L3.71341 10.9937C4.08401 11.2778 4.49515 11.484 4.92461 11.6123C5.02178 11.3901 5.1613 11.1819 5.34319 11L5.60229 10.7409C5.03196 10.6567 4.48276 10.3952 4.04379 9.95622C2.95765 8.87008 2.95765 7.10909 4.04379 6.02294L5.96554 4.1012L9.10376 7.23942L11 5.34315C11.0217 5.32153 11.0437 5.30051 11.066 5.28008L12.0302 4.3159C12.2254 4.12064 12.2254 3.80405 12.0302 3.60879C11.8349 3.41353 11.5183 3.41353 11.3231 3.60879L9.10521 5.82666L7.27855 4L9.49643 1.78213Z" />
</svg>
