<svg width="16" height="16" viewBox="0 0 16 16" xmlns="http://www.w3.org/2000/svg">
	<path d="M6.5 4C6.5 3.72386 6.27614 3.5 6 3.5C5.72386 3.5 5.5 3.72386 5.5 4V12C5.5 12.2761 5.72386 12.5 6 12.5C6.27614 12.5 6.5 12.2761 6.5 12V4Z" />
	<path d="M10.5 4C10.5 3.72386 10.2761 3.5 10 3.5C9.72386 3.5 9.5 3.72386 9.5 4V12C9.5 12.2761 9.72386 12.5 10 12.5C10.2761 12.5 10.5 12.2761 10.5 12V4Z" />
	<path d="M2.64645 6.14645C2.84171 5.95118 3.15829 5.95118 3.35355 6.14645L4.85356 7.64645C4.90302 7.69591 4.93996 7.75316 4.96436 7.81425C4.98481 7.86533 4.99708 7.92057 4.99954 7.97834C5.00016 7.99277 5.00016 8.00723 4.99954 8.02166C4.99708 8.07943 4.98481 8.13467 4.96436 8.18575C4.93996 8.24684 4.90302 8.30409 4.85356 8.35355L4.85212 8.35499L3.35355 9.85355C3.15829 10.0488 2.84171 10.0488 2.64645 9.85355C2.45118 9.65829 2.45118 9.34171 2.64645 9.14645L3.29289 8.5H0.5C0.223858 8.5 0 8.27614 0 8C0 7.72386 0.223858 7.5 0.5 7.5H3.2929L2.64645 6.85355C2.45118 6.65829 2.45118 6.34171 2.64645 6.14645Z" />
	<path d="M12.6464 6.14645C12.8417 5.95118 13.1583 5.95118 13.3536 6.14645C13.5488 6.34171 13.5488 6.65829 13.3536 6.85355L12.7071 7.5H15.5C15.7761 7.5 16 7.72386 16 8C16 8.27614 15.7761 8.5 15.5 8.5H12.7071L13.3536 9.14645C13.5488 9.34171 13.5488 9.65829 13.3536 9.85355C13.1583 10.0488 12.8417 10.0488 12.6464 9.85355L11.1479 8.35499L11.1464 8.35355C11.097 8.30409 11.06 8.24684 11.0356 8.18575C11.0152 8.13467 11.0029 8.07943 11.0005 8.02166C10.9998 8.00723 10.9998 7.99277 11.0005 7.97834C11.0029 7.92057 11.0152 7.86533 11.0356 7.81425C11.06 7.75316 11.097 7.69591 11.1464 7.64645L12.6464 6.14645Z" />
</svg>
