<svg width="17" height="17" viewBox="0 0 17 17" xmlns="http://www.w3.org/2000/svg">
	<path d="M6 0C4.89543 0 4 0.895431 4 2V12C4 13.1046 4.89543 14 6 14H7.20703C7.11588 13.6777 7.05337 13.3434 7.02242 13H6C5.44772 13 5 12.5523 5 12V2C5 1.44772 5.44772 1 6 1H12C12.5523 1 13 1.44772 13 2V7.02242C13.3434 7.05337 13.6777 7.11588 14 7.20703V2C14 0.89543 13.1046 0 12 0H6ZM5.5 15H7.59972C7.78261 15.3578 8.00354 15.6929 8.25717 16H5.5C3.567 16 2 14.433 2 12.5V4.00001C2 3.25973 2.4022 2.61339 3 2.26758V12.5C3 13.8807 4.11929 15 5.5 15ZM17 12.5C17 14.9853 14.9853 17 12.5 17C10.0147 17 8 14.9853 8 12.5C8 10.0147 10.0147 8 12.5 8C14.9853 8 17 10.0147 17 12.5ZM13 10.5C13 10.2239 12.7761 10 12.5 10C12.2239 10 12 10.2239 12 10.5V12H10.5C10.2239 12 10 12.2239 10 12.5C10 12.7761 10.2239 13 10.5 13H12V14.5C12 14.7761 12.2239 15 12.5 15C12.7761 15 13 14.7761 13 14.5V13H14.5C14.7761 13 15 12.7761 15 12.5C15 12.2239 14.7761 12 14.5 12H13V10.5Z" />
</svg>
