<svg width="16" height="16" viewBox="0 0 16 16" xmlns="http://www.w3.org/2000/svg">
	<path d="M3.70295 4.0431C3.45061 3.93094 3.15513 4.04459 3.04298 4.29693C2.93082 4.54927 3.04447 4.84475 3.29681 4.95691L7.49975 6.82494V11.5C7.49975 11.7761 7.72361 12 7.99975 12C8.27589 12 8.49975 11.7761 8.49975 11.5V6.82494L12.7029 4.95691C12.9553 4.84476 13.0689 4.54928 12.9568 4.29694C12.8446 4.0446 12.5492 3.93095 12.2968 4.04309L7.99976 5.95284L3.70295 4.0431ZM9.29987 0.481411C8.46543 0.147635 7.53457 0.147635 6.70013 0.481411L0.942914 2.7843C0.373427 3.01209 0 3.56366 0 4.17701V11.8229C0 12.4363 0.373427 12.9879 0.942914 13.2157L6.70013 15.5185C7.53457 15.8523 8.46543 15.8523 9.29987 15.5185L15.0571 13.2157C15.6266 12.9879 16 12.4363 16 11.8229V4.17701C16 3.56366 15.6266 3.01209 15.0571 2.7843L9.29987 0.481411ZM7.07152 1.40989C7.66755 1.17148 8.33245 1.17148 8.92848 1.40989L14.6857 3.71277C14.8755 3.78871 15 3.97256 15 4.17701V11.8229C15 12.0274 14.8755 12.2113 14.6857 12.2872L8.92848 14.5901C8.33245 14.8285 7.66755 14.8285 7.07152 14.5901L1.3143 12.2872C1.12448 12.2113 1 12.0274 1 11.8229V4.17701C1 3.97256 1.12448 3.78871 1.31431 3.71277L7.07152 1.40989Z" />
</svg>
