<svg version="1.1" viewBox="0 0 16 16" xmlns="http://www.w3.org/2000/svg">
	<path d="m14 1.5c-1.9586 0-3.5272 1.6581-4.6484 3.207-1.1212 1.5489-1.8086 3.0879-1.8086 3.0879l-0.0097657 0.023438-0.0078125 0.023438s-0.48408 1.4449-1.4414 2.8809c-0.95733 1.436-2.334 2.7773-4.084 2.7773a0.5 0.5 0 0 0-0.5 0.5 0.5 0.5 0 0 0 0.5 0.5c2.25 0 3.8733-1.6587 4.916-3.2227 1.0427-1.564 1.5586-3.1191 1.5586-3.1191l-0.017578 0.046875s0.65471-1.461 1.7051-2.9121c1.0504-1.4511 2.4828-2.793 3.8379-2.793a0.5 0.5 0 0 0 0.5-0.5 0.5 0.5 0 0 0-0.5-0.5z" />
</svg>
