<svg width="16" height="16" viewBox="0 0 16 16" xmlns="http://www.w3.org/2000/svg">
	<path d="M4.39804 9.80852C4.57428 9.93282 4.78476 9.99937 5.00043 9.999C5.21633 9.99916 5.42686 9.93166 5.60243 9.806C5.77993 9.67552 5.91464 9.49521 5.98943 9.288L6.43643 7.915C6.55086 7.57071 6.74391 7.2578 7.00028 7.00108C7.25665 6.74436 7.56929 6.55089 7.91343 6.436L9.30443 5.98499C9.45636 5.93064 9.59364 5.84184 9.70551 5.72555C9.81738 5.60926 9.9008 5.46865 9.94924 5.31473C9.99767 5.1608 10.0098 4.99776 9.98468 4.83836C9.95955 4.67897 9.89786 4.52756 9.80443 4.396C9.67034 4.21007 9.47939 4.07283 9.26043 4.005L7.88543 3.558C7.54091 3.44377 7.22777 3.2508 6.97087 2.99441C6.71396 2.73803 6.52035 2.42528 6.40543 2.081L5.95343 0.692996C5.88113 0.490692 5.74761 0.315931 5.57143 0.192996C5.43877 0.0992689 5.28607 0.0377879 5.12548 0.0134421C4.96489 -0.0109036 4.80083 0.00255707 4.64636 0.0527544C4.49188 0.102952 4.35125 0.188501 4.23564 0.302598C4.12004 0.416695 4.03265 0.556192 3.98043 0.709996L3.52343 2.11C3.40884 2.44482 3.21967 2.74923 2.97022 3.00025C2.72076 3.25126 2.41753 3.44232 2.08343 3.559L0.692428 4.007C0.540653 4.06139 0.403522 4.15017 0.291767 4.26638C0.180011 4.3826 0.0966621 4.5231 0.0482407 4.67688C-0.000180673 4.83067 -0.0123605 4.99357 0.0126534 5.15285C0.0376676 5.31213 0.0991972 5.46346 0.192428 5.595C0.320272 5.77445 0.501046 5.90942 0.709428 5.981L2.08343 6.42599C2.52354 6.57248 2.90999 6.84682 3.19343 7.21399C3.35585 7.42463 3.4813 7.66133 3.56443 7.914L4.01643 9.305C4.08846 9.50828 4.22179 9.68421 4.39804 9.80852ZM4.48343 2.394L5.01043 1.017L5.44943 2.394C5.61312 2.88714 5.88991 3.33516 6.25767 3.70223C6.62544 4.06929 7.07397 4.34524 7.56743 4.508L8.97343 5.03699L7.59143 5.48499C7.09866 5.64929 6.65095 5.92616 6.28382 6.29363C5.9167 6.6611 5.64026 7.10907 5.47643 7.602L4.95343 8.98L4.50443 7.601C4.34335 7.10772 4.06943 6.65883 3.70443 6.29C3.3356 5.92196 2.88653 5.64437 2.39243 5.479L1.01443 4.957L2.40043 4.507C2.88672 4.33836 3.32775 4.0602 3.68943 3.694C4.04901 3.32629 4.32049 2.8818 4.48343 2.394Z" />
	<path d="M15.4432 6.56064C14.6956 5.81309 13.4836 5.81309 12.736 6.56065L12.1853 7.11142C12.1719 7.1223 12.1589 7.13398 12.1464 7.14645C12.134 7.15892 12.1223 7.17189 12.1114 7.18529L6.65035 12.6464C6.58073 12.7161 6.53322 12.8047 6.51376 12.9012L6.00986 15.4012C5.9768 15.5652 6.02795 15.7348 6.14613 15.8532C6.26431 15.9716 6.43387 16.0231 6.59791 15.9903L9.10182 15.4903C9.19867 15.471 9.28763 15.4234 9.35746 15.3535L15.4432 9.26773C16.1907 8.52019 16.1907 7.30818 15.4432 6.56064ZM12.5019 8.20902L13.7948 9.50191L8.75746 14.5393L7.13853 14.8626L7.46422 13.2468L12.5019 8.20902ZM14.5019 8.7948L13.209 7.5019L13.4432 7.26775C13.8002 6.91072 14.379 6.91072 14.7361 7.26775C15.0931 7.62477 15.0931 8.20361 14.7361 8.56063L14.5019 8.7948Z" />
</svg>
