<svg width="16" height="16" viewBox="0 0 16 16" xmlns="http://www.w3.org/2000/svg">
	<path d="M3.91939 0.22774C3.769 -0.00385295 3.45933 -0.0696746 3.22774 0.0807233C2.99615 0.231121 2.93033 0.540786 3.08072 0.772378L7.40382 7.42936L5.4809 10.3904C5.04398 10.1419 4.53857 10 4 10C2.34315 10 1 11.3431 1 13C1 14.6569 2.34315 16 4 16C5.65685 16 7 14.6569 7 13C7 12.2446 6.72078 11.5543 6.25991 11.0269L8 8.3474L9.7401 11.0269C9.27922 11.5543 9 12.2446 9 13C9 14.6569 10.3431 16 12 16C13.6569 16 15 14.6569 15 13C15 11.3431 13.6569 10 12 10C11.4614 10 10.956 10.1419 10.5191 10.3904L3.91939 0.22774ZM12 15C10.8954 15 10 14.1046 10 13C10 11.8954 10.8954 11 12 11C13.1046 11 14 11.8954 14 13C14 14.1046 13.1046 15 12 15ZM2 13C2 11.8954 2.89543 11 4 11C5.10457 11 6 11.8954 6 13C6 14.1046 5.10457 15 4 15C2.89543 15 2 14.1046 2 13ZM9.19236 6.51133L8.59618 5.59329L12.0806 0.22774C12.231 -0.00385295 12.5407 -0.0696746 12.7723 0.0807233C13.0039 0.231121 13.0697 0.540786 12.9193 0.772378L9.19236 6.51133Z" />
</svg>
