<svg width="8" height="2" viewBox="0 0 8 2" xmlns="http://www.w3.org/2000/svg">
	<path d="M0.501953 1.49805C0.431641 1.49805 0.365234 1.48633 0.302734 1.46289C0.244141 1.43555 0.191406 1.40039 0.144531 1.35742C0.101562 1.31055 0.0664062 1.25781 0.0390625 1.19922C0.0117188 1.13672 -0.00195312 1.07031 -0.00195312 1C-0.00195312 0.929688 0.0117188 0.865234 0.0390625 0.806641C0.0664062 0.744141 0.101562 0.691406 0.144531 0.648438C0.191406 0.601562 0.244141 0.566406 0.302734 0.542969C0.365234 0.515625 0.431641 0.501953 0.501953 0.501953H7.49805C7.56836 0.501953 7.63281 0.515625 7.69141 0.542969C7.75391 0.566406 7.80664 0.601562 7.84961 0.648438C7.89648 0.691406 7.93359 0.744141 7.96094 0.806641C7.98828 0.865234 8.00195 0.929688 8.00195 1C8.00195 1.07031 7.98828 1.13672 7.96094 1.19922C7.93359 1.25781 7.89648 1.31055 7.84961 1.35742C7.80664 1.40039 7.75391 1.43555 7.69141 1.46289C7.63281 1.48633 7.56836 1.49805 7.49805 1.49805H0.501953Z" />
</svg>
