<svg width="16" height="16" viewBox="0 0 16 16" xmlns="http://www.w3.org/2000/svg">
	<path d="M11 1C11.2761 1 11.5 1.22386 11.5 1.5C11.5 1.77614 11.2761 2 11 2H8.5V6.09471L7.5 6.56137V2H5C4.72386 2 4.5 1.77614 4.5 1.5C4.5 1.22386 4.72386 1 5 1H11Z" />
	<path d="M7.5 9.87196L8.5 9.40529V14H11C11.2761 14 11.5 14.2239 11.5 14.5C11.5 14.7761 11.2761 15 11 15H5C4.72386 15 4.5 14.7761 4.5 14.5C4.5 14.2239 4.72386 14 5 14H7.5V9.87196Z" />
	<path d="M15.7114 4.95309C15.9617 4.83631 16.0699 4.53879 15.9531 4.28856C15.8363 4.03832 15.5388 3.93013 15.2886 4.04691L0.288554 11.0469C0.0383188 11.1637 -0.069871 11.4612 0.0469056 11.7114C0.163682 11.9617 0.461204 12.0699 0.71144 11.9531L15.7114 4.95309Z" />
</svg>
