<svg width="16" height="16" viewBox="0 0 16 16" xmlns="http://www.w3.org/2000/svg">
	<path fill-rule="evenodd" clip-rule="evenodd" d="M1 4V11.5C1 12.3284 1.67157 13 2.5 13H8.13059L7.6911 13.7612C7.64602 13.8393 7.60636 13.9191 7.57203 14H2.5C1.11929 14 0 12.8807 0 11.5V2.5C0 1.11929 1.11929 0 2.5 0H11.5C12.8807 0 14 1.11929 14 2.5V4.78556C13.9709 4.77734 13.9413 4.77041 13.9112 4.76482C13.6084 4.70852 13.3025 4.6902 13 4.7081V4H1ZM2.5 1H11.5C12.3284 1 13 1.67157 13 2.5V3H1V2.5C1 1.67157 1.67157 1 2.5 1Z" />
	<path d="M8.85355 5.14645L10.0819 6.37481C10.0349 6.44503 9.98986 6.5173 9.94698 6.59158C9.8096 6.82952 9.70107 7.07613 9.62027 7.32738L8.14645 5.85355C7.95118 5.65829 7.95118 5.34171 8.14645 5.14645C8.34171 4.95118 8.65829 4.95118 8.85355 5.14645Z" />
	<path d="M9.74344 9.96367C9.59086 9.60509 9.49409 9.22431 9.45712 8.83578L8.14645 10.1464C7.95118 10.3417 7.95118 10.6583 8.14645 10.8536C8.34171 11.0488 8.65829 11.0488 8.85355 10.8536L9.74344 9.96367Z" />
	<path d="M6.35355 5.14645C6.54882 5.34171 6.54882 5.65829 6.35355 5.85355L4.20711 8L6.35355 10.1464C6.54882 10.3417 6.54882 10.6583 6.35355 10.8536C6.15829 11.0488 5.84171 11.0488 5.64645 10.8536L3.14645 8.35355C2.95118 8.15829 2.95118 7.84171 3.14645 7.64645L5.64645 5.14645C5.84171 4.95118 6.15829 4.95118 6.35355 5.14645Z" />
	<path d="M10.9598 10.0999C10.3451 9.24032 10.2503 8.06635 10.8131 7.09158C11.4182 6.04352 12.6028 5.53863 13.7285 5.74797L12.4178 8.01804C12.162 8.46117 12.3138 9.02779 12.7569 9.28363C13.2001 9.53947 13.7667 9.38765 14.0225 8.94452L15.3332 6.67447C16.0772 7.54466 16.2323 8.82297 15.6272 9.87101C15.0683 10.8391 14.0149 11.3438 12.9702 11.2501L10.5631 15.4193C10.2433 15.9732 9.53501 16.163 8.9811 15.8432C8.42719 15.5234 8.23741 14.8151 8.5572 14.2612L10.9598 10.0999Z" />
</svg>
