<svg width="16" height="16" viewBox="0 0 16 16" xmlns="http://www.w3.org/2000/svg">
	<path d="M2.08859 2.21569L2.14645 2.14645C2.32001 1.97288 2.58944 1.9536 2.78431 2.08859L2.85355 2.14645L8 7.293L13.1464 2.14645C13.32 1.97288 13.5894 1.9536 13.7843 2.08859L13.8536 2.14645C14.0271 2.32001 14.0464 2.58944 13.9114 2.78431L13.8536 2.85355L8.707 8L13.8536 13.1464C14.0271 13.32 14.0464 13.5894 13.9114 13.7843L13.8536 13.8536C13.68 14.0271 13.4106 14.0464 13.2157 13.9114L13.1464 13.8536L8 8.707L2.85355 13.8536C2.67999 14.0271 2.41056 14.0464 2.21569 13.9114L2.14645 13.8536C1.97288 13.68 1.9536 13.4106 2.08859 13.2157L2.14645 13.1464L7.293 8L2.14645 2.85355C1.97288 2.67999 1.9536 2.41056 2.08859 2.21569L2.14645 2.14645L2.08859 2.21569Z" />
</svg>
