<svg width="16" height="16" viewBox="0 0 16 16" xmlns="http://www.w3.org/2000/svg">
	<path d="M4 0C2.89543 0 2 0.895431 2 2V14C2 15.1046 2.89543 16 4 16H12C13.1046 16 14 15.1046 14 14V5.41421C14 5.01639 13.842 4.63486 13.5607 4.35355L9.64645 0.43934C9.36514 0.158035 8.98361 0 8.58579 0H4ZM3 2C3 1.44772 3.44772 1 4 1H8V4.5C8 5.32843 8.67157 6 9.5 6H13V14C13 14.5523 12.5523 15 12 15H4C3.44772 15 3 14.5523 3 14V2ZM12.7929 5H9.5C9.22386 5 9 4.77614 9 4.5V1.20711L12.7929 5Z" />
	<path fill-rule="evenodd" clip-rule="evenodd" d="M7.5 8C7.5 7.72386 7.72386 7.5 8 7.5H11.5C11.7761 7.5 12 7.72386 12 8C12 8.27614 11.7761 8.5 11.5 8.5H8C7.72386 8.5 7.5 8.27614 7.5 8ZM5.75 10.5C5.75 10.2239 5.97386 10 6.25 10H9.75C10.0261 10 10.25 10.2239 10.25 10.5C10.25 10.7761 10.0261 11 9.75 11H6.25C5.97386 11 5.75 10.7761 5.75 10.5ZM4 13C4 12.7239 4.22386 12.5 4.5 12.5H8C8.27614 12.5 8.5 12.7239 8.5 13C8.5 13.2761 8.27614 13.5 8 13.5H4.5C4.22386 13.5 4 13.2761 4 13Z" />
</svg>
