<svg width="16" height="16" viewBox="0 0 16 16" xmlns="http://www.w3.org/2000/svg">
	<path d="M15.8536 7.64645C16.0488 7.84171 16.0488 8.15829 15.8536 8.35355L12.8536 11.3536C12.6583 11.5488 12.3417 11.5488 12.1464 11.3536C11.9512 11.1583 11.9512 10.8417 12.1464 10.6464L14.2929 8.5H5.5C5.22386 8.5 5 8.27614 5 8C5 7.72386 5.22386 7.5 5.5 7.5H14.2929L12.1464 5.35355C11.9512 5.15829 11.9512 4.84171 12.1464 4.64645C12.3417 4.45118 12.6583 4.45118 12.8536 4.64645L15.8536 7.64645ZM5.5 13.5C8.01755 13.5 10.14 11.8085 10.793 9.5H9.74394C9.12619 11.2478 7.45933 12.5 5.5 12.5C3.01472 12.5 1 10.4853 1 8C1 5.51472 3.01472 3.5 5.5 3.5C7.45933 3.5 9.12619 4.75221 9.74394 6.5H10.793C10.14 4.19149 8.01755 2.5 5.5 2.5C2.46243 2.5 0 4.96243 0 8C0 11.0376 2.46243 13.5 5.5 13.5ZM5.5 11.5C6.8962 11.5 8.10145 10.6825 8.66318 9.5H7.50018C7.04408 10.1072 6.31791 10.5 5.5 10.5C4.11929 10.5 3 9.38071 3 8C3 6.61929 4.11929 5.5 5.5 5.5C6.31791 5.5 7.04408 5.89278 7.50018 6.5H8.66318C8.10145 5.31753 6.8962 4.5 5.5 4.5C3.567 4.5 2 6.067 2 8C2 9.933 3.567 11.5 5.5 11.5Z" />
</svg>
