<svg width="16" height="16" viewBox="0 0 16 16" xmlns="http://www.w3.org/2000/svg">
	<path fill-rule="evenodd" clip-rule="evenodd" d="M1.64645 1.14645C1.84171 0.951184 2.15829 0.951184 2.35355 1.14645L4.26775 3.06064C5.35209 2.70284 6.63522 2.5 8 2.5C9.36478 2.5 10.6479 2.70284 11.7322 3.06064L13.6464 1.14645C13.8417 0.951184 14.1583 0.951184 14.3536 1.14645C14.5488 1.34171 14.5488 1.65829 14.3536 1.85355L12.7411 3.46597C12.7675 3.47877 12.7938 3.49167 12.8198 3.50469C14.0492 4.1194 15 5.06112 15 6.25V11.25C15 12.4389 14.0492 13.3806 12.8198 13.9953C11.5605 14.625 9.85572 15 8 15C6.14428 15 4.43953 14.625 3.1802 13.9953C1.95078 13.3806 1 12.4389 1 11.25V6.25C1 5.06112 1.95078 4.1194 3.1802 3.50469C3.20623 3.49167 3.23245 3.47877 3.25886 3.46597L1.64645 1.85355C1.45118 1.65829 1.45118 1.34171 1.64645 1.14645ZM4.01454 4.22165C3.87999 4.27818 3.75082 4.33741 3.62741 4.39912C2.5043 4.96067 2 5.64395 2 6.25C2 6.85605 2.5043 7.53933 3.62741 8.10088C4.72062 8.64749 6.26587 9 8 9C9.73413 9 11.2794 8.64749 12.3726 8.10088C13.4957 7.53933 14 6.85605 14 6.25C14 5.64395 13.4957 4.96067 12.3726 4.39912C12.2492 4.33741 12.12 4.27818 11.9855 4.22165L9.85355 6.35355C9.65829 6.54882 9.34171 6.54882 9.14645 6.35355C8.95118 6.15829 8.95118 5.84171 9.14645 5.64645L10.9285 3.86436C10.0651 3.6338 9.06839 3.5 8 3.5C6.93161 3.5 5.93492 3.6338 5.07147 3.86436L6.85355 5.64645C7.04882 5.84171 7.04882 6.15829 6.85355 6.35355C6.65829 6.54882 6.34171 6.54882 6.14645 6.35355L4.01454 4.22165ZM14 8.21502C13.8461 8.35155 13.6785 8.48016 13.5 8.60051V11C13.5 11.2761 13.2761 11.5 13 11.5C12.7239 11.5 12.5 11.2761 12.5 11V9.14553C11.908 9.40663 11.2327 9.61538 10.5 9.76118V12.25C10.5 12.5261 10.2761 12.75 10 12.75C9.72386 12.75 9.5 12.5261 9.5 12.25V9.91636C9.01573 9.97127 8.51365 10 8 10C7.48635 10 6.98427 9.97127 6.5 9.91636V12.25C6.5 12.5261 6.27614 12.75 6 12.75C5.72386 12.75 5.5 12.5261 5.5 12.25V9.76118C4.76726 9.61538 4.09195 9.40663 3.5 9.14553V11C3.5 11.2761 3.27614 11.5 3 11.5C2.72386 11.5 2.5 11.2761 2.5 11V8.60051C2.32151 8.48016 2.15387 8.35155 2 8.21502V11.25C2 11.856 2.5043 12.5393 3.62741 13.1009C4.72062 13.6475 6.26587 14 8 14C9.73413 14 11.2794 13.6475 12.3726 13.1009C13.4957 12.5393 14 11.856 14 11.25V8.21502Z" />
</svg>
