<svg width="16" height="16" viewBox="0 0 16 16" xmlns="http://www.w3.org/2000/svg">
	<path fill-rule="evenodd" clip-rule="evenodd" d="M9.5 6.30178C9.5 5.74496 10.1732 5.46611 10.5669 5.85983L13.6402 8.93306C14.0339 9.32679 13.755 10 13.1982 10H10.125C9.77982 10 9.5 9.72018 9.5 9.375V6.30178ZM12.2929 9L10.5 7.20711V9H12.2929Z" />
	<path fill-rule="evenodd" clip-rule="evenodd" d="M5.43306 5.85983C5.82679 5.46611 6.5 5.74496 6.5 6.30178V9.375C6.5 9.72018 6.22018 10 5.875 10H2.80178C2.24496 10 1.96611 9.32679 2.35983 8.93306L5.43306 5.85983ZM5.5 7.20711L3.70711 9H5.5V7.20711Z" />
	<path fill-rule="evenodd" clip-rule="evenodd" d="M0 4C0 2.89543 0.895431 2 2 2H14C15.1046 2 16 2.89543 16 4V12C16 13.1046 15.1046 14 14 14H2C0.895431 14 0 13.1046 0 12V4ZM8.5 3H14C14.5523 3 15 3.44772 15 4V12C15 12.5523 14.5523 13 14 13H8.5V3ZM7.5 3H2C1.44772 3 1 3.44772 1 4V12C1 12.5523 1.44772 13 2 13H7.5V3Z" />
</svg>
