<svg width="16" height="16" viewBox="0 0 16 16" xmlns="http://www.w3.org/2000/svg">
	<path d="M14 5.82812C14 6.48438 13.888 7.1276 13.6641 7.75781C13.4401 8.38802 13.1172 8.95573 12.6953 9.46094C12.6172 9.55469 12.5208 9.65365 12.4062 9.75781C12.2969 9.86198 12.1901 9.97135 12.0859 10.0859C11.9818 10.1953 11.8854 10.3073 11.7969 10.4219C11.7135 10.5365 11.6589 10.6536 11.6328 10.7734L10.7578 14.4609C10.7005 14.6901 10.612 14.8984 10.4922 15.0859C10.3724 15.2734 10.2266 15.4349 10.0547 15.5703C9.88281 15.7057 9.6901 15.8125 9.47656 15.8906C9.26823 15.9635 9.04688 16 8.8125 16H7.1875C6.95312 16 6.72917 15.9635 6.51562 15.8906C6.30729 15.8125 6.11719 15.7057 5.94531 15.5703C5.77344 15.4297 5.625 15.2656 5.5 15.0781C5.38021 14.8906 5.29427 14.6849 5.24219 14.4609L4.35156 10.7578C4.32031 10.6328 4.26302 10.513 4.17969 10.3984C4.10156 10.2839 4.01042 10.1745 3.90625 10.0703C3.80208 9.96094 3.69531 9.85677 3.58594 9.75781C3.47656 9.65365 3.38021 9.55208 3.29688 9.45312C2.875 8.94792 2.55208 8.38281 2.32812 7.75781C2.10938 7.1276 2 6.48438 2 5.82812C2 5.28125 2.07292 4.75781 2.21875 4.25781C2.36458 3.7526 2.57031 3.28385 2.83594 2.85156C3.10156 2.41927 3.41667 2.02865 3.78125 1.67969C4.15104 1.32552 4.55729 1.02604 5 0.78125C5.44792 0.53125 5.92448 0.338542 6.42969 0.203125C6.9349 0.0677083 7.45833 0 8 0C8.53646 0 9.05729 0.0677083 9.5625 0.203125C10.0729 0.338542 10.5495 0.53125 10.9922 0.78125C11.4349 1.03125 11.8411 1.33333 12.2109 1.6875C12.5807 2.03646 12.8984 2.42708 13.1641 2.85938C13.4297 3.28646 13.6354 3.7526 13.7812 4.25781C13.9271 4.75781 14 5.28125 14 5.82812ZM13 5.82812C13 5.375 12.9375 4.9401 12.8125 4.52344C12.6927 4.10677 12.5208 3.72135 12.2969 3.36719C12.0781 3.00781 11.8125 2.68229 11.5 2.39062C11.1927 2.09896 10.8542 1.85156 10.4844 1.64844C10.1146 1.4401 9.71875 1.28125 9.29688 1.17188C8.88021 1.05729 8.44792 1 8 1C7.55208 1 7.11719 1.05729 6.69531 1.17188C6.27865 1.28125 5.88542 1.4401 5.51562 1.64844C5.14583 1.85156 4.80469 2.09896 4.49219 2.39062C4.1849 2.68229 3.91927 3.00781 3.69531 3.36719C3.47656 3.72135 3.30469 4.10677 3.17969 4.52344C3.0599 4.9401 3 5.375 3 5.82812C3 6.19271 3.03646 6.53646 3.10938 6.85938C3.18229 7.17708 3.28646 7.48177 3.42188 7.77344C3.55729 8.0651 3.72396 8.34375 3.92188 8.60938C4.125 8.875 4.35417 9.13281 4.60938 9.38281C4.70312 9.47656 4.78646 9.5651 4.85938 9.64844C4.93229 9.72656 4.9974 9.8099 5.05469 9.89844C5.11198 9.98698 5.16146 10.0833 5.20312 10.1875C5.25 10.2865 5.29167 10.401 5.32812 10.5312C5.39583 10.776 5.45573 11.0208 5.50781 11.2656C5.5651 11.5052 5.6224 11.75 5.67969 12H10.3203C10.3776 11.7552 10.4323 11.513 10.4844 11.2734C10.5365 11.0286 10.5964 10.7839 10.6641 10.5391C10.7005 10.4089 10.7396 10.2943 10.7812 10.1953C10.8281 10.0911 10.8802 9.99479 10.9375 9.90625C10.9948 9.81771 11.0599 9.73438 11.1328 9.65625C11.2057 9.57292 11.2891 9.48438 11.3828 9.39062C11.638 9.14062 11.8672 8.88281 12.0703 8.61719C12.2734 8.35156 12.4427 8.07292 12.5781 7.78125C12.7135 7.48958 12.8177 7.1849 12.8906 6.86719C12.9635 6.54427 13 6.19792 13 5.82812ZM8.8125 15C9.04688 15 9.2526 14.9297 9.42969 14.7891C9.61198 14.6432 9.73177 14.4583 9.78906 14.2344C9.84635 14.0312 9.89583 13.8281 9.9375 13.625C9.98438 13.4167 10.0312 13.2083 10.0781 13H5.91406C5.96615 13.2083 6.01302 13.4167 6.05469 13.625C6.10156 13.8281 6.15365 14.0312 6.21094 14.2344C6.26823 14.4583 6.38542 14.6432 6.5625 14.7891C6.74479 14.9297 6.95312 15 7.1875 15H8.8125Z" />
</svg>
