<svg width="16" height="16" viewBox="0 0 16 16" xmlns="http://www.w3.org/2000/svg">
	<path d="M0.5 0C0.776142 0 1 0.223858 1 0.5V15.5C1 15.7761 0.776142 16 0.5 16C0.223858 16 0 15.7761 0 15.5V0.5C0 0.223858 0.223858 0 0.5 0Z" />
	<path d="M8.5 0.5C8.5 0.223858 8.27614 0 8 0C7.72386 0 7.5 0.223858 7.5 0.5V6H8.5V0.5Z" />
	<path d="M7.5 10V15.5C7.5 15.7761 7.72386 16 8 16C8.27614 16 8.5 15.7761 8.5 15.5V10H7.5Z" />
	<path d="M3 8C3 7.72386 3.22386 7.5 3.5 7.5H14.2929L11.1464 4.35355C10.9512 4.15829 10.9512 3.84171 11.1464 3.64645C11.3417 3.45118 11.6583 3.45118 11.8536 3.64645L15.8536 7.64645C15.9061 7.69898 15.9445 7.76028 15.9688 7.82563C15.989 7.87992 16 7.93867 16 8C16 8.06133 15.989 8.12008 15.9687 8.17437C15.9445 8.23973 15.9061 8.30103 15.8536 8.35355L11.8536 12.3536C11.6583 12.5488 11.3417 12.5488 11.1464 12.3536C10.9512 12.1583 10.9512 11.8417 11.1464 11.6465L14.2929 8.5H3.5C3.22386 8.5 3 8.27614 3 8Z" />
</svg>
