<svg width="16" height="16" viewBox="0 0 16 16" xmlns="http://www.w3.org/2000/svg">
	<path d="M8.50452 1.11661C8.19239 0.933787 7.80585 0.933787 7.49372 1.11661L1.48483 4.63608C0.824555 5.02281 0.82557 5.97759 1.48667 6.36292L7.49556 9.86524C7.73981 10.0076 8.02935 10.0382 8.29309 9.95713C8.56058 9.52024 8.99109 9.19399 9.5 9.06301V9C9.5 8.66197 9.55591 8.337 9.65898 8.03382L8.50269 8.70778C8.19148 8.88917 7.80676 8.88917 7.49556 8.70778L1.99023 5.49896L7.49372 2.27551C7.80585 2.09269 8.19239 2.09269 8.50452 2.27551L14.008 5.49896L13.0591 6.05201C13.4818 6.13168 13.8731 6.29999 14.2131 6.53689L14.5116 6.36292C15.1727 5.97759 15.1737 5.02281 14.5134 4.63608L8.50452 1.11661Z" />
	<path d="M7.50875 11.2725C7.66125 11.3583 7.83064 11.4011 8 11.4009V12.5484C7.82573 12.5485 7.65142 12.5032 7.49556 12.4123L1.48667 8.91C1.02254 8.63948 0.883756 8.08828 1.07073 7.65002L7.50875 11.2725Z" />
	<path d="M7.50875 13.7254C7.66125 13.8112 7.83064 13.854 8 13.8539V15L8 15.0013C7.82573 15.0015 7.65142 14.9561 7.49556 14.8653L1.48667 11.3629C1.02254 11.0924 0.883756 10.5412 1.07073 10.103L7.50875 13.7254Z" />
	<path fill-rule="evenodd" clip-rule="evenodd" d="M10.5 9V10H10C9.44772 10 9 10.4477 9 11V15C9 15.5523 9.44771 16 10 16H15C15.5523 16 16 15.5523 16 15V11C16 10.4477 15.5523 10 15 10H14.5V9C14.5 7.89543 13.6046 7 12.5 7C11.3954 7 10.5 7.89543 10.5 9ZM11.5 10V9C11.5 8.44772 11.9477 8 12.5 8C13.0523 8 13.5 8.44772 13.5 9V10H11.5ZM12.5 12.25C12.9142 12.25 13.25 12.5858 13.25 13C13.25 13.4142 12.9142 13.75 12.5 13.75C12.0858 13.75 11.75 13.4142 11.75 13C11.75 12.5858 12.0858 12.25 12.5 12.25Z" />
</svg>
