<svg width="16" height="16" viewBox="0 0 16 16" xmlns="http://www.w3.org/2000/svg">
	<path fill-rule="evenodd" clip-rule="evenodd" d="M8 12.5C8 14.9853 10.0147 17 12.5 17C14.9853 17 17 14.9853 17 12.5C17 10.0147 14.9853 8 12.5 8C10.0147 8 8 10.0147 8 12.5ZM13.3964 9.89645C13.2012 10.0917 13.2012 10.4083 13.3964 10.6036L14.2929 11.5H12.75C11.2312 11.5 10 12.7312 10 14.25V14.5C10 14.7761 10.2239 15 10.5 15C10.7761 15 11 14.7761 11 14.5V14.25C11 13.2835 11.7835 12.5 12.75 12.5H14.2929L13.3964 13.3964C13.2012 13.5917 13.2012 13.9083 13.3964 14.1036C13.5917 14.2988 13.9083 14.2988 14.1036 14.1036L15.8557 12.3514C15.9026 12.304 15.938 12.2495 15.9621 12.1914C15.9865 12.1324 16 12.0678 16 12C16 11.9322 15.9865 11.8676 15.9621 11.8086C15.9377 11.7496 15.9015 11.6944 15.8536 11.6464L14.1036 9.89645C13.9083 9.70118 13.5917 9.70118 13.3964 9.89645Z" />
	<path fill-rule="evenodd" clip-rule="evenodd" d="M14 1.18009C14 0.505454 13.3457 0.0243865 12.7017 0.225615L5.70173 2.41311C5.28425 2.54358 5 2.93021 5 3.36759V11.4998C4.58217 11.186 4.0628 11 3.5 11C2.11929 11 1 12.1193 1 13.5C1 14.8807 2.11929 16 3.5 16C4.88071 16 6 14.8807 6 13.5V6.3676L13 4.18009V7.02242C13.3434 7.05337 13.6777 7.11588 14 7.20703V1.18009ZM13 3.1324L6 5.3199V3.36759L13 1.18009V3.1324ZM2 13.5C2 12.6716 2.67157 12 3.5 12C4.32843 12 5 12.6716 5 13.5C5 14.3284 4.32843 15 3.5 15C2.67157 15 2 14.3284 2 13.5Z" />
</svg>
