<svg width="16" height="16" viewBox="0 0 16 16" xmlns="http://www.w3.org/2000/svg">
	<path fill-rule="evenodd" clip-rule="evenodd" d="M7 11.5C7 13.9853 9.01472 16 11.5 16C13.9853 16 16 13.9853 16 11.5C16 9.01472 13.9853 7 11.5 7C9.01472 7 7 9.01472 7 11.5ZM12.3964 8.89645C12.2012 9.09171 12.2012 9.40829 12.3964 9.60355L13.2929 10.5H11.75C10.2312 10.5 9 11.7312 9 13.25V13.5C9 13.7761 9.22386 14 9.5 14C9.77614 14 10 13.7761 10 13.5V13.25C10 12.2835 10.7835 11.5 11.75 11.5H13.2929L12.3964 12.3964C12.2012 12.5917 12.2012 12.9083 12.3964 13.1036C12.5917 13.2988 12.9083 13.2988 13.1036 13.1036L14.8557 11.3514C14.9026 11.304 14.938 11.2495 14.9621 11.1914C14.9865 11.1324 15 11.0678 15 11C15 10.9322 14.9865 10.8676 14.9621 10.8086C14.9377 10.7496 14.9015 10.6944 14.8536 10.6464L13.1036 8.89645C12.9083 8.70118 12.5917 8.70118 12.3964 8.89645Z" />
	<path fill-rule="evenodd" clip-rule="evenodd" d="M14 1.18009C14 0.505454 13.3457 0.0243865 12.7017 0.225615L5.70173 2.41311C5.28425 2.54358 5 2.93021 5 3.36759V11.4998C4.58217 11.186 4.0628 11 3.5 11C2.11929 11 1 12.1193 1 13.5C1 14.8807 2.11929 16 3.5 16C4.88071 16 6 14.8807 6 13.5V6.3676L13 4.18009V6.20703C13.3486 6.30564 13.6832 6.43777 14 6.59971V1.18009ZM13 3.1324L6 5.3199V3.36759L13 1.18009V3.1324ZM2 13.5C2 12.6716 2.67157 12 3.5 12C4.32843 12 5 12.6716 5 13.5C5 14.3284 4.32843 15 3.5 15C2.67157 15 2 14.3284 2 13.5Z" />
</svg>
