<svg width="16" height="16" viewBox="0 0 16 16" xmlns="http://www.w3.org/2000/svg">
	<path d="M1 8C1 4.13401 4.13401 1 8 1C8.1542 1 8.30716 1.00498 8.45875 1.01477C8.73432 1.03258 8.97214 0.823626 8.98995 0.548059C9.00776 0.272491 8.7988 0.0346634 8.52324 0.0168556C8.3502 0.00567341 8.17573 0 8 0C3.58172 0 0 3.58172 0 8C0 12.4183 3.58172 16 8 16C8.17573 16 8.3502 15.9943 8.52324 15.9831C8.7988 15.9653 9.00776 15.7275 8.98995 15.4519C8.97214 15.1764 8.73432 14.9674 8.45875 14.9852C8.30716 14.995 8.1542 15 8 15C4.13401 15 1 11.866 1 8Z" />
	<path d="M11.0964 1.72021C10.8488 1.59789 10.7473 1.29804 10.8696 1.05046C10.9919 0.80289 11.2918 0.701354 11.5394 0.823676C11.8536 0.978938 12.1561 1.1542 12.4453 1.34778C12.6747 1.5014 12.7362 1.81195 12.5826 2.04142C12.429 2.27088 12.1184 2.33237 11.889 2.17874C11.6359 2.00932 11.3712 1.856 11.0964 1.72021Z" />
	<path d="M13.8213 4.11104C13.6676 3.88158 13.7291 3.57102 13.9586 3.4174C14.188 3.26377 14.4986 3.32526 14.6522 3.55472C14.8458 3.84387 15.0211 4.14639 15.1763 4.46063C15.2986 4.7082 15.1971 5.00806 14.9495 5.13038C14.702 5.25271 14.4021 5.15117 14.2798 4.9036C14.144 4.62878 13.9907 4.36411 13.8213 4.11104Z" />
	<path d="M14.9852 7.54125C14.9674 7.26568 15.1764 7.02786 15.4519 7.01005C15.7275 6.99224 15.9653 7.2012 15.9831 7.47676C15.9943 7.6498 16 7.82427 16 8C16 8.17573 15.9943 8.3502 15.9831 8.52324C15.9653 8.7988 15.7275 9.00776 15.4519 8.98995C15.1764 8.97214 14.9674 8.73432 14.9852 8.45875C14.995 8.30716 15 8.1542 15 8C15 7.8458 14.995 7.69284 14.9852 7.54125Z" />
	<path d="M14.2798 11.0964C14.4021 10.8488 14.702 10.7473 14.9495 10.8696C15.1971 10.9919 15.2986 11.2918 15.1763 11.5394C15.0211 11.8536 14.8458 12.1561 14.6522 12.4453C14.4986 12.6747 14.188 12.7362 13.9586 12.5826C13.7291 12.429 13.6676 12.1184 13.8213 11.889C13.9907 11.6359 14.144 11.3712 14.2798 11.0964Z" />
	<path d="M11.889 13.8213C12.1184 13.6676 12.429 13.7291 12.5826 13.9586C12.7362 14.188 12.6747 14.4986 12.4453 14.6522C12.1561 14.8458 11.8536 15.0211 11.5394 15.1763C11.2918 15.2986 10.9919 15.1971 10.8696 14.9495C10.7473 14.702 10.8488 14.4021 11.0964 14.2798C11.3712 14.144 11.6359 13.9907 11.889 13.8213Z" />
</svg>
