<svg width="16" height="16" viewBox="0 0 16 16" xmlns="http://www.w3.org/2000/svg">
	<path d="M5.5 11H10.5C10.7761 11 11 11.2239 11 11.5C11 11.7455 10.8231 11.9496 10.5899 11.9919L10.5 12H5.5C5.22386 12 5 11.7761 5 11.5C5 11.2545 5.17688 11.0504 5.41012 11.0081L5.5 11H10.5H5.5ZM3.5 7H12.5C12.7761 7 13 7.22386 13 7.5C13 7.74546 12.8231 7.94961 12.5899 7.99194L12.5 8H3.5C3.22386 8 3 7.77614 3 7.5C3 7.25454 3.17688 7.05039 3.41012 7.00806L3.5 7H12.5H3.5ZM1.5 3H14.5C14.7761 3 15 3.22386 15 3.5C15 3.74546 14.8231 3.94961 14.5899 3.99194L14.5 4H1.5C1.22386 4 1 3.77614 1 3.5C1 3.25454 1.17688 3.05039 1.41012 3.00806L1.5 3H14.5H1.5Z" />
</svg>
