<svg width="16" height="16" viewBox="0 0 16 16" xmlns="http://www.w3.org/2000/svg">
	<path d="M5.64648 9.14648C5.84175 8.95122 6.15825 8.95122 6.35352 9.14648C6.54878 9.34175 6.54878 9.65825 6.35352 9.85352L5.20703 11H6C6.27614 11 6.5 11.2239 6.5 11.5C6.5 11.7761 6.27614 12 6 12H4C3.72386 12 3.5 11.7761 3.5 11.5V9.5C3.5 9.22386 3.72386 9 4 9C4.27614 9 4.5 9.22386 4.5 9.5V10.293L5.64648 9.14648Z" />
	<path d="M12 9C12.2761 9 12.5 9.22386 12.5 9.5V11.5C12.5 11.7761 12.2761 12 12 12H10C9.72386 12 9.5 11.7761 9.5 11.5C9.5 11.2239 9.72386 11 10 11H10.793L9.64648 9.85352C9.45122 9.65825 9.45122 9.34175 9.64648 9.14648C9.84175 8.95122 10.1583 8.95122 10.3535 9.14648L11.5 10.293V9.5C11.5 9.22386 11.7239 9 12 9Z" />
	<path d="M6 4C6.27614 4 6.5 4.22386 6.5 4.5C6.5 4.77614 6.27614 5 6 5H5.20703L6.35352 6.14648C6.54878 6.34175 6.54878 6.65825 6.35352 6.85352C6.15825 7.04878 5.84175 7.04878 5.64648 6.85352L4.5 5.70703V6.5C4.5 6.77614 4.27614 7 4 7C3.72386 7 3.5 6.77614 3.5 6.5V4.5C3.5 4.22386 3.72386 4 4 4H6Z" />
	<path d="M12 4C12.2761 4 12.5 4.22386 12.5 4.5V6.5C12.5 6.77614 12.2761 7 12 7C11.7239 7 11.5 6.77614 11.5 6.5V5.70703L10.3535 6.85352C10.1583 7.04878 9.84175 7.04878 9.64648 6.85352C9.45122 6.65825 9.45122 6.34175 9.64648 6.14648L10.793 5H10C9.72386 5 9.5 4.77614 9.5 4.5C9.5 4.22386 9.72386 4 10 4H12Z" />
	<path fill-rule="evenodd" clip-rule="evenodd" d="M13.7559 2.0127C15.0164 2.14082 16 3.20566 16 4.5V11.5C16 12.8807 14.8807 14 13.5 14H2.5C1.11929 14 0 12.8807 0 11.5V4.5C0 3.20566 0.983608 2.14082 2.24414 2.0127L2.5 2H13.5L13.7559 2.0127ZM2.5 3C1.67157 3 1 3.67157 1 4.5V11.5C1 12.3284 1.67157 13 2.5 13H13.5C14.3284 13 15 12.3284 15 11.5V4.5C15 3.67157 14.3284 3 13.5 3H2.5Z" />
</svg>
