<svg width="16" height="16" viewBox="0 0 16 16" xmlns="http://www.w3.org/2000/svg">
	<path d="M15.9212 13.7695C15.8293 13.9132 15.6705 14 15.5 14H9.5C9.22386 14 9 13.7762 9 13.5V0.50005C9 0.265239 9.16339 0.0620627 9.39274 0.0116902C9.62208 -0.0386822 9.85558 0.0773217 9.95398 0.290521L15.954 13.2905C16.0254 13.4453 16.0131 13.6259 15.9212 13.7695ZM10 2.77653V13H14.7185L10 2.77653ZM0.500001 14C0.329489 14 0.170732 13.9132 0.0788336 13.7695C-0.0130653 13.6259 -0.0254326 13.4453 0.0460215 13.2905L6.04602 0.290521C6.14442 0.0773217 6.37792 -0.0386822 6.60726 0.0116902C6.83661 0.0620627 7 0.265239 7 0.50005V13.5C7 13.7762 6.77614 14 6.5 14L0.500001 14Z" />
</svg>
