<svg width="16" height="16" viewBox="0 0 16 16" xmlns="http://www.w3.org/2000/svg">
	<path d="M10.5 4.0625C10.7416 4.0625 10.9375 4.25838 10.9375 4.5V5.54378L11.5906 4.89064C11.7615 4.71979 12.0385 4.71979 12.2094 4.89064C12.3802 5.0615 12.3802 5.3385 12.2094 5.50936L10.9375 6.78122V7.5625H11.7188L12.9906 6.29064C13.1615 6.11979 13.4385 6.11979 13.6094 6.29064C13.7802 6.4615 13.7802 6.7385 13.6094 6.90936L12.9562 7.5625H14C14.2416 7.5625 14.4375 7.75838 14.4375 8C14.4375 8.24162 14.2416 8.4375 14 8.4375H12.9562L13.6094 9.09064C13.7802 9.2615 13.7802 9.5385 13.6094 9.70936C13.4385 9.88021 13.1615 9.88021 12.9906 9.70936L11.7188 8.4375H10.9375V9.21878L12.2094 10.4906C12.3802 10.6615 12.3802 10.9385 12.2094 11.1094C12.0385 11.2802 11.7615 11.2802 11.5906 11.1094L10.9375 10.4562V11.5C10.9375 11.7416 10.7416 11.9375 10.5 11.9375C10.2584 11.9375 10.0625 11.7416 10.0625 11.5V10.4562L9.40936 11.1094C9.23851 11.2802 8.9615 11.2802 8.79064 11.1094C8.61979 10.9385 8.61979 10.6615 8.79064 10.4906L10.0625 9.21878V8.4375H9.28122L8.00936 9.70936C7.8385 9.88021 7.5615 9.88021 7.39064 9.70936C7.21979 9.5385 7.21979 9.2615 7.39064 9.09064L8.04378 8.4375H7C6.75838 8.4375 6.5625 8.24162 6.5625 8C6.5625 7.75838 6.75838 7.5625 7 7.5625H8.04378L7.39064 6.90936C7.21979 6.7385 7.21979 6.4615 7.39064 6.29064C7.5615 6.11979 7.8385 6.11979 8.00936 6.29064L9.28122 7.5625H10.0625V6.78122L8.79064 5.50936C8.61979 5.3385 8.61979 5.0615 8.79064 4.89064C8.9615 4.71979 9.23851 4.71979 9.40936 4.89064L10.0625 5.54378V4.5C10.0625 4.25838 10.2584 4.0625 10.5 4.0625Z" />
	<path fill-rule="evenodd" clip-rule="evenodd" d="M2 2C0.895431 2 0 2.89543 0 4V12C0 13.1046 0.895431 14 2 14H14C15.1046 14 16 13.1046 16 12V4C16 2.89543 15.1046 2 14 2H2ZM1 4C1 3.44772 1.44772 3 2 3H14C14.5523 3 15 3.44772 15 4V12C15 12.5523 14.5523 13 14 13H2C1.44772 13 1 12.5523 1 12V4Z" />
</svg>
