<svg width="16" height="16" viewBox="0 0 16 16" xmlns="http://www.w3.org/2000/svg">
	<path d="M8 0C8.27614 0 8.5 0.223858 8.5 0.5V15.5C8.5 15.7761 8.27614 16 8 16C7.72386 16 7.5 15.7761 7.5 15.5V0.5C7.5 0.223858 7.72386 0 8 0Z" />
	<path d="M1 4C1 3.44772 1.44772 3 2 3H6C6.27614 3 6.5 2.77614 6.5 2.5C6.5 2.22386 6.27614 2 6 2H2C0.895431 2 0 2.89543 0 4V12C0 13.1041 0.893992 14 1.999 14H6C6.27614 14 6.5 13.7761 6.5 13.5C6.5 13.2239 6.27614 13 6 13H1.999C1.44715 13 1 12.5527 1 12V4Z" />
	<path d="M15 8.5H10.5C9.94771 8.5 9.5 8.05228 9.5 7.5V3C9.5 2.44772 9.94772 2 10.5 2H14C15.1046 2 16 2.89543 16 4V12C16 13.1046 15.1046 14 14 14H10C9.72386 14 9.5 13.7761 9.5 13.5C9.5 13.2239 9.72386 13 10 13H14C14.5523 13 15 12.5523 15 12V8.5Z" />
</svg>
