<svg width="16" height="16" viewBox="0 0 16 16" xmlns="http://www.w3.org/2000/svg">
	<path d="M8 0C8.27614 0 8.5 0.223858 8.5 0.5V15.5C8.5 15.7761 8.27614 16 8 16C7.72386 16 7.5 15.7761 7.5 15.5V0.5C7.5 0.223858 7.72386 0 8 0Z" />
	<path d="M1 4C1 3.44772 1.44772 3 2 3H6C6.27614 3 6.5 2.77614 6.5 2.5C6.5 2.22386 6.27614 2 6 2H2C0.895431 2 0 2.89543 0 4V12C0 13.1041 0.893992 14 1.999 14H6C6.27614 14 6.5 13.7761 6.5 13.5C6.5 13.2239 6.27614 13 6 13H1.999C1.44715 13 1 12.5527 1 12V4Z" />
	<path d="M10 2C9.72386 2 9.5 2.22386 9.5 2.5C9.5 2.77614 9.72386 3 10 3H14C14.5523 3 15 3.44772 15 4V12C15 12.5523 14.5523 13 14 13H10C9.72386 13 9.5 13.2239 9.5 13.5C9.5 13.7761 9.72386 14 10 14H14C15.1046 14 16 13.1046 16 12V4C16 2.89543 15.1046 2 14 2H10Z" />
	<path fill-rule="evenodd" clip-rule="evenodd" d="M11.33 6C11.4299 5.66746 11.7165 5.49992 12.0019 5.5C12.2873 5.50008 12.5721 5.6674 12.6718 6L12.8496 6.59375C12.93 6.86219 13.1397 7.07183 13.4081 7.15234L14.0019 7.33008C14.6671 7.52959 14.6671 8.47233 14.0019 8.67188L13.4081 8.84961C13.1397 8.93013 12.93 9.13977 12.8496 9.4082L12.6718 10.002C12.4725 10.6672 11.5296 10.6672 11.33 10.002L11.1523 9.40625C11.0717 9.13774 10.8623 8.92802 10.5937 8.84766L10.0019 8.66992C9.33637 8.47077 9.33457 7.52971 9.99995 7.33008L10.5937 7.15234C10.8619 7.07187 11.0717 6.86196 11.1523 6.59375L11.33 6ZM13.0117 8C12.5458 7.81342 12.1838 7.45457 11.998 6.98828C11.8119 7.45349 11.4533 7.81372 10.9882 8C11.4538 8.18653 11.8141 8.54572 11.9999 9.01172C12.186 8.54664 12.5466 8.18624 13.0117 8Z" />
</svg>
