<svg width="16" height="21" viewBox="0 0 16 21" xmlns="http://www.w3.org/2000/svg">
	<path d="M8 6.45508L8.55664 9.21875C8.61523 9.21224 8.67383 9.20898 8.73242 9.20898C8.79101 9.20898 8.84635 9.20898 8.89844 9.20898C9.40625 9.20898 9.87503 9.3099 10.3047 9.51172C10.7343 9.70703 11.1054 9.9707 11.4179 10.3028C11.7304 10.6283 11.9713 11.0059 12.1406 11.4356C12.3164 11.8588 12.4043 12.2982 12.4043 12.7539C12.4043 13.125 12.3457 13.4831 12.2285 13.8282C12.1178 14.1667 11.9518 14.4792 11.7304 14.7657C11.5156 15.0456 11.2519 15.293 10.9394 15.5079C10.6269 15.7162 10.2721 15.8724 9.87503 15.9766L10.207 17.7051C10.22 17.7963 10.2298 17.8809 10.2363 17.959C10.2493 18.0437 10.2558 18.1316 10.2558 18.2227C10.2558 18.5612 10.194 18.8802 10.0703 19.1797C9.95313 19.4792 9.78713 19.7429 9.57226 19.9707C9.36393 20.1986 9.11979 20.3776 8.83984 20.5079C8.55989 20.6446 8.26042 20.7129 7.94141 20.7129C7.64844 20.7129 7.36198 20.6674 7.08203 20.5762C6.80208 20.4916 6.55143 20.3679 6.33008 20.2051C6.11523 20.0489 5.93945 19.8536 5.80273 19.6192C5.67252 19.3848 5.60742 19.1211 5.60742 18.8282C5.60742 18.5482 5.68555 18.2976 5.8418 18.0762C6.00456 17.8614 6.26823 17.7279 6.63281 17.6758C6.66536 17.6693 6.69792 17.6628 6.73047 17.6563C6.76953 17.6563 6.80534 17.6563 6.83789 17.6563C7.02018 17.6563 7.1862 17.6921 7.33594 17.7637C7.48568 17.8418 7.61263 17.9427 7.7168 18.0664C7.82747 18.1901 7.90885 18.3269 7.96094 18.4766C8.01953 18.6329 8.04883 18.7924 8.04883 18.9551C8.04883 19.17 7.99349 19.3783 7.88281 19.5801C7.77213 19.7819 7.59635 19.9382 7.35547 20.0489C7.44661 20.0814 7.5345 20.101 7.61914 20.1075C7.70377 20.1205 7.79167 20.127 7.88281 20.127C8.13021 20.127 8.35156 20.0749 8.54687 19.9707C8.7487 19.8731 8.91797 19.7396 9.05469 19.5704C9.19141 19.4011 9.29557 19.1993 9.36719 18.9649C9.44531 18.737 9.48437 18.4896 9.48437 18.2227C9.48437 18.1446 9.47461 18.0371 9.45508 17.9004C9.44206 17.7637 9.42904 17.6563 9.41601 17.5782L9.13281 16.1133C8.95703 16.1589 8.72591 16.1817 8.43945 16.1817C7.79492 16.1817 7.1569 16.1133 6.52539 15.9766C5.90039 15.8399 5.33398 15.6055 4.82617 15.2735C4.32487 14.9414 3.9082 14.502 3.57617 13.9551C3.24414 13.4017 3.05534 12.7116 3.00976 11.8848C3.00325 11.8197 3 11.7546 3 11.6895C3 11.6244 3 11.5593 3 11.4942C3 10.8822 3.08463 10.2832 3.25391 9.69727C3.42318 9.10482 3.69336 8.55469 4.06445 8.04688C4.49414 7.48698 4.95963 7.00846 5.46094 6.61133C5.96224 6.21419 6.51888 5.85287 7.13086 5.52734C7.0332 5.03255 6.94857 4.60612 6.87695 4.24805C6.81185 3.88997 6.75651 3.58724 6.71094 3.33984C6.66536 3.08594 6.62956 2.8776 6.60351 2.71484C6.57747 2.55208 6.55469 2.41862 6.53515 2.31445C6.52213 2.21029 6.51237 2.12565 6.50586 2.06055C6.50586 1.99544 6.50586 1.93359 6.50586 1.875C6.50586 1.6276 6.54167 1.39323 6.61328 1.17188C6.68489 0.94401 6.78906 0.745442 6.92578 0.576171C7.0625 0.40039 7.22851 0.260416 7.42383 0.15625C7.62565 0.0520834 7.85351 0 8.10742 0C8.41992 0 8.69661 0.0748698 8.9375 0.224609C9.17838 0.367838 9.37695 0.553385 9.5332 0.78125C9.69596 1.00912 9.81643 1.26302 9.89453 1.54297C9.97913 1.82292 10.0215 2.09635 10.0215 2.36328C10.0215 2.7474 9.95963 3.12826 9.83593 3.50586C9.71873 3.88346 9.5625 4.24805 9.36719 4.59961C9.17838 4.95117 8.96354 5.28646 8.72265 5.60547C8.48177 5.91797 8.24088 6.20117 8 6.45508ZM8.26367 1.50391C8.05534 1.50391 7.88932 1.54948 7.76562 1.64063C7.64844 1.72526 7.55729 1.82617 7.49219 1.94336C7.43359 2.06055 7.39453 2.18099 7.375 2.30469C7.36198 2.42188 7.35547 2.51302 7.35547 2.57813C7.35547 3.05339 7.40104 3.49935 7.49219 3.91602C7.58333 4.33268 7.66471 4.73958 7.73633 5.13672C7.98372 4.99349 8.19857 4.82747 8.38086 4.63867C8.56966 4.44336 8.72591 4.23828 8.84961 4.02344C8.97331 3.80859 9.06445 3.5905 9.12305 3.36914C9.18815 3.14779 9.2207 2.93945 9.2207 2.74414C9.2207 2.60091 9.20443 2.45443 9.17187 2.30469C9.14583 2.15495 9.097 2.02148 9.02539 1.9043C8.95377 1.78711 8.85612 1.69271 8.73242 1.62109C8.60872 1.54297 8.45247 1.50391 8.26367 1.50391ZM9.00586 15.4688L8.16601 10.9961C7.91862 11.0547 7.70052 11.1556 7.51172 11.2989C7.32943 11.4356 7.17643 11.6016 7.05273 11.7969C6.92904 11.9857 6.83463 12.1941 6.76953 12.4219C6.71094 12.6433 6.68164 12.8679 6.68164 13.0957C6.68164 13.1804 6.68489 13.265 6.69141 13.3497C6.70443 13.4343 6.71745 13.5157 6.73047 13.5938C6.42448 13.4506 6.19336 13.2487 6.03711 12.9883C5.88086 12.7279 5.80273 12.4382 5.80273 12.1192C5.80273 11.8002 5.85807 11.4974 5.96875 11.211C6.07943 10.9245 6.22917 10.6641 6.41797 10.4297C6.61328 10.1954 6.83463 9.99024 7.08203 9.81445C7.33594 9.63867 7.60286 9.4987 7.88281 9.39453C7.8112 9.01693 7.74284 8.66537 7.67773 8.33984L7.42383 7.04102C6.9681 7.4707 6.51562 7.90039 6.06641 8.33008C5.61719 8.75326 5.18424 9.20898 4.76758 9.69727C4.63086 9.86003 4.49739 10.0293 4.36719 10.2051C4.23698 10.3809 4.12305 10.5664 4.02539 10.7618C3.92773 10.9506 3.84961 11.1491 3.79101 11.3575C3.73242 11.5593 3.70312 11.7709 3.70312 11.9922C3.70963 12.448 3.78125 12.8516 3.91797 13.2032C4.0612 13.5482 4.25 13.8542 4.48437 14.1211C4.71875 14.3816 4.98893 14.6029 5.29492 14.7852C5.60742 14.961 5.93294 15.1042 6.27148 15.2149C6.61002 15.3256 6.95182 15.4069 7.29687 15.459C7.64844 15.5046 7.98047 15.5274 8.29297 15.5274C8.53385 15.5274 8.77148 15.5079 9.00586 15.4688ZM8.86914 10.9278L9.72853 15.2735C10.0215 15.1954 10.2786 15.0749 10.5 14.9121C10.7213 14.7429 10.9036 14.5508 11.0468 14.336C11.1966 14.1211 11.3073 13.8933 11.3789 13.6524C11.4505 13.405 11.4863 13.1608 11.4863 12.92C11.4863 12.5424 11.4082 12.2266 11.2519 11.9727C11.1022 11.7188 10.9036 11.5137 10.6562 11.3575C10.4088 11.2012 10.1289 11.0905 9.81643 11.0254C9.50391 10.9603 9.18815 10.9278 8.86914 10.9278Z" />
</svg>
