<svg width="16" height="11" viewBox="0 0 16 11" xmlns="http://www.w3.org/2000/svg">
	<path d="M0.5 1C0.364583 1 0.247396 0.950521 0.148438 0.851562C0.0494792 0.752604 0 0.635417 0 0.5C0 0.364583 0.0494792 0.247396 0.148438 0.148438C0.247396 0.0494792 0.364583 0 0.5 0H15.5C15.6354 0 15.7526 0.0494792 15.8516 0.148438C15.9505 0.247396 16 0.364583 16 0.5C16 0.635417 15.9505 0.752604 15.8516 0.851562C15.7526 0.950521 15.6354 1 15.5 1H0.5ZM0.5 6C0.364583 6 0.247396 5.95052 0.148438 5.85156C0.0494792 5.7526 0 5.63542 0 5.5C0 5.36458 0.0494792 5.2474 0.148438 5.14844C0.247396 5.04948 0.364583 5 0.5 5H15.5C15.6354 5 15.7526 5.04948 15.8516 5.14844C15.9505 5.2474 16 5.36458 16 5.5C16 5.63542 15.9505 5.7526 15.8516 5.85156C15.7526 5.95052 15.6354 6 15.5 6H0.5ZM0.5 11C0.364583 11 0.247396 10.9505 0.148438 10.8516C0.0494792 10.7526 0 10.6354 0 10.5C0 10.3646 0.0494792 10.2474 0.148438 10.1484C0.247396 10.0495 0.364583 10 0.5 10H15.5C15.6354 10 15.7526 10.0495 15.8516 10.1484C15.9505 10.2474 16 10.3646 16 10.5C16 10.6354 15.9505 10.7526 15.8516 10.8516C15.7526 10.9505 15.6354 11 15.5 11H0.5Z" />
</svg>
