<svg width="16" height="16" viewBox="0 0 16 16" xmlns="http://www.w3.org/2000/svg">
	<path d="M16 8C16 8.73958 15.9036 9.45052 15.7109 10.1328C15.5234 10.8099 15.2552 11.4453 14.9062 12.0391C14.5625 12.6328 14.1458 13.1745 13.6562 13.6641C13.1719 14.1484 12.6328 14.5651 12.0391 14.9141C11.4453 15.2578 10.8073 15.526 10.125 15.7188C9.44271 15.9062 8.73438 16 8 16C7.26042 16 6.54948 15.9062 5.86719 15.7188C5.1901 15.526 4.55469 15.2578 3.96094 14.9141C3.36719 14.5651 2.82552 14.1484 2.33594 13.6641C1.85156 13.1745 1.4349 12.6328 1.08594 12.0391C0.742188 11.4453 0.473958 10.8073 0.28125 10.125C0.09375 9.44271 0 8.73438 0 8C0 7.26562 0.09375 6.55729 0.28125 5.875C0.473958 5.19271 0.742188 4.55469 1.08594 3.96094C1.4349 3.36719 1.85156 2.82812 2.33594 2.34375C2.82552 1.85417 3.36719 1.4375 3.96094 1.09375C4.55469 0.744792 5.19271 0.476562 5.875 0.289062C6.55729 0.0963542 7.26562 0 8 0C8.73438 0 9.44271 0.0963542 10.125 0.289062C10.8073 0.476562 11.4453 0.744792 12.0391 1.09375C12.6328 1.4375 13.1719 1.85417 13.6562 2.34375C14.1458 2.82812 14.5625 3.36719 14.9062 3.96094C15.2552 4.55469 15.5234 5.19271 15.7109 5.875C15.9036 6.55729 16 7.26562 16 8ZM5.30469 5H10.6953C10.6536 4.79688 10.5938 4.55729 10.5156 4.28125C10.4375 4.00521 10.3411 3.71875 10.2266 3.42188C10.112 3.125 9.97917 2.83333 9.82812 2.54688C9.68229 2.25521 9.51562 1.99479 9.32812 1.76562C9.14583 1.53646 8.94271 1.35156 8.71875 1.21094C8.5 1.07031 8.26042 1 8 1C7.73958 1 7.4974 1.07031 7.27344 1.21094C7.05469 1.35156 6.85156 1.53646 6.66406 1.76562C6.48177 1.99479 6.3151 2.25521 6.16406 2.54688C6.01823 2.83333 5.88802 3.125 5.77344 3.42188C5.65885 3.71875 5.5625 4.00521 5.48438 4.28125C5.40625 4.55729 5.34635 4.79688 5.30469 5ZM1.67188 5H4.28125C4.40104 4.35417 4.57292 3.72396 4.79688 3.10938C5.02604 2.49479 5.33073 1.91927 5.71094 1.38281C5.27344 1.51823 4.85417 1.70573 4.45312 1.94531C4.05208 2.1849 3.67708 2.46354 3.32812 2.78125C2.98438 3.09896 2.66927 3.44531 2.38281 3.82031C2.10156 4.19531 1.86458 4.58854 1.67188 5ZM10.2891 1.38281C10.6693 1.91927 10.9714 2.49479 11.1953 3.10938C11.4245 3.72396 11.599 4.35417 11.7188 5H14.3281C14.1302 4.58854 13.8906 4.19531 13.6094 3.82031C13.3281 3.44531 13.013 3.09896 12.6641 2.78125C12.3203 2.46354 11.9479 2.1849 11.5469 1.94531C11.1458 1.70573 10.7266 1.51823 10.2891 1.38281ZM4.125 10C4.07812 9.66667 4.04427 9.33594 4.02344 9.00781C4.00781 8.67448 4 8.33854 4 8C4 7.66146 4.00781 7.32812 4.02344 7C4.04427 6.66667 4.07812 6.33333 4.125 6H1.28906C1.19531 6.32812 1.1224 6.65885 1.07031 6.99219C1.02344 7.32031 1 7.65625 1 8C1 8.34375 1.02344 8.68229 1.07031 9.01562C1.1224 9.34375 1.19531 9.67188 1.28906 10H4.125ZM10.875 10C10.9219 9.66667 10.9531 9.33594 10.9688 9.00781C10.9896 8.67448 11 8.33854 11 8C11 7.66146 10.9896 7.32812 10.9688 7C10.9531 6.66667 10.9219 6.33333 10.875 6H5.125C5.07812 6.33333 5.04427 6.66667 5.02344 7C5.00781 7.32812 5 7.66146 5 8C5 8.33854 5.00781 8.67448 5.02344 9.00781C5.04427 9.33594 5.07812 9.66667 5.125 10H10.875ZM14.7109 6H11.875C11.9219 6.33333 11.9531 6.66667 11.9688 7C11.9896 7.32812 12 7.66146 12 8C12 8.33854 11.9896 8.67448 11.9688 9.00781C11.9531 9.33594 11.9219 9.66667 11.875 10H14.7109C14.8047 9.67188 14.875 9.34375 14.9219 9.01562C14.974 8.68229 15 8.34375 15 8C15 7.65625 14.974 7.32031 14.9219 6.99219C14.875 6.65885 14.8047 6.32812 14.7109 6ZM5.71094 14.6172C5.33073 14.0807 5.02604 13.5052 4.79688 12.8906C4.57292 12.276 4.40104 11.6458 4.28125 11H1.67188C1.86458 11.4062 2.10156 11.7995 2.38281 12.1797C2.66406 12.5547 2.97917 12.901 3.32812 13.2188C3.67708 13.5312 4.05208 13.8099 4.45312 14.0547C4.85417 14.2943 5.27344 14.4818 5.71094 14.6172ZM10.6953 11H5.30469C5.34635 11.2031 5.40625 11.4427 5.48438 11.7188C5.5625 11.9948 5.65885 12.2812 5.77344 12.5781C5.88802 12.875 6.01823 13.1693 6.16406 13.4609C6.3151 13.7474 6.48177 14.0052 6.66406 14.2344C6.85156 14.4635 7.05469 14.6484 7.27344 14.7891C7.4974 14.9297 7.73958 15 8 15C8.26042 15 8.5 14.9297 8.71875 14.7891C8.94271 14.6484 9.14583 14.4635 9.32812 14.2344C9.51562 14.0052 9.68229 13.7474 9.82812 13.4609C9.97917 13.1693 10.112 12.875 10.2266 12.5781C10.3411 12.2812 10.4375 11.9948 10.5156 11.7188C10.5938 11.4427 10.6536 11.2031 10.6953 11ZM14.3281 11H11.7188C11.599 11.6458 11.4245 12.276 11.1953 12.8906C10.9714 13.5052 10.6693 14.0807 10.2891 14.6172C10.7266 14.4818 11.1458 14.2943 11.5469 14.0547C11.9479 13.8151 12.3203 13.5365 12.6641 13.2188C13.013 12.901 13.3281 12.5547 13.6094 12.1797C13.8906 11.8047 14.1302 11.4115 14.3281 11Z" />
</svg>
