<svg width="16" height="16" viewBox="0 0 16 16" xmlns="http://www.w3.org/2000/svg">
	<path d="M5 2.5C5 2.67123 4.98278 2.83845 4.94999 3H8C8.55228 3 9 3.44772 9 4V6H8C6.89543 6 6 6.89543 6 8V9H4C3.44772 9 3 8.55228 3 8V4.94999C2.83845 4.98278 2.67123 5 2.5 5C2.32877 5 2.16155 4.98278 2 4.94999V8C2 9.10457 2.89543 10 4 10H6V12C6 13.1046 6.89543 14 8 14H11.05C11.0172 13.8384 11 13.6712 11 13.5C11 13.3288 11.0172 13.1616 11.05 13H8C7.44772 13 7 12.5523 7 12V10H8C9.10457 10 10 9.10457 10 8V7H12C12.5523 7 13 7.44772 13 8V11.05C13.1616 11.0172 13.3288 11 13.5 11C13.6712 11 13.8384 11.0172 14 11.05V8C14 6.89543 13.1046 6 12 6H10V4C10 2.89543 9.10457 2 8 2H4.94999C4.98278 2.16155 5 2.32877 5 2.5ZM9 7V8C9 8.55228 8.55228 9 8 9H7V8C7 7.44772 7.44772 7 8 7H9ZM4 2.5C4 3.32843 3.32843 4 2.5 4C1.67157 4 1 3.32843 1 2.5C1 1.67157 1.67157 1 2.5 1C3.32843 1 4 1.67157 4 2.5ZM15 13.5C15 14.3284 14.3284 15 13.5 15C12.6716 15 12 14.3284 12 13.5C12 12.6716 12.6716 12 13.5 12C14.3284 12 15 12.6716 15 13.5ZM15 2.5C15 3.32843 14.3284 4 13.5 4C12.6716 4 12 3.32843 12 2.5C12 1.67157 12.6716 1 13.5 1C14.3284 1 15 1.67157 15 2.5ZM4 13.5C4 14.3284 3.32843 15 2.5 15C1.67157 15 1 14.3284 1 13.5C1 12.6716 1.67157 12 2.5 12C3.32843 12 4 12.6716 4 13.5Z" />
</svg>
