<svg width="16" height="16" viewBox="0 0 16 16" xmlns="http://www.w3.org/2000/svg">
	<path d="M1.5 3C2.32843 3 3 2.32843 3 1.5C3 0.671573 2.32843 0 1.5 0C0.671573 0 0 0.671573 0 1.5C0 2.32843 0.671573 3 1.5 3Z" />
	<path d="M14.5 3C15.3284 3 16 2.32843 16 1.5C16 0.671573 15.3284 0 14.5 0C13.6716 0 13 0.671573 13 1.5C13 2.32843 13.6716 3 14.5 3Z" />
	<path d="M16 14.5C16 15.3284 15.3284 16 14.5 16C13.6716 16 13 15.3284 13 14.5C13 13.6716 13.6716 13 14.5 13C15.3284 13 16 13.6716 16 14.5Z" />
	<path d="M1.5 16C2.32843 16 3 15.3284 3 14.5C3 13.6716 2.32843 13 1.5 13C0.671573 13 0 13.6716 0 14.5C0 15.3284 0.671573 16 1.5 16Z" />
	<path d="M4.5 1C4.22386 1 4 1.22386 4 1.5C4 1.77614 4.22386 2 4.5 2H6.83333C7.10948 2 7.33333 1.77614 7.33333 1.5C7.33333 1.22386 7.10948 1 6.83333 1H4.5Z" />
	<path d="M9.16667 1C8.89052 1 8.66667 1.22386 8.66667 1.5C8.66667 1.77614 8.89052 2 9.16667 2H11.5C11.7761 2 12 1.77614 12 1.5C12 1.22386 11.7761 1 11.5 1H9.16667Z" />
	<path d="M2 4.5C2 4.22386 1.77614 4 1.5 4C1.22386 4 1 4.22386 1 4.5V6.83333C1 7.10948 1.22386 7.33333 1.5 7.33333C1.77614 7.33333 2 7.10948 2 6.83333V4.5Z" />
	<path d="M2 9.16667C2 8.89052 1.77614 8.66667 1.5 8.66667C1.22386 8.66667 1 8.89052 1 9.16667V11.5C1 11.7761 1.22386 12 1.5 12C1.77614 12 2 11.7761 2 11.5V9.16667Z" />
	<path d="M4.5 14C4.22386 14 4 14.2239 4 14.5C4 14.7761 4.22386 15 4.5 15H6.83333C7.10948 15 7.33333 14.7761 7.33333 14.5C7.33333 14.2239 7.10948 14 6.83333 14H4.5Z" />
	<path d="M9.16667 14C8.89052 14 8.66667 14.2239 8.66667 14.5C8.66667 14.7761 8.89052 15 9.16667 15H11.5C11.7761 15 12 14.7761 12 14.5C12 14.2239 11.7761 14 11.5 14H9.16667Z" />
	<path d="M14.5 4C14.7761 4 15 4.22386 15 4.5V6.83333C15 7.10948 14.7761 7.33333 14.5 7.33333C14.2239 7.33333 14 7.10948 14 6.83333V4.5C14 4.22386 14.2239 4 14.5 4Z" />
	<path d="M14.5 8.66667C14.7761 8.66667 15 8.89052 15 9.16667V11.5C15 11.7761 14.7761 12 14.5 12C14.2239 12 14 11.7761 14 11.5V9.16667C14 8.89052 14.2239 8.66667 14.5 8.66667Z" />
	<path fill-rule="evenodd" clip-rule="evenodd" d="M3.5 5C3.5 4.17157 4.17157 3.5 5 3.5H9C9.82843 3.5 10.5 4.17157 10.5 5V6.5H11C11.8284 6.5 12.5 7.17157 12.5 8V11C12.5 11.8284 11.8284 12.5 11 12.5H8C7.17157 12.5 6.5 11.8284 6.5 11V10.5H5C4.17157 10.5 3.5 9.82843 3.5 9V5ZM5 4.5H9C9.27614 4.5 9.5 4.72386 9.5 5V9C9.5 9.27614 9.27614 9.5 9 9.5H5C4.72386 9.5 4.5 9.27614 4.5 9V5C4.5 4.72386 4.72386 4.5 5 4.5ZM7.5 10.5V11C7.5 11.2761 7.72386 11.5 8 11.5H11C11.2761 11.5 11.5 11.2761 11.5 11V8C11.5 7.72386 11.2761 7.5 11 7.5H10.5V9C10.5 9.82843 9.82843 10.5 9 10.5H7.5Z" />
</svg>
