<svg width="16" height="16" viewBox="0 0 16 16" xmlns="http://www.w3.org/2000/svg">
	<path d="M15 8V12.5547C15 12.8828 14.9323 13.1953 14.7969 13.4922C14.6667 13.7891 14.4896 14.0495 14.2656 14.2734C14.0469 14.4922 13.7891 14.6693 13.4922 14.8047C13.1953 14.9349 12.8828 15 12.5547 15H10.5C10.3646 15 10.2474 14.9505 10.1484 14.8516C10.0495 14.7526 10 14.6354 10 14.5V9.5C10 9.36458 10.0495 9.2474 10.1484 9.14844C10.2474 9.04948 10.3646 9 10.5 9H14V8C14 7.17188 13.8411 6.39583 13.5234 5.67188C13.2109 4.94271 12.7812 4.30729 12.2344 3.76562C11.6927 3.21875 11.0573 2.78906 10.3281 2.47656C9.60417 2.15885 8.82812 2 8 2C7.17188 2 6.39323 2.15885 5.66406 2.47656C4.9401 2.78906 4.30469 3.21875 3.75781 3.76562C3.21615 4.30729 2.78646 4.94271 2.46875 5.67188C2.15625 6.39583 2 7.17188 2 8V9H5.5C5.63542 9 5.7526 9.04948 5.85156 9.14844C5.95052 9.2474 6 9.36458 6 9.5V14.5C6 14.6354 5.95052 14.7526 5.85156 14.8516C5.7526 14.9505 5.63542 15 5.5 15H3.44531C3.11719 15 2.80469 14.9349 2.50781 14.8047C2.21094 14.6693 1.95052 14.4922 1.72656 14.2734C1.50781 14.0495 1.33073 13.7891 1.19531 13.4922C1.0651 13.1953 1 12.8828 1 12.5547V8C1 7.35417 1.08333 6.73438 1.25 6.14062C1.41667 5.54167 1.65104 4.98438 1.95312 4.46875C2.26042 3.94792 2.625 3.47656 3.04688 3.05469C3.47396 2.6276 3.94531 2.26302 4.46094 1.96094C4.98177 1.65365 5.53906 1.41667 6.13281 1.25C6.73177 1.08333 7.35417 1 8 1C8.64062 1 9.25781 1.08333 9.85156 1.25C10.4505 1.41667 11.0078 1.65365 11.5234 1.96094C12.0443 2.26302 12.5182 2.6276 12.9453 3.05469C13.3724 3.48177 13.737 3.95573 14.0391 4.47656C14.3464 4.99219 14.5833 5.54948 14.75 6.14844C14.9167 6.74219 15 7.35938 15 8ZM5 14V10H2V12.5C2 12.7031 2.03906 12.8958 2.11719 13.0781C2.19531 13.2604 2.30208 13.4219 2.4375 13.5625C2.57812 13.6979 2.73958 13.8047 2.92188 13.8828C3.10417 13.9609 3.29688 14 3.5 14H5ZM14 10H11V14H12.5C12.7031 14 12.8958 13.9609 13.0781 13.8828C13.2604 13.8047 13.4193 13.6979 13.5547 13.5625C13.6953 13.4219 13.8047 13.2604 13.8828 13.0781C13.9609 12.8958 14 12.7031 14 12.5V10Z" />
</svg>
