<svg width="16" height="16" viewBox="0 0 16 16" xmlns="http://www.w3.org/2000/svg">
	<path d="M0.3125 7C0.208333 6.73438 0.130208 6.46615 0.078125 6.19531C0.0260417 5.91927 0 5.64062 0 5.35938C0 4.76042 0.111979 4.19792 0.335938 3.67188C0.559896 3.14062 0.864583 2.67708 1.25 2.28125C1.64062 1.88542 2.09635 1.57292 2.61719 1.34375C3.14323 1.11458 3.70833 1 4.3125 1C4.86458 1 5.39844 1.10156 5.91406 1.30469C6.4349 1.50781 6.89323 1.80208 7.28906 2.1875C7.40885 2.30729 7.52604 2.42708 7.64062 2.54688C7.75521 2.66146 7.8724 2.77865 7.99219 2.89844C8.11198 2.77865 8.22917 2.65885 8.34375 2.53906C8.45833 2.41927 8.57552 2.30208 8.69531 2.1875C9.09115 1.80729 9.54167 1.51823 10.0469 1.32031C10.5573 1.11719 11.0885 1.01562 11.6406 1.01562C12.2448 1.01562 12.8125 1.13281 13.3438 1.36719C13.875 1.60156 14.3359 1.91927 14.7266 2.32031C15.1224 2.71615 15.4323 3.18229 15.6562 3.71875C15.8854 4.25521 16 4.82292 16 5.42188C16 5.69271 15.9766 5.96094 15.9297 6.22656C15.8828 6.49219 15.8099 6.75 15.7109 7H14.6094C14.8698 6.50521 15 5.97656 15 5.41406C15 4.95052 14.9115 4.51302 14.7344 4.10156C14.5625 3.6901 14.3229 3.33073 14.0156 3.02344C13.7135 2.71615 13.3594 2.47396 12.9531 2.29688C12.5469 2.11458 12.1094 2.02344 11.6406 2.02344C11.1875 2.02344 10.763 2.10677 10.3672 2.27344C9.97135 2.4349 9.61458 2.67708 9.29688 3C9.19792 3.10417 9.09896 3.20573 9 3.30469C8.90625 3.40365 8.80729 3.5026 8.70312 3.60156C8.50521 3.79948 8.26823 3.89844 7.99219 3.89844C7.71615 3.89844 7.47917 3.79948 7.28125 3.60156C7.17708 3.4974 7.07552 3.39583 6.97656 3.29688C6.88281 3.19792 6.78385 3.09635 6.67969 2.99219C6.36719 2.67448 6.00521 2.42969 5.59375 2.25781C5.1875 2.08594 4.76042 2 4.3125 2C3.84896 2 3.41406 2.08854 3.00781 2.26562C2.60677 2.44271 2.25781 2.6849 1.96094 2.99219C1.66406 3.29427 1.42969 3.64844 1.25781 4.05469C1.08594 4.46094 1 4.89323 1 5.35156C1 5.64323 1.03646 5.92708 1.10938 6.20312C1.18229 6.47917 1.28646 6.74479 1.42188 7H0.3125ZM7.97656 11C7.89323 11 7.8099 10.974 7.72656 10.9219C7.64844 10.8646 7.59115 10.7995 7.55469 10.7266L5.4375 6.49219L3.91406 8.77344C3.8151 8.92448 3.67708 9 3.5 9H0.5C0.364583 9 0.247396 8.95052 0.148438 8.85156C0.0494792 8.7526 0 8.63542 0 8.5C0 8.36458 0.0494792 8.2474 0.148438 8.14844C0.247396 8.04948 0.364583 8 0.5 8H3.23438L5.08594 5.21875C5.13281 5.14583 5.19271 5.09115 5.26562 5.05469C5.34375 5.01823 5.42448 5 5.50781 5C5.59635 5 5.67969 5.02604 5.75781 5.07812C5.84115 5.125 5.90365 5.1901 5.94531 5.27344L8.04688 9.47656L10.0781 6.23438C10.1771 6.07812 10.3151 6 10.4922 6C10.6328 6 10.7526 6.04948 10.8516 6.14844L12.7109 8H15.5C15.6354 8 15.7526 8.04948 15.8516 8.14844C15.9505 8.2474 16 8.36458 16 8.5C16 8.63542 15.9505 8.7526 15.8516 8.85156C15.7526 8.95052 15.6354 9 15.5 9H12.5C12.3646 9 12.2474 8.95052 12.1484 8.85156L10.5938 7.29688L8.42188 10.7656C8.32292 10.9219 8.17448 11 7.97656 11ZM2.79688 10H4.20312L8.02344 13.8594L11.8438 10H13.2578L8.5 14.8047C8.36979 14.9349 8.21094 15 8.02344 15C7.84115 15 7.6849 14.9349 7.55469 14.8047L2.79688 10Z" />
</svg>
