<svg width="16" height="16" viewBox="0 0 16 16" xmlns="http://www.w3.org/2000/svg">
	<path d="M1.5 0C1.77614 0 2 0.223858 2 0.5V4.5C2 4.77614 2.22386 5 2.5 5H13.5C13.7761 5 14 4.77614 14 4.5V0.5C14 0.223858 14.2239 0 14.5 0C14.7761 0 15 0.223858 15 0.5V4.5C15 5.15311 14.5826 5.70873 14 5.91465V7C14 8.10457 13.1046 9 12 9V11.0729C12 11.8305 11.572 12.523 10.8944 12.8618L4.72361 15.9472C4.56861 16.0247 4.38454 16.0164 4.23713 15.9253C4.08973 15.8342 4 15.6733 4 15.5V9C2.89543 9 2 8.10457 2 7V5.91465C1.4174 5.70873 1 5.15311 1 4.5V0.5C1 0.223858 1.22386 0 1.5 0ZM3 6V7C3 7.55228 3.44772 8 4 8H12C12.5523 8 13 7.55228 13 7V6H3ZM5 9V14.691L10.4472 11.9674C10.786 11.798 11 11.4517 11 11.0729V9H5Z" />
</svg>
