<svg width="16" height="16" viewBox="0 0 16 16" xmlns="http://www.w3.org/2000/svg">
	<path d="M3 15C2.72396 15 2.46354 14.9479 2.21875 14.8438C1.97917 14.7396 1.76823 14.5964 1.58594 14.4141C1.40365 14.2318 1.26042 14.0208 1.15625 13.7812C1.05208 13.5365 1 13.276 1 13V6.91406C1 6.71615 1.03906 6.52344 1.11719 6.33594C1.19531 6.14844 1.30208 5.98698 1.4375 5.85156L6.76562 0.53125C6.93229 0.364583 7.11979 0.236979 7.32812 0.148438C7.54167 0.0598958 7.76562 0.015625 8 0.015625C8.23438 0.015625 8.45573 0.0598958 8.66406 0.148438C8.8776 0.236979 9.06771 0.364583 9.23438 0.53125L14.5625 5.85156C14.6979 5.98698 14.8047 6.14844 14.8828 6.33594C14.9609 6.52344 15 6.71615 15 6.91406V13C15 13.276 14.9479 13.5365 14.8438 13.7812C14.7396 14.0208 14.5964 14.2318 14.4141 14.4141C14.2318 14.5964 14.0182 14.7396 13.7734 14.8438C13.5339 14.9479 13.276 15 13 15H10C9.85938 15 9.72656 14.974 9.60156 14.9219C9.48177 14.8698 9.3776 14.7995 9.28906 14.7109C9.20052 14.6224 9.13021 14.5182 9.07812 14.3984C9.02604 14.2734 9 14.1406 9 14V10H7V14C7 14.1406 6.97396 14.2708 6.92188 14.3906C6.86979 14.5104 6.79688 14.6172 6.70312 14.7109C6.61458 14.7995 6.51042 14.8698 6.39062 14.9219C6.27083 14.974 6.14062 15 6 15H3ZM6 14V10C6 9.85938 6.02604 9.72917 6.07812 9.60938C6.13021 9.48958 6.20052 9.38542 6.28906 9.29688C6.38281 9.20312 6.48958 9.13021 6.60938 9.07812C6.72917 9.02604 6.85938 9 7 9H9C9.13542 9 9.26302 9.02604 9.38281 9.07812C9.50781 9.13021 9.61458 9.20312 9.70312 9.29688C9.79688 9.38542 9.86979 9.49219 9.92188 9.61719C9.97396 9.73698 10 9.86458 10 10V14H13C13.1406 14 13.2708 13.974 13.3906 13.9219C13.5104 13.8698 13.6146 13.7995 13.7031 13.7109C13.7969 13.6172 13.8698 13.5104 13.9219 13.3906C13.974 13.2708 14 13.1406 14 13V6.91406C14 6.77865 13.9505 6.66146 13.8516 6.5625L8.53125 1.23438C8.38542 1.08854 8.20833 1.01562 8 1.01562C7.79167 1.01562 7.61458 1.08854 7.46875 1.23438L2.14844 6.5625C2.04948 6.66146 2 6.77865 2 6.91406V13C2 13.1406 2.02604 13.2734 2.07812 13.3984C2.13021 13.5182 2.20052 13.6224 2.28906 13.7109C2.3776 13.7995 2.48177 13.8698 2.60156 13.9219C2.72656 13.974 2.85938 14 3 14H6Z" />
</svg>
