<svg width="16" height="16" viewBox="0 0 16 16" xmlns="http://www.w3.org/2000/svg">
	<path d="M3.92188 16C3.66667 16 3.42448 15.9479 3.19531 15.8438C2.96615 15.7396 2.76042 15.599 2.57812 15.4219C2.39583 15.2448 2.25521 15.0417 2.15625 14.8125C2.05729 14.5833 2.00521 14.3385 2 14.0781C2 13.6719 2.04167 13.276 2.125 12.8906C2.20833 12.5052 2.33333 12.1328 2.5 11.7734C2.66667 11.4141 2.86979 11.0781 3.10938 10.7656C3.34896 10.4531 3.625 10.1641 3.9375 9.89844L5.75781 8.38281C5.8776 8.27865 5.9375 8.15104 5.9375 8C5.9375 7.92708 5.92188 7.85677 5.89062 7.78906C5.85938 7.72135 5.8151 7.66406 5.75781 7.61719L3.9375 6.09375C3.30729 5.5625 2.82812 4.9401 2.5 4.22656C2.17188 3.51302 2.00521 2.74479 2 1.92188C2 1.66667 2.05208 1.42448 2.15625 1.19531C2.26042 0.966146 2.40104 0.760417 2.57812 0.578125C2.75521 0.395833 2.95833 0.255208 3.1875 0.15625C3.41667 0.0572917 3.66146 0.00520833 3.92188 0H12.0781C12.3333 0 12.5755 0.0520833 12.8047 0.15625C13.0339 0.260417 13.2396 0.401042 13.4219 0.578125C13.6042 0.755208 13.7448 0.958333 13.8438 1.1875C13.9427 1.41667 13.9948 1.66146 14 1.92188C14 2.74479 13.8359 3.51302 13.5078 4.22656C13.1797 4.9401 12.6979 5.5625 12.0625 6.09375L10.2422 7.61719C10.1224 7.72135 10.0625 7.84896 10.0625 8C10.0625 8.07292 10.0781 8.14323 10.1094 8.21094C10.1406 8.27865 10.1849 8.33594 10.2422 8.38281L12.0625 9.89844C12.375 10.1589 12.651 10.4453 12.8906 10.7578C13.1302 11.0703 13.3307 11.4062 13.4922 11.7656C13.6536 12.125 13.7786 12.4974 13.8672 12.8828C13.9557 13.2682 14 13.6667 14 14.0781C14 14.3333 13.9479 14.5755 13.8438 14.8047C13.7396 15.0339 13.599 15.2396 13.4219 15.4219C13.2448 15.6042 13.0417 15.7448 12.8125 15.8438C12.5833 15.9427 12.3385 15.9948 12.0781 16H3.92188ZM12.0391 15C12.1693 15 12.2917 14.9766 12.4062 14.9297C12.5208 14.8828 12.625 14.8125 12.7188 14.7188C12.8125 14.625 12.8802 14.5234 12.9219 14.4141C12.9635 14.3047 12.9896 14.1797 13 14.0391C13 13.3776 12.8646 12.7578 12.5938 12.1797C12.3229 11.6016 11.9323 11.099 11.4219 10.6719L9.60156 9.14844C9.42969 9.0026 9.29688 8.83073 9.20312 8.63281C9.10938 8.4349 9.0625 8.22396 9.0625 8C9.0625 7.77604 9.10938 7.5625 9.20312 7.35938C9.29688 7.15625 9.42969 6.98438 9.60156 6.84375L11.4219 5.32812C11.9271 4.90625 12.3151 4.40625 12.5859 3.82812C12.8568 3.25 12.9948 2.6276 13 1.96094C13 1.83073 12.9766 1.70833 12.9297 1.59375C12.8828 1.47917 12.8125 1.375 12.7188 1.28125C12.625 1.1875 12.5234 1.11979 12.4141 1.07812C12.3047 1.03646 12.1797 1.01042 12.0391 1H3.96094C3.82552 1 3.70052 1.02344 3.58594 1.07031C3.47135 1.11719 3.36979 1.1875 3.28125 1.28125C3.19271 1.375 3.125 1.47656 3.07812 1.58594C3.03125 1.69531 3.00521 1.82031 3 1.96094C3 2.28385 3.03385 2.60156 3.10156 2.91406C3.16927 3.22656 3.27344 3.52865 3.41406 3.82031C3.55469 4.11198 3.71875 4.38281 3.90625 4.63281C4.09375 4.88281 4.31771 5.11458 4.57812 5.32812L6.39844 6.84375C6.57031 6.98438 6.70312 7.15625 6.79688 7.35938C6.89062 7.5625 6.9375 7.77604 6.9375 8C6.9375 8.22396 6.89062 8.4349 6.79688 8.63281C6.70312 8.83073 6.57031 9.0026 6.39844 9.14844L4.57812 10.6719C4.07292 11.0938 3.6849 11.5964 3.41406 12.1797C3.14323 12.763 3.00521 13.3828 3 14.0391C3 14.1745 3.02344 14.2995 3.07031 14.4141C3.11719 14.5286 3.1875 14.6302 3.28125 14.7188C3.375 14.8073 3.47656 14.875 3.58594 14.9219C3.69531 14.9688 3.82031 14.9948 3.96094 15H12.0391Z" />
</svg>
