<svg width="16" height="16" viewBox="0 0 16 16" xmlns="http://www.w3.org/2000/svg">
	<path fill-rule="evenodd" clip-rule="evenodd" d="M12.4999 5.9677C12.4825 3.49729 10.4745 1.5 8 1.5C5.52549 1.5 3.51748 3.49729 3.50011 5.9677C2.01833 6.70403 1 8.23309 1 10C1 12.4853 3.01472 14.5 5.5 14.5C6.42507 14.5 7.28495 14.2209 8 13.7422C8.71505 14.2209 9.57493 14.5 10.5 14.5C12.9853 14.5 15 12.4853 15 10C15 8.23309 13.9817 6.70403 12.4999 5.9677ZM8 9.5C8.32697 9.5 8.64347 9.45516 8.94369 9.3713C8.81631 8.66901 8.47938 8.03971 8 7.55051C7.52062 8.03971 7.18369 8.66901 7.05631 9.3713C7.35653 9.45516 7.67303 9.5 8 9.5ZM6.12217 8.95412C6.30445 8.18831 6.68247 7.49837 7.20043 6.9401C6.69698 6.65973 6.11714 6.5 5.5 6.5C5.17303 6.5 4.85653 6.54484 4.55631 6.6287C4.73339 7.605 5.31545 8.44025 6.12217 8.95412ZM8 6.25778C7.28495 5.77914 6.42507 5.5 5.5 5.5C5.16409 5.5 4.83677 5.53681 4.52186 5.60661C4.71736 3.85879 6.2 2.5 8 2.5C9.8 2.5 11.2826 3.8588 11.4781 5.60661C11.1632 5.53681 10.8359 5.5 10.5 5.5C9.57493 5.5 8.71505 5.77914 8 6.25778ZM11.4437 6.6287C11.1435 6.54484 10.827 6.5 10.5 6.5C9.88286 6.5 9.30302 6.65973 8.79957 6.9401C9.31753 7.49837 9.69555 8.18831 9.87782 8.95413C10.6846 8.44025 11.2666 7.605 11.4437 6.6287ZM12.3778 7.04588C13.3531 7.6671 14 8.758 14 10C14 11.933 12.433 13.5 10.5 13.5C9.88285 13.5 9.30302 13.3403 8.79957 13.0599C9.53774 12.2643 9.99167 11.2013 9.99988 10.0323C11.1797 9.44602 12.0657 8.35718 12.3778 7.04588ZM8 12.4495C8.53233 11.9063 8.889 11.1903 8.97813 10.3934C8.66323 10.4632 8.33591 10.5 8 10.5C7.66409 10.5 7.33677 10.4632 7.02187 10.3934C7.111 11.1903 7.46768 11.9063 8 12.4495ZM7.20043 13.0599C6.46227 12.2643 6.00833 11.2013 6.00012 10.0323C4.8203 9.44602 3.93429 8.35718 3.62217 7.04588C2.64691 7.6671 2 8.758 2 10C2 11.933 3.567 13.5 5.5 13.5C6.11715 13.5 6.69699 13.3403 7.20043 13.0599Z" />
</svg>
