<svg width="16" height="16" viewBox="0 0 16 16" xmlns="http://www.w3.org/2000/svg">
	<path fill-rule="evenodd" clip-rule="evenodd" d="M8 5.99823C7.28429 4.66025 5.87344 3.75 4.25 3.75C1.90279 3.75 0 5.65279 0 8C0 10.3472 1.90279 12.25 4.25 12.25C5.87344 12.25 7.28429 11.3397 8 10.0018C8.71571 11.3397 10.1266 12.25 11.75 12.25C14.0972 12.25 16 10.3472 16 8C16 5.65279 14.0972 3.75 11.75 3.75C10.1266 3.75 8.71571 4.66025 8 5.99823ZM7.5 8C7.5 9.79493 6.04493 11.25 4.25 11.25C2.45507 11.25 1 9.79493 1 8C1 6.20507 2.45507 4.75 4.25 4.75C6.04493 4.75 7.5 6.20507 7.5 8ZM8.5 8C8.5 9.79493 9.95507 11.25 11.75 11.25C13.5449 11.25 15 9.79493 15 8C15 6.20507 13.5449 4.75 11.75 4.75C9.95507 4.75 8.5 6.20507 8.5 8Z" />
</svg>
