<svg width="16" height="16" viewBox="0 0 16 16" xmlns="http://www.w3.org/2000/svg">
	<path d="M4.5 4.75C4.5 5.16421 4.16421 5.5 3.75 5.5C3.33579 5.5 3 5.16421 3 4.75C3 4.33579 3.33579 4 3.75 4C4.16421 4 4.5 4.33579 4.5 4.75Z" />
	<path d="M10 4.5C10 4.22386 10.2239 4 10.5 4H12.5C12.7761 4 13 4.22386 13 4.5C13 4.77614 12.7761 5 12.5 5H10.5C10.2239 5 10 4.77614 10 4.5Z" />
	<path d="M6.25 5.5C6.66421 5.5 7 5.16421 7 4.75C7 4.33579 6.66421 4 6.25 4C5.83579 4 5.5 4.33579 5.5 4.75C5.5 5.16421 5.83579 5.5 6.25 5.5Z" />
	<path fill-rule="evenodd" clip-rule="evenodd" d="M0 4C0 2.89543 0.895431 2 2 2H14C15.1046 2 16 2.89543 16 4V12C16 13.1046 15.1046 14 14 14H2C0.895431 14 0 13.1046 0 12V4ZM1 8V12C1 12.5523 1.44772 13 2 13H14C14.5523 13 15 12.5523 15 12V8H13V11.5C13 11.7761 12.7761 12 12.5 12C12.2239 12 12 11.7761 12 11.5V8H10V11.5C10 11.7761 9.77614 12 9.5 12C9.22386 12 9 11.7761 9 11.5V8H7V11.5C7 11.7761 6.77614 12 6.5 12C6.22386 12 6 11.7761 6 11.5V8H4V11.5C4 11.7761 3.77614 12 3.5 12C3.22386 12 3 11.7761 3 11.5V8H1ZM1 7V4C1 3.44772 1.44772 3 2 3H14C14.5523 3 15 3.44772 15 4V7H1Z" />
</svg>
