<svg width="16" height="16" viewBox="0 0 16 16" xmlns="http://www.w3.org/2000/svg">
	<path d="M2.5 3C2.5 2.72386 2.72386 2.5 3 2.5H4C4.27614 2.5 4.5 2.27614 4.5 2C4.5 1.72386 4.27614 1.5 4 1.5H3C2.17157 1.5 1.5 2.17157 1.5 3V4C1.5 4.27614 1.72386 4.5 2 4.5C2.27614 4.5 2.5 4.27614 2.5 4V3Z" />
	<path d="M7 1.5C6.72386 1.5 6.5 1.72386 6.5 2C6.5 2.27614 6.72386 2.5 7 2.5H9C9.27614 2.5 9.5 2.27614 9.5 2C9.5 1.72386 9.27614 1.5 9 1.5H7Z" />
	<path d="M12 1.5C11.7239 1.5 11.5 1.72386 11.5 2C11.5 2.27614 11.7239 2.5 12 2.5H13C13.2761 2.5 13.5 2.72386 13.5 3V4C13.5 4.27614 13.7239 4.5 14 4.5C14.2761 4.5 14.5 4.27614 14.5 4V3C14.5 2.17157 13.8284 1.5 13 1.5H12Z" />
	<path d="M2.5 7C2.5 6.72386 2.27614 6.5 2 6.5C1.72386 6.5 1.5 6.72386 1.5 7V9C1.5 9.27614 1.72386 9.5 2 9.5C2.27614 9.5 2.5 9.27614 2.5 9V7Z" />
	<path d="M14.5 7C14.5 6.72386 14.2761 6.5 14 6.5C13.7239 6.5 13.5 6.72386 13.5 7V8.28846C13.8312 8.23717 14.1688 8.23717 14.5 8.28846V7Z" />
	<path d="M2.5 12C2.5 11.7239 2.27614 11.5 2 11.5C1.72386 11.5 1.5 11.7239 1.5 12V13C1.5 13.8284 2.17157 14.5 3 14.5H4C4.27614 14.5 4.5 14.2761 4.5 14C4.5 13.7239 4.27614 13.5 4 13.5H3C2.72386 13.5 2.5 13.2761 2.5 13V12Z" />
	<path d="M7 13.5C6.72386 13.5 6.5 13.7239 6.5 14C6.5 14.2761 6.72386 14.5 7 14.5H9C9.27614 14.5 9.5 14.2761 9.5 14C9.5 13.7239 9.27614 13.5 9 13.5H7Z" />
	<path d="M11.5 10.4645V9.5C11.5 9.22386 11.2761 9 11 9C10.7239 9 10.5 9.22386 10.5 9.5V11.5C10.5 11.7761 10.7239 12 11 12H13C13.2761 12 13.5 11.7761 13.5 11.5C13.5 11.2239 13.2761 11 13 11H12.3787L12.9393 10.4393C13.5251 9.85355 14.4749 9.85355 15.0607 10.4393C15.6464 11.0251 15.6464 11.9749 15.0607 12.5607L11.9671 15.6542C11.7718 15.8495 11.7718 16.1661 11.9671 16.3614C12.1623 16.5566 12.4789 16.5566 12.6742 16.3614L15.7678 13.2678C16.7441 12.2915 16.7441 10.7085 15.7678 9.73223C14.7915 8.75592 13.2085 8.75592 12.2322 9.73223L11.5 10.4645Z" />
</svg>
