<svg width="16" height="16" viewBox="0 0 16 16" xmlns="http://www.w3.org/2000/svg">
	<path d="M14.0391 6C14.2995 6 14.5469 6.05469 14.7812 6.16406C15.0208 6.26823 15.2292 6.41146 15.4062 6.59375C15.5885 6.77083 15.7318 6.97917 15.8359 7.21875C15.9453 7.45312 16 7.70052 16 7.96094V14.0391C16 14.2995 15.9453 14.5495 15.8359 14.7891C15.7318 15.0234 15.5885 15.2318 15.4062 15.4141C15.2292 15.5911 15.0208 15.7344 14.7812 15.8438C14.5469 15.9479 14.2995 16 14.0391 16H7.96094C7.6901 16 7.4349 15.9453 7.19531 15.8359C6.96094 15.7266 6.75521 15.5807 6.57812 15.3984C6.40104 15.2161 6.26042 15.0052 6.15625 14.7656C6.05208 14.5208 6 14.2656 6 14V10H1.96094C1.70052 10 1.45052 9.94792 1.21094 9.84375C0.976562 9.73438 0.768229 9.59115 0.585938 9.41406C0.408854 9.23177 0.265625 9.02344 0.15625 8.78906C0.0520833 8.54948 0 8.29948 0 8.03906V1.96094C0 1.70052 0.0520833 1.45312 0.15625 1.21875C0.265625 0.979167 0.408854 0.770833 0.585938 0.59375C0.768229 0.411458 0.976562 0.268229 1.21094 0.164062C1.45052 0.0546875 1.70052 0 1.96094 0H8.03906C8.3099 0 8.5625 0.0546875 8.79688 0.164062C9.03646 0.273438 9.24479 0.419271 9.42188 0.601562C9.59896 0.783854 9.73958 0.997396 9.84375 1.24219C9.94792 1.48177 10 1.73438 10 2V6H14.0391ZM6.00781 7.82812C6.02865 7.58854 6.08854 7.36198 6.1875 7.14844C6.29167 6.9349 6.42448 6.7474 6.58594 6.58594C6.7474 6.42448 6.9349 6.29427 7.14844 6.19531C7.36198 6.09115 7.58854 6.02865 7.82812 6.00781C7.89062 5.83073 7.9349 5.65365 7.96094 5.47656C7.98698 5.29948 8 5.11979 8 4.9375C8 4.53125 7.91927 4.15104 7.75781 3.79688C7.59635 3.4375 7.3776 3.125 7.10156 2.85938C6.82552 2.59375 6.50521 2.38542 6.14062 2.23438C5.78125 2.07812 5.40104 2 5 2C4.58333 2 4.19271 2.07812 3.82812 2.23438C3.46354 2.39062 3.14583 2.60417 2.875 2.875C2.60417 3.14583 2.39062 3.46354 2.23438 3.82812C2.07812 4.19271 2 4.58333 2 5C2 5.40104 2.07552 5.78385 2.22656 6.14844C2.38281 6.50781 2.59375 6.82552 2.85938 7.10156C3.125 7.3776 3.4349 7.59635 3.78906 7.75781C4.14844 7.91927 4.53125 8 4.9375 8C5.11979 8 5.29948 7.98698 5.47656 7.96094C5.65365 7.9349 5.83073 7.89062 6.00781 7.82812ZM15 8C15 7.86458 14.974 7.73698 14.9219 7.61719C14.8698 7.49219 14.7969 7.38542 14.7031 7.29688C14.6146 7.20312 14.5078 7.13021 14.3828 7.07812C14.263 7.02604 14.1354 7 14 7H8C7.85938 7 7.72917 7.02604 7.60938 7.07812C7.48958 7.13021 7.38281 7.20312 7.28906 7.29688C7.20052 7.38542 7.13021 7.48958 7.07812 7.60938C7.02604 7.72917 7 7.85938 7 8V14C7 14.1406 7.02604 14.2734 7.07812 14.3984C7.13021 14.5182 7.20052 14.6224 7.28906 14.7109C7.3776 14.7995 7.48177 14.8698 7.60156 14.9219C7.72656 14.974 7.85938 15 8 15H14C14.1406 15 14.2708 14.974 14.3906 14.9219C14.5104 14.8698 14.6146 14.7995 14.7031 14.7109C14.7969 14.6172 14.8698 14.5104 14.9219 14.3906C14.974 14.2708 15 14.1406 15 14V8ZM14 11V11.0625C14 11.4688 13.9193 11.8516 13.7578 12.2109C13.5964 12.5651 13.3776 12.875 13.1016 13.1406C12.8255 13.4062 12.5052 13.6172 12.1406 13.7734C11.7812 13.9245 11.401 14 11 14C10.5833 14 10.1927 13.9219 9.82812 13.7656C9.46354 13.6094 9.14583 13.3958 8.875 13.125C8.60417 12.8542 8.39062 12.5365 8.23438 12.1719C8.07812 11.8073 8 11.4167 8 11C8 10.5833 8.07812 10.1927 8.23438 9.82812C8.39062 9.46354 8.60417 9.14583 8.875 8.875C9.14583 8.60417 9.46354 8.39062 9.82812 8.23438C10.1927 8.07812 10.5833 8 11 8C11.4167 8 11.8073 8.07812 12.1719 8.23438C12.5365 8.39062 12.8542 8.60417 13.125 8.875C13.3958 9.14583 13.6094 9.46354 13.7656 9.82812C13.9219 10.1927 14 10.5833 14 11Z" />
</svg>
