<svg width="16" height="16" viewBox="0 0 16 16" xmlns="http://www.w3.org/2000/svg">
	<path fill-rule="evenodd" clip-rule="evenodd" d="M5.66664 11.5H10.3333L11.6154 14.5769C11.934 15.3416 12.8122 15.7032 13.5769 15.3846C14.3416 15.066 14.7032 14.1878 14.3846 13.4231L9.39382 1.44522C9.13571 0.825745 8.56786 0.516001 8 0.515991C7.64046 0.515985 7.28093 0.640144 7 0.888469C6.83722 1.03236 6.70083 1.21795 6.60613 1.44522L1.61536 13.4231C1.29673 14.1878 1.65835 15.066 2.42305 15.3846C3.18775 15.7032 4.06596 15.3416 4.38459 14.5769L5.66664 11.5ZM8 5.90005L9.08331 8.49999H6.91664L8 5.90005ZM8 9.49999H10.5833L8 3.30005V1.51585C8.03652 1.51588 8.07366 1.51953 8.11082 1.52711C8.26377 1.55829 8.39613 1.65077 8.47074 1.82984L13.4615 13.8077C13.5677 14.0626 13.4472 14.3553 13.1923 14.4615C12.9374 14.5677 12.6446 14.4472 12.5384 14.1923L11 10.5H8V9.49999Z" />
</svg>
