<svg width="16" height="16" viewBox="0 0 16 16" xmlns="http://www.w3.org/2000/svg">
	<path fill-rule="evenodd" clip-rule="evenodd" d="M10.3334 11.5H5.66669L4.38464 14.5769C4.06601 15.3416 3.1878 15.7032 2.4231 15.3846C1.6584 15.066 1.29678 14.1878 1.61541 13.4231L6.60618 1.44522C6.86429 0.825745 7.43214 0.516001 8 0.515991C8.35954 0.515985 8.71907 0.640144 9 0.888469C9.16278 1.03236 9.29917 1.21795 9.39387 1.44522L14.3846 13.4231C14.7033 14.1878 14.3417 15.066 13.5769 15.3846C12.8122 15.7032 11.934 15.3416 11.6154 14.5769L10.3334 11.5ZM8 5.90005L6.91669 8.49999H9.08336L8 5.90005ZM8 9.49999H5.41669L8 3.30005V1.51585C7.96348 1.51588 7.92634 1.51953 7.88918 1.52711C7.73623 1.55829 7.60387 1.65077 7.52926 1.82984L2.53849 13.8077C2.43228 14.0626 2.55282 14.3553 2.80772 14.4615C3.06262 14.5677 3.35535 14.4472 3.46156 14.1923L5.00003 10.5H8V9.49999Z" />
</svg>
