<svg width="16" height="16" viewBox="0 0 16 16" xmlns="http://www.w3.org/2000/svg">
	<path d="M1 5.51562C1 5.33854 1.04427 5.17448 1.13281 5.02344C1.22135 4.86719 1.34115 4.74479 1.49219 4.65625L7.5 1.14062C7.65625 1.04688 7.82552 1 8.00781 1C8.1901 1 8.35938 1.04688 8.51562 1.14062L14.5234 4.65625C14.6745 4.74479 14.7943 4.86719 14.8828 5.02344C14.9714 5.17969 15.0156 5.34635 15.0156 5.52344C15.0156 5.70052 14.9714 5.86719 14.8828 6.02344C14.7943 6.17448 14.6745 6.29427 14.5234 6.38281L8.51562 9.88281C8.44271 9.92448 8.36198 9.95833 8.27344 9.98438C8.1901 10.0104 8.10417 10.0234 8.01562 10.0234C7.83333 10.0234 7.66406 9.97656 7.50781 9.88281L1.5 6.38281C1.34896 6.29427 1.22656 6.17188 1.13281 6.01562C1.04427 5.85938 1 5.69271 1 5.51562ZM8.01562 8.85938C8.19792 8.85938 8.36458 8.8151 8.51562 8.72656L14.0156 5.51562L8.51562 2.29688C8.35938 2.20312 8.1901 2.15625 8.00781 2.15625C7.82552 2.15625 7.65625 2.20312 7.5 2.29688L2 5.51562L7.50781 8.72656C7.58073 8.76823 7.66146 8.80208 7.75 8.82812C7.83854 8.84896 7.92708 8.85938 8.01562 8.85938ZM1 8.0625C1 7.92188 1.02604 7.79167 1.07812 7.67188L7.51562 11.2969C7.66146 11.3802 7.82552 11.4219 8.00781 11.4219C8.1901 11.4219 8.35417 11.3802 8.5 11.2969L14.9375 7.67188C14.9896 7.79167 15.0156 7.92188 15.0156 8.0625C15.0156 8.23958 14.9714 8.40625 14.8828 8.5625C14.7943 8.71875 14.6745 8.84115 14.5234 8.92969L8.51562 12.4297C8.44271 12.4714 8.36198 12.5052 8.27344 12.5312C8.1901 12.5573 8.10417 12.5703 8.01562 12.5703C7.83333 12.5703 7.66406 12.5234 7.50781 12.4297L1.5 8.92969C1.34896 8.84115 1.22656 8.71875 1.13281 8.5625C1.04427 8.40625 1 8.23958 1 8.0625ZM1 10.5156C1 10.375 1.02604 10.2448 1.07812 10.125L7.51562 13.7422C7.66146 13.8255 7.82552 13.8672 8.00781 13.8672C8.1901 13.8672 8.35417 13.8255 8.5 13.7422L14.9375 10.125C14.9896 10.2448 15.0156 10.375 15.0156 10.5156C15.0156 10.6927 14.9714 10.8594 14.8828 11.0156C14.7943 11.1719 14.6745 11.2943 14.5234 11.3828L8.51562 14.8828C8.44271 14.9245 8.36198 14.9583 8.27344 14.9844C8.1901 15.0104 8.10417 15.0234 8.01562 15.0234C7.83333 15.0234 7.66406 14.9766 7.50781 14.8828L1.5 11.3828C1.34896 11.2943 1.22656 11.1719 1.13281 11.0156C1.04427 10.8594 1 10.6927 1 10.5156Z" />
</svg>
