<svg width="16" height="16" viewBox="0 0 16 16" xmlns="http://www.w3.org/2000/svg">
	<path fill-rule="evenodd" clip-rule="evenodd" d="M0 3.5C0 3.22386 0.223858 3 0.5 3H2C3.10457 3 4 3.89543 4 5V11C4 12.1046 3.10457 13 2 13H0.5C0.223858 13 0 12.7761 0 12.5C0 12.2239 0.223858 12 0.5 12H2C2.55228 12 3 11.5523 3 11V5C3 4.44772 2.55228 4 2 4H0.5C0.223858 4 0 3.77614 0 3.5ZM12 5C12 3.89543 12.8954 3 14 3H15.5C15.7761 3 16 3.22386 16 3.5C16 3.77614 15.7761 4 15.5 4H14C13.4477 4 13 4.44772 13 5V11C13 11.5523 13.4477 12 14 12H15.5C15.7761 12 16 12.2239 16 12.5C16 12.7761 15.7761 13 15.5 13H14C12.8954 13 12 12.1046 12 11V5ZM7.64645 5.14645C7.84171 4.95118 8.15829 4.95118 8.35355 5.14645L10.8536 7.64645C11.0488 7.84171 11.0488 8.15829 10.8536 8.35355L8.35355 10.8536C8.15829 11.0488 7.84171 11.0488 7.64645 10.8536C7.45118 10.6583 7.45118 10.3417 7.64645 10.1464L9.29289 8.5H5.5C5.22386 8.5 5 8.27614 5 8C5 7.72386 5.22386 7.5 5.5 7.5H9.29289L7.64645 5.85355C7.45118 5.65829 7.45118 5.34171 7.64645 5.14645Z" />
</svg>
