<svg width="16" height="16" viewBox="0 0 16 16" xmlns="http://www.w3.org/2000/svg">
	<path d="M8 3.5C8.27614 3.5 8.5 3.72386 8.5 4V5.25C8.5 5.52614 8.27614 5.75 8 5.75C7.72386 5.75 7.5 5.52614 7.5 5.25V4C7.5 3.72386 7.72386 3.5 8 3.5Z" />
	<path d="M8 6.75C8.27614 6.75 8.5 6.97386 8.5 7.25V8.75C8.5 9.02614 8.27614 9.25 8 9.25C7.72386 9.25 7.5 9.02614 7.5 8.75V7.25C7.5 6.97386 7.72386 6.75 8 6.75Z" />
	<path d="M8 10.25C8.27614 10.25 8.5 10.4739 8.5 10.75V12C8.5 12.2761 8.27614 12.5 8 12.5C7.72386 12.5 7.5 12.2761 7.5 12V10.75C7.5 10.4739 7.72386 10.25 8 10.25Z" />
	<path d="M12.3536 5.64645C12.1583 5.45118 11.8417 5.45118 11.6464 5.64645C11.4512 5.84171 11.4512 6.15829 11.6464 6.35355L12.7929 7.5H10C9.72386 7.5 9.5 7.72386 9.5 8C9.5 8.27614 9.72386 8.5 10 8.5H12.7929L11.6464 9.64645C11.4512 9.84171 11.4512 10.1583 11.6464 10.3536C11.8417 10.5488 12.1583 10.5488 12.3536 10.3536L14.3536 8.35355C14.5488 8.15829 14.5488 7.84171 14.3536 7.64645L12.3536 5.64645Z" />
	<path fill-rule="evenodd" clip-rule="evenodd" d="M0 4C0 2.89543 0.895431 2 2 2H14C15.1046 2 16 2.89543 16 4V12C16 13.1046 15.1046 14 14 14H2C0.895431 14 0 13.1046 0 12V4ZM2 3C1.44772 3 1 3.44772 1 4V12C1 12.5523 1.44772 13 2 13H14C14.5523 13 15 12.5523 15 12V4C15 3.44772 14.5523 3 14 3H2Z" />
</svg>
