<svg width="16" height="16" viewBox="0 0 16 16" xmlns="http://www.w3.org/2000/svg">
	<path fill-rule="evenodd" clip-rule="evenodd" d="M14.9779 2.35295C15.0591 2.61688 14.911 2.89668 14.647 2.97789L3.20018 6.5L14.647 10.0221C14.911 10.1033 15.0591 10.3831 14.9779 10.647C14.8967 10.911 14.6169 11.0591 14.353 10.9779L1.35296 6.97789C1.14316 6.91333 1 6.7195 1 6.5C1 6.28049 1.14316 6.08666 1.35296 6.02211L14.353 2.02211C14.6169 1.9409 14.8967 2.08902 14.9779 2.35295ZM1 14C1 13.7239 1.22386 13.5 1.5 13.5H14.5C14.7761 13.5 15 13.7239 15 14C15 14.2761 14.7761 14.5 14.5 14.5H1.5C1.22386 14.5 1 14.2761 1 14Z" />
</svg>
