<svg width="16" height="16" viewBox="0 0 16 16" xmlns="http://www.w3.org/2000/svg">
	<path d="M14 8V14C14 14.276 13.9479 14.5365 13.8438 14.7812C13.7396 15.0208 13.5964 15.2318 13.4141 15.4141C13.2318 15.5964 13.0182 15.7396 12.7734 15.8438C12.5339 15.9479 12.276 16 12 16H4C3.72396 16 3.46354 15.9479 3.21875 15.8438C2.97917 15.7396 2.76823 15.5964 2.58594 15.4141C2.40365 15.2318 2.26042 15.0208 2.15625 14.7812C2.05208 14.5365 2 14.276 2 14V8C2 7.72396 2.05208 7.46615 2.15625 7.22656C2.26042 6.98177 2.40365 6.76823 2.58594 6.58594C2.76823 6.40365 2.97917 6.26042 3.21875 6.15625C3.46354 6.05208 3.72396 6 4 6V4C4 3.44792 4.10417 2.92969 4.3125 2.44531C4.52083 1.95573 4.80469 1.53125 5.16406 1.17188C5.52865 0.807292 5.95312 0.520833 6.4375 0.3125C6.92708 0.104167 7.44792 0 8 0C8.55208 0 9.07031 0.104167 9.55469 0.3125C10.0443 0.520833 10.4688 0.807292 10.8281 1.17188C11.1927 1.53125 11.4792 1.95573 11.6875 2.44531C11.8958 2.92969 12 3.44792 12 4V6C12.276 6 12.5339 6.05208 12.7734 6.15625C13.0182 6.26042 13.2318 6.40365 13.4141 6.58594C13.5964 6.76823 13.7396 6.98177 13.8438 7.22656C13.9479 7.46615 14 7.72396 14 8ZM5 6H11V4C11 3.58333 10.9219 3.19271 10.7656 2.82812C10.6094 2.46354 10.3958 2.14583 10.125 1.875C9.85417 1.60417 9.53646 1.39062 9.17188 1.23438C8.80729 1.07812 8.41667 1 8 1C7.58333 1 7.19271 1.07812 6.82812 1.23438C6.46354 1.39062 6.14583 1.60417 5.875 1.875C5.60417 2.14583 5.39062 2.46354 5.23438 2.82812C5.07812 3.19271 5 3.58333 5 4V6ZM13 8C13 7.86458 12.974 7.73698 12.9219 7.61719C12.8698 7.49219 12.7969 7.38542 12.7031 7.29688C12.6146 7.20312 12.5078 7.13021 12.3828 7.07812C12.263 7.02604 12.1354 7 12 7H4C3.85938 7 3.72917 7.02604 3.60938 7.07812C3.48958 7.13021 3.38281 7.20312 3.28906 7.29688C3.20052 7.38542 3.13021 7.48958 3.07812 7.60938C3.02604 7.72917 3 7.85938 3 8V14C3 14.1406 3.02604 14.2734 3.07812 14.3984C3.13021 14.5182 3.20052 14.6224 3.28906 14.7109C3.3776 14.7995 3.48177 14.8698 3.60156 14.9219C3.72656 14.974 3.85938 15 4 15H12C12.1406 15 12.2708 14.974 12.3906 14.9219C12.5104 14.8698 12.6146 14.7995 12.7031 14.7109C12.7969 14.6172 12.8698 14.5104 12.9219 14.3906C12.974 14.2708 13 14.1406 13 14V8ZM9 11C9 11.1406 8.97396 11.2708 8.92188 11.3906C8.86979 11.5104 8.79688 11.6172 8.70312 11.7109C8.61458 11.7995 8.51042 11.8698 8.39062 11.9219C8.27083 11.974 8.14062 12 8 12C7.85938 12 7.72656 11.974 7.60156 11.9219C7.48177 11.8698 7.3776 11.7995 7.28906 11.7109C7.20052 11.6224 7.13021 11.5182 7.07812 11.3984C7.02604 11.2734 7 11.1406 7 11C7 10.8594 7.02604 10.7292 7.07812 10.6094C7.13021 10.4896 7.20052 10.3854 7.28906 10.2969C7.38281 10.2031 7.48958 10.1302 7.60938 10.0781C7.72917 10.026 7.85938 10 8 10C8.13542 10 8.26302 10.026 8.38281 10.0781C8.50781 10.1302 8.61458 10.2031 8.70312 10.2969C8.79688 10.3854 8.86979 10.4922 8.92188 10.6172C8.97396 10.737 9 10.8646 9 11Z" />
</svg>
