<svg width="16" height="16" viewBox="0 0 16 16" xmlns="http://www.w3.org/2000/svg">
	<path fill-rule="evenodd" clip-rule="evenodd" d="M9.5 2.55399C9.5 2.19136 9.85032 1.9318 10.1972 2.03738L13.7133 3.10748C14.0691 3.21579 14.4765 3.36301 14.8243 3.59668C15.181 3.83634 15.4989 4.18385 15.6198 4.688C15.671 4.90186 15.7 5.11917 15.7 5.3V7.24592C15.7 7.61064 15.3471 7.8684 15.0012 7.76196L10.5 6.37698V12.3C10.5 12.3204 10.4988 12.3405 10.4964 12.3603C10.4644 13.8252 9.2681 15.0029 7.79706 15.0029C6.30589 15.0029 5.09706 13.7928 5.09706 12.3C5.09706 10.8072 6.30589 9.59705 7.79706 9.59705C8.44271 9.59705 9.03542 9.82392 9.5 10.2024V2.55399ZM10.5 5.33071L14.7 6.62302V5.3C14.7 5.21456 14.6847 5.07698 14.6473 4.92107C14.6008 4.72688 14.4792 4.56958 14.2666 4.42674C14.0451 4.2779 13.7532 4.16494 13.4221 4.06416L10.5 3.17482V5.33071ZM7.79706 14.0029C8.73492 14.0029 9.49706 13.2415 9.49706 12.3C9.49706 11.3585 8.73492 10.597 7.79706 10.597C6.85921 10.597 6.09706 11.3585 6.09706 12.3C6.09706 13.2415 6.85921 14.0029 7.79706 14.0029Z" />
	<path d="M1.5 3C1.22386 3 1 3.22386 1 3.5C1 3.77614 1.22386 4 1.5 4H7.5C7.77614 4 8 3.77614 8 3.5C8 3.22386 7.77614 3 7.5 3H1.5Z" />
	<path d="M1.5 5.5C1.22386 5.5 1 5.72386 1 6C1 6.27614 1.22386 6.5 1.5 6.5H7.5C7.77614 6.5 8 6.27614 8 6C8 5.72386 7.77614 5.5 7.5 5.5H1.5Z" />
	<path d="M1.5 8C1.22386 8 1 8.22386 1 8.5C1 8.77614 1.22386 9 1.5 9H5C5.27614 9 5.5 8.77614 5.5 8.5C5.5 8.22386 5.27614 8 5 8H1.5Z" />
</svg>
