<svg width="16" height="16" viewBox="0 0 16 16" xmlns="http://www.w3.org/2000/svg">
	<path d="M0 1.49788C0 0.670623 0.671352 0 1.49951 0H2.49918C3.32733 0 3.99869 0.670623 3.99869 1.49788V14.4795C3.99869 15.3068 3.32733 15.9774 2.49918 15.9774H1.49951C0.671352 15.9774 0 15.3068 0 14.4795V1.49788ZM1.49951 0.998586C1.22346 0.998586 0.999671 1.22213 0.999671 1.49788V14.4795C0.999671 14.7552 1.22346 14.9788 1.49951 14.9788H2.49918C2.77523 14.9788 2.99901 14.7552 2.99901 14.4795V1.49788C2.99901 1.22213 2.77523 0.998586 2.49918 0.998586H1.49951ZM4.99836 1.49788C4.99836 0.670623 5.66971 0 6.49786 0H7.49754C8.32569 0 8.99704 0.670623 8.99704 1.49788V14.4795C8.99704 15.3068 8.32569 15.9774 7.49754 15.9774H6.49786C5.66971 15.9774 4.99836 15.3068 4.99836 14.4795V1.49788ZM6.49786 0.998586C6.22181 0.998586 5.99803 1.22213 5.99803 1.49788V14.4795C5.99803 14.7552 6.22181 14.9788 6.49786 14.9788H7.49754C7.77359 14.9788 7.99737 14.7552 7.99737 14.4795V1.49788C7.99737 1.22213 7.77359 0.998586 7.49754 0.998586H6.49786ZM13.7179 4.15675C13.5259 3.32176 12.6733 2.81743 11.848 3.05077L11.1029 3.26146C10.3477 3.47502 9.88508 4.23427 10.0422 5.00249L12.046 14.8015C12.2174 15.6394 13.0551 16.1642 13.8848 15.9534L14.8698 15.7031C15.6592 15.5025 16.144 14.7091 15.9616 13.9162L13.7179 4.15675ZM12.1203 4.0116C12.3954 3.93382 12.6796 4.10193 12.7436 4.38026L14.9873 14.1397C15.0481 14.404 14.8865 14.6684 14.6234 14.7353L13.6384 14.9856C13.3618 15.0559 13.0826 14.8809 13.0255 14.6016L11.0216 4.80264C10.9693 4.54656 11.1234 4.29348 11.3752 4.22229L12.1203 4.0116Z" />
</svg>
