<svg width="16" height="16" viewBox="0 0 16 16" xmlns="http://www.w3.org/2000/svg">
	<path d="M13 3C11.8954 3 11 3.89543 11 5C11 6.10457 11.8954 7 13 7C14.1046 7 15 6.10457 15 5C15 3.89543 14.1046 3 13 3ZM10.0415 4.5C10.2795 3.08114 11.5135 2 13 2C14.6569 2 16 3.34315 16 5C16 6.65685 14.6569 8 13 8C11.5135 8 10.2795 6.91886 10.0415 5.5H10C9.17157 5.5 8.5 6.17157 8.5 7V9.00011C8.5 10.3808 7.38071 11.5001 6 11.5001H5.9585C5.72042 12.9189 4.48646 14 3 14C1.34315 14 0 12.6569 0 11C0 9.34315 1.34315 8 3 8C4.48654 8 5.72055 9.0812 5.95854 10.5001H6C6.82843 10.5001 7.5 9.82854 7.5 9.00011V7C7.5 5.61929 8.61929 4.5 10 4.5H10.0415ZM3 9C1.89543 9 1 9.89543 1 11C1 12.1046 1.89543 13 3 13C4.10457 13 5 12.1046 5 11C5 9.89543 4.10457 9 3 9Z" />
</svg>
