<svg width="16" height="16" viewBox="0 0 16 16" xmlns="http://www.w3.org/2000/svg">
	<path d="M1.99989 2.5C1.99989 1.11929 3.11918 0 4.49989 0H11.4999C12.8806 0 13.9999 1.11929 13.9999 2.5V15.5C13.9999 15.6881 13.8944 15.8602 13.7268 15.9456C13.5592 16.0309 13.3579 16.015 13.2058 15.9044L7.9999 12.1182L2.79398 15.9044C2.64189 16.015 2.44059 16.0309 2.273 15.9456C2.10542 15.8602 1.99989 15.6881 1.99989 15.5V2.5ZM4.49989 1C3.67147 1 2.99989 1.67157 2.99989 2.5V14.5181L7.70581 11.0956C7.88114 10.9681 8.11866 10.9681 8.29398 11.0956L12.9999 14.5181V2.5C12.9999 1.67157 12.3283 1 11.4999 1H4.49989Z" />
</svg>
