<svg width="16" height="16" viewBox="0 0 16 16" xmlns="http://www.w3.org/2000/svg">
	<path d="M2.5 11C2.29688 11 2.10417 10.9609 1.92188 10.8828C1.73958 10.8047 1.57812 10.6979 1.4375 10.5625C1.30208 10.4219 1.19531 10.2604 1.11719 10.0781C1.03906 9.89583 1 9.70312 1 9.5V2.5C1 2.29688 1.03906 2.10417 1.11719 1.92188C1.19531 1.73958 1.30208 1.58073 1.4375 1.44531C1.57812 1.30469 1.73958 1.19531 1.92188 1.11719C2.10417 1.03906 2.29688 1 2.5 1H9.5C9.70312 1 9.89583 1.03906 10.0781 1.11719C10.2604 1.19531 10.4193 1.30469 10.5547 1.44531C10.6953 1.58073 10.8047 1.73958 10.8828 1.92188C10.9609 2.10417 11 2.29688 11 2.5V3.08594L10 3.42188V2.5C10 2.36458 9.95052 2.2474 9.85156 2.14844C9.7526 2.04948 9.63542 2 9.5 2H2.5C2.36458 2 2.2474 2.04948 2.14844 2.14844C2.04948 2.2474 2 2.36458 2 2.5V9.5C2 9.63542 2.04948 9.7526 2.14844 9.85156C2.2474 9.95052 2.36458 10 2.5 10H5.89844C5.96615 10 6 10.0339 6 10.1016C6 10.1484 5.97917 10.1797 5.9375 10.1953C5.70312 10.2995 5.49219 10.4115 5.30469 10.5312C5.11719 10.6458 4.9375 10.8021 4.76562 11H2.5ZM4 4H3V3H4V4ZM9 4H8V3H9V4ZM5 13V12.9609C5 12.7005 5.05208 12.4531 5.15625 12.2188C5.26562 11.9792 5.40885 11.7708 5.58594 11.5938C5.76823 11.4115 5.97656 11.2682 6.21094 11.1641C6.45052 11.0547 6.70052 11 6.96094 11C7.14844 11 7.32812 11.0208 7.5 11.0625C7.67188 11.1042 7.83854 11.1719 8 11.2656V5.67969C8 5.51302 8.04688 5.36719 8.14062 5.24219C8.23958 5.11198 8.36458 5.02083 8.51562 4.96875L14.0156 3.13281C14.0938 3.10677 14.1719 3.09375 14.25 3.09375C14.4583 3.09375 14.6354 3.16667 14.7812 3.3125C14.9271 3.45833 15 3.63542 15 3.84375V12.0391C15 12.3099 14.9453 12.5651 14.8359 12.8047C14.7266 13.0391 14.5807 13.2448 14.3984 13.4219C14.2161 13.599 14.0026 13.7396 13.7578 13.8438C13.5182 13.9479 13.2656 14 13 14C12.724 14 12.4635 13.9479 12.2188 13.8438C11.9792 13.7344 11.7682 13.5911 11.5859 13.4141C11.4089 13.2318 11.2656 13.0208 11.1562 12.7812C11.0521 12.5365 11 12.276 11 12C11 11.7344 11.0521 11.4818 11.1562 11.2422C11.2604 10.9974 11.401 10.7839 11.5781 10.6016C11.7552 10.4193 11.9609 10.2734 12.1953 10.1641C12.4349 10.0547 12.6901 10 12.9609 10C13.1484 10 13.3281 10.0208 13.5 10.0625C13.6719 10.1042 13.8385 10.1719 14 10.2656V6.69531L9 8.35938V13.0391C9 13.3099 8.94531 13.5651 8.83594 13.8047C8.72656 14.0391 8.58073 14.2448 8.39844 14.4219C8.21615 14.599 8.0026 14.7396 7.75781 14.8438C7.51823 14.9479 7.26562 15 7 15C6.72396 15 6.46354 14.9479 6.21875 14.8438C5.97917 14.7344 5.76823 14.5911 5.58594 14.4141C5.40885 14.2318 5.26562 14.0208 5.15625 13.7812C5.05208 13.5365 5 13.276 5 13ZM9 5.85938V7.30469L14 5.64062V4.19531L9 5.85938ZM4 7H3V5H4V7ZM4 9H3V8H4V9ZM14 12C14 11.8646 13.974 11.737 13.9219 11.6172C13.8698 11.4922 13.7969 11.3854 13.7031 11.2969C13.6146 11.2031 13.5078 11.1302 13.3828 11.0781C13.263 11.026 13.1354 11 13 11C12.8594 11 12.7292 11.026 12.6094 11.0781C12.4896 11.1302 12.3828 11.2031 12.2891 11.2969C12.2005 11.3854 12.1302 11.4896 12.0781 11.6094C12.026 11.7292 12 11.8594 12 12C12 12.1406 12.026 12.2734 12.0781 12.3984C12.1302 12.5182 12.2005 12.6224 12.2891 12.7109C12.3776 12.7995 12.4818 12.8698 12.6016 12.9219C12.7266 12.974 12.8594 13 13 13C13.1406 13 13.2708 12.974 13.3906 12.9219C13.5104 12.8698 13.6146 12.7995 13.7031 12.7109C13.7969 12.6172 13.8698 12.5104 13.9219 12.3906C13.974 12.2708 14 12.1406 14 12ZM8 13C8 12.8646 7.97396 12.737 7.92188 12.6172C7.86979 12.4922 7.79688 12.3854 7.70312 12.2969C7.61458 12.2031 7.50781 12.1302 7.38281 12.0781C7.26302 12.026 7.13542 12 7 12C6.85938 12 6.72917 12.026 6.60938 12.0781C6.48958 12.1302 6.38281 12.2031 6.28906 12.2969C6.20052 12.3854 6.13021 12.4896 6.07812 12.6094C6.02604 12.7292 6 12.8594 6 13C6 13.1406 6.02604 13.2734 6.07812 13.3984C6.13021 13.5182 6.20052 13.6224 6.28906 13.7109C6.3776 13.7995 6.48177 13.8698 6.60156 13.9219C6.72656 13.974 6.85938 14 7 14C7.14062 14 7.27083 13.974 7.39062 13.9219C7.51042 13.8698 7.61458 13.7995 7.70312 13.7109C7.79688 13.6172 7.86979 13.5104 7.92188 13.3906C7.97396 13.2708 8 13.1406 8 13Z" />
</svg>
