<svg width="16" height="16" viewBox="0 0 16 16" xmlns="http://www.w3.org/2000/svg">
	<path d="M8 11C9.65685 11 11 9.65684 11 7.99998V3C11 1.34315 9.65685 0 8 0C6.34315 0 5 1.34315 5 3V7.99998C5 9.65684 6.34315 11 8 11ZM8 9.99998C6.89543 9.99998 6 9.10455 6 7.99998V3C6 1.89543 6.89543 1 8 1C9.10457 1 10 1.89543 10 3V7.99998C10 9.10455 9.10457 9.99998 8 9.99998ZM3 7.49998C3.27614 7.49998 3.5 7.72384 3.5 7.99998C3.5 10.4853 5.51472 12.5 8 12.5C10.4853 12.5 12.5 10.4853 12.5 7.99998C12.5 7.72384 12.7239 7.49998 13 7.49998C13.2761 7.49998 13.5 7.72384 13.5 7.99998C13.5 10.869 11.3033 13.2249 8.5 13.4776V15.5C8.5 15.7761 8.27614 16 8 16C7.72386 16 7.5 15.7761 7.5 15.5V13.4776C4.69675 13.2249 2.5 10.869 2.5 7.99998C2.5 7.72384 2.72386 7.49998 3 7.49998Z" />
</svg>
