<svg width="16" height="16" viewBox="0 0 16 16" xmlns="http://www.w3.org/2000/svg">
	<path d="M4 9C4.55228 9 5 8.55229 5 8C5 7.44772 4.55228 7 4 7C3.44772 7 3 7.44772 3 8C3 8.55229 3.44772 9 4 9Z" />
	<path d="M6 5C6 5.55228 5.55228 6 5 6C4.44772 6 4 5.55228 4 5C4 4.44772 4.44772 4 5 4C5.55228 4 6 4.44772 6 5Z" />
	<path d="M8 5C8.55229 5 9 4.55228 9 4C9 3.44772 8.55229 3 8 3C7.44772 3 7 3.44772 7 4C7 4.55228 7.44772 5 8 5Z" />
	<path d="M12 5C12 5.55228 11.5523 6 11 6C10.4477 6 10 5.55228 10 5C10 4.44772 10.4477 4 11 4C11.5523 4 12 4.44772 12 5Z" />
	<path d="M12 9C12.5523 9 13 8.55229 13 8C13 7.44772 12.5523 7 12 7C11.4477 7 11 7.44772 11 8C11 8.55229 11.4477 9 12 9Z" />
	<path fill-rule="evenodd" clip-rule="evenodd" d="M16 8C16 11.3774 13.9071 14.2659 10.9476 15.4395C10.6358 15.5631 10.3144 15.6677 9.98476 15.7519C9.9637 15.5817 9.92126 15.4181 9.86021 15.264C9.56703 14.5236 8.84466 14 8 14C7.15534 14 6.43297 14.5236 6.13979 15.264C6.07874 15.4181 6.0363 15.5817 6.01524 15.7519C5.68565 15.6677 5.36424 15.5631 5.05245 15.4395C2.09286 14.2659 0 11.3774 0 8C0 3.58172 3.58172 0 8 0C12.4183 0 16 3.58172 16 8ZM15 8C15 10.9465 13.1787 13.4697 10.5994 14.5018C10.0811 13.604 9.11146 13 8 13C6.88854 13 5.91895 13.604 5.40055 14.5018C2.82127 13.4697 1 10.9465 1 8C1 4.13401 4.13401 1 8 1C11.866 1 15 4.13401 15 8Z" />
</svg>
