<svg width="16" height="16" viewBox="0 0 16 16" xmlns="http://www.w3.org/2000/svg">
	<path fill-rule="evenodd" clip-rule="evenodd" d="M2.38321 1.6474C1.92898 1.54899 1.54896 1.92901 1.64737 2.38324C2.2455 5.14414 4.5985 7.25116 7.47944 7.47949C7.25112 4.59854 5.1441 2.24553 2.38321 1.6474ZM7.49999 8.48363C4.12899 8.26179 1.36721 5.81304 0.670039 2.59497C0.417636 1.42992 1.42989 0.417666 2.59495 0.67007C5.07759 1.20792 7.10235 2.97456 7.99999 5.30174C8.89762 2.97456 10.9224 1.20792 13.405 0.67007C14.5701 0.417665 15.5823 1.42992 15.3299 2.59498C14.6328 5.81304 11.871 8.26179 8.49999 8.48363V15C8.49999 15.2762 8.27613 15.5 7.99999 15.5C7.72384 15.5 7.49999 15.2762 7.49999 15V8.48363ZM8.52053 7.47949C11.4015 7.25116 13.7545 5.14414 14.3526 2.38324C14.451 1.92901 14.071 1.54899 13.6168 1.6474C10.8559 2.24553 8.74885 4.59854 8.52053 7.47949Z" />
</svg>
