<svg width="16" height="16" viewBox="0 0 16 16" xmlns="http://www.w3.org/2000/svg">
	<path d="M1.75 8C1.75 7.82812 1.78385 7.66667 1.85156 7.51562C1.91927 7.36458 2.00781 7.23438 2.11719 7.125C2.23177 7.01042 2.36458 6.91927 2.51562 6.85156C2.66667 6.78385 2.82812 6.75 3 6.75C3.17188 6.75 3.33333 6.78385 3.48438 6.85156C3.63542 6.91927 3.76562 7.01042 3.875 7.125C3.98958 7.23438 4.08073 7.36458 4.14844 7.51562C4.21615 7.66667 4.25 7.82812 4.25 8C4.25 8.17188 4.21615 8.33333 4.14844 8.48438C4.08073 8.63542 3.98958 8.76823 3.875 8.88281C3.76562 8.99219 3.63542 9.08073 3.48438 9.14844C3.33333 9.21615 3.17188 9.25 3 9.25C2.82812 9.25 2.66667 9.21615 2.51562 9.14844C2.36458 9.08073 2.23177 8.99219 2.11719 8.88281C2.00781 8.76823 1.91927 8.63542 1.85156 8.48438C1.78385 8.33333 1.75 8.17188 1.75 8ZM6.75 8C6.75 7.82812 6.78385 7.66667 6.85156 7.51562C6.91927 7.36458 7.00781 7.23438 7.11719 7.125C7.23177 7.01042 7.36458 6.91927 7.51562 6.85156C7.66667 6.78385 7.82812 6.75 8 6.75C8.17188 6.75 8.33333 6.78385 8.48438 6.85156C8.63542 6.91927 8.76562 7.01042 8.875 7.125C8.98958 7.23438 9.08073 7.36458 9.14844 7.51562C9.21615 7.66667 9.25 7.82812 9.25 8C9.25 8.17188 9.21615 8.33333 9.14844 8.48438C9.08073 8.63542 8.98958 8.76823 8.875 8.88281C8.76562 8.99219 8.63542 9.08073 8.48438 9.14844C8.33333 9.21615 8.17188 9.25 8 9.25C7.82812 9.25 7.66667 9.21615 7.51562 9.14844C7.36458 9.08073 7.23177 8.99219 7.11719 8.88281C7.00781 8.76823 6.91927 8.63542 6.85156 8.48438C6.78385 8.33333 6.75 8.17188 6.75 8ZM11.75 8C11.75 7.82812 11.7839 7.66667 11.8516 7.51562C11.9193 7.36458 12.0078 7.23438 12.1172 7.125C12.2318 7.01042 12.3646 6.91927 12.5156 6.85156C12.6667 6.78385 12.8281 6.75 13 6.75C13.1719 6.75 13.3333 6.78385 13.4844 6.85156C13.6354 6.91927 13.7656 7.01042 13.875 7.125C13.9896 7.23438 14.0807 7.36458 14.1484 7.51562C14.2161 7.66667 14.25 7.82812 14.25 8C14.25 8.17188 14.2161 8.33333 14.1484 8.48438C14.0807 8.63542 13.9896 8.76823 13.875 8.88281C13.7656 8.99219 13.6354 9.08073 13.4844 9.14844C13.3333 9.21615 13.1719 9.25 13 9.25C12.8281 9.25 12.6667 9.21615 12.5156 9.14844C12.3646 9.08073 12.2318 8.99219 12.1172 8.88281C12.0078 8.76823 11.9193 8.63542 11.8516 8.48438C11.7839 8.33333 11.75 8.17188 11.75 8Z" />
</svg>
