<svg width="16" height="16" viewBox="0 0 16 16" xmlns="http://www.w3.org/2000/svg">
	<path d="M12.4722 4C11.3736 2.7725 9.777 2 8 2C6.223 2 4.62642 2.7725 3.52778 4H2.25469C3.51963 2.18652 5.62125 1 8 1C10.3787 1 12.4804 2.18652 13.7453 4H12.4722Z" />
	<path d="M12.917 7H13.9291C13.7712 5.89594 13.3556 4.87499 12.7453 4H11.4722C12.2116 4.82616 12.7255 5.85843 12.917 7Z" />
	<path d="M0.0708847 7H1.08295C1.27447 5.85843 1.78835 4.82616 2.52778 4H1.25469C0.644358 4.87499 0.228808 5.89594 0.0708847 7Z" />
	<path d="M13.917 9H14.9291C14.9758 8.6734 15 8.33952 15 8C15 7.66048 14.9758 7.3266 14.9291 7H13.917C13.9716 7.32521 14 7.65929 14 8C14 8.34071 13.9716 8.67479 13.917 9Z" />
	<path d="M1.07089 9H2.08295C2.02839 8.67479 2 8.34071 2 8C2 7.65929 2.0284 7.32521 2.08295 7H1.07089C1.02417 7.3266 0.999996 7.66048 0.999996 8C0.999996 8.33952 1.02417 8.6734 1.07089 9Z" />
	<path d="M13.4722 12H14.7453C15.3556 11.125 15.7712 10.1041 15.9291 9H14.917C14.7255 10.1416 14.2116 11.1738 13.4722 12Z" />
	<path d="M3.25469 12H4.52778C3.78835 11.1738 3.27447 10.1416 3.08295 9H2.07088C2.22881 10.1041 2.64436 11.125 3.25469 12Z" />
	<path d="M12.4722 12C11.3736 13.2275 9.777 14 8 14C6.223 14 4.62642 13.2275 3.52778 12H2.25469C3.51963 13.8135 5.62125 15 8 15C10.3787 15 12.4804 13.8135 13.7453 12H12.4722Z" />
</svg>
