<svg width="16" height="16" viewBox="0 0 16 16" xmlns="http://www.w3.org/2000/svg">
	<path d="M3.9375 15C3.54688 15 3.17188 14.9219 2.8125 14.7656C2.45833 14.6042 2.14583 14.3906 1.875 14.125C1.60938 13.8542 1.39583 13.5417 1.23438 13.1875C1.07812 12.8281 1 12.4531 1 12.0625V3.9375C1 3.54688 1.07812 3.17448 1.23438 2.82031C1.39583 2.46094 1.60938 2.14844 1.875 1.88281C2.14583 1.61198 2.45833 1.39844 2.8125 1.24219C3.17188 1.08073 3.54688 1 3.9375 1H12.0625C12.4531 1 12.8255 1.08073 13.1797 1.24219C13.5391 1.39844 13.8516 1.61198 14.1172 1.88281C14.388 2.14844 14.6016 2.46094 14.7578 2.82031C14.9193 3.17448 15 3.54688 15 3.9375V12.0625C15 12.4531 14.9193 12.8281 14.7578 13.1875C14.6016 13.5417 14.388 13.8542 14.1172 14.125C13.8516 14.3906 13.5391 14.6042 13.1797 14.7656C12.8255 14.9219 12.4531 15 12.0625 15H3.9375ZM12.0391 14C12.2995 14 12.5469 13.9479 12.7812 13.8438C13.0208 13.7344 13.2292 13.5911 13.4062 13.4141C13.5885 13.2318 13.7318 13.0234 13.8359 12.7891C13.9453 12.5495 14 12.2995 14 12.0391V3.96094C14 3.70052 13.9453 3.45312 13.8359 3.21875C13.7318 2.97917 13.5885 2.77083 13.4062 2.59375C13.2292 2.41146 13.0208 2.26823 12.7812 2.16406C12.5469 2.05469 12.2995 2 12.0391 2H3.96094C3.70052 2 3.45052 2.05469 3.21094 2.16406C2.97656 2.26823 2.76823 2.41146 2.58594 2.59375C2.40885 2.77083 2.26562 2.97917 2.15625 3.21875C2.05208 3.45312 2 3.70052 2 3.96094V12.0391C2 12.2995 2.05208 12.5495 2.15625 12.7891C2.26562 13.0234 2.40885 13.2318 2.58594 13.4141C2.76823 13.5911 2.97656 13.7344 3.21094 13.8438C3.45052 13.9479 3.70052 14 3.96094 14H12.0391ZM3 4.5V3.5C3 3.36458 3.04948 3.2474 3.14844 3.14844C3.2474 3.04948 3.36458 3 3.5 3C3.63542 3 3.7526 3.04948 3.85156 3.14844C3.95052 3.2474 4 3.36458 4 3.5V4.5C4 4.63542 3.95052 4.7526 3.85156 4.85156C3.7526 4.95052 3.63542 5 3.5 5C3.36458 5 3.2474 4.95052 3.14844 4.85156C3.04948 4.7526 3 4.63542 3 4.5ZM12 4.5V3.5C12 3.36458 12.0495 3.2474 12.1484 3.14844C12.2474 3.04948 12.3646 3 12.5 3C12.6354 3 12.7526 3.04948 12.8516 3.14844C12.9505 3.2474 13 3.36458 13 3.5V4.5C13 4.63542 12.9505 4.7526 12.8516 4.85156C12.7526 4.95052 12.6354 5 12.5 5C12.3646 5 12.2474 4.95052 12.1484 4.85156C12.0495 4.7526 12 4.63542 12 4.5ZM3 8.5V7.5C3 7.36458 3.04948 7.2474 3.14844 7.14844C3.2474 7.04948 3.36458 7 3.5 7C3.63542 7 3.7526 7.04948 3.85156 7.14844C3.95052 7.2474 4 7.36458 4 7.5V8.5C4 8.63542 3.95052 8.7526 3.85156 8.85156C3.7526 8.95052 3.63542 9 3.5 9C3.36458 9 3.2474 8.95052 3.14844 8.85156C3.04948 8.7526 3 8.63542 3 8.5ZM12 8.5V7.5C12 7.36458 12.0495 7.2474 12.1484 7.14844C12.2474 7.04948 12.3646 7 12.5 7C12.6354 7 12.7526 7.04948 12.8516 7.14844C12.9505 7.2474 13 7.36458 13 7.5V8.5C13 8.63542 12.9505 8.7526 12.8516 8.85156C12.7526 8.95052 12.6354 9 12.5 9C12.3646 9 12.2474 8.95052 12.1484 8.85156C12.0495 8.7526 12 8.63542 12 8.5ZM3 12.5V11.5C3 11.3646 3.04948 11.2474 3.14844 11.1484C3.2474 11.0495 3.36458 11 3.5 11C3.63542 11 3.7526 11.0495 3.85156 11.1484C3.95052 11.2474 4 11.3646 4 11.5V12.5C4 12.6354 3.95052 12.7526 3.85156 12.8516C3.7526 12.9505 3.63542 13 3.5 13C3.36458 13 3.2474 12.9505 3.14844 12.8516C3.04948 12.7526 3 12.6354 3 12.5ZM12 12.5V11.5C12 11.3646 12.0495 11.2474 12.1484 11.1484C12.2474 11.0495 12.3646 11 12.5 11C12.6354 11 12.7526 11.0495 12.8516 11.1484C12.9505 11.2474 13 11.3646 13 11.5V12.5C13 12.6354 12.9505 12.7526 12.8516 12.8516C12.7526 12.9505 12.6354 13 12.5 13C12.3646 13 12.2474 12.9505 12.1484 12.8516C12.0495 12.7526 12 12.6354 12 12.5Z" />
</svg>
