<svg width="16" height="16" viewBox="0 0 16 16" xmlns="http://www.w3.org/2000/svg">
	<path d="M3.85355 2.35355C4.04882 2.15829 4.04882 1.84171 3.85355 1.64645C3.65829 1.45118 3.34171 1.45118 3.14645 1.64645L1.5 3.29289L0.853552 2.64645C0.658292 2.45118 0.341713 2.45118 0.146453 2.64645C-0.0488175 2.84171 -0.0488175 3.15829 0.146453 3.35355L1.14645 4.35355C1.34171 4.54882 1.65829 4.54882 1.85355 4.35355L3.85355 2.35355ZM6 3.5C6 3.22386 6.22386 3 6.5 3H15.5C15.7761 3 16 3.22386 16 3.5C16 3.77614 15.7761 4 15.5 4H6.5C6.22386 4 6 3.77614 6 3.5ZM6 8.5C6 8.2239 6.22386 8 6.5 8H15.5C15.7761 8 16 8.2239 16 8.5C16 8.7761 15.7761 9 15.5 9H6.5C6.22386 9 6 8.7761 6 8.5ZM6.5 13C6.22386 13 6 13.2239 6 13.5C6 13.7761 6.22386 14 6.5 14H15.5C15.7761 14 16 13.7761 16 13.5C16 13.2239 15.7761 13 15.5 13H6.5ZM3.85355 12.1464C4.04882 12.3417 4.04882 12.6583 3.85355 12.8536L1.85355 14.8536C1.65829 15.0488 1.34171 15.0488 1.14645 14.8536L0.146453 13.8536C-0.0488175 13.6583 -0.0488175 13.3417 0.146453 13.1464C0.341713 12.9512 0.658292 12.9512 0.853552 13.1464L1.5 13.7929L3.14645 12.1464C3.34171 11.9512 3.65829 11.9512 3.85355 12.1464Z" />
</svg>
