<svg width="16" height="16" viewBox="0 0 16 16" xmlns="http://www.w3.org/2000/svg">
	<path d="M14 3.11719V5.25C14 5.38542 13.9505 5.5026 13.8516 5.60156C13.7578 5.70052 13.6432 5.75 13.5078 5.75C13.4714 5.75 13.3464 5.72135 13.1328 5.66406C12.9193 5.60156 12.6562 5.52604 12.3438 5.4375C12.0365 5.34896 11.7031 5.25 11.3438 5.14062C10.9896 5.03125 10.651 4.92708 10.3281 4.82812C10.0104 4.72917 9.72917 4.64323 9.48438 4.57031C9.23958 4.4974 9.07812 4.44792 9 4.42188V13.0625C9 13.4688 8.91927 13.8516 8.75781 14.2109C8.59635 14.5651 8.3776 14.875 8.10156 15.1406C7.82552 15.4062 7.50521 15.6172 7.14062 15.7734C6.78125 15.9245 6.40104 16 6 16C5.58333 16 5.19271 15.9219 4.82812 15.7656C4.46354 15.6094 4.14583 15.3958 3.875 15.125C3.60417 14.8542 3.39062 14.5365 3.23438 14.1719C3.07812 13.8073 3 13.4167 3 13C3 12.599 3.07552 12.2188 3.22656 11.8594C3.38281 11.4948 3.59375 11.1745 3.85938 10.8984C4.125 10.6224 4.4349 10.4036 4.78906 10.2422C5.14844 10.0807 5.53125 10 5.9375 10C6.32812 10 6.69531 10.0625 7.03906 10.1875C7.38802 10.3073 7.70833 10.5 8 10.7656V0.5C8 0.364583 8.04948 0.247396 8.14844 0.148438C8.2474 0.0494792 8.36458 0 8.5 0C8.53125 0 8.64323 0.0260417 8.83594 0.078125C9.03385 0.130208 9.27083 0.197917 9.54688 0.28125C9.82292 0.364583 10.1224 0.455729 10.4453 0.554688C10.7682 0.648438 11.0755 0.742188 11.3672 0.835938C11.6589 0.924479 11.9141 1.0026 12.1328 1.07031C12.3516 1.13802 12.4974 1.18229 12.5703 1.20312C12.7839 1.26562 12.9766 1.35938 13.1484 1.48438C13.3255 1.60938 13.4766 1.75521 13.6016 1.92188C13.7266 2.08854 13.8229 2.27344 13.8906 2.47656C13.9635 2.67969 14 2.89323 14 3.11719ZM13 4.57812V3.11719C13 2.89844 12.9349 2.70052 12.8047 2.52344C12.6745 2.34115 12.5026 2.21875 12.2891 2.15625L9 1.17188V3.375L13 4.57812ZM8 13V12.9609C8 12.6901 7.94531 12.4375 7.83594 12.2031C7.72656 11.9635 7.58073 11.7552 7.39844 11.5781C7.21615 11.401 7.0026 11.2604 6.75781 11.1562C6.51823 11.0521 6.26562 11 6 11C5.72396 11 5.46354 11.0547 5.21875 11.1641C4.97917 11.2682 4.76823 11.4115 4.58594 11.5938C4.40885 11.7708 4.26562 11.9818 4.15625 12.2266C4.05208 12.4714 4 12.7292 4 13C4 13.276 4.05208 13.5365 4.15625 13.7812C4.26562 14.0208 4.40885 14.2318 4.58594 14.4141C4.76823 14.5911 4.97917 14.7344 5.21875 14.8438C5.46354 14.9479 5.72396 15 6 15C6.27083 15 6.52865 14.9479 6.77344 14.8438C7.01823 14.7344 7.22917 14.5911 7.40625 14.4141C7.58854 14.2318 7.73177 14.0208 7.83594 13.7812C7.94531 13.5365 8 13.276 8 13Z" />
</svg>
