<svg width="16" height="16" viewBox="0 0 16 16" xmlns="http://www.w3.org/2000/svg">
	<path d="M12.7017 0.22563C13.3457 0.0244018 14 0.50547 14 1.18011V11.5C14 12.8807 12.8807 14 11.5 14C10.1193 14 9.00002 12.8807 9.00002 11.5C9.00002 10.1193 10.1193 9.00003 11.5 9.00003C12.0628 9.00003 12.5822 9.186 13 9.49985V4.18011L6.00002 6.36761V13.5C6.00002 14.8807 4.88074 16 3.50002 16C2.11931 16 1.00002 14.8807 1.00002 13.5C1.00002 12.1193 2.11931 11 3.50002 11C4.06283 11 4.58219 11.186 5.00002 11.4998V3.36761C5.00002 2.93022 5.28427 2.54359 5.70175 2.41313L12.7017 0.22563ZM6.00002 5.31992L13 3.13242V1.18011L6.00002 3.36761V5.31992ZM3.50002 12C2.6716 12 2.00002 12.6716 2.00002 13.5C2.00002 14.3284 2.6716 15 3.50002 15C4.32845 15 5.00002 14.3284 5.00002 13.5C5.00002 12.6716 4.32845 12 3.50002 12ZM10 11.5C10 12.3285 10.6716 13 11.5 13C12.3285 13 13 12.3285 13 11.5C13 10.6716 12.3285 10 11.5 10C10.6716 10 10 10.6716 10 11.5Z" />
	<path d="M4.00002 7.49999H0.5C0.223858 7.49999 0 7.72385 0 7.99999C0 8.27614 0.223858 8.49999 0.5 8.49999L4.00002 8.49999V7.49999Z" />
	<path d="M7.00002 8.49999H12V7.49999H7.00002V8.49999Z" />
	<path d="M15 7.49999V8.49999H15.5C15.7761 8.49999 16 8.27613 16 7.99999C16 7.72385 15.7761 7.49999 15.5 7.49999H15Z" />
</svg>
