<svg width="16" height="16" viewBox="0 0 16 16" xmlns="http://www.w3.org/2000/svg">
	<path fill-rule="evenodd" clip-rule="evenodd" d="M6.5 2C6.5 1.72386 6.72386 1.5 7 1.5H9C9.27614 1.5 9.5 1.72386 9.5 2C9.5 2.27614 9.27614 2.5 9 2.5H8.5V4.5H9C9.27614 4.5 9.5 4.72386 9.5 5C9.5 5.27614 9.27614 5.5 9 5.5H8.5V7.5H9C9.27614 7.5 9.5 7.72386 9.5 8C9.5 8.27614 9.27614 8.5 9 8.5H8.5V10.5H9C9.27614 10.5 9.5 10.7239 9.5 11C9.5 11.2761 9.27614 11.5 9 11.5H8.5V13.5H9C9.27614 13.5 9.5 13.7239 9.5 14C9.5 14.2761 9.27614 14.5 9 14.5H7C6.72386 14.5 6.5 14.2761 6.5 14C6.5 13.7239 6.72386 13.5 7 13.5H7.5V11.5H7C6.72386 11.5 6.5 11.2761 6.5 11C6.5 10.7239 6.72386 10.5 7 10.5H7.5V8.5H7C6.72386 8.5 6.5 8.27614 6.5 8C6.5 7.72386 6.72386 7.5 7 7.5H7.5V5.5H7C6.72386 5.5 6.5 5.27614 6.5 5C6.5 4.72386 6.72386 4.5 7 4.5H7.5V2.5H7C6.72386 2.5 6.5 2.27614 6.5 2Z" />
</svg>
