<svg width="16" height="16" viewBox="0 0 16 16" xmlns="http://www.w3.org/2000/svg">
	<path d="M16 3.5C16 3.9375 15.9245 4.35156 15.7734 4.74219C15.6224 5.13281 15.4115 5.48177 15.1406 5.78906C14.875 6.09635 14.5573 6.35417 14.1875 6.5625C13.8229 6.76562 13.4271 6.89844 13 6.96094V13C13 13.1406 12.974 13.2708 12.9219 13.3906C12.8698 13.5104 12.7969 13.6172 12.7031 13.7109C12.6146 13.7995 12.5104 13.8698 12.3906 13.9219C12.2708 13.974 12.1406 14 12 14H7V15H8.07812C8.20312 15 8.32031 15.026 8.42969 15.0781C8.54427 15.125 8.64323 15.1901 8.72656 15.2734C8.8099 15.3568 8.875 15.4557 8.92188 15.5703C8.97396 15.6797 9 15.7969 9 15.9219C9 15.974 8.97396 16 8.92188 16H4.07812C4.02604 16 4 15.974 4 15.9219C4 15.7969 4.02344 15.6797 4.07031 15.5703C4.1224 15.4557 4.1901 15.3568 4.27344 15.2734C4.35677 15.1901 4.45312 15.125 4.5625 15.0781C4.67708 15.026 4.79688 15 4.92188 15H6V14H1C0.859375 14 0.729167 13.974 0.609375 13.9219C0.489583 13.8698 0.382812 13.7995 0.289062 13.7109C0.200521 13.6172 0.130208 13.5104 0.078125 13.3906C0.0260417 13.2708 0 13.1406 0 13V4.64062C0 4.46354 0.0625 4.3125 0.1875 4.1875C0.317708 4.0625 0.471354 4 0.648438 4H5.03906C5.02865 3.91667 5.01823 3.83333 5.00781 3.75C5.0026 3.66667 5 3.58333 5 3.5C5 3.01562 5.09115 2.5625 5.27344 2.14062C5.45573 1.71354 5.70573 1.34115 6.02344 1.02344C6.34115 0.705729 6.71094 0.455729 7.13281 0.273438C7.5599 0.0911458 8.01562 0 8.5 0H12.5C12.9844 0 13.4375 0.0911458 13.8594 0.273438C14.2865 0.455729 14.6589 0.705729 14.9766 1.02344C15.2943 1.34115 15.5443 1.71354 15.7266 2.14062C15.9089 2.5625 16 3.01562 16 3.5ZM9 2.50781V4.49219C9 4.5651 9.02344 4.6276 9.07031 4.67969C9.1224 4.72656 9.1849 4.75 9.25781 4.75H10.1484L11.6875 5.95312C11.724 5.98438 11.7656 6 11.8125 6C11.8542 6 11.8958 5.98698 11.9375 5.96094C11.9792 5.92969 12 5.89062 12 5.84375V1.15625C12 1.10938 11.9792 1.07292 11.9375 1.04688C11.901 1.01562 11.862 1 11.8203 1C11.7682 1 11.724 1.01562 11.6875 1.04688L10.1484 2.25H9.25781C9.1849 2.25 9.1224 2.27604 9.07031 2.32812C9.02344 2.375 9 2.4349 9 2.50781ZM1 5V13H12V7H11.3984L9.51562 8.89062C9.45833 8.94792 9.38802 8.97656 9.30469 8.97656C9.21615 8.97656 9.14323 8.94792 9.08594 8.89062C9.02865 8.83333 9 8.76042 9 8.67188V7H8.5C8.16146 7 7.83333 6.95312 7.51562 6.85938C7.19792 6.76562 6.90104 6.63281 6.625 6.46094C6.35417 6.28385 6.10677 6.07292 5.88281 5.82812C5.66406 5.58333 5.48177 5.30729 5.33594 5H1Z" />
</svg>
