<svg width="16" height="16" viewBox="0 0 16 16" xmlns="http://www.w3.org/2000/svg">
	<path fill-rule="evenodd" clip-rule="evenodd" d="M1 3.5C1 2.94772 1.44772 2.5 2 2.5H3.25C5.59721 2.5 7.5 4.40279 7.5 6.75V9.25C7.5 11.5972 5.59721 13.5 3.25 13.5H2C1.44771 13.5 1 13.0523 1 12.5V3.5ZM3.25 3.5L2 3.5V12.5H3.25C5.04493 12.5 6.5 11.0449 6.5 9.25V6.75C6.5 4.95507 5.04493 3.5 3.25 3.5ZM11.75 7C10.5824 7 9.5 8.14966 9.5 9.75C9.5 11.3503 10.5824 12.5 11.75 12.5C12.9176 12.5 14 11.3503 14 9.75C14 8.14966 12.9176 7 11.75 7ZM8.5 9.75C8.5 7.76048 9.88004 6 11.75 6C13.62 6 15 7.76048 15 9.75C15 11.7395 13.62 13.5 11.75 13.5C9.88004 13.5 8.5 11.7395 8.5 9.75Z" />
</svg>
