<svg width="16" height="16" viewBox="0 0 16 16" xmlns="http://www.w3.org/2000/svg">
	<path fill-rule="evenodd" clip-rule="evenodd" d="M1 6.125C1 4.18494 2.39693 2.5 4.25 2.5C6.10307 2.5 7.5 4.18494 7.5 6.125C7.5 6.40114 7.27614 6.625 7 6.625C6.72386 6.625 6.5 6.40114 6.5 6.125C6.5 4.61328 5.4345 3.5 4.25 3.5C3.0655 3.5 2 4.61328 2 6.125V9.875C2 11.3867 3.0655 12.5 4.25 12.5C5.4345 12.5 6.5 11.3867 6.5 9.875C6.5 9.59886 6.72386 9.375 7 9.375C7.27614 9.375 7.5 9.59886 7.5 9.875C7.5 11.8151 6.10307 13.5 4.25 13.5C2.39693 13.5 1 11.8151 1 9.875V6.125ZM12.75 4.83555L9.87438 9.72222H12.75V4.83555ZM13.75 9.72222V3.03671C13.75 2.51716 13.064 2.33029 12.8005 2.77806L8.57795 9.95356C8.57795 9.95357 8.57795 9.95357 8.57794 9.95357C8.37788 10.2936 8.62301 10.7222 9.01749 10.7222H12.75V13C12.75 13.2761 12.9739 13.5 13.25 13.5C13.5261 13.5 13.75 13.2761 13.75 13V10.7222H14.5C14.7761 10.7222 15 10.4984 15 10.2222C15 9.94608 14.7761 9.72222 14.5 9.72222H13.75Z" />
</svg>
