<svg width="16" height="16" viewBox="0 0 16 16" xmlns="http://www.w3.org/2000/svg">
	<path fill-rule="evenodd" clip-rule="evenodd" d="M8.12609 5.26616C8.34632 5.32355 8.50001 5.52242 8.50001 5.75V13.5C8.50001 13.7761 8.27615 14 8.00001 14C7.72387 14 7.50001 13.7761 7.50001 13.5V7.33875C7.36954 7.49301 7.22838 7.64647 7.07949 7.78849C6.82344 8.03272 6.51939 8.26752 6.18468 8.40055C5.92806 8.50253 5.63735 8.37718 5.53536 8.12057C5.43337 7.86395 5.55873 7.57324 5.81534 7.47125C5.98063 7.40556 6.17658 7.26776 6.38928 7.06488C6.59758 6.86619 6.79829 6.62802 6.97594 6.39268C7.1527 6.15851 7.30085 5.93485 7.40491 5.76943C7.45676 5.68699 7.49724 5.61969 7.5244 5.57364C7.53797 5.55063 7.54819 5.53297 7.55481 5.52143L7.562 5.50881L7.56351 5.50614C7.6746 5.30758 7.90591 5.20878 8.12609 5.26616Z" />
	<path d="M9.00001 3C9.00001 3.55228 8.5523 4 8.00001 4C7.44773 4 7.00001 3.55228 7.00001 3C7.00001 2.44772 7.44773 2 8.00001 2C8.5523 2 9.00001 2.44772 9.00001 3Z" />
</svg>
