<svg width="16" height="16" viewBox="0 0 16 16" xmlns="http://www.w3.org/2000/svg">
	<path fill-rule="evenodd" clip-rule="evenodd" d="M13.197 2.54043C13.4508 2.64921 13.5684 2.94315 13.4596 3.19697L11.9596 6.69697C11.8508 6.95078 11.5569 7.06836 11.303 6.95958C11.0492 6.8508 10.9316 6.55686 11.0404 6.30305L12.5404 2.80305C12.6492 2.54923 12.9431 2.43166 13.197 2.54043ZM2 8.85527C2 6.71267 3.78328 5.00001 5.95272 5.00001C7.45667 5.00001 8.77009 5.82041 9.43814 7.03542C9.57119 7.2774 9.48288 7.58141 9.2409 7.71446C8.99893 7.84751 8.69491 7.7592 8.56186 7.51722C8.0675 6.61811 7.08771 6.00001 5.95272 6.00001C4.30838 6.00001 3 7.29175 3 8.85527V9.64474C3 11.2083 4.30838 12.5 5.95272 12.5C7.08771 12.5 8.0675 11.8819 8.56186 10.9828C8.69491 10.7408 8.99893 10.6525 9.2409 10.7856C9.48288 10.9186 9.57119 11.2226 9.43814 11.4646C8.77009 12.6796 7.45667 13.5 5.95272 13.5C3.78328 13.5 2 11.7873 2 9.64474V8.85527Z" />
</svg>
