<svg width="16" height="16" viewBox="0 0 16 16" xmlns="http://www.w3.org/2000/svg">
	<path d="M6.99027 0.598027C7.04442 0.327247 6.86881 0.0638359 6.59803 0.00968292C6.32725 -0.04447 6.06384 0.131141 6.00968 0.401922L5.08939 5.00367L1.50005 5.0033C1.22391 5.00327 1.00003 5.2271 1 5.50324C0.999971 5.77939 1.22381 6.00327 1.49995 6.0033L4.8894 6.00365L4.09088 9.99646L0.500051 9.99609C0.223909 9.99607 2.84395e-05 10.2199 2.70718e-09 10.496C-2.84233e-05 10.7722 0.223806 10.9961 0.499949 10.9961L3.8909 10.9964L3.00987 15.4019C2.95571 15.6726 3.13132 15.9361 3.4021 15.9902C3.67289 16.0444 3.9363 15.8688 3.99045 15.598L4.91068 10.9965L9.91426 10.9971L9.0102 15.3994C8.95465 15.6699 9.1289 15.9342 9.3994 15.9898C9.66989 16.0453 9.93421 15.8711 9.98976 15.6006L10.9351 10.9972L14.5025 10.9975C14.7786 10.9976 15.0025 10.7737 15.0025 10.4976C15.0026 10.2214 14.7787 9.99756 14.5026 9.99754L11.1405 9.99719L11.9604 6.00439L15.4999 6.00476C15.7761 6.00479 16 5.78095 16 5.50481C16 5.22867 15.7762 5.00479 15.5001 5.00476L12.1658 5.00441L13.0674 0.613864C13.123 0.343366 12.9487 0.0790531 12.6782 0.0235037C12.4077 -0.0320457 12.1434 0.142204 12.0879 0.412702L11.1449 5.0043L6.10917 5.00378L6.99027 0.598027ZM5.90918 6.00376L10.9396 6.00428L10.1196 9.99708L5.11067 9.99657L5.90918 6.00376Z" />
</svg>
