<svg width="16" height="16" viewBox="0 0 16 16" xmlns="http://www.w3.org/2000/svg">
	<path fill-rule="evenodd" clip-rule="evenodd" d="M4.12511 1.8C2.42683 1.8 1.05011 3.17673 1.05011 4.875C1.05011 5.86655 1.51941 6.74848 2.24801 7.31079C1.15701 7.9543 0.425049 9.14167 0.425049 10.5C0.425049 12.5435 2.0816 14.2 4.12505 14.2C6.1685 14.2 7.82505 12.5435 7.82505 10.5C7.82505 9.1417 7.09312 7.95434 6.00215 7.31083C6.73078 6.74852 7.20011 5.86657 7.20011 4.875C7.20011 3.17673 5.82339 1.8 4.12511 1.8ZM2.20011 4.875C2.20011 3.81185 3.06196 2.95 4.12511 2.95C5.18826 2.95 6.05011 3.81185 6.05011 4.875C6.05011 5.93815 5.18826 6.8 4.12511 6.8C3.06196 6.8 2.20011 5.93815 2.20011 4.875ZM1.57505 10.5C1.57505 9.09168 2.71672 7.95 4.12505 7.95C5.53337 7.95 6.67505 9.09168 6.67505 10.5C6.67505 11.9083 5.53337 13.05 4.12505 13.05C2.71672 13.05 1.57505 11.9083 1.57505 10.5Z" />
	<path d="M8.97964 6.35869C8.90152 6.09383 8.62348 5.94244 8.35862 6.02056C8.09375 6.09867 7.94236 6.37671 8.02048 6.64157L8.97074 9.86363C9.19986 10.6405 10.3002 10.6405 10.5294 9.86363L11.4796 6.64157C11.5577 6.37671 11.4064 6.09867 11.1415 6.02056C10.8766 5.94244 10.5986 6.09383 10.5205 6.35869L9.75006 8.97096L8.97964 6.35869Z" />
	<path fill-rule="evenodd" clip-rule="evenodd" d="M12.459 7.16618C12.6543 7.36145 12.9708 7.36145 13.1661 7.16618L13.1672 7.16546C13.1757 7.15882 13.2257 7.11965 13.3225 7.07997C13.4261 7.03749 13.5703 7.00013 13.7501 7.00013C13.8778 7.00013 14.0192 7.01893 14.1628 7.05072C14.3322 7.08822 14.5001 7.27377 14.5001 7.58517V7.66505C14.2881 7.62135 14.0386 7.59388 13.7501 7.59388C13.2305 7.59388 12.7717 7.69506 12.4432 7.98415C12.0993 8.28677 12.0001 8.70267 12.0001 9.09388C12.0001 9.61266 12.2773 9.97727 12.6442 10.1851C12.9828 10.377 13.3922 10.4376 13.7501 10.4376C14.0584 10.4376 14.3491 10.3358 14.5854 10.217C14.6752 10.3501 14.8274 10.4376 15.0001 10.4376C15.2762 10.4376 15.5001 10.2138 15.5001 9.93763V7.58517C15.5001 6.94964 15.1341 6.24157 14.379 6.07437C14.1863 6.0317 13.9699 6.00013 13.7501 6.00013C13.1202 6.00013 12.6588 6.25924 12.459 6.45908C12.2637 6.65434 12.2637 6.97092 12.459 7.16618ZM14.4664 8.68777C14.4782 8.69152 14.4895 8.69524 14.5001 8.6989V9.08788C14.4253 9.14735 14.3337 9.2125 14.2331 9.271C14.0423 9.38197 13.8725 9.43763 13.7501 9.43763C13.483 9.43763 13.2673 9.38887 13.1372 9.31512C13.0771 9.2811 13.0466 9.24831 13.0304 9.22268C13.016 9.19984 13.0001 9.16272 13.0001 9.09388C13.0001 8.8601 13.0571 8.776 13.1038 8.73487C13.1659 8.6802 13.3321 8.59388 13.7501 8.59388C14.0791 8.59388 14.3142 8.63961 14.4664 8.68777Z" />
</svg>
