<svg width="16" height="16" viewBox="0 0 16 16" xmlns="http://www.w3.org/2000/svg">
	<path d="M4 2C2.89543 2 2 2.89543 2 4V12C2 13.1046 2.89543 14 4 14H12C13.1046 14 14 13.1046 14 12V9.5C14 9.22386 14.2239 9 14.5 9C14.7761 9 15 9.22386 15 9.5V12C15 13.6569 13.6569 15 12 15H4C2.34315 15 1 13.6569 1 12V4C1 2.34315 2.34315 1 4 1H6.5C6.77614 1 7 1.22386 7 1.5C7 1.77614 6.77614 2 6.5 2H4ZM9 1.5C9 1.22386 9.22386 1 9.5 1H14.5C14.7761 1 15 1.22386 15 1.5V6.5C15 6.77614 14.7761 7 14.5 7C14.2239 7 14 6.77614 14 6.5V2.70711L9.85355 6.85355C9.65829 7.04882 9.34171 7.04882 9.14645 6.85355C8.95118 6.65829 8.95118 6.34171 9.14645 6.14645L13.2929 2H9.5C9.22386 2 9 1.77614 9 1.5Z" />
</svg>
