<svg width="16" height="16" viewBox="0 0 16 16" xmlns="http://www.w3.org/2000/svg">
	<path d="M14 6.125V14.0391C14 14.2995 13.9453 14.5495 13.8359 14.7891C13.7318 15.0234 13.5885 15.2318 13.4062 15.4141C13.2292 15.5911 13.0208 15.7344 12.7812 15.8438C12.5469 15.9479 12.2995 16 12.0391 16H8.07812C8.26042 15.8542 8.4349 15.6979 8.60156 15.5312C8.76823 15.3646 8.92188 15.1875 9.0625 15H12C12.1406 15 12.2708 14.974 12.3906 14.9219C12.5104 14.8698 12.6146 14.7995 12.7031 14.7109C12.7969 14.6172 12.8698 14.5104 12.9219 14.3906C12.974 14.2708 13 14.1406 13 14V6.125C13 6.10417 13 6.08333 13 6.0625C13 6.04167 12.9974 6.02083 12.9922 6H9.96094C9.6901 6 9.4349 5.94531 9.19531 5.83594C8.96094 5.72656 8.75521 5.58073 8.57812 5.39844C8.40104 5.21615 8.26042 5.00521 8.15625 4.76562C8.05208 4.52083 8 4.26562 8 4V1.00781C7.97917 1.0026 7.95833 1 7.9375 1C7.91667 1 7.89583 1 7.875 1H4C3.85938 1 3.72917 1.02604 3.60938 1.07812C3.48958 1.13021 3.38281 1.20312 3.28906 1.29688C3.20052 1.38542 3.13021 1.48958 3.07812 1.60938C3.02604 1.72917 3 1.85938 3 2V5.94531C2.65104 6.03906 2.31771 6.16406 2 6.32031V1.96094C2 1.70052 2.05208 1.45312 2.15625 1.21875C2.26562 0.979167 2.40885 0.770833 2.58594 0.59375C2.76823 0.411458 2.97656 0.268229 3.21094 0.164062C3.45052 0.0546875 3.70052 0 3.96094 0H7.875C8.14062 0 8.39583 0.0520833 8.64062 0.15625C8.88542 0.255208 9.10156 0.398438 9.28906 0.585938L13.4141 4.71094C13.6016 4.89844 13.7448 5.11458 13.8438 5.35938C13.9479 5.60417 14 5.85938 14 6.125ZM9 4C9 4.14062 9.02604 4.27344 9.07812 4.39844C9.13021 4.51823 9.20052 4.6224 9.28906 4.71094C9.3776 4.79948 9.48177 4.86979 9.60156 4.92188C9.72656 4.97396 9.85938 5 10 5H12.2969L9 1.70312V4ZM9 11.5C9 12.1198 8.88021 12.7031 8.64062 13.25C8.40625 13.7969 8.08594 14.2734 7.67969 14.6797C7.27344 15.0859 6.79688 15.4089 6.25 15.6484C5.70312 15.8828 5.11979 16 4.5 16C3.875 16 3.28906 15.8828 2.74219 15.6484C2.19531 15.4141 1.71875 15.0938 1.3125 14.6875C0.90625 14.2812 0.585938 13.8047 0.351562 13.2578C0.117188 12.7109 0 12.125 0 11.5C0 10.8802 0.117188 10.2969 0.351562 9.75C0.591146 9.20312 0.914062 8.72656 1.32031 8.32031C1.72656 7.91406 2.20312 7.59375 2.75 7.35938C3.29688 7.11979 3.88021 7 4.5 7C4.91146 7 5.30729 7.05469 5.6875 7.16406C6.07292 7.26823 6.43229 7.41927 6.76562 7.61719C7.09896 7.8099 7.40365 8.04427 7.67969 8.32031C7.95573 8.59635 8.1901 8.90104 8.38281 9.23438C8.58073 9.56771 8.73177 9.92708 8.83594 10.3125C8.94531 10.6927 9 11.0885 9 11.5ZM7 9.5C7 9.36458 6.95052 9.2474 6.85156 9.14844C6.7526 9.04948 6.63542 9 6.5 9H3.5C3.36458 9 3.2474 9.04948 3.14844 9.14844C3.04948 9.2474 3 9.36458 3 9.5C3 9.63542 3.04948 9.7526 3.14844 9.85156C3.2474 9.95052 3.36458 10 3.5 10H5.23438L2.61719 12.6172C2.51302 12.7214 2.46094 12.849 2.46094 13C2.46094 13.151 2.51302 13.2786 2.61719 13.3828C2.72135 13.487 2.84896 13.5391 3 13.5391C3.15104 13.5391 3.27865 13.487 3.38281 13.3828L6 10.7656V12.5C6 12.6354 6.04948 12.7526 6.14844 12.8516C6.2474 12.9505 6.36458 13 6.5 13C6.63542 13 6.7526 12.9505 6.85156 12.8516C6.95052 12.7526 7 12.6354 7 12.5V9.5Z" />
</svg>
