<svg width="16" height="16" viewBox="0 0 16 16" xmlns="http://www.w3.org/2000/svg">
	<path d="M14.6464 7.14644L15.5 8L14.6464 8.85356L11.5 12L11.5 12.0001L11.1464 12.3536M14.6464 7.14644L15.8536 7.64645C15.9061 7.69898 15.9445 7.76028 15.9688 7.82563C15.989 7.87992 16 7.93867 16 8C16 8.06133 15.989 8.12008 15.9687 8.17437C15.9445 8.23973 15.9061 8.30103 15.8536 8.35355L11.8536 12.3536C11.6583 12.5488 11.3417 12.5488 11.1464 12.3536M14.6464 7.14644L11.5 4.00005M14.6464 7.14644L11.5001 4.00003M11.1464 12.3536L11.4999 12H11.4999L11.1464 11.6465C10.9512 11.8417 10.9512 12.1583 11.1464 12.3536ZM11.5001 4.00003L15.5 7.99995M11.5001 4.00003L11.5 12H11.5001L15.5 8.00005M11.5001 4.00003L11.5 4.00003L11.5 4.00005M15.5 7.99995L15.5 8.00001L15.5 8.00005M15.5 7.99995L15.5001 7.99986L15.5 7.99963L15.5 7.99995ZM15.5 8.00005L15.5 8.00038L15.5001 8.00014L15.5 8.00005ZM15.5001 8.00007L15.5001 8L15.5001 7.99994L15.5001 7.99999L15.5001 8.00007ZM15.5001 8.00007L15.5001 8.00001L15.5001 8.00007ZM11.5 4.00005L11.1464 4.35355M11.5 4.00005L11.5 3.99995L11.1464 3.64645M11.1464 4.35355L11.4999 4.00003L11.1464 3.64645M11.1464 4.35355C10.9512 4.15829 10.9512 3.84171 11.1464 3.64645M11.1464 4.35355L13.7929 7H14.2929V7.5L13.9393 7.85356L13.5858 7.5H3.5C3.22386 7.5 3 7.72386 3 8C3 8.27614 3.22386 8.5 3.5 8.5L11.1464 3.64645" stroke="black" stroke-linecap="round" />
</svg>
