<svg width="16" height="16" viewBox="0 0 16 16" xmlns="http://www.w3.org/2000/svg">
	<path d="M3.5 -0.000854492C3.22386 -0.000854492 3 0.223003 3 0.499146L3.00002 9.0035C3.00002 10.1081 3.89545 11.0035 5.00002 11.0035H6.00411V14.0008C6.00411 15.1054 6.89954 16.0008 8.00411 16.0008C9.10868 16.0008 10.0041 15.1054 10.0041 14.0008V11.0035H11C12.1046 11.0035 13 10.1081 13 9.0035V7.50351L13 7.4991V0.499146C13 0.223003 12.7761 -0.000854492 12.5 -0.000854492H3.5ZM4.00002 8.00354H12V9.0035C12 9.55578 11.5523 10.0035 11 10.0035H9.50411C9.22797 10.0035 9.00411 10.2274 9.00411 10.5035V14.0008C9.00411 14.5531 8.5564 15.0008 8.00411 15.0008C7.45183 15.0008 7.00411 14.5531 7.00411 14.0008V10.5035C7.00411 10.2274 6.78026 10.0035 6.50411 10.0035H5.00002C4.44773 10.0035 4.00002 9.55578 4.00002 9.0035V8.00354ZM12 7.00351H4V0.999146H8V2.49915C8 2.77529 8.22386 2.99915 8.5 2.99915C8.77614 2.99915 9 2.77529 9 2.49915V0.999146H10V3.50134C10 3.77748 10.2239 4.00134 10.5 4.00134C10.7761 4.00134 11 3.77748 11 3.50134V0.999146H12V7.00351Z" />
</svg>
