<svg width="16" height="16" viewBox="0 0 16 16" xmlns="http://www.w3.org/2000/svg">
	<path fill-rule="evenodd" clip-rule="evenodd" d="M10.5842 10.5634C10.7703 10.2837 10.9956 10.0324 11.2522 9.81713L4.90752 3.47249C5.89156 1.98279 7.58101 1 9.5 1C12.5376 1 15 3.46243 15 6.5C15 7.44169 14.7633 8.3281 14.3463 9.103C14.6774 9.18523 14.9899 9.31461 15.2763 9.48361C15.7388 8.59008 16 7.57554 16 6.5C16 2.91015 13.0899 0 9.5 0C5.91015 0 3 2.91015 3 6.5C3 7.56609 3.25666 8.57224 3.71155 9.46002L0.585786 12.5858C-0.195262 13.3668 -0.195262 14.6332 0.585786 15.4142C1.36683 16.1953 2.63316 16.1953 3.41421 15.4142L6.53998 12.2884C7.42776 12.7433 8.43391 13 9.5 13C9.67927 13 9.85684 12.9927 10.0324 12.9785C10.0111 12.8221 10 12.6623 10 12.5C10 12.3212 10.0134 12.1455 10.0393 11.9739C9.86186 11.9912 9.68196 12 9.5 12C6.46244 12 4 9.53757 4 6.5C4 5.75475 4.14823 5.04412 4.4168 4.39598L10.5842 10.5634ZM1.29289 13.2929L4.2511 10.3347C4.64695 10.8756 5.1244 11.353 5.66531 11.7489L2.70711 14.7071C2.31658 15.0976 1.68342 15.0976 1.29289 14.7071C0.902369 14.3166 0.902369 13.6834 1.29289 13.2929Z" />
	<path fill-rule="evenodd" clip-rule="evenodd" d="M16 12.5C16 13.8807 14.8807 15 13.5 15C12.1193 15 11 13.8807 11 12.5C11 11.1193 12.1193 10 13.5 10C14.8807 10 16 11.1193 16 12.5ZM15 12.5C15 13.3284 14.3284 14 13.5 14C12.6716 14 12 13.3284 12 12.5C12 11.6716 12.6716 11 13.5 11C14.3284 11 15 11.6716 15 12.5Z" />
</svg>
