<svg width="16" height="16" viewBox="0 0 16 16" xmlns="http://www.w3.org/2000/svg">
	<path d="M3.50781 15.0469C3.29948 15.0469 3.10417 15.0078 2.92188 14.9297C2.73958 14.8516 2.57812 14.7448 2.4375 14.6094C2.30208 14.474 2.19531 14.3151 2.11719 14.1328C2.03906 13.9505 2 13.7552 2 13.5469V2.45312C2 2.24479 2.03906 2.04948 2.11719 1.86719C2.19531 1.6849 2.30208 1.52604 2.4375 1.39062C2.57292 1.25521 2.73177 1.14844 2.91406 1.07031C3.09635 0.992188 3.29167 0.953125 3.5 0.953125C3.625 0.953125 3.75 0.96875 3.875 1C4 1.03125 4.11719 1.07812 4.22656 1.14062L14.1797 6.6875C14.4193 6.82292 14.6068 7.00781 14.7422 7.24219C14.8776 7.47656 14.9453 7.72917 14.9453 8C14.9453 8.27604 14.8776 8.53125 14.7422 8.76562C14.612 8.99479 14.4245 9.17708 14.1797 9.3125L4.23438 14.8594C4.125 14.9219 4.00781 14.9688 3.88281 15C3.75781 15.0312 3.63281 15.0469 3.50781 15.0469ZM13.9453 8C13.9453 7.91146 13.9219 7.82812 13.875 7.75C13.8281 7.66667 13.7656 7.60417 13.6875 7.5625L3.74219 2.01562C3.66927 1.97396 3.58854 1.95312 3.5 1.95312C3.36458 1.95312 3.2474 2.0026 3.14844 2.10156C3.04948 2.20052 3 2.31771 3 2.45312V13.5469C3 13.6823 3.04948 13.7995 3.14844 13.8984C3.2474 13.9974 3.36458 14.0469 3.5 14.0469C3.58854 14.0469 3.66927 14.026 3.74219 13.9844L13.6875 8.4375C13.7656 8.39583 13.8281 8.33594 13.875 8.25781C13.9219 8.17448 13.9453 8.08854 13.9453 8Z" />
</svg>
