<svg width="16" height="17" viewBox="0 0 16 17" xmlns="http://www.w3.org/2000/svg">
	<path d="M2.58357 15.526L2.14641 15.9632C1.95115 16.1585 1.95115 16.4751 2.14641 16.6703C2.34167 16.8656 2.65825 16.8656 2.85352 16.6703L4.53472 14.9891C6.81226 15.8958 9.51004 15.4275 11.3535 13.5841L13.5887 11.3488C13.1631 11.5181 12.6757 11.4849 12.2743 11.2491L10.6464 12.877C8.93396 14.5895 6.34583 14.8926 4.32338 13.7863L2.59411 15.5156C2.59061 15.5191 2.5871 15.5226 2.58357 15.526Z" />
	<path fill-rule="evenodd" clip-rule="evenodd" d="M10.887 1.10138C11.0823 1.29664 11.0823 1.61322 10.887 1.80849L8.24055 4.45493L11.5334 7.74783L14.1799 5.10138C14.3752 4.90612 14.6917 4.90612 14.887 5.10138C15.0823 5.29664 15.0823 5.61322 14.887 5.80849L12.2406 8.45493L13.387 9.60138C13.5823 9.79664 13.5823 10.1132 13.387 10.3085C13.1917 10.5037 12.8752 10.5037 12.6799 10.3085L12.2403 9.8689L9.93932 12.1699C8.36867 13.7405 5.89119 13.8517 4.19222 12.5033L1.887 14.8085C1.69174 15.0037 1.37516 15.0037 1.17989 14.8085C0.984632 14.6132 0.984632 14.2966 1.17989 14.1014L3.4851 11.7962C2.13665 10.0972 2.24776 7.61967 3.81843 6.049L6.11942 3.74801L5.67989 3.30849C5.48463 3.11322 5.48463 2.79664 5.67989 2.60138C5.87516 2.40612 6.19174 2.40612 6.387 2.60138L7.53345 3.74783L10.1799 1.10138C10.3752 0.906118 10.6917 0.906118 10.887 1.10138ZM6.82652 4.45512L4.52553 6.7561C3.22582 8.05582 3.22582 10.1631 4.52553 11.4628C5.82525 12.7625 7.9325 12.7625 9.23221 11.4628L11.5332 9.16179L6.82652 4.45512Z" />
</svg>
