<svg width="16" height="16" viewBox="0 0 16 16" xmlns="http://www.w3.org/2000/svg">
	<path fill-rule="evenodd" clip-rule="evenodd" d="M10.8536 1.14645C11.0488 1.34171 11.0488 1.65829 10.8536 1.85355L8.20711 4.5L11.5 7.79289L14.1464 5.14645C14.3417 4.95118 14.6583 4.95118 14.8536 5.14645C15.0488 5.34171 15.0488 5.65829 14.8536 5.85355L12.2071 8.5L13.3536 9.64645C13.5488 9.84171 13.5488 10.1583 13.3536 10.3536C13.1583 10.5488 12.8417 10.5488 12.6464 10.3536L12.2069 9.91399L9.90592 12.215C8.33526 13.7856 5.85776 13.8967 4.15879 12.5483L1.85355 14.8536C1.65829 15.0488 1.34171 15.0488 1.14645 14.8536C0.951184 14.6583 0.951184 14.3417 1.14645 14.1464L3.45168 11.8412C2.10325 10.1422 2.21436 7.66473 3.78503 6.09406L6.08599 3.7931L5.64645 3.35355C5.45118 3.15829 5.45118 2.84171 5.64645 2.64645C5.84171 2.45118 6.15829 2.45118 6.35355 2.64645L7.5 3.79289L10.1464 1.14645C10.3417 0.951184 10.6583 0.951184 10.8536 1.14645ZM6.7931 4.50021L4.49213 6.80117C3.19242 8.10088 3.19242 10.2081 4.49213 11.5078C5.79185 12.8076 7.8991 12.8076 9.19881 11.5078L11.4998 9.20688L6.7931 4.50021Z" />
</svg>
