<svg width="16" height="16" viewBox="0 0 16 16" xmlns="http://www.w3.org/2000/svg">
	<path fill-rule="evenodd" clip-rule="evenodd" d="M8 1.5C8.27614 1.5 8.5 1.72386 8.5 2V6.5H13C13.2761 6.5 13.5 6.72386 13.5 7C13.5 7.27614 13.2761 7.5 13 7.5H8.5V12C8.5 12.2761 8.27614 12.5 8 12.5C7.72386 12.5 7.5 12.2761 7.5 12V7.5H3C2.72386 7.5 2.5 7.27614 2.5 7C2.5 6.72386 2.72386 6.5 3 6.5H7.5V2C7.5 1.72386 7.72386 1.5 8 1.5ZM2.5 14C2.5 13.7239 2.72386 13.5 3 13.5H13C13.2761 13.5 13.5 13.7239 13.5 14C13.5 14.2761 13.2761 14.5 13 14.5H3C2.72386 14.5 2.5 14.2761 2.5 14Z" />
</svg>
