<svg width="16" height="16" viewBox="0 0 16 16" xmlns="http://www.w3.org/2000/svg">
	<path d="M8.95097 1.06478C5.12074 0.540104 1.5904 3.21978 1.06573 7.05001C0.54105 10.8802 3.22073 14.4106 7.05095 14.9353C10.8812 15.4599 14.4115 12.7802 14.9362 8.95002C15.0012 8.47519 15.017 8.00547 14.9877 7.54586C14.9701 7.27028 15.1792 7.03261 15.4548 7.015C15.7304 6.9974 15.9681 7.20653 15.9857 7.48211C16.0192 8.00792 16.0011 8.54446 15.9269 9.08574C15.3273 13.4631 11.2926 16.5256 6.91524 15.926C2.53784 15.3264 -0.524651 11.2917 0.0749783 6.91429C0.674607 2.53689 4.70929 -0.525597 9.08669 0.0740322C11.0653 0.345067 12.7758 1.3185 14.0001 2.70732V0.499999C14.0001 0.223857 14.2239 -9.76201e-07 14.5001 -9.76201e-07C14.7762 -9.76201e-07 15.0001 0.223857 15.0001 0.499999V4.5C15.0001 4.77614 14.7762 5 14.5001 5H10.5001C10.2239 5 10.0001 4.77614 10.0001 4.5C10.0001 4.22386 10.2239 4 10.5001 4H13.7494L13.6231 3.82967C12.5398 2.36954 10.8937 1.3309 8.95097 1.06478Z" />
	<path d="M11.6663 6.78431C11.8013 6.58944 11.782 6.32001 11.6084 6.14645C11.4132 5.95118 11.0966 5.95118 10.9013 6.14645L7.25 9.798L5.60355 8.15131L5.53431 8.09346C5.33944 7.95846 5.07001 7.97775 4.89645 8.15131C4.70118 8.34658 4.70118 8.66316 4.89645 8.85842L6.89645 10.8584L6.96569 10.9163C7.16056 11.0513 7.42999 11.032 7.60355 10.8584L11.6084 6.85355L11.6663 6.78431Z" />
</svg>
