<svg width="16" height="16" viewBox="0 0 16 16" xmlns="http://www.w3.org/2000/svg">
	<path d="M8.50452 1.11661C8.19239 0.933787 7.80585 0.933787 7.49372 1.11661L1.48483 4.63608C0.824555 5.02281 0.82557 5.97759 1.48667 6.36292L6.47157 9.2684C6.60796 8.96155 6.77161 8.66949 6.95945 8.3953L1.99023 5.49896L7.49372 2.27551C7.80585 2.09269 8.19239 2.09269 8.50452 2.27551L14.008 5.49896L12.8584 6.16903C13.2789 6.27586 13.6802 6.43115 14.0557 6.62861L14.5116 6.36292C15.1727 5.97759 15.1737 5.02281 14.5134 4.63608L8.50452 1.11661Z" />
	<path d="M1.07073 7.65002L6.09497 10.477C6.03262 10.8084 6 11.1504 6 11.5L6.00015 11.5407L1.48667 8.91C1.02254 8.63948 0.883756 8.08828 1.07073 7.65002Z" />
	<path d="M1.07073 10.103L6.20468 12.9916C6.35896 13.5405 6.59626 14.0545 6.90218 14.5194L1.48667 11.3629C1.02254 11.0924 0.883756 10.5412 1.07073 10.103Z" />
	<path fill-rule="evenodd" clip-rule="evenodd" d="M16 11.5C16 13.9853 13.9853 16 11.5 16C9.01472 16 7 13.9853 7 11.5C7 9.01472 9.01472 7 11.5 7C13.9853 7 16 9.01472 16 11.5ZM13.8536 9.64645C14.0488 9.84171 14.0488 10.1583 13.8536 10.3536L10.8536 13.3536C10.6583 13.5488 10.3417 13.5488 10.1464 13.3536L9.14645 12.3536C8.95118 12.1583 8.95118 11.8417 9.14645 11.6464C9.34171 11.4512 9.65829 11.4512 9.85355 11.6464L10.5 12.2929L13.1464 9.64645C13.3417 9.45118 13.6583 9.45118 13.8536 9.64645Z" />
</svg>
