<svg width="16" height="16" viewBox="0 0 16 16" xmlns="http://www.w3.org/2000/svg">
	<path d="M6 2.69531C6 2.32552 6.07031 1.97656 6.21094 1.64844C6.35156 1.32031 6.54427 1.03385 6.78906 0.789062C7.03385 0.544271 7.32031 0.351562 7.64844 0.210938C7.97656 0.0703125 8.32552 0 8.69531 0C8.95573 0 9.1901 0.0286458 9.39844 0.0859375C9.60677 0.143229 9.79948 0.223958 9.97656 0.328125C10.1589 0.427083 10.3307 0.549479 10.4922 0.695312C10.6536 0.841146 10.8203 1.0026 10.9922 1.17969C11.1641 1.0026 11.3307 0.84375 11.4922 0.703125C11.6536 0.557292 11.8229 0.434896 12 0.335938C12.1771 0.231771 12.3672 0.151042 12.5703 0.09375C12.7786 0.0364583 13.013 0.0078125 13.2734 0.0078125C13.6484 0.0078125 14 0.0807292 14.3281 0.226562C14.6615 0.367188 14.9505 0.5625 15.1953 0.8125C15.4453 1.05729 15.6406 1.34375 15.7812 1.67188C15.9271 2 16 2.35156 16 2.72656C16 3.08594 15.9323 3.43229 15.7969 3.76562C15.6615 4.09375 15.4661 4.38542 15.2109 4.64062L11.3125 8.53906C11.2292 8.6224 11.1302 8.66406 11.0156 8.66406C10.901 8.66406 10.8021 8.6224 10.7188 8.53906L6.79688 4.61719C6.54167 4.36198 6.34375 4.06771 6.20312 3.73438C6.06771 3.40104 6 3.05469 6 2.69531ZM3.9375 15C3.54688 15 3.17188 14.9219 2.8125 14.7656C2.45833 14.6042 2.14583 14.3906 1.875 14.125C1.60938 13.8542 1.39583 13.5417 1.23438 13.1875C1.07812 12.8281 1 12.4531 1 12.0625V3.9375C1 3.54688 1.07812 3.17448 1.23438 2.82031C1.39583 2.46094 1.60938 2.14844 1.875 1.88281C2.14583 1.61198 2.45833 1.39844 2.8125 1.24219C3.17188 1.08073 3.54688 1 3.9375 1H5.13281C5.05469 1.15625 4.98958 1.32031 4.9375 1.49219C4.88542 1.65885 4.84375 1.82812 4.8125 2H3.96094C3.70052 2 3.45052 2.05469 3.21094 2.16406C2.97656 2.26823 2.76823 2.41146 2.58594 2.59375C2.40885 2.77083 2.26562 2.97917 2.15625 3.21875C2.05208 3.45312 2 3.70052 2 3.96094V12.0391C2 12.2995 2.05208 12.5495 2.15625 12.7891C2.26562 13.0234 2.40885 13.2318 2.58594 13.4141C2.76823 13.5911 2.97656 13.7344 3.21094 13.8438C3.45052 13.9479 3.70052 14 3.96094 14H12.0391C12.3099 14 12.5625 13.9453 12.7969 13.8359C13.0365 13.7266 13.2448 13.5807 13.4219 13.3984C13.599 13.2161 13.7396 13.0052 13.8438 12.7656C13.9479 12.5208 14 12.2656 14 12V7.61719L15 6.61719V12.0625C15 12.4531 14.9193 12.8281 14.7578 13.1875C14.6016 13.5417 14.388 13.8542 14.1172 14.125C13.8516 14.3906 13.5391 14.6042 13.1797 14.7656C12.8255 14.9219 12.4531 15 12.0625 15H3.9375Z" />
</svg>
