<svg width="16" height="16" viewBox="0 0 16 16" xmlns="http://www.w3.org/2000/svg">
	<path d="M12.7017 0.22563C13.3457 0.0244018 14 0.50547 14 1.18011V11.5C14 12.8807 12.8807 14 11.5 14C10.1193 14 9 12.8807 9 11.5C9 10.1193 10.1193 9.00003 11.5 9.00003C12.0628 9.00003 12.5822 9.186 13 9.49985V4.18011L6 6.36761V13.5C6 14.8807 4.88071 16 3.5 16C2.11929 16 1 14.8807 1 13.5C1 12.1193 2.11929 11 3.5 11C4.0628 11 4.58217 11.186 5 11.4998V3.36761C5 2.93022 5.28425 2.54359 5.70173 2.41313L12.7017 0.22563ZM6 5.31992L13 3.13242V1.18011L6 3.36761V5.31992ZM3.5 12C2.67157 12 2 12.6716 2 13.5C2 14.3284 2.67157 15 3.5 15C4.32843 15 5 14.3284 5 13.5C5 12.6716 4.32843 12 3.5 12ZM10 11.5C10 12.3285 10.6716 13 11.5 13C12.3284 13 13 12.3285 13 11.5C13 10.6716 12.3284 10 11.5 10C10.6716 10 10 10.6716 10 11.5Z" />
</svg>
