<svg width="14" height="10" viewBox="0 0 14 10" xmlns="http://www.w3.org/2000/svg">
	<path fill-rule="evenodd" clip-rule="evenodd" d="M3.75001 2.15697L2.24791 5.99999H5.25212L3.75001 2.15697ZM5.64783 6.99999H1.85219L0.963243 9.18818C0.85931 9.44401 0.567658 9.56715 0.311821 9.46322C0.0559848 9.35929 -0.0671569 9.06763 0.0367768 8.8118L1.05115 6.31488L3.16734 0.900774C3.37468 0.370306 4.12534 0.3703 4.33268 0.900774L6.44886 6.31486L7.46324 8.8118C7.56718 9.06763 7.44404 9.35929 7.1882 9.46322C6.93236 9.56715 6.64071 9.44401 6.53678 9.18818L5.64783 6.99999Z" />
	<path fill-rule="evenodd" clip-rule="evenodd" d="M9.00001 1.5V4.5H11C11.8284 4.5 12.5 3.82843 12.5 3C12.5 2.17157 11.8284 1.5 11 1.5H9.00001ZM12.718 4.81623C13.1996 4.36053 13.5 3.71535 13.5 3C13.5 1.61929 12.3807 0.5 11 0.5H8.62501C8.27983 0.5 8.00001 0.779822 8.00001 1.125V8.875C8.00001 9.22018 8.27983 9.5 8.62501 9.5H11.5C12.8807 9.5 14 8.38071 14 7C14 6.06148 13.4829 5.24374 12.718 4.81623ZM9.00001 5.5V8.5H11.5C12.3284 8.5 13 7.82843 13 7C13 6.17157 12.3284 5.5 11.5 5.5H9.00001Z" />
</svg>
