<svg width="16" height="16" viewBox="0 0 16 16" xmlns="http://www.w3.org/2000/svg">
	<path fill-rule="evenodd" clip-rule="evenodd" d="M16 11.5C16 13.9853 13.9853 16 11.5 16C9.01472 16 7 13.9853 7 11.5C7 9.01472 9.01472 7 11.5 7C13.9853 7 16 9.01472 16 11.5ZM10.6036 8.89645C10.7988 9.09171 10.7988 9.40829 10.6036 9.60355L9.70711 10.5H11.25C12.7688 10.5 14 11.7312 14 13.25V13.5C14 13.7761 13.7761 14 13.5 14C13.2239 14 13 13.7761 13 13.5V13.25C13 12.2835 12.2165 11.5 11.25 11.5H9.70711L10.6036 12.3964C10.7988 12.5917 10.7988 12.9083 10.6036 13.1036C10.4083 13.2988 10.0917 13.2988 9.89645 13.1036L8.14433 11.3514C8.09744 11.304 8.06198 11.2495 8.03794 11.1914C8.01349 11.1324 8 11.0678 8 11C8 10.9322 8.01349 10.8676 8.03794 10.8086C8.06234 10.7496 8.09851 10.6944 8.14645 10.6464L9.89645 8.89645C10.0917 8.70118 10.4083 8.70118 10.6036 8.89645Z" />
	<path d="M1.13281 5.02344C1.04427 5.17448 1 5.33854 1 5.51562C1 5.69271 1.04427 5.85938 1.13281 6.01562C1.22656 6.17188 1.34896 6.29427 1.5 6.38281L6.46779 9.27692C6.60357 8.97004 6.76659 8.6779 6.95379 8.40358L2 5.51562L7.5 2.29688C7.65625 2.20312 7.82552 2.15625 8.00781 2.15625C8.1901 2.15625 8.35938 2.20312 8.51562 2.29688L14.0156 5.51562L12.8848 6.1758C13.3047 6.2847 13.7051 6.44197 14.0797 6.64129L14.5234 6.38281C14.6745 6.29427 14.7943 6.17448 14.8828 6.02344C14.9714 5.86719 15.0156 5.70052 15.0156 5.52344C15.0156 5.34635 14.9714 5.17969 14.8828 5.02344C14.7943 4.86719 14.6745 4.74479 14.5234 4.65625L8.51562 1.14062C8.35938 1.04688 8.1901 1 8.00781 1C7.82552 1 7.65625 1.04688 7.5 1.14062L1.49219 4.65625C1.34115 4.74479 1.22135 4.86719 1.13281 5.02344Z" />
	<path d="M6.20936 13.0082C6.36567 13.5576 6.60523 14.0719 6.91353 14.5366L1.5 11.3828C1.34896 11.2943 1.22656 11.1719 1.13281 11.0156C1.04427 10.8594 1 10.6927 1 10.5156C1 10.375 1.02604 10.2448 1.07812 10.125L6.20936 13.0082Z" />
	<path d="M6.0916 10.495C6.03144 10.8209 6 11.1568 6 11.5C6 11.5172 6.00008 11.5343 6.00024 11.5514L1.5 8.92969C1.34896 8.84115 1.22656 8.71875 1.13281 8.5625C1.04427 8.40625 1 8.23958 1 8.0625C1 7.92188 1.02604 7.79167 1.07812 7.67188L6.0916 10.495Z" />
</svg>
