<svg width="16" height="16" viewBox="0 0 16 16" xmlns="http://www.w3.org/2000/svg">
	<path d="M0 0.5C0 0.223858 0.223858 0 0.5 0H8C12.4183 0 16 3.58172 16 8L16 8.00324C15.999 10.3913 14.9517 12.5347 13.2916 13.9999H11.6076C13.6404 12.775 15 10.5463 15 7.99994C15 4.13395 11.866 1 8 1H0.5C0.223858 1 0 0.776142 0 0.5ZM8 16C3.58172 16 0 12.4183 0 7.99999C0 5.61061 1.04751 3.46583 2.70835 1.99994H4.39241C2.35958 3.22484 1 5.45368 1 8.00001C1 8.24163 1.01224 8.4804 1.03614 8.71572C1.34859 11.7921 3.65303 14.2795 6.63929 14.8678C7.07945 14.9546 7.53442 15 8 15H15.5C15.7761 15 16 15.2239 16 15.5C16 15.7761 15.7761 16 15.5 16H8ZM8.5 5.50001C8.5 5.22386 8.27614 5.00001 8 5.00001C7.72386 5.00001 7.5 5.22386 7.5 5.50001V7.50001H5.5C5.22386 7.50001 5 7.72386 5 8.00001C5 8.27615 5.22386 8.50001 5.5 8.50001H7.5V10.5C7.5 10.7761 7.72386 11 8 11C8.27614 11 8.5 10.7761 8.5 10.5V8.50001H10.5C10.7761 8.50001 11 8.27615 11 8.00001C11 7.72386 10.7761 7.50001 10.5 7.50001H8.5V5.50001Z" />
</svg>
