<svg width="16" height="16" viewBox="0 0 16 16" xmlns="http://www.w3.org/2000/svg">
<path d="M5.64645 14.8536C5.45118 14.6583 5.45118 14.3417 5.64645 14.1464L6.29289 13.5H4C2.61929 13.5 1.5 12.3807 1.5 11V8.5C1.5 8.22386 1.72386 8 2 8C2.27614 8 2.5 8.22386 2.5 8.5V11C2.5 11.8284 3.17157 12.5 4 12.5H6.29289L5.64645 11.8536C5.45118 11.6583 5.45118 11.3417 5.64645 11.1464C5.84171 10.9512 6.15829 10.9512 6.35355 11.1464L7.85355 12.6464L7.85567 12.6486C7.90256 12.696 7.93802 12.7505 7.96206 12.8086C7.98651 12.8676 8 12.9322 8 13C8 13.0678 7.98651 13.1324 7.96206 13.1914C7.93766 13.2504 7.90149 13.3056 7.85355 13.3536L6.35355 14.8536C6.15829 15.0488 5.84171 15.0488 5.64645 14.8536Z"/>
<path fill-rule="evenodd" clip-rule="evenodd" d="M15 13C15 14.1046 14.1046 15 13 15H11C9.89543 15 9 14.1046 9 13V11C9 9.89543 9.89543 9 11 9H13C14.1046 9 15 9.89543 15 11V13ZM13 14H11C10.4477 14 10 13.5523 10 13V11C10 10.4477 10.4477 10 11 10H13C13.5523 10 14 10.4477 14 11V13C14 13.5523 13.5523 14 13 14Z"/>
<path fill-rule="evenodd" clip-rule="evenodd" d="M7 5C7 6.10457 6.10457 7 5 7H3C1.89543 7 1 6.10457 1 5V3C1 1.89543 1.89543 1 3 1H5C6.10457 1 7 1.89543 7 3V5ZM3 6C2.44772 6 2 5.55228 2 5V3C2 2.44772 2.44772 2 3 2H5C5.55228 2 6 2.44772 6 3V5C6 5.55228 5.55228 6 5 6H3Z"/>
<path d="M14.1464 5.64645C14.3417 5.45118 14.6583 5.45118 14.8536 5.64645C15.0488 5.84171 15.0488 6.15829 14.8536 6.35355L13.3536 7.85355C13.3056 7.90149 13.2504 7.93766 13.1914 7.96206C13.1324 7.98651 13.0678 8 13 8C12.9322 8 12.8676 7.98651 12.8086 7.96206C12.7505 7.93802 12.696 7.90256 12.6486 7.85567L12.6464 7.85355L11.1464 6.35355C10.9512 6.15829 10.9512 5.84171 11.1464 5.64645C11.3417 5.45118 11.6583 5.45118 11.8536 5.64645L12.5 6.29289V4C12.5 3.17157 11.8284 2.5 11 2.5H8.5C8.22386 2.5 8 2.27614 8 2C8 1.72386 8.22386 1.5 8.5 1.5H11C12.3807 1.5 13.5 2.61929 13.5 4V6.29289L14.1464 5.64645Z"/>
</svg>
