<svg width="16" height="16" viewBox="0 0 16 16" xmlns="http://www.w3.org/2000/svg">
	<path d="M0.99985 4.49997L1 1.5C1 1.22386 1.22386 1 1.5 1C1.77614 1 2 1.22386 2 1.5V2.70712C2.84191 1.75214 3.91369 0.993574 5.14446 0.524751C5.85525 0.253048 6.61475 0.0797815 7.40629 0.0217022C8.27671 -0.0437832 9.12873 0.0340032 9.9375 0.23622C13.4196 1.10238 16 4.24985 16 8C16 8.02905 15.9998 8.05805 15.9995 8.08703C15.9961 8.44095 15.9692 8.79065 15.9202 9.13438C15.6504 11.0351 14.7125 12.7209 13.3519 13.9463C12.8422 14.406 12.2711 14.8023 11.6495 15.1209C10.696 15.6106 9.63127 15.9144 8.50323 15.9844C7.47799 16.0503 6.47953 15.9176 5.5486 15.6174C4.75531 15.3623 4.01605 14.9868 3.35236 14.5122C1.64045 13.2903 0.411139 11.4 0.0833938 9.15935C0.0798095 9.13484 0.076333 9.1103 0.0729649 9.08571C-0.00118134 8.54443 -0.0193279 8.00788 0.0142558 7.48208C0.0318587 7.2065 0.269531 6.99737 0.545111 7.01497C0.820691 7.03258 1.02982 7.27025 1.01222 7.54583C1.00353 7.68186 0.998801 7.81878 0.99813 7.95645C0.999368 7.9708 1 7.98533 1 8C1 11.1002 3.01541 13.7297 5.80751 14.6498C6.49717 14.877 7.23423 15 8 15C8.14635 15 8.29165 14.9955 8.43577 14.9867C8.60607 14.9758 8.77721 14.9587 8.94896 14.9352C9.78608 14.8205 10.5682 14.5623 11.274 14.1887C13.7974 12.8531 15.3442 10.0431 14.9342 7.04998C14.5332 4.12245 12.3763 1.86706 9.67164 1.20085C9.13598 1.0696 8.57612 1 8 1C7.82476 1 7.65102 1.00644 7.479 1.01909C7.33617 1.02986 7.19276 1.04505 7.04894 1.06475C6.5281 1.1361 6.02859 1.26296 5.55552 1.43859C4.21154 1.93946 3.06273 2.84155 2.25465 3.99997H4C4.27614 3.99997 4.5 4.22386 4.5 4.5C4.5 4.77614 4.27614 5 4 5H1.5C1.46438 5 1.42962 4.99627 1.39611 4.98919C1.16975 4.94143 0.99985 4.74054 0.99985 4.49997ZM5.5 5.96702C5.5 5.03638 6.48059 4.43209 7.3119 4.85043L11.3518 6.8834C12.2692 7.34509 12.2692 8.65488 11.3518 9.11658L7.3119 11.1495C6.48059 11.5679 5.5 10.9636 5.5 10.033V5.96702ZM6.86238 5.7437C6.69612 5.66003 6.5 5.78089 6.5 5.96702V10.033C6.5 10.2191 6.69612 10.3399 6.86238 10.2563L10.9023 8.22331C11.0858 8.13097 11.0858 7.86901 10.9023 7.77667L6.86238 5.7437Z" />
</svg>
