<svg width="16" height="16" viewBox="0 0 16 16" xmlns="http://www.w3.org/2000/svg">
	<path d="M0 9.5C0 8.11929 1.11929 7 2.5 7H6.5C7.88071 7 9 8.11929 9 9.5V13.5C9 14.0095 8.84756 14.4835 8.5858 14.8787L5.56066 11.8536C4.97487 11.2678 4.02513 11.2678 3.43934 11.8536L0.414198 14.8787C0.152438 14.4835 0 14.0095 0 13.5V9.5ZM7 9.75C7 9.33579 6.66421 9 6.25 9C5.83579 9 5.5 9.33579 5.5 9.75C5.5 10.1642 5.83579 10.5 6.25 10.5C6.66421 10.5 7 10.1642 7 9.75ZM1.12131 15.5858C1.51652 15.8476 1.99046 16 2.5 16H6.5C7.00954 16 7.48348 15.8476 7.87869 15.5858L4.85355 12.5607C4.65829 12.3654 4.34171 12.3654 4.14645 12.5607L1.12131 15.5858Z" />
	<path d="M2 3.5C2 2.39543 2.89543 1.5 4 1.5H6.5C6.77614 1.5 7 1.27614 7 1C7 0.723858 6.77614 0.5 6.5 0.5H4C2.34315 0.5 1 1.84315 1 3.5V6C1 6.27614 1.22386 6.5 1.5 6.5C1.77614 6.5 2 6.27614 2 6V3.5Z" />
	<path d="M10 0.5C9.72386 0.5 9.5 0.723858 9.5 1C9.5 1.27614 9.72386 1.5 10 1.5H12.5C13.6046 1.5 14.5 2.39543 14.5 3.5V6C14.5 6.27614 14.7239 6.5 15 6.5C15.2761 6.5 15.5 6.27614 15.5 6V3.5C15.5 1.84315 14.1569 0.5 12.5 0.5H10Z" />
	<path d="M15.5 9.5C15.5 9.22386 15.2761 9 15 9C14.7239 9 14.5 9.22386 14.5 9.5V12C14.5 13.1046 13.6046 14 12.5 14H10C9.72386 14 9.5 14.2239 9.5 14.5C9.5 14.7761 9.72386 15 10 15H12.5C14.1569 15 15.5 13.6569 15.5 12V9.5Z" />
</svg>
