<svg width="16" height="16" viewBox="0 0 16 16" xmlns="http://www.w3.org/2000/svg">
	<path d="M5.6129 10C5.90686 10 6.14516 9.76754 6.14516 9.48077C6.14516 9.19401 5.90686 8.96154 5.6129 8.96154H5.25806C3.49432 8.96154 2.06452 7.87669 2.06452 6.53847C2.06452 5.24079 3.40897 4.18137 5.09867 4.11835L5.25806 4.11539H10.1825L8.96235 5.30593C8.75449 5.5087 8.75449 5.83746 8.96235 6.04023C9.15131 6.22457 9.44701 6.24133 9.65538 6.09051L9.71507 6.04023L11.8441 3.96331C12.052 3.76054 12.052 3.43178 11.8441 3.22901L9.71507 1.15208L9.65538 1.10181C9.44701 0.950986 9.15131 0.967745 8.96235 1.15208C8.75449 1.35485 8.75449 1.68361 8.96235 1.88639L10.1818 3.07693H5.25806C2.9064 3.07693 1 4.62671 1 6.53847C1 8.45022 2.9064 10 5.25806 10H5.6129ZM14 8.4132V14H3.82003L14 8.4132ZM14.2063 15C14.6446 15 15 14.6631 15 14.2476V7.37619C15 7.16843 14.8223 7 14.6031 7C14.5333 7 14.4647 7.01746 14.4043 7.05062L1.19808 14.2982C1.0084 14.4023 0.943656 14.6325 1.05347 14.8123C1.12443 14.9285 1.25531 15 1.39692 15H14.2063Z" />
</svg>
