<svg width="16" height="16" viewBox="0 0 16 16" xmlns="http://www.w3.org/2000/svg">
	<path fill-rule="evenodd" clip-rule="evenodd" d="M15 11.876C15.6372 10.7278 16 9.40625 16 8C16 3.58172 12.4183 0 8 0C3.58172 0 0 3.58172 0 8C0 9.40625 0.362837 10.7278 1 11.876C1.67658 13.0953 2.66247 14.1192 3.85171 14.8418C3.94133 14.8963 4.03211 14.949 4.12399 15C5.27224 15.6372 6.59375 16 8 16C9.40625 16 10.7278 15.6372 11.876 15C13.1869 14.2726 14.2724 13.1868 15 11.876C15.0002 11.8757 14.9998 11.8763 15 11.876ZM1 8C1 8 2.567 7 4.5 7C6.433 7 8 8 8 8C8 8 9.567 9 11.5 9C13.433 9 15 8 15 8C15 4.13401 11.866 1 8 1C4.13401 1 1 4.13401 1 8Z" />
</svg>
