<svg width="16" height="16" viewBox="0 0 16 16" xmlns="http://www.w3.org/2000/svg">
	<path d="M1 3C1 1.89543 1.89543 1 3 1H11.3787C11.9091 1 12.4178 1.21071 12.7929 1.58579L14.4142 3.20711C14.7893 3.58218 15 4.09089 15 4.62132V13C15 14.1046 14.1046 15 13 15H3C1.89543 15 1 14.1046 1 13V3ZM3 2C2.44772 2 2 2.44772 2 3V13C2 13.5523 2.44772 14 3 14L3 9.5C3 8.67157 3.67157 8 4.5 8H11.5C12.3284 8 13 8.67157 13 9.5V14C13.5523 14 14 13.5523 14 13V4.62132C14 4.3561 13.8946 4.10175 13.7071 3.91421L12.0858 2.29289C11.8983 2.10536 11.6439 2 11.3787 2L11 2V4.5C11 5.32843 10.3284 6 9.5 6L5.5 6C4.67157 6 4 5.32843 4 4.5L4 2H3ZM5 2L5 4.5C5 4.77614 5.22386 5 5.5 5L9.5 5C9.77614 5 10 4.77614 10 4.5V2L5 2ZM12 14V9.5C12 9.22386 11.7761 9 11.5 9H4.5C4.22386 9 4 9.22386 4 9.5V14H12Z" />
</svg>
