<svg width="16" height="16" viewBox="0 0 16 16" xmlns="http://www.w3.org/2000/svg">
	<path fill-rule="evenodd" clip-rule="evenodd" d="M5.35355 4.14645C5.54882 4.34171 5.54882 4.65829 5.35355 4.85355L2.20711 8L5.35355 11.1464C5.54882 11.3417 5.54882 11.6583 5.35355 11.8536C5.15829 12.0488 4.84171 12.0488 4.64645 11.8536L1.14645 8.35355C0.951184 8.15829 0.951184 7.84171 1.14645 7.64645L4.64645 4.14645C4.84171 3.95118 5.15829 3.95118 5.35355 4.14645Z" />
	<path fill-rule="evenodd" clip-rule="evenodd" d="M10.6464 4.14645C10.4512 4.34171 10.4512 4.65829 10.6464 4.85355L13.7929 8L10.6464 11.1464C10.4512 11.3417 10.4512 11.6583 10.6464 11.8536C10.8417 12.0488 11.1583 12.0488 11.3536 11.8536L14.8536 8.35355C15.0488 8.15829 15.0488 7.84171 14.8536 7.64645L11.3536 4.14645C11.1583 3.95118 10.8417 3.95118 10.6464 4.14645Z" />
	<path fill-rule="evenodd" clip-rule="evenodd" d="M2.40404 8.29454C2.24219 8.51661 1.93115 8.56654 1.70785 8.40577C1.48375 8.24442 1.43288 7.93195 1.59423 7.70785L1.59533 7.70632L1.59671 7.70443L1.60031 7.69954L1.61083 7.68556C1.61932 7.67442 1.63078 7.65973 1.64518 7.64199C1.67394 7.60654 1.71462 7.55868 1.76697 7.50259C1.87128 7.39083 2.02418 7.24396 2.2238 7.09717C2.62244 6.80406 3.22399 6.5 4 6.5C4.77601 6.5 5.37756 6.80406 5.7762 7.09717C5.97582 7.24396 6.12872 7.39083 6.23303 7.50259C6.28538 7.55868 6.32606 7.60654 6.35482 7.64199C6.36922 7.65973 6.38068 7.67442 6.38917 7.68556L6.39969 7.69954L6.40329 7.70443L6.4039 7.70528L6.40597 7.70802C6.40865 7.71153 6.41391 7.71832 6.4217 7.72792C6.43731 7.74716 6.46288 7.77743 6.49803 7.81509C6.56872 7.89083 6.67582 7.99396 6.8162 8.09717C7.09756 8.30406 7.49601 8.5 8 8.5C8.50399 8.5 8.90244 8.30406 9.18381 8.09717C9.32418 7.99396 9.43128 7.89083 9.50197 7.81509C9.53712 7.77743 9.56269 7.74716 9.5783 7.72792C9.58609 7.71832 9.59135 7.71153 9.59403 7.70802L9.59597 7.70546L9.59671 7.70443L9.60031 7.69954L9.61083 7.68556C9.61932 7.67442 9.63078 7.65973 9.64518 7.64199C9.67394 7.60654 9.71462 7.55868 9.76697 7.50259C9.87128 7.39083 10.0242 7.24396 10.2238 7.09717C10.6224 6.80406 11.224 6.5 12 6.5C12.776 6.5 13.3776 6.80406 13.7762 7.09717C13.9758 7.24396 14.1287 7.39083 14.233 7.50259C14.2854 7.55868 14.3261 7.60654 14.3548 7.64199C14.3692 7.65973 14.3807 7.67442 14.3892 7.68556L14.3997 7.69954L14.4033 7.70443L14.4047 7.70632L14.4055 7.7075C14.5669 7.9316 14.5163 8.24442 14.2922 8.40577C14.0688 8.56655 13.7578 8.51661 13.5959 8.29452L13.5945 8.29255M2.40404 8.29454L2.40597 8.29198C2.40865 8.28847 2.41391 8.28168 2.4217 8.27208C2.43731 8.25284 2.46288 8.22257 2.49803 8.18491C2.56872 8.10917 2.67582 8.00604 2.8162 7.90283C3.09756 7.69594 3.49601 7.5 4 7.5C4.50399 7.5 4.90244 7.69594 5.1838 7.90283C5.32418 8.00604 5.43128 8.10917 5.50197 8.18491C5.53713 8.22257 5.56269 8.25284 5.5783 8.27208C5.58609 8.28168 5.59135 8.28847 5.59403 8.29198L5.59596 8.29453L5.59672 8.29557L5.60031 8.30046L5.61083 8.31444C5.61932 8.32558 5.63078 8.34027 5.64518 8.35801C5.67394 8.39346 5.71463 8.44132 5.76697 8.49741C5.87128 8.60917 6.02418 8.75604 6.22381 8.90283C6.62244 9.19594 7.22399 9.5 8 9.5C8.77601 9.5 9.37756 9.19594 9.7762 8.90283C9.97582 8.75604 10.1287 8.60917 10.233 8.49741C10.2854 8.44132 10.3261 8.39346 10.3548 8.35801C10.3692 8.34027 10.3807 8.32558 10.3892 8.31444L10.3997 8.30046L10.4033 8.29557L10.4039 8.29472L10.406 8.29198C10.4087 8.28847 10.4139 8.28168 10.4217 8.27208C10.4373 8.25284 10.4629 8.22257 10.498 8.18491C10.5687 8.10917 10.6758 8.00604 10.8162 7.90283C11.0976 7.69594 11.496 7.5 12 7.5C12.504 7.5 12.9024 7.69594 13.1838 7.90283C13.3242 8.00604 13.4313 8.10917 13.502 8.18491C13.5371 8.22257 13.5627 8.25284 13.5783 8.27208C13.5861 8.28168 13.5918 8.28903 13.5945 8.29255" />
</svg>
