<svg width="16" height="16" viewBox="0 0 16 16" xmlns="http://www.w3.org/2000/svg">
	<path fill-rule="evenodd" clip-rule="evenodd" d="M12 1C10.8954 1 10 1.89543 10 3C10 4.10457 10.8954 5 12 5H14C15.1046 5 16 4.10457 16 3C16 1.89543 15.1046 1 14 1H12ZM14 2H12C11.4477 2 11 2.44772 11 3C11 3.55228 11.4477 4 12 4H14C14.5523 4 15 3.55228 15 3C15 2.44772 14.5523 2 14 2Z" />
	<path d="M8.33692 7H7C6.44772 7 6 7.44772 6 8C6 8.42362 6.26341 8.78572 6.63537 8.93144C6.4803 9.22451 6.35095 9.53328 6.2503 9.85474C5.51719 9.55813 5 8.83946 5 8C5 6.89543 5.89543 6 7 6H9C9.33497 6 9.65071 6.08235 9.92808 6.22791C9.35256 6.39925 8.81653 6.66226 8.33692 7Z" />
	<path fill-rule="evenodd" clip-rule="evenodd" d="M0 13C0 11.8954 0.895431 11 2 11H4C5.10457 11 6 11.8954 6 13C6 14.1046 5.10457 15 4 15H2C0.89543 15 0 14.1046 0 13ZM2 12H4C4.55228 12 5 12.4477 5 13C5 13.5523 4.55228 14 4 14H2C1.44772 14 1 13.5523 1 13C1 12.4477 1.44772 12 2 12Z" />
	<path d="M16 11.5C16 13.9854 13.9853 16 11.5 16C9.01471 16 7 13.9854 7 11.5C7 9.01465 9.01471 7 11.5 7C13.9853 7 16 9.01465 16 11.5ZM11.0201 9.53394C10.9421 9.48096 10.8556 9.45459 10.7607 9.45459C10.6946 9.45459 10.6319 9.46875 10.5725 9.49683C10.5132 9.52344 10.4615 9.55957 10.4174 9.60547C10.3733 9.65137 10.3377 9.70508 10.3106 9.76685C10.2852 9.82861 10.2725 9.8938 10.2725 9.96265V13.0374C10.2725 13.1045 10.2852 13.1689 10.3106 13.2307C10.3377 13.2922 10.3733 13.3469 10.4174 13.3948C10.4632 13.4404 10.5157 13.4775 10.5751 13.5059C10.6344 13.5322 10.6963 13.5454 10.7607 13.5454C10.8099 13.5454 10.8556 13.5383 10.898 13.5244C10.9103 13.5205 10.9225 13.5161 10.9346 13.511C10.9661 13.498 10.9971 13.4812 11.0277 13.4609L13.3239 11.8943C13.3756 11.8601 13.4189 11.8174 13.4536 11.7656C13.4657 11.7478 13.4767 11.729 13.4867 11.709C13.5257 11.6313 13.5452 11.5503 13.5452 11.4656C13.5452 11.3774 13.5248 11.2964 13.4842 11.2222C13.4435 11.1462 13.3875 11.0854 13.3163 11.0396L11.0201 9.53394Z" />
</svg>
