<svg width="16" height="16" viewBox="0 0 16 16" xmlns="http://www.w3.org/2000/svg">
	<path fill-rule="evenodd" clip-rule="evenodd" d="M4 12H2C1.44772 12 1 12.4477 1 13C1 13.5523 1.44772 14 2 14H4C4.55228 14 5 13.5523 5 13C5 12.4477 4.55228 12 4 12ZM9 7H7C6.44772 7 6 7.44772 6 8C6 8.55228 6.44772 9 7 9H9C9.55228 9 10 8.55228 10 8C10 7.44772 9.55228 7 9 7ZM14 2H12C11.4477 2 11 2.44772 11 3C11 3.55228 11.4477 4 12 4H14C14.5523 4 15 3.55228 15 3C15 2.44772 14.5523 2 14 2ZM12 1C10.8954 1 10 1.89543 10 3C10 4.10457 10.8954 5 12 5H14C15.1046 5 16 4.10457 16 3C16 1.89543 15.1046 1 14 1H12ZM5 8C5 6.89543 5.89543 6 7 6H9C10.1046 6 11 6.89543 11 8C11 9.10457 10.1046 10 9 10H7C5.89543 10 5 9.10457 5 8ZM0 13C0 11.8954 0.895431 11 2 11H4C5.10457 11 6 11.8954 6 13C6 14.1046 5.10457 15 4 15H2C0.89543 15 0 14.1046 0 13Z" />
</svg>
