<svg width="16" height="16" viewBox="0 0 16 16" xmlns="http://www.w3.org/2000/svg">
	<path d="M10.5 4C10.2239 4 10 4.22386 10 4.5C10 4.77614 10.2239 5 10.5 5H12.5C12.7761 5 13 4.77614 13 4.5C13 4.22386 12.7761 4 12.5 4H10.5ZM3.75 5.5C4.16421 5.5 4.5 5.16421 4.5 4.75C4.5 4.33579 4.16421 4 3.75 4C3.33579 4 3 4.33579 3 4.75C3 5.16421 3.33579 5.5 3.75 5.5ZM7 4.75146C7 5.16568 6.66421 5.50146 6.25 5.50146C5.83579 5.50146 5.5 5.16568 5.5 4.75146C5.5 4.33725 5.83579 4.00146 6.25 4.00146C6.66421 4.00146 7 4.33725 7 4.75146ZM0 2.5C0 2.22386 0.223858 2 0.5 2H15.5C15.7761 2 16 2.22386 16 2.5V13.5C16 13.7761 15.7761 14 15.5 14H0.5C0.223858 14 0 13.7761 0 13.5V2.5ZM1 3V7H15V3H1ZM6 8H4V11.5C4 11.7761 3.77614 12 3.5 12C3.22386 12 3 11.7761 3 11.5V8H1V13H15V8H13V11.5C13 11.7761 12.7761 12 12.5 12C12.2239 12 12 11.7761 12 11.5V8H10V11.5C10 11.7761 9.77614 12 9.5 12C9.22386 12 9 11.7761 9 11.5V8H7V11.5C7 11.7761 6.77614 12 6.5 12C6.22386 12 6 11.7761 6 11.5V8Z" />
</svg>
