<svg width="16" height="16" viewBox="0 0 16 16" xmlns="http://www.w3.org/2000/svg">
	<path d="M3.5 6.5C3.5 6.39844 3.53711 6.31055 3.61133 6.23633L7.70703 2.12305C7.78906 2.04102 7.88672 2 8 2C8.11328 2 8.21094 2.04102 8.29297 2.12305L12.3887 6.23633C12.4629 6.31055 12.5 6.39844 12.5 6.5C12.5 6.60156 12.4629 6.68945 12.3887 6.76367C12.3145 6.83789 12.2266 6.875 12.125 6.875C12.0234 6.875 11.9355 6.83789 11.8613 6.76367L8 2.89062L4.13867 6.76367C4.06445 6.83789 3.97656 6.875 3.875 6.875C3.77344 6.875 3.68555 6.83789 3.61133 6.76367C3.53711 6.68945 3.5 6.60156 3.5 6.5ZM3.5 9.5C3.5 9.39844 3.53711 9.31055 3.61133 9.23633C3.68555 9.16211 3.77344 9.125 3.875 9.125C3.97656 9.125 4.06445 9.16211 4.13867 9.23633L8 13.1094L11.8613 9.23633C11.9355 9.16211 12.0234 9.125 12.125 9.125C12.2266 9.125 12.3145 9.16211 12.3887 9.23633C12.4629 9.31055 12.5 9.39844 12.5 9.5C12.5 9.60156 12.4629 9.68945 12.3887 9.76367L8.29297 13.877C8.21094 13.959 8.11328 14 8 14C7.88672 14 7.78906 13.959 7.70703 13.877L3.61133 9.76367C3.53711 9.68945 3.5 9.60156 3.5 9.5Z" />
</svg>
