<svg width="16" height="16" viewBox="0 0 16 16" xmlns="http://www.w3.org/2000/svg">
	<path d="M4.69531 12.7891C4.51302 12.7891 4.33333 12.8229 4.15625 12.8906C3.97917 12.9583 3.80208 13.0312 3.625 13.1094C3.45312 13.1875 3.27865 13.2604 3.10156 13.3281C2.92448 13.3958 2.74479 13.4297 2.5625 13.4297C2.40625 13.4297 2.26302 13.3984 2.13281 13.3359C2.0026 13.2682 1.88542 13.1745 1.78125 13.0547C1.71354 12.9766 1.63281 12.8724 1.53906 12.7422C1.45052 12.612 1.35677 12.4688 1.25781 12.3125C1.15885 12.1562 1.0599 11.9922 0.960938 11.8203C0.861979 11.6432 0.773438 11.474 0.695312 11.3125C0.622396 11.1458 0.5625 10.9896 0.515625 10.8438C0.46875 10.6979 0.445312 10.5755 0.445312 10.4766C0.445312 10.2891 0.492188 10.1224 0.585938 9.97656C0.679688 9.82552 0.794271 9.6901 0.929688 9.57031C1.07031 9.44531 1.22135 9.32812 1.38281 9.21875C1.54948 9.10938 1.70052 8.99479 1.83594 8.875C1.97656 8.75 2.09375 8.61979 2.1875 8.48438C2.28125 8.34375 2.32812 8.18229 2.32812 8C2.32812 7.82292 2.28125 7.66406 2.1875 7.52344C2.09375 7.38281 1.97656 7.2526 1.83594 7.13281C1.69531 7.00781 1.54427 6.88802 1.38281 6.77344C1.22135 6.65885 1.07031 6.53906 0.929688 6.41406C0.789062 6.28385 0.671875 6.14583 0.578125 6C0.484375 5.85417 0.4375 5.6875 0.4375 5.5C0.4375 5.40625 0.460938 5.28646 0.507812 5.14062C0.559896 4.99479 0.625 4.83854 0.703125 4.67188C0.78125 4.50521 0.869792 4.33594 0.96875 4.16406C1.07292 3.98698 1.17448 3.82031 1.27344 3.66406C1.3776 3.5026 1.47656 3.35677 1.57031 3.22656C1.66406 3.09635 1.74479 2.99479 1.8125 2.92188C1.91667 2.80729 2.03385 2.71875 2.16406 2.65625C2.29948 2.59375 2.44271 2.5625 2.59375 2.5625C2.77604 2.5625 2.95312 2.59635 3.125 2.66406C3.29688 2.73177 3.46875 2.80729 3.64062 2.89062C3.8125 2.96875 3.98438 3.04167 4.15625 3.10938C4.33333 3.17708 4.51302 3.21094 4.69531 3.21094C4.92969 3.21094 5.13021 3.14062 5.29688 3C5.46875 2.85417 5.57552 2.66667 5.61719 2.4375C5.66406 2.18229 5.71094 1.92708 5.75781 1.67188C5.80469 1.41667 5.85156 1.16146 5.89844 0.90625C5.9401 0.6875 6.03385 0.507812 6.17969 0.367188C6.33073 0.226562 6.51562 0.135417 6.73438 0.09375C6.94271 0.0572917 7.15365 0.0338542 7.36719 0.0234375C7.58073 0.0078125 7.79167 0 8 0C8.21875 0 8.4375 0.0078125 8.65625 0.0234375C8.875 0.0390625 9.09115 0.0677083 9.30469 0.109375C9.52344 0.151042 9.70312 0.242188 9.84375 0.382812C9.98438 0.523438 10.0755 0.703125 10.1172 0.921875C10.1641 1.17708 10.2083 1.42969 10.25 1.67969C10.2917 1.92969 10.3359 2.18229 10.3828 2.4375C10.4245 2.66146 10.5312 2.84635 10.7031 2.99219C10.875 3.13802 11.0755 3.21094 11.3047 3.21094C11.487 3.21094 11.6667 3.17708 11.8438 3.10938C12.0208 3.04167 12.1953 2.96875 12.3672 2.89062C12.5443 2.8125 12.7214 2.73958 12.8984 2.67188C13.0755 2.60417 13.2552 2.57031 13.4375 2.57031C13.599 2.57031 13.7422 2.60417 13.8672 2.67188C13.9974 2.73438 14.1146 2.82552 14.2188 2.94531C14.2865 3.02344 14.3646 3.1276 14.4531 3.25781C14.5469 3.38802 14.6432 3.53125 14.7422 3.6875C14.8411 3.84375 14.9401 4.01042 15.0391 4.1875C15.138 4.35938 15.224 4.52865 15.2969 4.69531C15.375 4.85677 15.4375 5.01042 15.4844 5.15625C15.5312 5.30208 15.5547 5.42448 15.5547 5.52344C15.5547 5.71615 15.5078 5.88542 15.4141 6.03125C15.3203 6.17708 15.2031 6.3125 15.0625 6.4375C14.9271 6.55729 14.776 6.67188 14.6094 6.78125C14.4479 6.89062 14.2969 7.00781 14.1562 7.13281C14.0208 7.2526 13.9062 7.38281 13.8125 7.52344C13.7188 7.65885 13.6719 7.81771 13.6719 8C13.6719 8.17708 13.7188 8.33594 13.8125 8.47656C13.9062 8.61719 14.0234 8.75 14.1641 8.875C14.3047 8.99479 14.4557 9.11198 14.6172 9.22656C14.7786 9.34115 14.9297 9.46354 15.0703 9.59375C15.2109 9.71875 15.3281 9.85417 15.4219 10C15.5156 10.1458 15.5625 10.3125 15.5625 10.5C15.5625 10.6042 15.5365 10.7292 15.4844 10.875C15.4375 11.0156 15.375 11.1693 15.2969 11.3359C15.2188 11.5026 15.1276 11.6719 15.0234 11.8438C14.9245 12.0156 14.8229 12.1797 14.7188 12.3359C14.6198 12.4922 14.5208 12.6354 14.4219 12.7656C14.3281 12.8958 14.2474 13 14.1797 13.0781C14.0755 13.1927 13.9583 13.2812 13.8281 13.3438C13.7031 13.4062 13.5651 13.4375 13.4141 13.4375C13.2422 13.4375 13.0651 13.4036 12.8828 13.3359C12.7057 13.2682 12.5286 13.1953 12.3516 13.1172C12.1745 13.0339 11.9974 12.9583 11.8203 12.8906C11.6432 12.8229 11.4714 12.7891 11.3047 12.7891C11.0755 12.7891 10.8984 12.8359 10.7734 12.9297C10.6484 13.0234 10.5521 13.1458 10.4844 13.2969C10.4167 13.4427 10.3672 13.6068 10.3359 13.7891C10.3099 13.9661 10.2812 14.138 10.25 14.3047C10.224 14.4401 10.1979 14.5729 10.1719 14.7031C10.151 14.8281 10.1276 14.9583 10.1016 15.0938C10.0599 15.3177 9.96615 15.5 9.82031 15.6406C9.67448 15.776 9.48958 15.8646 9.26562 15.9062C9.05729 15.9427 8.84635 15.9688 8.63281 15.9844C8.42448 15.9948 8.21354 16 8 16C7.78125 16 7.5625 15.9922 7.34375 15.9766C7.125 15.9609 6.90885 15.9323 6.69531 15.8906C6.47656 15.849 6.29688 15.7578 6.15625 15.6172C6.01562 15.4714 5.92448 15.2891 5.88281 15.0703C5.83594 14.8203 5.79167 14.5703 5.75 14.3203C5.70833 14.0651 5.66406 13.8125 5.61719 13.5625C5.57552 13.3385 5.46875 13.1536 5.29688 13.0078C5.125 12.862 4.92448 12.7891 4.69531 12.7891ZM9.11719 14.9219C9.13802 14.8073 9.16146 14.6667 9.1875 14.5C9.21354 14.3281 9.24219 14.1536 9.27344 13.9766C9.30469 13.7995 9.33854 13.6302 9.375 13.4688C9.41146 13.3073 9.44792 13.1771 9.48438 13.0781C9.63021 12.6875 9.86458 12.375 10.1875 12.1406C10.5104 11.9062 10.8828 11.7891 11.3047 11.7891C11.4453 11.7891 11.6068 11.8151 11.7891 11.8672C11.9766 11.9141 12.1667 11.9714 12.3594 12.0391C12.5573 12.1068 12.7474 12.1771 12.9297 12.25C13.112 12.3229 13.2734 12.3854 13.4141 12.4375C13.6589 12.1458 13.875 11.8385 14.0625 11.5156C14.25 11.1875 14.4141 10.849 14.5547 10.5V10.4922L13.3594 9.47656C13.1406 9.29427 12.9714 9.07552 12.8516 8.82031C12.7318 8.5599 12.6719 8.28646 12.6719 8C12.6719 7.71354 12.7318 7.4401 12.8516 7.17969C12.9766 6.91927 13.1484 6.69792 13.3672 6.51562L14.5469 5.53125V5.52344C14.5469 5.51823 14.5365 5.48958 14.5156 5.4375C14.4948 5.38021 14.4818 5.34896 14.4766 5.34375C14.3516 5.02083 14.2005 4.71354 14.0234 4.42188C13.8516 4.125 13.6562 3.84115 13.4375 3.57031H13.4297L11.9609 4.10156C11.7526 4.17448 11.5391 4.21094 11.3203 4.21094C10.9661 4.21094 10.6406 4.125 10.3438 3.95312C10.0938 3.8125 9.88542 3.625 9.71875 3.39062C9.55729 3.15625 9.45052 2.89844 9.39844 2.61719L9.13281 1.09375C8.75781 1.03125 8.38021 1 8 1C7.8125 1 7.625 1.00781 7.4375 1.02344C7.25 1.03385 7.0651 1.05208 6.88281 1.07812C6.83594 1.33854 6.79167 1.59635 6.75 1.85156C6.70833 2.10677 6.65885 2.36198 6.60156 2.61719C6.55469 2.84635 6.47396 3.0599 6.35938 3.25781C6.24479 3.45052 6.10417 3.61719 5.9375 3.75781C5.77083 3.89844 5.58333 4.01042 5.375 4.09375C5.16667 4.17188 4.94271 4.21094 4.70312 4.21094C4.46875 4.21094 4.2474 4.17188 4.03906 4.09375H4.03125L2.59375 3.5625H2.58594C2.34635 3.85938 2.13021 4.16927 1.9375 4.49219C1.74479 4.8099 1.58073 5.14583 1.44531 5.5V5.50781L2.64062 6.52344C2.85938 6.70573 3.02865 6.92708 3.14844 7.1875C3.26823 7.44271 3.32812 7.71354 3.32812 8C3.32812 8.28646 3.26562 8.5599 3.14062 8.82031C3.02083 9.08073 2.85156 9.30208 2.63281 9.48438L1.45312 10.4688V10.4766C1.45312 10.4818 1.46354 10.513 1.48438 10.5703C1.50521 10.6224 1.51823 10.651 1.52344 10.6562C1.64844 10.9792 1.79688 11.2891 1.96875 11.5859C2.14583 11.8776 2.34375 12.1589 2.5625 12.4297H2.57031L4.03906 11.8984C4.2474 11.8255 4.46094 11.7891 4.67969 11.7891C5.03385 11.7891 5.35938 11.875 5.65625 12.0469C5.90625 12.1875 6.11198 12.375 6.27344 12.6094C6.4401 12.8438 6.54948 13.1016 6.60156 13.3828L6.86719 14.9062C7.24219 14.9688 7.61979 15 8 15C8.1875 15 8.375 14.9948 8.5625 14.9844C8.75 14.9688 8.9349 14.9479 9.11719 14.9219ZM5 8C5 7.58333 5.07812 7.19271 5.23438 6.82812C5.39062 6.46354 5.60417 6.14583 5.875 5.875C6.14583 5.60417 6.46354 5.39062 6.82812 5.23438C7.19271 5.07812 7.58333 5 8 5C8.41667 5 8.80729 5.07812 9.17188 5.23438C9.53646 5.39062 9.85417 5.60417 10.125 5.875C10.3958 6.14583 10.6094 6.46354 10.7656 6.82812C10.9219 7.19271 11 7.58333 11 8C11 8.41667 10.9219 8.80729 10.7656 9.17188C10.6094 9.53646 10.3958 9.85417 10.125 10.125C9.85417 10.3958 9.53646 10.6094 9.17188 10.7656C8.80729 10.9219 8.41667 11 8 11C7.58333 11 7.19271 10.9219 6.82812 10.7656C6.46354 10.6094 6.14583 10.3958 5.875 10.125C5.60417 9.85417 5.39062 9.53646 5.23438 9.17188C5.07812 8.80729 5 8.41667 5 8ZM10 8C10 7.72396 9.94792 7.46615 9.84375 7.22656C9.73958 6.98177 9.59635 6.76823 9.41406 6.58594C9.23177 6.40365 9.01823 6.26042 8.77344 6.15625C8.53385 6.05208 8.27604 6 8 6C7.72396 6 7.46354 6.05208 7.21875 6.15625C6.97917 6.26042 6.76823 6.40365 6.58594 6.58594C6.40365 6.76823 6.26042 6.98177 6.15625 7.22656C6.05208 7.46615 6 7.72396 6 8C6 8.27604 6.05208 8.53646 6.15625 8.78125C6.26042 9.02083 6.40365 9.23177 6.58594 9.41406C6.76823 9.59635 6.97917 9.73958 7.21875 9.84375C7.46354 9.94792 7.72396 10 8 10C8.27604 10 8.53385 9.94792 8.77344 9.84375C9.01823 9.73958 9.23177 9.59635 9.41406 9.41406C9.59635 9.23177 9.73958 9.02083 9.84375 8.78125C9.94792 8.53646 10 8.27604 10 8Z" />
</svg>
