<svg width="16" height="16" viewBox="0 0 16 16" xmlns="http://www.w3.org/2000/svg">
	<path fill-rule="evenodd" clip-rule="evenodd" d="M8.5 10C8.88911 10 9.24361 9.85185 9.51018 9.60887C9.546 9.57621 9.58024 9.54183 9.61277 9.50589C9.85343 9.23982 10 8.88702 10 8.5V2.5C10 1.67157 9.32843 1 8.5 1H2.5C1.67157 1 1 1.67157 1 2.5V8.5C1 9.32843 1.67157 10 2.5 10H8.5ZM11 5H13.5C13.5671 5 13.6335 5.00264 13.6993 5.00783C14.0237 5.03341 14.3306 5.12091 14.6084 5.25852C14.702 5.30487 14.7922 5.35692 14.8787 5.4142C15.1592 5.59997 15.4 5.84081 15.5858 6.1213C15.6431 6.2078 15.6951 6.29807 15.7415 6.39166C15.8791 6.66939 15.9666 6.97635 15.9922 7.30072C15.9974 7.36646 16 7.43292 16 7.5V13.5C16 14.8807 14.8807 16 13.5 16H7.5C7.43292 16 7.36646 15.9974 7.30072 15.9922C6.97635 15.9666 6.66939 15.8791 6.39166 15.7415C6.29807 15.6951 6.2078 15.6431 6.1213 15.5858C5.84081 15.4 5.59997 15.1592 5.4142 14.8787C5.35692 14.7922 5.30487 14.702 5.25852 14.6084C5.12091 14.3306 5.03341 14.0237 5.00783 13.6993C5.00264 13.6335 5 13.5671 5 13.5V11H2.5C1.11929 11 0 9.88071 0 8.5V2.5C0 1.11929 1.11929 0 2.5 0H8.5C9.88071 0 11 1.11929 11 2.5V5ZM6 12.7071V13.5C6 13.7316 6.05248 13.9509 6.14619 14.1467L9.50163 10.7913C9.41342 10.8299 9.32256 10.8635 9.2294 10.8919C8.99864 10.9622 8.75374 11 8.5 11H7.70711L6 12.7071ZM6.29289 11H6V11.2929L6.29289 11ZM10.8919 9.2294C10.8635 9.32256 10.8299 9.41342 10.7913 9.50163L14.1467 6.14619C14.126 6.13628 14.1051 6.12684 14.0839 6.11788C13.9044 6.04197 13.7071 6 13.5 6H12.7071L11 7.70711V8.5C11 8.75374 10.9622 8.99864 10.8919 9.2294ZM14.8538 6.85329C14.9475 7.04911 15 7.26843 15 7.5V8.29289L8.29289 15H7.5C7.29289 15 7.09559 14.958 6.91613 14.8821C6.89493 14.8732 6.87398 14.8637 6.85329 14.8538L14.8538 6.85329ZM11.2929 15L15 11.2929V9.70711L9.70711 15H11.2929ZM13.8541 13.853C13.8537 13.8534 13.8534 13.8537 13.853 13.8541L12.7071 15H13.5C14.3284 15 15 14.3284 15 13.5V12.7071L13.8541 13.853ZM11 6V6.29289L11.2929 6H11Z" />
</svg>
