<svg width="16" height="16" viewBox="0 0 16 16" xmlns="http://www.w3.org/2000/svg">
	<path d="M13.8536 2.1462C13.6583 1.95094 13.3417 1.95094 13.1464 2.1462C12.9512 2.34146 12.9512 2.65805 13.1464 2.85331L14.2952 4.00202C10.9727 4.07442 9.01268 5.90392 7.19076 7.60448L7.15884 7.63427C5.27692 9.39073 3.53295 10.9998 0.5 10.9998C0.223858 10.9998 0 11.2237 0 11.4998C0 11.7759 0.223858 11.9998 0.5 11.9998C3.94732 11.9998 5.95019 10.1303 7.80924 8.39511L7.84116 8.36532C9.67928 6.64974 11.3858 5.07477 14.2903 5.00239L13.1464 6.14628C12.9512 6.34155 12.9512 6.65813 13.1464 6.85339C13.3417 7.04865 13.6583 7.04865 13.8536 6.85339L15.8536 4.85335C16.0489 4.65809 16.0489 4.34151 15.8536 4.14624L13.8536 2.1462ZM0.5 3.99976C3.31073 3.99976 5.16122 5.24253 6.75645 6.64204L6.47652 6.90325C6.32169 7.04776 6.16962 7.18932 6.01948 7.32745C4.51689 6.02258 2.91812 4.99976 0.5 4.99976C0.223858 4.99976 0 4.7759 0 4.49976C0 4.22361 0.223858 3.99976 0.5 3.99976ZM14.2952 11.9975C11.5988 11.9388 9.79977 10.7227 8.24364 9.35756L8.52348 9.09642C8.67834 8.95188 8.83044 8.8103 8.98061 8.67214C10.4393 9.93888 11.9887 10.9398 14.2903 10.9972L13.1464 9.85327C12.9512 9.65801 12.9512 9.34142 13.1464 9.14616C13.3417 8.9509 13.6583 8.9509 13.8536 9.14616L15.8536 11.1462C16.0489 11.3415 16.0489 11.658 15.8536 11.8533L13.8536 13.8534C13.6583 14.0486 13.3417 14.0486 13.1464 13.8534C12.9512 13.6581 12.9512 13.3415 13.1464 13.1462L14.2952 11.9975Z" />
</svg>
