<svg width="16" height="16" viewBox="0 0 16 16" xmlns="http://www.w3.org/2000/svg">
	<path fill-rule="evenodd" clip-rule="evenodd" d="M11.5 3H14.5C14.7761 3 15 3.22386 15 3.5V4.5C15 4.77614 14.7761 5 14.5 5H11.5C11.2239 5 11 4.77614 11 4.5V3.5C11 3.22386 11.2239 3 11.5 3ZM10 3.5C10 2.67157 10.6716 2 11.5 2H14.5C15.3284 2 16 2.67157 16 3.5V4.5C16 5.32843 15.3284 6 14.5 6H11.5C10.6716 6 10 5.32843 10 4.5V3.5ZM9.5 7H6.5C6.22386 7 6 7.22386 6 7.5V8.5C6 8.77614 6.22386 9 6.5 9H9.5C9.77614 9 10 8.77614 10 8.5V7.5C10 7.22386 9.77614 7 9.5 7ZM6.5 6C5.67157 6 5 6.67157 5 7.5V8.5C5 9.32843 5.67157 10 6.5 10H9.5C10.3284 10 11 9.32843 11 8.5V7.5C11 6.67157 10.3284 6 9.5 6H6.5ZM4.5 11H1.5C1.22386 11 1 11.2239 1 11.5V12.5C1 12.7761 1.22386 13 1.5 13H4.5C4.77614 13 5 12.7761 5 12.5V11.5C5 11.2239 4.77614 11 4.5 11ZM1.5 10C0.671573 10 0 10.6716 0 11.5V12.5C0 13.3284 0.671573 14 1.5 14H4.5C5.32843 14 6 13.3284 6 12.5V11.5C6 10.6716 5.32843 10 4.5 10H1.5Z" />
</svg>
