<svg width="16" height="16" viewBox="0 0 16 16" xmlns="http://www.w3.org/2000/svg">
	<path d="M8.5 8.76006L1.69548 1C1.3123 1.33955 1.21138 1.96023 1.59984 2.40854L7.09143 8.65485C7.48639 9.11067 8.11195 9.08754 8.5 8.76006Z" />
	<path fill-rule="evenodd" clip-rule="evenodd" d="M8.5 8L2.5 1H7C7.82843 1 8.5 1.67157 8.5 2.5V8ZM7.5 2.5V5.29674L4.67422 2H7C7.27614 2 7.5 2.22386 7.5 2.5Z" />
	<path d="M12 7C12.5523 7 13 6.55228 13 6C13 5.44772 12.5523 5 12 5C11.4477 5 11 5.44772 11 6C11 6.55228 11.4477 7 12 7Z" />
	<path fill-rule="evenodd" clip-rule="evenodd" d="M9 1V11C9 13.2091 10.7909 15 13 15H13.5C14.3284 15 15 14.3284 15 13.5V5C15 2.79086 13.2091 1 11 1H9ZM11 2H10V11C10 12.6569 11.3431 14 13 14H13.5C13.7761 14 14 13.7761 14 13.5V5C14 3.34315 12.6569 2 11 2Z" />
</svg>
