<svg width="16" height="16" viewBox="0 0 16 16" xmlns="http://www.w3.org/2000/svg">
	<path fill-rule="evenodd" clip-rule="evenodd" d="M4.5 12H1.5C1.22386 12 1 12.2239 1 12.5V13.5C1 13.7761 1.22386 14 1.5 14H4.5C4.77614 14 5 13.7761 5 13.5V12.5C5 12.2239 4.77614 12 4.5 12ZM9.5 7H6.5C6.22386 7 6 7.22386 6 7.5V8.5C6 8.77614 6.22386 9 6.5 9H9.5C9.77614 9 10 8.77614 10 8.5V7.5C10 7.22386 9.77614 7 9.5 7ZM14.5 2H11.5C11.2239 2 11 2.22386 11 2.5V3.5C11 3.77614 11.2239 4 11.5 4H14.5C14.7761 4 15 3.77614 15 3.5V2.5C15 2.22386 14.7761 2 14.5 2ZM11.5 1C10.6716 1 10 1.67157 10 2.5V3.5C10 4.32843 10.6716 5 11.5 5H14.5C15.3284 5 16 4.32843 16 3.5V2.5C16 1.67157 15.3284 1 14.5 1H11.5ZM5 7.5C5 6.67157 5.67157 6 6.5 6H9.5C10.3284 6 11 6.67157 11 7.5V8.5C11 9.32843 10.3284 10 9.5 10H6.5C5.67157 10 5 9.32843 5 8.5V7.5ZM0 12.5C0 11.6716 0.671573 11 1.5 11H4.5C5.32843 11 6 11.6716 6 12.5V13.5C6 14.3284 5.32843 15 4.5 15H1.5C0.671573 15 0 14.3284 0 13.5V12.5Z"/>
</svg>
