<svg width="16" height="16" viewBox="0 0 16 16" xmlns="http://www.w3.org/2000/svg">
	<path d="M13.5 13.5V2.5C13.5 2.36458 13.5495 2.2474 13.6484 2.14844C13.7474 2.04948 13.8646 2 14 2C14.1354 2 14.2526 2.04948 14.3516 2.14844C14.4505 2.2474 14.5 2.36458 14.5 2.5V13.5C14.5 13.6354 14.4505 13.7526 14.3516 13.8516C14.2526 13.9505 14.1354 14 14 14C13.8646 14 13.7474 13.9505 13.6484 13.8516C13.5495 13.7526 13.5 13.6354 13.5 13.5ZM10.5 13.5V4.5C10.5 4.36458 10.5495 4.2474 10.6484 4.14844C10.7474 4.04948 10.8646 4 11 4C11.1354 4 11.2526 4.04948 11.3516 4.14844C11.4505 4.2474 11.5 4.36458 11.5 4.5V13.5C11.5 13.6354 11.4505 13.7526 11.3516 13.8516C11.2526 13.9505 11.1354 14 11 14C10.8646 14 10.7474 13.9505 10.6484 13.8516C10.5495 13.7526 10.5 13.6354 10.5 13.5ZM7.5 13.5V6.5C7.5 6.36458 7.54948 6.2474 7.64844 6.14844C7.7474 6.04948 7.86458 6 8 6C8.13542 6 8.2526 6.04948 8.35156 6.14844C8.45052 6.2474 8.5 6.36458 8.5 6.5V13.5C8.5 13.6354 8.45052 13.7526 8.35156 13.8516C8.2526 13.9505 8.13542 14 8 14C7.86458 14 7.7474 13.9505 7.64844 13.8516C7.54948 13.7526 7.5 13.6354 7.5 13.5ZM4.5 13.5V8.5C4.5 8.36458 4.54948 8.2474 4.64844 8.14844C4.7474 8.04948 4.86458 8 5 8C5.13542 8 5.2526 8.04948 5.35156 8.14844C5.45052 8.2474 5.5 8.36458 5.5 8.5V13.5C5.5 13.6354 5.45052 13.7526 5.35156 13.8516C5.2526 13.9505 5.13542 14 5 14C4.86458 14 4.7474 13.9505 4.64844 13.8516C4.54948 13.7526 4.5 13.6354 4.5 13.5ZM1.5 13.5V10.5C1.5 10.3646 1.54948 10.2474 1.64844 10.1484C1.7474 10.0495 1.86458 10 2 10C2.13542 10 2.2526 10.0495 2.35156 10.1484C2.45052 10.2474 2.5 10.3646 2.5 10.5V13.5C2.5 13.6354 2.45052 13.7526 2.35156 13.8516C2.2526 13.9505 2.13542 14 2 14C1.86458 14 1.7474 13.9505 1.64844 13.8516C1.54948 13.7526 1.5 13.6354 1.5 13.5Z" />
</svg>
