<svg width="16" height="16" viewBox="0 0 16 16" xmlns="http://www.w3.org/2000/svg">
	<path d="M6.00001 3.5C6.00001 3.22386 6.22387 3 6.50001 3H15.5C15.7761 3 16 3.22386 16 3.5C16 3.77614 15.7761 4 15.5 4H6.50001C6.22387 4 6.00001 3.77614 6.00001 3.5ZM6.00001 8.5C6.00001 8.2239 6.22387 8 6.50001 8H15.5C15.7761 8 16 8.2239 16 8.5C16 8.7761 15.7761 9 15.5 9H6.50001C6.22387 9 6.00001 8.7761 6.00001 8.5ZM6.50001 13C6.22387 13 6.00001 13.2239 6.00001 13.5C6.00001 13.7761 6.22387 14 6.50001 14H15.5C15.7761 14 16 13.7761 16 13.5C16 13.2239 15.7761 13 15.5 13H6.50001Z" />
	<path d="M3.5 8.5C3.5 9.32843 2.82843 10 2 10C1.17157 10 0.5 9.32843 0.5 8.5C0.5 7.67157 1.17157 7 2 7C2.82843 7 3.5 7.67157 3.5 8.5Z" />
</svg>
