<svg width="16" height="16" viewBox="0 0 16 16" xmlns="http://www.w3.org/2000/svg">
	<path fill-rule="evenodd" clip-rule="evenodd" d="M13 15C14.1046 15 15 14.1046 15 13V11.2318L14 12.2318V13C14 13.5523 13.5523 14 13 14H12.2318L11.2318 15H13ZM15 2.99999C15 1.89542 14.1046 0.999994 13 0.999994H11.2318L12.2318 1.99999H13C13.5523 1.99999 14 2.44771 14 2.99999V3.76816L15 4.76816V2.99999ZM3 0.999994C1.89543 0.999994 0.999998 1.89542 0.999998 2.99999L0.999998 4.76816L2 3.76816V2.99999C2 2.44771 2.44771 1.99999 3 1.99999H3.76816L4.76816 0.999994H3ZM0.999998 13C0.999998 14.1046 1.89543 15 3 15H4.76816L3.76816 14H3C2.44771 14 2 13.5523 2 13L2 12.2318L0.999998 11.2318V13ZM7.29289 1.30449L1.30449 7.29289C0.913966 7.68341 0.913966 8.31658 1.30449 8.7071L7.29289 14.6955C7.68341 15.086 8.31658 15.086 8.7071 14.6955L14.6955 8.7071C15.086 8.31658 15.086 7.68341 14.6955 7.29289L8.7071 1.30449C8.31658 0.913966 7.68341 0.913966 7.29289 1.30449ZM0.597383 6.58578C-0.183666 7.36683 -0.183665 8.63316 0.597383 9.41421L6.58578 15.4026C7.36683 16.1837 8.63316 16.1837 9.41421 15.4026L15.4026 9.41421C16.1837 8.63316 16.1837 7.36683 15.4026 6.58578L9.41421 0.597383C8.63316 -0.183666 7.36683 -0.183665 6.58578 0.597383L0.597383 6.58578Z" />
</svg>

