<svg width="16" height="16" viewBox="0 0 16 16" xmlns="http://www.w3.org/2000/svg">
	<path fill-rule="evenodd" clip-rule="evenodd" d="M8 3.5C8.27614 3.5 8.5 3.72386 8.5 4V12C8.5 12.2761 8.27614 12.5 8 12.5C7.72386 12.5 7.5 12.2761 7.5 12V4C7.5 3.72386 7.72386 3.5 8 3.5ZM4 5C4.27614 5 4.5 5.22386 4.5 5.5V10.5C4.5 10.7761 4.27614 11 4 11C3.72386 11 3.5 10.7761 3.5 10.5V5.5C3.5 5.22386 3.72386 5 4 5ZM10 5C10.2761 5 10.5 5.22386 10.5 5.5V10.5C10.5 10.7761 10.2761 11 10 11C9.72386 11 9.5 10.7761 9.5 10.5V5.5C9.5 5.22386 9.72386 5 10 5ZM14 5.5C14.2761 5.5 14.5 5.72386 14.5 6V10C14.5 10.2761 14.2761 10.5 14 10.5C13.7239 10.5 13.5 10.2761 13.5 10V6C13.5 5.72386 13.7239 5.5 14 5.5ZM6 6C6.27614 6 6.5 6.22386 6.5 6.5V9.5C6.5 9.77614 6.27614 10 6 10C5.72386 10 5.5 9.77614 5.5 9.5V6.5C5.5 6.22386 5.72386 6 6 6ZM12 6C12.2761 6 12.5 6.22386 12.5 6.5V9.5C12.5 9.77614 12.2761 10 12 10C11.7239 10 11.5 9.77614 11.5 9.5V6.5C11.5 6.22386 11.7239 6 12 6ZM2 6.5C2.27614 6.5 2.5 6.72386 2.5 7V9C2.5 9.27614 2.27614 9.5 2 9.5C1.72386 9.5 1.5 9.27614 1.5 9V7C1.5 6.72386 1.72386 6.5 2 6.5Z" />
</svg>
