<svg width="16" height="16" viewBox="0 0 16 16" xmlns="http://www.w3.org/2000/svg">
	<path d="M5.39804 10.8085C5.57428 10.9328 5.78476 10.9994 6.00043 10.999C6.21633 10.9992 6.42686 10.9317 6.60243 10.806C6.77993 10.6755 6.91464 10.4952 6.98943 10.288L7.43643 8.915C7.55086 8.57071 7.74391 8.2578 8.00028 8.00108C8.25665 7.74436 8.56929 7.55089 8.91343 7.436L10.3044 6.98499C10.4564 6.93064 10.5936 6.84184 10.7055 6.72555C10.8174 6.60926 10.9008 6.46865 10.9492 6.31473C10.9977 6.1608 11.0098 5.99776 10.9847 5.83836C10.9596 5.67897 10.8979 5.52756 10.8044 5.396C10.6703 5.21007 10.4794 5.07283 10.2604 5.005L8.88543 4.558C8.54091 4.44377 8.22777 4.2508 7.97087 3.99441C7.71396 3.73803 7.52035 3.42528 7.40543 3.081L6.95343 1.693C6.88113 1.49069 6.74761 1.31593 6.57143 1.193C6.43877 1.09927 6.28607 1.03779 6.12548 1.01344C5.96489 0.989096 5.80083 1.00256 5.64636 1.05275C5.49188 1.10295 5.35125 1.1885 5.23564 1.3026C5.12004 1.41669 5.03265 1.55619 4.98043 1.71L4.52343 3.11C4.40884 3.44482 4.21967 3.74923 3.97022 4.00025C3.72076 4.25126 3.41753 4.44232 3.08343 4.559L1.69243 5.007C1.54065 5.06139 1.40352 5.15017 1.29177 5.26638C1.18001 5.3826 1.09666 5.5231 1.04824 5.67688C0.999819 5.83067 0.987639 5.99357 1.01265 6.15285C1.03767 6.31213 1.0992 6.46346 1.19243 6.595C1.32027 6.77445 1.50105 6.90942 1.70943 6.981L3.08343 7.42599C3.52354 7.57248 3.90999 7.84682 4.19343 8.21399C4.35585 8.42463 4.4813 8.66133 4.56443 8.914L5.01643 10.305C5.08846 10.5083 5.22179 10.6842 5.39804 10.8085ZM5.48343 3.394L6.01043 2.017L6.44943 3.394C6.61312 3.88714 6.88991 4.33516 7.25767 4.70223C7.62544 5.06929 8.07397 5.34524 8.56743 5.508L9.97343 6.03699L8.59143 6.48499C8.09866 6.64929 7.65095 6.92616 7.28382 7.29363C6.9167 7.6611 6.64026 8.10907 6.47643 8.602L5.95343 9.98L5.50443 8.601C5.34335 8.10772 5.06943 7.65883 4.70443 7.29C4.3356 6.92196 3.88653 6.64437 3.39243 6.479L2.01443 5.957L3.40043 5.507C3.88672 5.33836 4.32775 5.0602 4.68943 4.694C5.04901 4.32629 5.32049 3.8818 5.48343 3.394ZM11.5353 14.851C11.6713 14.9472 11.8337 14.9989 12.0003 14.999C12.1654 14.9991 12.3264 14.9481 12.4613 14.853C12.6008 14.7545 12.7058 14.6146 12.7613 14.453L13.0093 13.691C13.0625 13.5326 13.1515 13.3885 13.2693 13.27C13.3867 13.1515 13.5307 13.0627 13.6893 13.011L14.4613 12.759C14.619 12.7045 14.7557 12.6021 14.8523 12.466C14.9257 12.363 14.9736 12.2441 14.9921 12.119C15.0106 11.9939 14.9992 11.8662 14.9588 11.7463C14.9184 11.6265 14.8501 11.518 14.7597 11.4296C14.6692 11.3412 14.5591 11.2756 14.4383 11.238L13.6743 10.989C13.5162 10.9365 13.3724 10.8478 13.2544 10.7302C13.1364 10.6125 13.0473 10.469 12.9943 10.311L12.7423 9.53802C12.6886 9.38018 12.586 9.24356 12.4493 9.14802C12.3473 9.07507 12.2295 9.02713 12.1056 9.00807C11.9816 8.98901 11.8549 8.99936 11.7357 9.0383C11.6164 9.07723 11.508 9.14364 11.4192 9.23219C11.3304 9.32073 11.2636 9.42892 11.2243 9.54802L10.9773 10.31C10.925 10.4677 10.8375 10.6113 10.7213 10.73C10.6066 10.8465 10.4667 10.9351 10.3123 10.989L9.53931 11.241C9.38025 11.2949 9.2422 11.3975 9.1447 11.5343C9.04721 11.671 8.99522 11.835 8.99611 12.0029C8.99699 12.1708 9.0507 12.3342 9.14963 12.47C9.24856 12.6057 9.38769 12.7068 9.54731 12.759L10.3103 13.006C10.4692 13.0594 10.6136 13.1487 10.7323 13.267C10.8505 13.3853 10.939 13.5299 10.9903 13.689L11.2433 14.463C11.2981 14.6195 11.4001 14.7551 11.5353 14.851ZM10.6223 12.058L10.4433 11.999L10.6273 11.935C10.9291 11.8301 11.2027 11.6573 11.4273 11.43C11.6537 11.201 11.8248 10.9233 11.9273 10.618L11.9853 10.44L12.0443 10.621C12.1463 10.9277 12.3185 11.2064 12.5471 11.4349C12.7757 11.6633 13.0545 11.8353 13.3613 11.937L13.5563 12L13.3763 12.059C13.0689 12.1612 12.7898 12.3339 12.5611 12.5633C12.3324 12.7927 12.1606 13.0724 12.0593 13.38L12.0003 13.561L11.9423 13.38C11.8409 13.0719 11.6687 12.7917 11.4394 12.5622C11.2102 12.3326 10.9303 12.1599 10.6223 12.058Z" />
</svg>
