<svg width="16" height="16" viewBox="0 0 16 16" xmlns="http://www.w3.org/2000/svg">
	<path d="M0 8C0 7.35417 0.0833333 6.73438 0.25 6.14062C0.416667 5.54167 0.651042 4.98438 0.953125 4.46875C1.26042 3.94792 1.625 3.47656 2.04688 3.05469C2.47396 2.6276 2.94531 2.26302 3.46094 1.96094C3.98177 1.65365 4.53906 1.41667 5.13281 1.25C5.73177 1.08333 6.35417 1 7 1C7.48958 1 7.97135 1.04948 8.44531 1.14844C8.91927 1.24219 9.3776 1.38802 9.82031 1.58594C9.88802 1.61719 9.95833 1.64844 10.0312 1.67969C10.1094 1.71094 10.1771 1.7474 10.2344 1.78906C10.3177 1.84635 10.3828 1.90885 10.4297 1.97656C10.4766 2.04427 10.5 2.13021 10.5 2.23438C10.5 2.36979 10.4505 2.48698 10.3516 2.58594C10.2578 2.6849 10.1432 2.73438 10.0078 2.73438C9.96615 2.73438 9.92448 2.72917 9.88281 2.71875C9.84635 2.70312 9.80729 2.6875 9.76562 2.67188C9.3125 2.46354 8.86458 2.29948 8.42188 2.17969C7.97917 2.0599 7.50521 2 7 2C6.17188 2 5.39323 2.15885 4.66406 2.47656C3.9401 2.78906 3.30469 3.21875 2.75781 3.76562C2.21615 4.30729 1.78646 4.94271 1.46875 5.67188C1.15625 6.39583 1 7.17188 1 8C1 8.55208 1.07031 9.08594 1.21094 9.60156C1.35677 10.112 1.5599 10.5885 1.82031 11.0312C2.08073 11.474 2.39323 11.8776 2.75781 12.2422C3.1224 12.6068 3.52604 12.9193 3.96875 13.1797C4.41146 13.4401 4.88802 13.6432 5.39844 13.7891C5.91406 13.9297 6.44792 14 7 14C7.50521 14 7.97917 13.9427 8.42188 13.8281C8.86458 13.7083 9.3125 13.5391 9.76562 13.3203C9.83854 13.2839 9.91667 13.2656 10 13.2656C10.1354 13.2656 10.2526 13.3151 10.3516 13.4141C10.4505 13.513 10.5 13.6302 10.5 13.7656C10.5 13.8698 10.4766 13.9557 10.4297 14.0234C10.3828 14.0911 10.3177 14.1536 10.2344 14.2109C10.1771 14.2526 10.1094 14.2891 10.0312 14.3203C9.95833 14.3516 9.88802 14.3828 9.82031 14.4141C9.3776 14.612 8.91927 14.7604 8.44531 14.8594C7.97135 14.9531 7.48958 15 7 15C6.35417 15 5.73177 14.9167 5.13281 14.75C4.53906 14.5833 3.98177 14.349 3.46094 14.0469C2.94531 13.7396 2.47396 13.375 2.04688 12.9531C1.625 12.526 1.26042 12.0547 0.953125 11.5391C0.651042 11.0182 0.416667 10.4609 0.25 9.86719C0.0833333 9.26823 0 8.64583 0 8ZM12.9844 13.5C12.9844 13.4375 12.9922 13.3828 13.0078 13.3359C13.0286 13.2839 13.0599 13.2318 13.1016 13.1797C13.2161 13.0286 13.3281 12.8828 13.4375 12.7422C13.5469 12.6016 13.651 12.4531 13.75 12.2969C14.1562 11.6562 14.4661 10.9714 14.6797 10.2422C14.8932 9.50781 15 8.76042 15 8C15 7.23958 14.8932 6.49479 14.6797 5.76562C14.4661 5.03125 14.1562 4.34375 13.75 3.70312C13.651 3.54688 13.5443 3.39844 13.4297 3.25781C13.3203 3.11719 13.2109 2.97135 13.1016 2.82031C13.0234 2.72135 12.9844 2.61198 12.9844 2.49219C12.9844 2.35677 13.0312 2.24219 13.125 2.14844C13.224 2.04948 13.3411 2 13.4766 2C13.5651 2 13.6354 2.01562 13.6875 2.04688C13.7448 2.07812 13.8021 2.1224 13.8594 2.17969C14.026 2.35156 14.1875 2.54948 14.3438 2.77344C14.5 2.99219 14.6458 3.22135 14.7812 3.46094C14.9167 3.70052 15.0391 3.94531 15.1484 4.19531C15.263 4.4401 15.362 4.67448 15.4453 4.89844C15.8151 5.90365 16 6.9375 16 8C16 8.89062 15.8698 9.76042 15.6094 10.6094C15.3542 11.4583 14.9766 12.2552 14.4766 13C14.3828 13.1406 14.2839 13.2812 14.1797 13.4219C14.0807 13.5625 13.974 13.6953 13.8594 13.8203C13.8021 13.8776 13.7474 13.9219 13.6953 13.9531C13.6432 13.9844 13.5729 14 13.4844 14C13.3438 14 13.224 13.9531 13.125 13.8594C13.0312 13.7656 12.9844 13.6458 12.9844 13.5ZM11.625 12C11.625 11.9375 11.6328 11.8854 11.6484 11.8438C11.6693 11.7969 11.6979 11.7474 11.7344 11.6953C12.1406 11.1224 12.4531 10.5417 12.6719 9.95312C12.8906 9.36458 13 8.71354 13 8C13 7.28646 12.8906 6.63542 12.6719 6.04688C12.4531 5.45833 12.1406 4.8776 11.7344 4.30469C11.6979 4.2526 11.6693 4.20573 11.6484 4.16406C11.6328 4.11719 11.625 4.0625 11.625 4C11.625 3.86458 11.6745 3.7474 11.7734 3.64844C11.8724 3.54948 11.9896 3.5 12.125 3.5C12.2812 3.5 12.4115 3.5651 12.5156 3.69531C12.7552 3.98177 12.9661 4.29688 13.1484 4.64062C13.3359 4.98438 13.4922 5.34375 13.6172 5.71875C13.7422 6.09375 13.8359 6.47396 13.8984 6.85938C13.9661 7.24479 14 7.625 14 8C14 8.38021 13.9661 8.76302 13.8984 9.14844C13.8359 9.53385 13.7422 9.91146 13.6172 10.2812C13.4922 10.651 13.3359 11.0078 13.1484 11.3516C12.9661 11.6901 12.7552 12.0078 12.5156 12.3047C12.4583 12.3724 12.401 12.4219 12.3438 12.4531C12.2865 12.4844 12.2135 12.5 12.125 12.5C11.9896 12.5 11.8724 12.4505 11.7734 12.3516C11.6745 12.2526 11.625 12.1354 11.625 12ZM3 9V7C3 6.72396 3.09635 6.48958 3.28906 6.29688C3.48698 6.09896 3.72396 6 4 6H5.08594C5.22135 6 5.33854 5.95052 5.4375 5.85156L6.29688 5C6.49479 4.80208 6.72917 4.70312 7 4.70312C7.13542 4.70312 7.26302 4.72917 7.38281 4.78125C7.50781 4.83333 7.61458 4.90625 7.70312 5C7.79688 5.08854 7.86979 5.19531 7.92188 5.32031C7.97396 5.4401 8 5.56771 8 5.70312V10.2891C8 10.4297 7.97396 10.5625 7.92188 10.6875C7.86979 10.8073 7.79948 10.9115 7.71094 11C7.6224 11.0885 7.51562 11.1589 7.39062 11.2109C7.27083 11.263 7.14062 11.2891 7 11.2891C6.86979 11.2891 6.74219 11.2656 6.61719 11.2188C6.4974 11.1667 6.39062 11.0938 6.29688 11L5.4375 10.1484C5.33854 10.0495 5.22135 10 5.08594 10H4C3.71875 10 3.48177 9.90365 3.28906 9.71094C3.09635 9.51823 3 9.28125 3 9ZM10.1641 10.6094C10.1641 10.5104 10.1953 10.4141 10.2578 10.3203C10.5026 9.95573 10.6875 9.58854 10.8125 9.21875C10.9375 8.84896 11 8.44271 11 8C11 7.55208 10.9375 7.14583 10.8125 6.78125C10.6875 6.41667 10.5026 6.04948 10.2578 5.67969C10.1953 5.58594 10.1641 5.48958 10.1641 5.39062C10.1641 5.25521 10.2135 5.13802 10.3125 5.03906C10.4115 4.9401 10.5286 4.89062 10.6641 4.89062C10.8255 4.89062 10.9609 4.96094 11.0703 5.10156C11.3776 5.50781 11.6094 5.96615 11.7656 6.47656C11.9219 6.98698 12 7.49479 12 8C12 8.50521 11.9219 9.01302 11.7656 9.52344C11.6094 10.0339 11.3776 10.4922 11.0703 10.8984C10.9609 11.0391 10.8255 11.1094 10.6641 11.1094C10.5286 11.1094 10.4115 11.0599 10.3125 10.9609C10.2135 10.862 10.1641 10.7448 10.1641 10.6094ZM7 10.2891V5.70312C6.79688 5.90625 6.625 6.08073 6.48438 6.22656C6.34896 6.36719 6.22656 6.48698 6.11719 6.58594C6.01302 6.67969 5.91406 6.75521 5.82031 6.8125C5.73177 6.86458 5.63021 6.90625 5.51562 6.9375C5.40625 6.96354 5.27865 6.98177 5.13281 6.99219C4.98698 6.9974 4.80729 7 4.59375 7H4V9H4.59375C4.86979 9 5.08854 9.00781 5.25 9.02344C5.41667 9.03385 5.5651 9.06771 5.69531 9.125C5.77865 9.16146 5.86198 9.21094 5.94531 9.27344C6.02865 9.33073 6.11719 9.40625 6.21094 9.5C6.3099 9.59375 6.42188 9.70573 6.54688 9.83594C6.67708 9.96615 6.82812 10.1172 7 10.2891Z" />
</svg>
