<svg width="16" height="16" viewBox="0 0 16 16" xmlns="http://www.w3.org/2000/svg">
	<path d="M9.99707 1.00611C9.99707 0.133091 8.95677 -0.320737 8.31684 0.273112L4.44467 3.86649C4.3522 3.9523 4.23071 3.99999 4.10456 3.99999H1.49707C0.668643 3.99999 -0.00292969 4.67156 -0.00292969 5.49999V10.5C-0.00292969 11.3284 0.668643 12 1.49707 12H4.10456C4.23071 12 4.3522 12.0477 4.44467 12.1335L8.31684 15.7269C8.95677 16.3207 9.99707 15.8669 9.99707 14.9939V1.00611ZM5.1249 4.59949L8.99707 1.00611V14.9939L5.1249 11.4005C4.84749 11.1431 4.48302 11 4.10456 11H1.49707C1.22093 11 0.99707 10.7761 0.99707 10.5V5.49999C0.99707 5.22385 1.22093 4.99999 1.49707 4.99999H4.10456C4.48302 4.99999 4.84749 4.85693 5.1249 4.59949ZM11.1435 5.64645C11.3388 5.45119 11.6554 5.45119 11.8506 5.64645L13.4971 7.29289L15.1435 5.64645C15.3388 5.45119 15.6554 5.45119 15.8506 5.64645C16.0459 5.84171 16.0459 6.15829 15.8506 6.35356L14.2042 8L15.8506 9.64645C16.0459 9.84171 16.0459 10.1583 15.8506 10.3536C15.6554 10.5488 15.3388 10.5488 15.1435 10.3536L13.4971 8.70711L11.8506 10.3536C11.6554 10.5488 11.3388 10.5488 11.1435 10.3536C10.9483 10.1583 10.9483 9.84171 11.1435 9.64645L12.79 8L11.1435 6.35355C10.9483 6.15829 10.9483 5.84171 11.1435 5.64645Z" />
</svg>
