<svg width="16" height="16" viewBox="0 0 16 16" xmlns="http://www.w3.org/2000/svg">
	<path d="M13.0312 9.38281C13.0312 9.29948 13.0443 9.23177 13.0703 9.17969C13.1016 9.1224 13.1458 9.0651 13.2031 9.00781C13.776 8.44531 14.2188 7.83073 14.5312 7.16406C14.8438 6.4974 15 5.75521 15 4.9375C15 4.55208 14.9583 4.17448 14.875 3.80469C14.7969 3.4349 14.6823 3.07292 14.5312 2.71875C14.4479 2.52604 14.3568 2.34896 14.2578 2.1875C14.1641 2.02604 14.0625 1.8724 13.9531 1.72656C13.8438 1.58073 13.7266 1.4375 13.6016 1.29688C13.4766 1.15625 13.3438 1.01302 13.2031 0.867188C13.151 0.815104 13.1094 0.760417 13.0781 0.703125C13.0469 0.640625 13.0312 0.572917 13.0312 0.5C13.0312 0.364583 13.0807 0.247396 13.1797 0.148438C13.2786 0.0494792 13.3958 0 13.5312 0C13.599 0 13.6589 0.0130208 13.7109 0.0390625C13.7682 0.0598958 13.8229 0.0911458 13.875 0.132812C14.0312 0.257812 14.1849 0.408854 14.3359 0.585938C14.4922 0.757812 14.638 0.942708 14.7734 1.14062C14.9089 1.33333 15.0339 1.53125 15.1484 1.73438C15.2682 1.9375 15.3672 2.13021 15.4453 2.3125C15.8151 3.14583 16 4.02083 16 4.9375C16 5.39583 15.9531 5.84635 15.8594 6.28906C15.7656 6.72656 15.6276 7.15365 15.4453 7.57031C15.3672 7.7526 15.2682 7.94531 15.1484 8.14844C15.0339 8.35156 14.9089 8.55208 14.7734 8.75C14.638 8.94271 14.4922 9.1276 14.3359 9.30469C14.1849 9.47656 14.0312 9.625 13.875 9.75C13.8229 9.79167 13.7708 9.82552 13.7188 9.85156C13.6667 9.8724 13.6068 9.88281 13.5391 9.88281C13.4036 9.88281 13.2839 9.83594 13.1797 9.74219C13.0807 9.64323 13.0312 9.52344 13.0312 9.38281ZM11.0938 7.47656C11.0938 7.40885 11.1016 7.35156 11.1172 7.30469C11.138 7.25781 11.1693 7.20833 11.2109 7.15625C11.4661 6.8125 11.6615 6.46615 11.7969 6.11719C11.9323 5.76302 12 5.36979 12 4.9375C12 4.50521 11.9297 4.11458 11.7891 3.76562C11.6536 3.41146 11.4609 3.0625 11.2109 2.71875C11.1693 2.66667 11.138 2.61719 11.1172 2.57031C11.1016 2.52344 11.0938 2.46615 11.0938 2.39844C11.0938 2.25781 11.1406 2.14062 11.2344 2.04688C11.3333 1.95312 11.4531 1.90625 11.5938 1.90625C11.75 1.90625 11.8802 1.96615 11.9844 2.08594C12.1458 2.27344 12.2891 2.48177 12.4141 2.71094C12.5443 2.9401 12.651 3.17969 12.7344 3.42969C12.8229 3.67448 12.888 3.92708 12.9297 4.1875C12.9766 4.44271 13 4.69271 13 4.9375C13 5.1875 12.9766 5.44271 12.9297 5.70312C12.888 5.95833 12.8229 6.20833 12.7344 6.45312C12.651 6.69792 12.5469 6.9349 12.4219 7.16406C12.2969 7.38802 12.151 7.59635 11.9844 7.78906C11.875 7.91406 11.7448 7.97656 11.5938 7.97656C11.4583 7.97656 11.3411 7.92708 11.2422 7.82812C11.1432 7.72917 11.0938 7.61198 11.0938 7.47656ZM2.5 5.4375V5.375C2.5 4.90104 2.59375 4.45573 2.78125 4.03906C2.97396 3.6224 3.22917 3.25781 3.54688 2.94531C3.86979 2.63281 4.24219 2.38802 4.66406 2.21094C5.09115 2.02865 5.53646 1.9375 6 1.9375C6.47917 1.9375 6.92969 2.03125 7.35156 2.21875C7.77865 2.40104 8.15104 2.65104 8.46875 2.96875C8.78646 3.28646 9.03646 3.65885 9.21875 4.08594C9.40625 4.50781 9.5 4.95833 9.5 5.4375C9.5 5.91667 9.40625 6.36979 9.21875 6.79688C9.03646 7.21875 8.78646 7.58854 8.46875 7.90625C8.15104 8.22396 7.77865 8.47656 7.35156 8.66406C6.92969 8.84635 6.47917 8.9375 6 8.9375C5.52083 8.9375 5.06771 8.84635 4.64062 8.66406C4.21875 8.47656 3.84896 8.22396 3.53125 7.90625C3.21354 7.58854 2.96094 7.21875 2.77344 6.79688C2.59115 6.36979 2.5 5.91667 2.5 5.4375ZM8.5 5.4375V5.38281C8.5 5.04427 8.43229 4.72656 8.29688 4.42969C8.16146 4.13281 7.97917 3.875 7.75 3.65625C7.52083 3.43229 7.25521 3.25781 6.95312 3.13281C6.65104 3.0026 6.33333 2.9375 6 2.9375C5.65104 2.9375 5.32552 3.0026 5.02344 3.13281C4.72135 3.26302 4.45573 3.44271 4.22656 3.67188C4.0026 3.89583 3.82552 4.15885 3.69531 4.46094C3.5651 4.76302 3.5 5.08854 3.5 5.4375C3.5 5.78646 3.5651 6.11198 3.69531 6.41406C3.82552 6.71615 4.0026 6.98177 4.22656 7.21094C4.45573 7.4349 4.72135 7.61198 5.02344 7.74219C5.32552 7.8724 5.65104 7.9375 6 7.9375C6.34896 7.9375 6.67448 7.8724 6.97656 7.74219C7.27865 7.61198 7.54167 7.4349 7.76562 7.21094C7.99479 6.98177 8.17448 6.71615 8.30469 6.41406C8.4349 6.11198 8.5 5.78646 8.5 5.4375ZM0 11.8984C0 11.638 0.0520833 11.3906 0.15625 11.1562C0.265625 10.9167 0.408854 10.7083 0.585938 10.5312C0.768229 10.349 0.976562 10.2057 1.21094 10.1016C1.45052 9.99219 1.70052 9.9375 1.96094 9.9375H10.0391C10.2995 9.9375 10.5469 9.99219 10.7812 10.1016C11.0208 10.2057 11.2292 10.349 11.4062 10.5312C11.5885 10.7083 11.7318 10.9167 11.8359 11.1562C11.9453 11.3906 12 11.638 12 11.8984C12 12.2214 11.9531 12.526 11.8594 12.8125C11.7656 13.0938 11.6354 13.3568 11.4688 13.6016C11.3073 13.8464 11.112 14.0729 10.8828 14.2812C10.6589 14.4844 10.4167 14.6693 10.1562 14.8359C9.85417 15.0286 9.53385 15.1953 9.19531 15.3359C8.85677 15.4714 8.51042 15.5859 8.15625 15.6797C7.80208 15.7682 7.44271 15.8333 7.07812 15.875C6.71354 15.9167 6.35417 15.9375 6 15.9375C5.64583 15.9375 5.28646 15.9167 4.92188 15.875C4.55729 15.8333 4.19792 15.7682 3.84375 15.6797C3.48958 15.5859 3.14323 15.4714 2.80469 15.3359C2.46615 15.1953 2.14583 15.0286 1.84375 14.8359C1.58333 14.6693 1.33854 14.4844 1.10938 14.2812C0.885417 14.0729 0.690104 13.8464 0.523438 13.6016C0.361979 13.3568 0.234375 13.0938 0.140625 12.8125C0.046875 12.526 0 12.2214 0 11.8984ZM11 11.9375C11 11.8021 10.974 11.6745 10.9219 11.5547C10.8698 11.4297 10.7969 11.3229 10.7031 11.2344C10.6146 11.1406 10.5078 11.0677 10.3828 11.0156C10.263 10.9635 10.1354 10.9375 10 10.9375H2C1.86458 10.9375 1.73438 10.9635 1.60938 11.0156C1.48958 11.0677 1.38281 11.1406 1.28906 11.2344C1.20052 11.3229 1.13021 11.4297 1.07812 11.5547C1.02604 11.6745 1 11.8021 1 11.9375C1 12.1667 1.03646 12.3802 1.10938 12.5781C1.1875 12.776 1.29167 12.9609 1.42188 13.1328C1.55208 13.3047 1.69792 13.4635 1.85938 13.6094C2.02604 13.75 2.20052 13.8776 2.38281 13.9922C2.64323 14.1589 2.91927 14.3021 3.21094 14.4219C3.50781 14.5417 3.8099 14.6406 4.11719 14.7188C4.42969 14.7917 4.74479 14.8464 5.0625 14.8828C5.38021 14.9193 5.69271 14.9375 6 14.9375C6.30729 14.9375 6.61979 14.9193 6.9375 14.8828C7.25521 14.8464 7.56771 14.7917 7.875 14.7188C8.1875 14.6406 8.48958 14.5417 8.78125 14.4219C9.07812 14.3021 9.35677 14.1589 9.61719 13.9922C9.79427 13.8776 9.96615 13.75 10.1328 13.6094C10.2995 13.4635 10.4479 13.3047 10.5781 13.1328C10.7083 12.9609 10.8099 12.776 10.8828 12.5781C10.9609 12.3802 11 12.1667 11 11.9375Z" />
</svg>
