<svg width="16" height="16" viewBox="0 0 16 16" xmlns="http://www.w3.org/2000/svg">
	<path d="M4 7.5C4 7.63542 3.95052 7.7526 3.85156 7.85156C3.7526 7.95052 3.63542 8 3.5 8C3.41146 8 3.32292 7.97396 3.23438 7.92188L1.42188 6.78906C1.33333 6.9401 1.2526 7.08854 1.17969 7.23438C1.10677 7.38021 1.03385 7.53125 0.960938 7.6875C0.919271 7.78125 0.859375 7.85677 0.78125 7.91406C0.708333 7.97135 0.617188 8 0.507812 8C0.372396 8 0.252604 7.95312 0.148438 7.85938C0.0494792 7.76562 0 7.64844 0 7.50781C0 7.41927 0.0286458 7.30469 0.0859375 7.16406C0.143229 7.02344 0.216146 6.8724 0.304688 6.71094C0.398438 6.54948 0.5 6.38542 0.609375 6.21875C0.723958 6.04688 0.835938 5.88281 0.945312 5.72656C1.05469 5.57031 1.15885 5.42969 1.25781 5.30469C1.35677 5.17969 1.4349 5.08073 1.49219 5.00781C1.86198 4.5651 2.27344 4.16927 2.72656 3.82031C3.1849 3.47135 3.66927 3.16146 4.17969 2.89062C4.77344 2.57812 5.39062 2.35156 6.03125 2.21094C6.67708 2.07031 7.33333 2 8 2C8.44792 2 8.89062 2.03385 9.32812 2.10156C9.77083 2.16406 10.2057 2.26562 10.6328 2.40625L9.99219 3.25781C9.7474 3.1901 9.5 3.13802 9.25 3.10156C9 3.0599 8.75 3.03125 8.5 3.01562V5.5C8.5 5.63542 8.45052 5.7526 8.35156 5.85156C8.2526 5.95052 8.13542 6 8 6C7.86458 6 7.7474 5.95052 7.64844 5.85156C7.54948 5.7526 7.5 5.63542 7.5 5.5V3.01562C6.94271 3.04688 6.40625 3.13802 5.89062 3.28906C5.38021 3.4401 4.89323 3.64323 4.42969 3.89844C3.96615 4.14844 3.52865 4.44792 3.11719 4.79688C2.71094 5.14583 2.33594 5.53646 1.99219 5.96875L3.76562 7.07812C3.92188 7.17708 4 7.31771 4 7.5ZM7.75 13C7.51042 13 7.28385 12.9557 7.07031 12.8672C6.85677 12.7734 6.66927 12.6484 6.50781 12.4922C6.35156 12.3307 6.22656 12.1432 6.13281 11.9297C6.04427 11.7161 6 11.4896 6 11.25C6 11.0417 6.03125 10.8542 6.09375 10.6875C6.15625 10.5156 6.2474 10.3464 6.36719 10.1797L11.5938 3.21094C11.6927 3.07031 11.8281 3 12 3C12.1354 3 12.2526 3.04948 12.3516 3.14844C12.4505 3.2474 12.5 3.36458 12.5 3.5C12.5 3.55729 12.487 3.61979 12.4609 3.6875L9.4375 11.7109C9.36458 11.9089 9.28385 12.0807 9.19531 12.2266C9.11198 12.3672 8.98438 12.5052 8.8125 12.6406C8.50521 12.8802 8.15104 13 7.75 13ZM16 7.50781C16 7.64844 15.9479 7.76562 15.8438 7.85938C15.7448 7.95312 15.6276 8 15.4922 8C15.388 8 15.2969 7.97135 15.2188 7.91406C15.1406 7.85677 15.0807 7.78125 15.0391 7.6875C14.9766 7.53125 14.9062 7.38021 14.8281 7.23438C14.75 7.08333 14.6667 6.9349 14.5781 6.78906L12.7656 7.92188C12.6771 7.97396 12.5885 8 12.5 8C12.3646 8 12.2474 7.95052 12.1484 7.85156C12.0495 7.7526 12 7.63542 12 7.5C12 7.31771 12.0781 7.17708 12.2344 7.07812L14.0078 5.96875C13.888 5.82292 13.7656 5.68229 13.6406 5.54688C13.5156 5.41146 13.3854 5.27604 13.25 5.14062L13.625 4.14062L13.6328 4.13281C13.8568 4.33073 14.0833 4.55469 14.3125 4.80469C14.5469 5.05469 14.7682 5.31771 14.9766 5.59375C15.1901 5.86979 15.3802 6.15625 15.5469 6.45312C15.7188 6.74479 15.8568 7.03125 15.9609 7.3125C15.987 7.38021 16 7.44531 16 7.50781ZM10.2969 6.60938L7.16406 10.7812C7.05469 10.9323 7 11.0885 7 11.25C7 11.4583 7.07292 11.6354 7.21875 11.7812C7.36458 11.9271 7.54167 12 7.75 12C7.95312 12 8.10938 11.9453 8.21875 11.8359C8.32812 11.7214 8.41667 11.5781 8.48438 11.4062L10.2969 6.60938Z" />
</svg>
