<svg width="16" height="16" viewBox="0 0 16 16" xmlns="http://www.w3.org/2000/svg">
	<path d="M8.5 0.5C8.5 0.223858 8.27614 0 8 0C7.72386 0 7.5 0.223858 7.5 0.5V15.5C7.5 15.7761 7.72386 16 8 16C8.27614 16 8.5 15.7761 8.5 15.5V0.5Z" />
	<path d="M2 3C1.44772 3 1 3.44772 1 4V12C1 12.5527 1.44715 13 1.999 13H6C6.27614 13 6.5 13.2239 6.5 13.5C6.5 13.7761 6.27614 14 6 14H1.999C0.893992 14 0 13.1041 0 12V4C0 2.89543 0.895431 2 2 2H6C6.27614 2 6.5 2.22386 6.5 2.5C6.5 2.77614 6.27614 3 6 3H2Z" />
	<path d="M9.5 2.5C9.5 2.22386 9.72386 2 10 2H14C15.1046 2 16 2.89543 16 4V12C16 13.1046 15.1046 14 14 14H10C9.72386 14 9.5 13.7761 9.5 13.5C9.5 13.2239 9.72386 13 10 13H14C14.5523 13 15 12.5523 15 12V4C15 3.44772 14.5523 3 14 3H10C9.72386 3 9.5 2.77614 9.5 2.5Z" />
	<path d="M9.5 8C9.5 7.72386 9.72386 7.5 10 7.5H10.7929L10.1464 6.85355C9.95118 6.65829 9.95118 6.34171 10.1464 6.14645C10.3417 5.95118 10.6583 5.95118 10.8536 6.14645L11.5 6.79289V6C11.5 5.72386 11.7239 5.5 12 5.5C12.2761 5.5 12.5 5.72386 12.5 6V6.79289L13.1464 6.14645C13.3417 5.95118 13.6583 5.95118 13.8536 6.14645C14.0488 6.34171 14.0488 6.65829 13.8536 6.85355L13.2071 7.5H14C14.2761 7.5 14.5 7.72386 14.5 8C14.5 8.27614 14.2761 8.5 14 8.5H13.2071L13.8536 9.14645C14.0488 9.34171 14.0488 9.65829 13.8536 9.85355C13.6583 10.0488 13.3417 10.0488 13.1464 9.85355L12.5 9.20711V10C12.5 10.2761 12.2761 10.5 12 10.5C11.7239 10.5 11.5 10.2761 11.5 10V9.20711L10.8536 9.85355C10.6583 10.0488 10.3417 10.0488 10.1464 9.85355C9.95118 9.65829 9.95118 9.34171 10.1464 9.14645L10.7929 8.5H10C9.72386 8.5 9.5 8.27614 9.5 8Z" />
</svg>
