<svg width="16" height="16" viewBox="0 0 16 16" xmlns="http://www.w3.org/2000/svg">
	<path d="M1 7C1 6.35417 1.08333 5.73438 1.25 5.14062C1.41667 4.54167 1.65104 3.98438 1.95312 3.46875C2.26042 2.94792 2.625 2.47656 3.04688 2.05469C3.47396 1.6276 3.94531 1.26302 4.46094 0.960938C4.98177 0.653646 5.53906 0.416667 6.13281 0.25C6.73177 0.0833333 7.35417 0 8 0C8.64062 0 9.25781 0.0833333 9.85156 0.25C10.4505 0.416667 11.0078 0.653646 11.5234 0.960938C12.0443 1.26302 12.5182 1.6276 12.9453 2.05469C13.3724 2.48177 13.737 2.95573 14.0391 3.47656C14.3464 3.99219 14.5833 4.54948 14.75 5.14844C14.9167 5.74219 15 6.35938 15 7C15 7.53125 14.9323 8.03906 14.7969 8.52344C14.6615 9.00781 14.474 9.47656 14.2344 9.92969C14 10.3776 13.724 10.8099 13.4062 11.2266C13.0938 11.638 12.7604 12.0339 12.4062 12.4141C12.0521 12.7943 11.6849 13.1615 11.3047 13.5156C10.9297 13.8698 10.5599 14.2109 10.1953 14.5391C10.0286 14.6901 9.86198 14.8411 9.69531 14.9922C9.53385 15.1432 9.36979 15.2943 9.20312 15.4453C8.84896 15.7578 8.44792 15.9141 8 15.9141C7.55208 15.9141 7.15104 15.7578 6.79688 15.4453C6.63021 15.2943 6.46354 15.1432 6.29688 14.9922C6.13542 14.8411 5.97135 14.6901 5.80469 14.5391C5.4401 14.2109 5.06771 13.8698 4.6875 13.5156C4.3125 13.1615 3.94792 12.7943 3.59375 12.4141C3.23958 12.0339 2.90365 11.638 2.58594 11.2266C2.27344 10.8099 1.9974 10.3776 1.75781 9.92969C1.52344 9.47656 1.33854 9.00781 1.20312 8.52344C1.06771 8.03906 1 7.53125 1 7ZM8 14.9219C8.10417 14.9219 8.19531 14.9062 8.27344 14.875C8.35156 14.8385 8.43229 14.7891 8.51562 14.7266C8.64583 14.6224 8.77083 14.5104 8.89062 14.3906C9.01562 14.2656 9.13802 14.1484 9.25781 14.0391L9.52344 13.7969C9.84115 13.5052 10.1719 13.2005 10.5156 12.8828C10.8646 12.5651 11.2031 12.2318 11.5312 11.8828C11.8646 11.5339 12.1797 11.1719 12.4766 10.7969C12.7786 10.4219 13.0417 10.0312 13.2656 9.625C13.4896 9.21354 13.6667 8.79167 13.7969 8.35938C13.9323 7.92188 14 7.46875 14 7C14 6.17188 13.8411 5.39583 13.5234 4.67188C13.2109 3.94271 12.7812 3.30729 12.2344 2.76562C11.6927 2.21875 11.0573 1.78906 10.3281 1.47656C9.60417 1.15885 8.82812 1 8 1C7.17188 1 6.39323 1.15885 5.66406 1.47656C4.9401 1.78906 4.30469 2.21875 3.75781 2.76562C3.21615 3.30729 2.78646 3.94271 2.46875 4.67188C2.15625 5.39583 2 6.17188 2 7C2 7.46875 2.0651 7.92188 2.19531 8.35938C2.33073 8.79688 2.51042 9.21875 2.73438 9.625C2.95833 10.0312 3.21875 10.4245 3.51562 10.8047C3.8125 11.1797 4.1276 11.5417 4.46094 11.8906C4.79427 12.2344 5.13281 12.5651 5.47656 12.8828C5.82552 13.2005 6.15885 13.5052 6.47656 13.7969L6.74219 14.0391C6.86198 14.1484 6.98177 14.2656 7.10156 14.3906C7.22656 14.5104 7.35417 14.6224 7.48438 14.7266C7.56771 14.7943 7.64583 14.8438 7.71875 14.875C7.79688 14.9062 7.89062 14.9219 8 14.9219ZM6 8.09375V4.89844C6 4.75781 6.02604 4.6276 6.07812 4.50781C6.13021 4.38802 6.20052 4.28385 6.28906 4.19531C6.38281 4.10156 6.48958 4.02865 6.60938 3.97656C6.72917 3.92448 6.85938 3.89844 7 3.89844C7.19271 3.89844 7.36979 3.95052 7.53125 4.05469L10.0859 5.64844C10.2318 5.73698 10.3464 5.85938 10.4297 6.01562C10.513 6.17188 10.5547 6.33333 10.5547 6.5C10.5547 6.67188 10.513 6.83333 10.4297 6.98438C10.3464 7.13542 10.2318 7.25521 10.0859 7.34375L7.53125 8.94531C7.45312 8.9974 7.36719 9.03646 7.27344 9.0625C7.1849 9.08333 7.09375 9.09375 7 9.09375C6.85938 9.09375 6.72917 9.06771 6.60938 9.01562C6.48958 8.96354 6.38281 8.89323 6.28906 8.80469C6.20052 8.71615 6.13021 8.61198 6.07812 8.49219C6.02604 8.36719 6 8.23438 6 8.09375ZM7 4.89844V8.10156L9.55469 6.5L7 4.89844Z" />
</svg>
