<svg width="16" height="16" viewBox="0 0 16 16" xmlns="http://www.w3.org/2000/svg">
	<path d="M3.06255 12.3828C3.06255 12.2943 3.04945 12.2266 3.02345 12.1797C2.99215 12.1328 2.94795 12.0755 2.89065 12.0078C2.60415 11.6849 2.34895 11.375 2.12495 11.0781C1.90105 10.7813 1.71355 10.4766 1.56255 10.1641C1.41145 9.84635 1.29685 9.50781 1.21875 9.14844C1.13545 8.78906 1.09375 8.38542 1.09375 7.9375C1.09375 7.48958 1.13545 7.08594 1.21875 6.72656C1.29685 6.36719 1.41145 6.03125 1.56255 5.71875C1.71355 5.40104 1.90105 5.09375 2.12495 4.79688C2.34895 4.5 2.60415 4.1901 2.89065 3.86719C2.94795 3.79948 2.99215 3.74219 3.02345 3.69531C3.04945 3.64844 3.06255 3.58073 3.06255 3.49219C3.06255 3.35677 3.01305 3.24219 2.91405 3.14844C2.80985 3.04948 2.69015 3 2.55465 3C2.47655 3 2.41665 3.01042 2.37495 3.03125C2.33335 3.04688 2.28125 3.07812 2.21875 3.125C2.06255 3.24479 1.90885 3.39323 1.75785 3.57031C1.60155 3.74219 1.45575 3.92708 1.32035 4.125C1.17965 4.32292 1.05205 4.52604 0.93755 4.73438C0.822949 4.9375 0.72655 5.13021 0.64845 5.3125C0.27865 6.14583 0.09375 7.02083 0.09375 7.9375C0.09375 8.85417 0.27865 9.72917 0.64845 10.5625C0.72135 10.7292 0.81775 10.9193 0.93755 11.1328C1.05205 11.3411 1.17965 11.5495 1.32035 11.7578C1.46095 11.9609 1.60935 12.151 1.76565 12.3281C1.91665 12.5052 2.06775 12.6458 2.21875 12.75C2.27605 12.7865 2.33075 12.8177 2.38285 12.8437C2.42965 12.8646 2.48695 12.875 2.55465 12.875C2.69015 12.875 2.80985 12.8281 2.91405 12.7344C3.01305 12.6354 3.06255 12.5182 3.06255 12.3828Z" />
	<path d="M5 10.4766C5 10.4036 4.99219 10.3464 4.97656 10.3047C4.95573 10.263 4.92448 10.2135 4.88281 10.1563C4.76302 9.974 4.65365 9.79948 4.55469 9.63281C4.45573 9.46094 4.3724 9.28906 4.30469 9.11719C4.23698 8.9401 4.1849 8.75781 4.14844 8.57031C4.11198 8.3776 4.09375 8.16667 4.09375 7.9375C4.09375 7.71354 4.11198 7.50521 4.14844 7.3125C4.1849 7.11979 4.23698 6.9375 4.30469 6.76562C4.3724 6.58854 4.45573 6.41667 4.55469 6.25C4.65365 6.07812 4.76302 5.90104 4.88281 5.71875C4.92448 5.66146 4.95573 5.61198 4.97656 5.57031C4.99219 5.52865 5 5.47135 5 5.39844C5 5.26302 4.95052 5.14583 4.85156 5.04688C4.7526 4.94792 4.63542 4.89844 4.5 4.89844C4.41146 4.89844 4.33854 4.91406 4.28125 4.94531C4.22396 4.97656 4.16667 5.02344 4.10937 5.08594C3.94271 5.26823 3.79687 5.47396 3.67187 5.70312C3.54687 5.92708 3.44271 6.16667 3.35937 6.42188C3.27083 6.67188 3.20573 6.92708 3.16406 7.1875C3.11719 7.44792 3.09375 7.69792 3.09375 7.9375C3.09375 8.16667 3.11719 8.41406 3.16406 8.67969C3.20573 8.9401 3.27083 9.20052 3.35937 9.46094C3.44271 9.71615 3.54948 9.9609 3.67969 10.1953C3.80469 10.4245 3.94792 10.6224 4.10937 10.7891C4.21875 10.9089 4.34896 10.9687 4.5 10.9687C4.63542 10.9687 4.7526 10.9219 4.85156 10.8281C4.95052 10.7292 5 10.612 5 10.4766Z" />
	<path d="M12.9766 12.1797C12.9506 12.2266 12.9375 12.2943 12.9375 12.3828C12.9375 12.5182 12.9869 12.6354 13.0859 12.7344C13.1902 12.8281 13.3098 12.875 13.4453 12.875C13.5131 12.875 13.5704 12.8646 13.6172 12.8437C13.6693 12.8177 13.724 12.7865 13.7812 12.75C13.9323 12.6458 14.0834 12.5052 14.2344 12.3281C14.3906 12.151 14.5391 11.9609 14.6797 11.7578C14.8204 11.5495 14.948 11.3411 15.0625 11.1328C15.1823 10.9193 15.2787 10.7292 15.3516 10.5625C15.7213 9.72917 15.9062 8.85417 15.9062 7.9375C15.9062 7.02083 15.7213 6.14583 15.3516 5.3125C15.2734 5.13021 15.1771 4.9375 15.0625 4.73438C14.948 4.52604 14.8204 4.32292 14.6797 4.125C14.5443 3.92708 14.3984 3.74219 14.2422 3.57031C14.0912 3.39323 13.9375 3.24479 13.7812 3.125C13.7188 3.07812 13.6666 3.04688 13.625 3.03125C13.5833 3.01042 13.5234 3 13.4453 3C13.3098 3 13.1902 3.04948 13.0859 3.14844C12.9869 3.24219 12.9375 3.35677 12.9375 3.49219C12.9375 3.58073 12.9506 3.64844 12.9766 3.69531C13.0078 3.74219 13.0521 3.79948 13.1094 3.86719C13.3959 4.1901 13.651 4.5 13.875 4.79688C14.0989 5.09375 14.2865 5.40104 14.4375 5.71875C14.5886 6.03125 14.7031 6.36719 14.7812 6.72656C14.8645 7.08594 14.9062 7.48958 14.9062 7.9375C14.9062 8.38542 14.8645 8.78906 14.7812 9.14844C14.7031 9.50781 14.5886 9.84635 14.4375 10.1641C14.2865 10.4766 14.0989 10.7813 13.875 11.0781C13.651 11.375 13.3959 11.6849 13.1094 12.0078C13.0521 12.0755 13.0078 12.1328 12.9766 12.1797Z" />
	<path d="M11.0234 10.3047C11.0078 10.3464 11 10.4036 11 10.4766C11 10.612 11.0495 10.7292 11.1484 10.8281C11.2474 10.9219 11.3646 10.9687 11.5 10.9687C11.651 10.9687 11.7812 10.9089 11.8906 10.7891C12.0521 10.6224 12.1953 10.4245 12.3203 10.1953C12.4505 9.9609 12.5573 9.71615 12.6406 9.46094C12.7292 9.20052 12.7943 8.9401 12.8359 8.67969C12.8828 8.41406 12.9062 8.16667 12.9062 7.9375C12.9062 7.69792 12.8828 7.44792 12.8359 7.1875C12.7943 6.92708 12.7292 6.67188 12.6406 6.42188C12.5573 6.16667 12.4531 5.92708 12.3281 5.70312C12.2031 5.47396 12.0573 5.26823 11.8906 5.08594C11.8333 5.02344 11.776 4.97656 11.7188 4.94531C11.6615 4.91406 11.5885 4.89844 11.5 4.89844C11.3646 4.89844 11.2474 4.94792 11.1484 5.04688C11.0495 5.14583 11 5.26302 11 5.39844C11 5.47135 11.0078 5.52865 11.0234 5.57031C11.0443 5.61198 11.0755 5.66146 11.1172 5.71875C11.237 5.90104 11.3463 6.07812 11.4453 6.25C11.5443 6.41667 11.6276 6.58854 11.6953 6.76562C11.763 6.9375 11.8151 7.11979 11.8516 7.3125C11.888 7.50521 11.9062 7.71354 11.9062 7.9375C11.9062 8.16667 11.888 8.3776 11.8516 8.57031C11.8151 8.75781 11.763 8.9401 11.6953 9.11719C11.6276 9.28906 11.5443 9.46094 11.4453 9.63281C11.3463 9.79948 11.237 9.974 11.1172 10.1563C11.0755 10.2135 11.0443 10.263 11.0234 10.3047Z" />
	<path fill-rule="evenodd" clip-rule="evenodd" d="M8 10C9.10457 10 10 9.10457 10 8C10 6.89543 9.10457 6 8 6C6.89543 6 6 6.89543 6 8C6 9.10457 6.89543 10 8 10ZM8 9C8.55228 9 9 8.55228 9 8C9 7.44772 8.55228 7 8 7C7.44772 7 7 7.44772 7 8C7 8.55228 7.44772 9 8 9Z" />
</svg>
