<svg width="16" height="16" viewBox="0 0 16 16" xmlns="http://www.w3.org/2000/svg">
	<path d="M5.35355 3.64645C5.54882 3.84171 5.54882 4.15829 5.35355 4.35355L2.70711 7H13.2929L10.6464 4.35355C10.4512 4.15829 10.4512 3.84171 10.6464 3.64645C10.8417 3.45118 11.1583 3.45118 11.3536 3.64645L14.8536 7.14645C15.0488 7.34171 15.0488 7.65829 14.8536 7.85355L11.3536 11.3536C11.1583 11.5488 10.8417 11.5488 10.6464 11.3536C10.4512 11.1583 10.4512 10.8417 10.6464 10.6464L13.2929 8H2.70711L5.35355 10.6464C5.54882 10.8417 5.54882 11.1583 5.35355 11.3536C5.15829 11.5488 4.84171 11.5488 4.64645 11.3536L1.14645 7.85355C0.951184 7.65829 0.951184 7.34171 1.14645 7.14645L4.64645 3.64645C4.84171 3.45118 5.15829 3.45118 5.35355 3.64645Z" />
</svg>
