<svg width="15" height="15" viewBox="0 0 15 15" xmlns="http://www.w3.org/2000/svg">
	<path fill-rule="evenodd" clip-rule="evenodd" d="M2.5 4.375V4.4375C2.5 4.91667 2.59115 5.36979 2.77344 5.79688C2.96094 6.21875 3.21354 6.58854 3.53125 6.90625C3.84896 7.22396 4.21875 7.47656 4.64062 7.66406C5.06771 7.84635 5.52083 7.9375 6 7.9375C6.47917 7.9375 6.92969 7.84635 7.35156 7.66406C7.77865 7.47656 8.15104 7.22396 8.46875 6.90625C8.78646 6.58854 9.03646 6.21875 9.21875 5.79688C9.40625 5.36979 9.5 4.91667 9.5 4.4375C9.5 3.95833 9.40625 3.50781 9.21875 3.08594C9.03646 2.65885 8.78646 2.28646 8.46875 1.96875C8.15104 1.65104 7.77865 1.40104 7.35156 1.21875C6.92969 1.03125 6.47917 0.9375 6 0.9375C5.53646 0.9375 5.09115 1.02865 4.66406 1.21094C4.24219 1.38802 3.86979 1.63281 3.54688 1.94531C3.22917 2.25781 2.97396 2.6224 2.78125 3.03906C2.59375 3.45573 2.5 3.90104 2.5 4.375ZM8.5 4.38281V4.4375C8.5 4.78646 8.4349 5.11198 8.30469 5.41406C8.17448 5.71615 7.99479 5.98177 7.76562 6.21094C7.54167 6.4349 7.27865 6.61198 6.97656 6.74219C6.67448 6.8724 6.34896 6.9375 6 6.9375C5.65104 6.9375 5.32552 6.8724 5.02344 6.74219C4.72135 6.61198 4.45573 6.4349 4.22656 6.21094C4.0026 5.98177 3.82552 5.71615 3.69531 5.41406C3.5651 5.11198 3.5 4.78646 3.5 4.4375C3.5 4.08854 3.5651 3.76302 3.69531 3.46094C3.82552 3.15885 4.0026 2.89583 4.22656 2.67188C4.45573 2.44271 4.72135 2.26302 5.02344 2.13281C5.32552 2.0026 5.65104 1.9375 6 1.9375C6.33333 1.9375 6.65104 2.0026 6.95312 2.13281C7.25521 2.25781 7.52083 2.43229 7.75 2.65625C7.97917 2.875 8.16146 3.13281 8.29688 3.42969C8.43229 3.72656 8.5 4.04427 8.5 4.38281Z" />
	<path fill-rule="evenodd" clip-rule="evenodd" d="M0.15625 10.1562C0.0520833 10.3906 0 10.638 0 10.8984C0 11.2214 0.046875 11.526 0.140625 11.8125C0.234375 12.0938 0.361979 12.3568 0.523438 12.6016C0.690104 12.8464 0.885417 13.0729 1.10938 13.2812C1.33854 13.4844 1.58333 13.6693 1.84375 13.8359C2.14583 14.0286 2.46615 14.1953 2.80469 14.3359C3.14323 14.4714 3.48958 14.5859 3.84375 14.6797C4.19792 14.7682 4.55729 14.8333 4.92188 14.875C5.28646 14.9167 5.64583 14.9375 6 14.9375C6.35417 14.9375 6.71354 14.9167 7.07812 14.875C7.44271 14.8333 7.80208 14.7682 8.15625 14.6797C8.51042 14.5859 8.85677 14.4714 9.19531 14.3359C9.53385 14.1953 9.85417 14.0286 10.1562 13.8359C10.4167 13.6693 10.6589 13.4844 10.8828 13.2812C11.112 13.0729 11.3073 12.8464 11.4688 12.6016C11.6354 12.3568 11.7656 12.0938 11.8594 11.8125C11.9531 11.526 12 11.2214 12 10.8984C12 10.638 11.9453 10.3906 11.8359 10.1562C11.7318 9.9167 11.5885 9.7083 11.4062 9.5312C11.2292 9.349 11.0208 9.2057 10.7812 9.1016C10.5469 8.99219 10.2995 8.9375 10.0391 8.9375H1.96094C1.70052 8.9375 1.45052 8.99219 1.21094 9.1016C0.976562 9.2057 0.768229 9.349 0.585938 9.5312C0.408854 9.7083 0.265625 9.9167 0.15625 10.1562ZM10.9219 10.5547C10.974 10.6745 11 10.8021 11 10.9375C11 11.1667 10.9609 11.3802 10.8828 11.5781C10.8099 11.776 10.7083 11.9609 10.5781 12.1328C10.4479 12.3047 10.2995 12.4635 10.1328 12.6094C9.96615 12.75 9.79427 12.8776 9.61719 12.9922C9.35677 13.1589 9.07812 13.3021 8.78125 13.4219C8.48958 13.5417 8.1875 13.6406 7.875 13.7188C7.56771 13.7917 7.25521 13.8464 6.9375 13.8828C6.61979 13.9193 6.30729 13.9375 6 13.9375C5.69271 13.9375 5.38021 13.9193 5.0625 13.8828C4.74479 13.8464 4.42969 13.7917 4.11719 13.7188C3.8099 13.6406 3.50781 13.5417 3.21094 13.4219C2.91927 13.3021 2.64323 13.1589 2.38281 12.9922C2.20052 12.8776 2.02604 12.75 1.85938 12.6094C1.69792 12.4635 1.55208 12.3047 1.42188 12.1328C1.29167 11.9609 1.1875 11.776 1.10938 11.5781C1.03646 11.3802 1 11.1667 1 10.9375C1 10.8021 1.02604 10.6745 1.07812 10.5547C1.13021 10.4297 1.20052 10.3229 1.28906 10.2344C1.38281 10.1406 1.48958 10.0677 1.60938 10.0156C1.73438 9.9635 1.86458 9.9375 2 9.9375H10C10.1354 9.9375 10.263 9.9635 10.3828 10.0156C10.5078 10.0677 10.6146 10.1406 10.7031 10.2344C10.7969 10.3229 10.8698 10.4297 10.9219 10.5547Z" />
	<path d="M12 0.5C12 0.223858 11.7761 0 11.5 0C11.2239 0 11 0.223858 11 0.5V5.5C11 5.77614 11.2239 6 11.5 6C11.7761 6 12 5.77614 12 5.5V0.5Z" />
	<path d="M15 0.5C15 0.223858 14.7761 0 14.5 0C14.2239 0 14 0.223858 14 0.5V5.5C14 5.77614 14.2239 6 14.5 6C14.7761 6 15 5.77614 15 5.5V0.5Z" />
</svg>
