<svg width="16" height="16" viewBox="0 0 16 16" xmlns="http://www.w3.org/2000/svg">
	<path d="M8.49996 4.5C8.49996 4.22386 8.27611 4 7.99996 4C7.72382 4 7.49997 4.22386 7.49997 4.5L7.49996 11.5C7.49996 11.7761 7.72382 12 7.99997 12C8.27611 12 8.49996 11.7761 8.49996 11.5V4.5Z" />
	<path fill-rule="evenodd" clip-rule="evenodd" d="M4.81987 4.36574C5.31695 4.01778 5.99996 4.3734 5.99996 4.98016V11.0198C5.99996 11.6266 5.31695 11.9822 4.81987 11.6343L0.505816 8.61442C0.0792778 8.31585 0.0792796 7.68415 0.505816 7.38558L4.81987 4.36574ZM4.99996 5.46033L1.37186 8L4.99996 10.5397V5.46033Z" />
	<path fill-rule="evenodd" clip-rule="evenodd" d="M11.1801 4.36574C10.683 4.01778 9.99996 4.3734 9.99996 4.98016V11.0198C9.99996 11.6266 10.683 11.9822 11.1801 11.6343L15.4941 8.61442C15.9207 8.31585 15.9206 7.68415 15.4941 7.38558L11.1801 4.36574ZM11 5.46033L14.6281 8L11 10.5397V5.46033Z" />
</svg>
