<svg width="16" height="16" viewBox="0 0 16 16" xmlns="http://www.w3.org/2000/svg">
	<path d="M0 4.75C0 3.23122 1.23122 2 2.75 2H13.25C14.7688 2 16 3.23122 16 4.75V11.25C16 12.7688 14.7688 14 13.25 14H2.75C1.23122 14 0 12.7688 0 11.25V4.75ZM2.75 3C1.7835 3 1 3.7835 1 4.75V11.25C1 12.2165 1.7835 13 2.75 13H13.25C14.2165 13 15 12.2165 15 11.25V4.75C15 3.7835 14.2165 3 13.25 3H2.75ZM2 9.5C2 9.22386 2.22386 9 2.5 9H9.5C9.77614 9 10 9.22386 10 9.5C10 9.77614 9.77614 10 9.5 10H2.5C2.22386 10 2 9.77614 2 9.5ZM2.5 11C2.22386 11 2 11.2239 2 11.5C2 11.7761 2.22386 12 2.5 12H5.5C5.77614 12 6 11.7761 6 11.5C6 11.2239 5.77614 11 5.5 11H2.5ZM11 9.5C11 9.22386 11.2239 9 11.5 9H13.5C13.7761 9 14 9.22386 14 9.5C14 9.77614 13.7761 10 13.5 10H11.5C11.2239 10 11 9.77614 11 9.5ZM7.5 11C7.22386 11 7 11.2239 7 11.5C7 11.7761 7.22386 12 7.5 12H13.5C13.7761 12 14 11.7761 14 11.5C14 11.2239 13.7761 11 13.5 11H7.5Z" />
</svg>
