<svg width="16" height="16" viewBox="0 0 16 16" xmlns="http://www.w3.org/2000/svg">
	<path fill-rule="evenodd" clip-rule="evenodd" d="M0.82199 4.43285C0.582843 4.29478 0.500906 3.98898 0.638977 3.74984C2.71004 0.162641 7.29697 -1.06642 10.8842 1.00465C14.4714 3.07571 15.7004 7.66264 13.6294 11.2498C12.1106 13.8804 8.74683 14.7818 6.11622 13.263C3.48561 11.7442 2.5843 8.38045 4.10308 5.74984C5.06958 4.07581 7.21014 3.50225 8.88417 4.46875C10.5582 5.43525 11.1318 7.57581 10.1653 9.24984C9.75104 9.96727 8.83366 10.2131 8.11622 9.79887C7.86372 9.65309 7.72304 9.42054 7.64338 9.22256C7.56266 9.02193 7.52492 8.80906 7.50649 8.63068C7.48771 8.44892 7.48687 8.28094 7.49033 8.16012C7.49208 8.09905 7.49498 8.04841 7.49754 8.0121C7.49882 7.99391 7.50002 7.97921 7.50096 7.96849L7.50215 7.95542L7.50256 7.95121L7.50271 7.9497C7.50272 7.94958 7.50282 7.9486 8.00019 7.99984C8.49756 8.05107 8.49757 8.05096 8.49758 8.05086L8.49714 8.0558L8.49507 8.08231C8.49335 8.10668 8.49122 8.14335 8.48992 8.18877C8.48728 8.28093 8.48826 8.40268 8.5012 8.52791C8.51449 8.65652 8.53836 8.76789 8.57111 8.84929C8.59579 8.91064 8.61559 8.93106 8.61929 8.93461C8.85798 9.07022 9.16175 8.98796 9.29923 8.74984C9.98959 7.5541 9.5799 6.02513 8.38417 5.33477C7.18844 4.64442 5.65946 5.0541 4.9691 6.24984C3.72646 8.40215 4.4639 11.1543 6.61622 12.3969C8.76853 13.6396 11.5207 12.9022 12.7633 10.7498C14.5583 7.64093 13.4931 3.6656 10.3842 1.87067C7.27526 0.0757453 3.29993 1.14093 1.505 4.24984C1.36693 4.48898 1.06114 4.57092 0.82199 4.43285ZM7.38109 7.06506C7.14241 6.92946 6.83863 7.01171 6.70115 7.24984C6.0108 8.44557 6.42049 9.97454 7.61622 10.6649C8.81195 11.3553 10.3409 10.9456 11.0313 9.74984C12.2739 7.59752 11.5365 4.84536 9.38417 3.60272C7.23185 2.36008 4.47969 3.09752 3.23705 5.24984C1.44213 8.35874 2.50732 12.3341 5.61622 14.129C8.72512 15.9239 12.7005 14.8587 14.4954 11.7498C14.6335 11.5107 14.9392 11.4288 15.1784 11.5668C15.4175 11.7049 15.4995 12.0107 15.3614 12.2498C13.2903 15.837 8.70341 17.0661 5.11622 14.995C1.52902 12.924 0.29996 8.33703 2.37103 4.74984C3.88981 2.11923 7.25356 1.21791 9.88417 2.7367C12.5148 4.25548 13.4161 7.61923 11.8973 10.2498C10.9308 11.9239 8.79024 12.4974 7.11622 11.5309C5.44219 10.5644 4.86863 8.42386 5.83513 6.74984C6.24934 6.0324 7.16673 5.78658 7.88417 6.2008C8.13667 6.34658 8.27734 6.57914 8.357 6.77711C8.43772 6.97774 8.47546 7.19061 8.49389 7.36899C8.51267 7.55075 8.51352 7.71873 8.51006 7.83955C8.50831 7.90062 8.5054 7.95126 8.50285 7.98757C8.50157 8.00576 8.50037 8.02046 8.49943 8.03118L8.49823 8.04425L8.49782 8.04846L8.49758 8.05086C8.49757 8.05096 8.49756 8.05107 8.00019 7.99984C7.50282 7.9486 7.50272 7.94958 7.50271 7.9497L7.50324 7.94388L7.50532 7.91736C7.50703 7.89299 7.50916 7.85633 7.51047 7.8109C7.51311 7.71874 7.51213 7.59699 7.49919 7.47177C7.4859 7.34315 7.46202 7.23178 7.42928 7.15038C7.40459 7.08903 7.38479 7.06862 7.38109 7.06506Z" />
</svg>
