<svg width="16" height="16" viewBox="0 0 16 16" xmlns="http://www.w3.org/2000/svg">
	<path d="M16 1.5V5.5C16 5.63542 15.9505 5.7526 15.8516 5.85156C15.7526 5.95052 15.6354 6 15.5 6H11.5C11.3646 6 11.2474 5.95052 11.1484 5.85156C11.0495 5.7526 11 5.63542 11 5.5C11 5.36458 11.0495 5.2474 11.1484 5.14844C11.2474 5.04948 11.3646 5 11.5 5H14.3203C14.0339 4.375 13.6667 3.8151 13.2188 3.32031C12.776 2.82552 12.276 2.40625 11.7188 2.0625C11.1615 1.71875 10.5599 1.45573 9.91406 1.27344C9.27344 1.09115 8.61198 1 7.92969 1C7.35156 1 6.78125 1.07552 6.21875 1.22656C5.66146 1.3776 5.13281 1.59115 4.63281 1.86719C4.13281 2.14323 3.66927 2.47656 3.24219 2.86719C2.8151 3.25781 2.44271 3.69271 2.125 4.17188C1.92188 4.47917 1.7474 4.80469 1.60156 5.14844C1.5651 5.23177 1.53125 5.31771 1.5 5.40625C1.47396 5.49479 1.4401 5.58073 1.39844 5.66406C1.34115 5.76823 1.28125 5.85156 1.21875 5.91406C1.15625 5.97135 1.0599 6 0.929688 6C0.794271 6 0.677083 5.95052 0.578125 5.85156C0.479167 5.7526 0.429688 5.63542 0.429688 5.5C0.429688 5.4375 0.4375 5.38281 0.453125 5.33594C0.729167 4.55469 1.11719 3.83854 1.61719 3.1875C2.11719 2.53646 2.69531 1.97396 3.35156 1.5C4.00781 1.02604 4.72396 0.658854 5.5 0.398438C6.28125 0.132812 7.08594 0 7.91406 0C8.64844 0 9.36458 0.09375 10.0625 0.28125C10.7604 0.46875 11.4141 0.739583 12.0234 1.09375C12.638 1.44271 13.1979 1.875 13.7031 2.39062C14.2135 2.90104 14.6458 3.47917 15 4.125V1.5C15 1.36458 15.0495 1.2474 15.1484 1.14844C15.2474 1.04948 15.3646 1 15.5 1C15.6354 1 15.7526 1.04948 15.8516 1.14844C15.9505 1.2474 16 1.36458 16 1.5ZM15.4688 10.5C15.4688 10.5885 15.4323 10.7214 15.3594 10.8984C15.2917 11.0703 15.2109 11.25 15.1172 11.4375C15.0234 11.625 14.9271 11.8047 14.8281 11.9766C14.7344 12.1484 14.6589 12.276 14.6016 12.3594C14.2318 12.9115 13.8021 13.4115 13.3125 13.8594C12.8281 14.3073 12.3021 14.6901 11.7344 15.0078C11.1667 15.3255 10.5651 15.5703 9.92969 15.7422C9.29948 15.9141 8.64844 16 7.97656 16C7.25781 16 6.55729 15.9141 5.875 15.7422C5.19792 15.5651 4.55729 15.3099 3.95312 14.9766C3.35417 14.638 2.80208 14.224 2.29688 13.7344C1.79167 13.2448 1.35938 12.6875 1 12.0625V14.5C1 14.6354 0.950521 14.7526 0.851562 14.8516C0.752604 14.9505 0.635417 15 0.5 15C0.364583 15 0.247396 14.9505 0.148438 14.8516C0.0494792 14.7526 0 14.6354 0 14.5V10.5C0 10.3646 0.0494792 10.2474 0.148438 10.1484C0.247396 10.0495 0.364583 10 0.5 10H4.5C4.63542 10 4.7526 10.0495 4.85156 10.1484C4.95052 10.2474 5 10.3646 5 10.5C5 10.6354 4.95052 10.7526 4.85156 10.8516C4.7526 10.9505 4.63542 11 4.5 11H1.57031C1.85677 11.625 2.22396 12.1849 2.67188 12.6797C3.11979 13.1745 3.61979 13.5938 4.17188 13.9375C4.72917 14.2812 5.32812 14.5443 5.96875 14.7266C6.61458 14.9089 7.27865 15 7.96094 15C8.53906 15 9.10677 14.9271 9.66406 14.7812C10.2214 14.6302 10.75 14.4167 11.25 14.1406C11.7552 13.8646 12.2214 13.5312 12.6484 13.1406C13.0755 12.75 13.4479 12.3125 13.7656 11.8281C13.9688 11.5208 14.1432 11.1953 14.2891 10.8516C14.3255 10.7682 14.3568 10.6823 14.3828 10.5938C14.4141 10.5052 14.4505 10.4193 14.4922 10.3359C14.5495 10.2318 14.6094 10.151 14.6719 10.0938C14.7344 10.0312 14.8307 10 14.9609 10C15.1016 10 15.2214 10.0495 15.3203 10.1484C15.4193 10.2422 15.4688 10.3594 15.4688 10.5Z" />
</svg>
