<svg width="16" height="16" viewBox="0 0 16 16" xmlns="http://www.w3.org/2000/svg">
	<path d="M5.35355 6.14645C5.54882 6.34171 5.54882 6.65829 5.35355 6.85355L4.70711 7.5H11.2929L10.6464 6.85355C10.4512 6.65829 10.4512 6.34171 10.6464 6.14645C10.8417 5.95118 11.1583 5.95118 11.3536 6.14645L12.8536 7.64645C13.0488 7.84171 13.0488 8.15829 12.8536 8.35355L11.3536 9.85355C11.1583 10.0488 10.8417 10.0488 10.6464 9.85355C10.4512 9.65829 10.4512 9.34171 10.6464 9.14645L11.2929 8.5H4.70711L5.35355 9.14645C5.54882 9.34171 5.54882 9.65829 5.35355 9.85355C5.15829 10.0488 4.84171 10.0488 4.64645 9.85355L3.14645 8.35355C2.95118 8.15829 2.95118 7.84171 3.14645 7.64645L4.64645 6.14645C4.84171 5.95118 5.15829 5.95118 5.35355 6.14645ZM15 4C15 2.34315 13.6569 1 12 1H4C2.34315 1 1 2.34315 1 4V12C1 13.6569 2.34315 15 4 15H12C13.6569 15 15 13.6569 15 12L15 4ZM11 2V5C11.3579 5 11.7158 5.1273 12 5.38191V2C13.1046 2 14 2.89543 14 4L14 12C14 13.1046 13.1046 14 12 14V10.6181C11.7158 10.8727 11.3579 11 11 11V14H5V11C4.64208 11 4.28417 10.8727 4 10.6181L4 14C2.89543 14 2 13.1046 2 12L2 4C2 2.89543 2.89543 2 4 2L4 5.38191C4.28417 5.1273 4.64208 5 5 5L5 2L11 2Z" />
</svg>
