<svg width="16" height="16" viewBox="0 0 16 16" xmlns="http://www.w3.org/2000/svg">
	<path d="M9.5 1C7.29086 1 5.5 2.79086 5.5 5C5.5 7.20914 7.29086 9 9.5 9H11V15.5C11 15.7761 11.2239 16 11.5 16C11.7761 16 12 15.7761 12 15.5V2H13V15.5C13 15.7761 13.2239 16 13.5 16C13.7761 16 14 15.7761 14 15.5V2H14.5C14.7761 2 15 1.77614 15 1.5C15 1.22386 14.7761 1 14.5 1H9.5ZM11 2V8H9.5C7.84315 8 6.5 6.65685 6.5 5C6.5 3.34315 7.84315 2 9.5 2H11ZM3.85355 5.64645C3.65829 5.45118 3.34171 5.45118 3.14645 5.64645L1.14645 7.64645C0.951184 7.84171 0.951184 8.15829 1.14645 8.35355L3.14645 10.3536C3.34171 10.5488 3.65829 10.5488 3.85355 10.3536C4.04882 10.1583 4.04882 9.84171 3.85355 9.64645L2.20711 8L3.85355 6.35355C4.04882 6.15829 4.04882 5.84171 3.85355 5.64645Z" />
</svg>
