<svg width="16" height="16" viewBox="0 0 16 16" xmlns="http://www.w3.org/2000/svg">
	<path d="M6.00002 0.5C6.00002 0.223858 6.22388 0 6.50002 0H10.5C10.7762 0 11 0.223858 11 0.5C11 0.776142 10.7762 1 10.5 1H6.50002C6.22388 1 6.00002 0.776142 6.00002 0.5Z" />
	<path d="M13.4492 1.92899C13.6445 1.73373 13.961 1.73373 14.1563 1.92899L15.5705 3.34321C15.7658 3.53847 15.7658 3.85505 15.5705 4.05031C15.3753 4.24558 15.0587 4.24558 14.8634 4.05031L13.4492 2.6361C13.2539 2.44084 13.2539 2.12426 13.4492 1.92899Z" />
	<path d="M8.00002 4.5C8.00002 4.22386 8.22388 4 8.50002 4C8.77616 4 9.00002 4.22386 9.00002 4.5V9.33697C8.71614 8.93383 8.37945 8.57055 8.00002 8.25719V4.5Z" />
	<path d="M2.7488 7.28466C3.48675 4.80678 5.78239 3 8.50002 3C11.8137 3 14.5 5.68629 14.5 9C14.5 11.9951 12.3055 14.4776 9.43676 14.9273C9.24785 15.3108 9.01557 15.6691 8.74633 15.9957C12.4983 15.866 15.5 12.7835 15.5 9C15.5 5.13401 12.366 2 8.50002 2C5.0337 2 2.15584 4.51951 1.59785 7.82712C1.95608 7.60416 2.34181 7.42126 2.7488 7.28466Z" />
	<path d="M9 12.5C9 13.1198 8.88021 13.7031 8.64062 14.25C8.40625 14.7969 8.08594 15.2734 7.67969 15.6797C7.27344 16.0859 6.79688 16.4089 6.25 16.6484C5.70312 16.8828 5.11979 17 4.5 17C3.875 17 3.28906 16.8828 2.74219 16.6484C2.19531 16.4141 1.71875 16.0938 1.3125 15.6875C0.90625 15.2812 0.585938 14.8047 0.351562 14.2578C0.117188 13.7109 0 13.125 0 12.5C0 11.8802 0.117188 11.2969 0.351562 10.75C0.591146 10.2031 0.914062 9.72656 1.32031 9.32031C1.72656 8.91406 2.20312 8.59375 2.75 8.35938C3.29688 8.11979 3.88021 8 4.5 8C4.91146 8 5.30729 8.05469 5.6875 8.16406C6.07292 8.26823 6.43229 8.41927 6.76562 8.61719C7.09896 8.8099 7.40365 9.04427 7.67969 9.32031C7.95573 9.59635 8.1901 9.90104 8.38281 10.2344C8.58073 10.5677 8.73177 10.9271 8.83594 11.3125C8.94531 11.6927 9 12.0885 9 12.5ZM1.70312 14.5938L6.59375 9.70312C6.27604 9.45833 5.9375 9.28125 5.57812 9.17188C5.21875 9.05729 4.83854 9 4.4375 9C3.97917 9 3.54167 9.09375 3.125 9.28125C2.71354 9.46875 2.34896 9.72135 2.03125 10.0391C1.71875 10.3516 1.46875 10.7162 1.28125 11.1328C1.09375 11.5443 1 11.9792 1 12.4375C1 12.8385 1.05469 13.2188 1.16406 13.5781C1.27865 13.9375 1.45833 14.276 1.70312 14.5938ZM7.29688 10.4062L2.40625 15.2969C2.72396 15.5417 3.0625 15.7213 3.42188 15.8359C3.78125 15.9453 4.16146 16 4.5625 16C5.02083 16 5.45573 15.9062 5.86719 15.7188C6.28385 15.5312 6.64844 15.2812 6.96094 14.9688C7.27865 14.651 7.53125 14.2865 7.71875 13.875C7.90625 13.4583 8 13.0208 8 12.5625C8 12.1615 7.94271 11.7812 7.82812 11.4219C7.71875 11.0625 7.54167 10.724 7.29688 10.4062Z" />
</svg>
