<svg width="16" height="16" viewBox="0 0 16 16" xmlns="http://www.w3.org/2000/svg">
	<path d="M2.9625 3.66961L0.146447 0.853553C-0.0488155 0.658291 -0.0488155 0.341709 0.146447 0.146447C0.341709 -0.0488155 0.658291 -0.0488155 0.853553 0.146447L15.8536 15.1464C16.0488 15.3417 16.0488 15.6583 15.8536 15.8536C15.6583 16.0488 15.3417 16.0488 15.1464 15.8536L12.8304 13.5375C11.5464 15.0443 9.63482 16 7.5 16C3.63401 16 0.5 12.866 0.5 9C0.5 6.86518 1.45566 4.95356 2.9625 3.66961ZM12.1206 12.8277L8 8.70711V9.5C8 9.77614 7.77614 10 7.5 10C7.22386 10 7 9.77614 7 9.5V7.70711L3.67226 4.37936C2.34521 5.47992 1.5 7.14126 1.5 9C1.5 12.3137 4.18629 15 7.5 15C9.35874 15 11.0201 14.1548 12.1206 12.8277ZM7 4.5V4.87866L8 5.87866V4.5C8 4.22386 7.77614 4 7.5 4C7.22386 4 7 4.22386 7 4.5ZM13.5 9C13.5 9.71155 13.3761 10.3942 13.1488 11.0275L13.9187 11.7974C14.2926 10.9406 14.5 9.99452 14.5 9C14.5 5.13401 11.366 2 7.5 2C6.50548 2 5.55939 2.2074 4.70264 2.58131L5.47253 3.3512C6.10584 3.12386 6.78845 3 7.5 3C10.8137 3 13.5 5.68629 13.5 9ZM5.5 0C5.22386 0 5 0.223858 5 0.5C5 0.776142 5.22386 1 5.5 1H9.5C9.77614 1 10 0.776142 10 0.5C10 0.223858 9.77614 0 9.5 0H5.5ZM13.1563 1.92899C12.961 1.73373 12.6444 1.73373 12.4492 1.92899C12.2539 2.12426 12.2539 2.44084 12.4492 2.6361L13.8634 4.05031C14.0587 4.24558 14.3752 4.24558 14.5705 4.05031C14.7658 3.85505 14.7658 3.53847 14.5705 3.34321L13.1563 1.92899Z" />
</svg>
