<svg width="16" height="16" viewBox="0 0 16 16" xmlns="http://www.w3.org/2000/svg">
	<path d="M5 0.5C5 0.223858 5.22386 0 5.5 0H9.5C9.77614 0 10 0.223858 10 0.5C10 0.776142 9.77614 1 9.5 1H5.5C5.22386 1 5 0.776142 5 0.5ZM12.4492 1.92899C12.6444 1.73373 12.961 1.73373 13.1563 1.92899L14.5705 3.34321C14.7658 3.53847 14.7658 3.85505 14.5705 4.05031C14.3752 4.24558 14.0587 4.24558 13.8634 4.05031L12.4492 2.6361C12.2539 2.44084 12.2539 2.12426 12.4492 1.92899ZM7 4.5C7 4.22386 7.22386 4 7.5 4C7.77614 4 8 4.22386 8 4.5V9.5C8 9.77614 7.77614 10 7.5 10C7.22386 10 7 9.77614 7 9.5V4.5ZM10 15.5404C9.2236 15.8373 8.3808 16 7.5 16C3.63401 16 0.5 12.866 0.5 9C0.5 5.13401 3.63401 2 7.5 2C11.0712 2 14.0178 4.67428 14.4464 8.12946C14.1454 8.04511 13.828 8 13.5 8C13.4723 8 13.4447 8.00033 13.4172 8.00096C12.9415 5.16278 10.4733 3 7.5 3C4.18629 3 1.5 5.68629 1.5 9C1.5 12.3137 4.18629 15 7.5 15C8.46634 15 9.37932 14.7716 10.1879 14.3657C10.0661 14.7214 10 15.103 10 15.5V15.5404ZM13.5 9C12.1193 9 11 10.1193 11 11.5C11 11.7761 11.2239 12 11.5 12C11.7761 12 12 11.7761 12 11.5C12 10.6716 12.6716 10 13.5 10C14.3284 10 15 10.6716 15 11.5C15 12.3284 14.3284 13 13.5 13C12.1193 13 11 14.1193 11 15.5V16.5C11 16.7761 11.2239 17 11.5 17H15.5C15.7761 17 16 16.7761 16 16.5C16 16.2239 15.7761 16 15.5 16H12V15.5C12 14.6716 12.6716 14 13.5 14C14.8807 14 16 12.8807 16 11.5C16 10.1193 14.8807 9 13.5 9Z" />
</svg>
