<svg width="16" height="16" viewBox="0 0 16 16" xmlns="http://www.w3.org/2000/svg">
	<path d="M6 0C5.72386 0 5.5 0.223858 5.5 0.5C5.5 0.776142 5.72386 1 6 1H10C10.2761 1 10.5 0.776142 10.5 0.5C10.5 0.223858 10.2761 0 10 0H6ZM13.6563 1.92899C13.461 1.73373 13.1444 1.73373 12.9492 1.92899C12.7539 2.12426 12.7539 2.44084 12.9492 2.6361L14.3634 4.05031C14.5587 4.24558 14.8752 4.24558 15.0705 4.05031C15.2658 3.85505 15.2658 3.53847 15.0705 3.34321L13.6563 1.92899ZM8 4C7.72386 4 7.5 4.22386 7.5 4.5V9.5C7.5 9.77614 7.72386 10 8 10C8.27614 10 8.5 9.77614 8.5 9.5V4.5C8.5 4.22386 8.27614 4 8 4ZM8 16C11.866 16 15 12.866 15 9C15 5.13401 11.866 2 8 2C4.13401 2 1 5.13401 1 9C1 12.866 4.13401 16 8 16ZM8 15C4.68629 15 2 12.3137 2 9C2 5.68629 4.68629 3 8 3C11.3137 3 14 5.68629 14 9C14 12.3137 11.3137 15 8 15Z" />
</svg>
