<svg width="16" height="16" viewBox="0 0 16 16" xmlns="http://www.w3.org/2000/svg">
	<path d="M2.5 15C1.7203 15 1.07955 14.4051 1.00687 13.6445L1 13.5V2.5C1 1.7203 1.59489 1.07955 2.35554 1.00687L2.5 1H7C7.7797 1 8.42045 1.59489 8.49313 2.35554L8.5 2.5V2.75443L10.6886 0.485178C11.2276 -0.0740099 12.0959 -0.12432 12.6956 0.347065L12.8118 0.448302L15.5694 3.17295C16.1219 3.71884 16.1614 4.58769 15.68 5.18413L15.5767 5.29961L13.266 7.49943L13.5 7.5C14.2797 7.5 14.9204 8.09489 14.9931 8.85554L15 9V13.5C15 14.2797 14.4051 14.9204 13.6445 14.9931L13.5 15H2.5ZM7.5 8.5H2V13.5C2 13.7148 2.13542 13.8979 2.32553 13.9687L2.41012 13.9919L2.5 14H7.5V8.5ZM13.5 8.5H8.5V14H13.5C13.7455 14 13.9496 13.8231 13.9919 13.5899L14 13.5V9C14 8.75454 13.8231 8.55039 13.5899 8.50806L13.5 8.5ZM8.5 5.70943V7.49943H10.29L8.5 5.70943ZM7 2H2.5C2.25454 2 2.05039 2.17688 2.00806 2.41012L2 2.5V7.5H7.5V2.5C7.5 2.28522 7.36458 2.10207 7.17447 2.03128L7.08988 2.00806L7 2ZM12.1222 1.17265C11.9396 0.996521 11.6692 0.981554 11.4768 1.12004L11.4086 1.17915L8.79255 3.89329C8.62705 4.065 8.60856 4.32501 8.73563 4.51644L8.799 4.59383L11.4147 7.20955C11.5826 7.37746 11.8409 7.40135 12.0345 7.27931L12.1131 7.21806L14.8708 4.59139C15.0433 4.41679 15.061 4.14725 14.9248 3.95319L14.8665 3.88429L12.1222 1.17265Z" />
</svg>
