<svg width="16" height="16" viewBox="0 0 16 16" xmlns="http://www.w3.org/2000/svg">
	<path fill-rule="evenodd" clip-rule="evenodd" d="M3.39076 8.5H3.20711L1.02426 10.6828C0.646281 11.0608 0 10.7931 0 10.2586V1.75577C0 1.20959 0.670409 0.947452 1.04088 1.3488L6.71248 7.49303C6.77101 7.55643 6.81246 7.62632 6.83853 7.69882C6.89247 7.71504 6.9463 7.7321 7 7.75V3.5C7 3.29688 7.03906 3.10417 7.11719 2.92188C7.19531 2.73958 7.30208 2.58073 7.4375 2.44531C7.57812 2.30469 7.73958 2.19531 7.92188 2.11719C8.10417 2.03906 8.29688 2 8.5 2C8.70312 2 8.89583 2.03906 9.07812 2.11719C9.26042 2.19531 9.41927 2.30469 9.55469 2.44531C9.69531 2.58073 9.80469 2.73958 9.88281 2.92188C9.96094 3.10417 10 3.29688 10 3.5V5.57812L12.9375 6.09375C13.2344 6.14583 13.5078 6.2474 13.7578 6.39844C14.013 6.54948 14.2318 6.73438 14.4141 6.95312C14.6016 7.17188 14.7474 7.41927 14.8516 7.69531C14.9557 7.96615 15.0078 8.2526 15.0078 8.55469C15.0078 8.84635 14.9557 9.13542 14.8516 9.42188L13.8672 12.0938C13.7109 12.5156 13.4635 12.8672 13.125 13.1484C12.7865 13.4297 12.3958 13.6094 11.9531 13.6875L10.4297 13.9531C10.3255 13.974 10.2083 13.9844 10.0781 13.9844C9.85938 13.9844 9.64844 13.9531 9.44531 13.8906C9.24219 13.8281 9.05208 13.7396 8.875 13.625C8.70312 13.5104 8.54167 13.3776 8.39062 13.2266C8.24479 13.0755 8.11458 12.9089 8 12.7266C7.77083 12.3672 7.51302 12.0443 7.22656 11.7578C6.94531 11.4714 6.63021 11.2057 6.28125 10.9609C6.05208 10.8047 5.82552 10.6745 5.60156 10.5703C5.3776 10.4661 5.15104 10.3802 4.92188 10.3125C4.69271 10.2396 4.45573 10.1797 4.21094 10.1328C3.96615 10.0859 3.71094 10.0417 3.44531 10C3.3099 9.97917 3.20052 9.92448 3.11719 9.83594C3.03906 9.7474 3 9.63542 3 9.5C3 9.46875 3.00521 9.42708 3.01562 9.375C3.08333 9.07292 3.19271 8.80469 3.34375 8.57031C3.3591 8.5465 3.37477 8.52306 3.39076 8.5ZM1 9.29289V2.77883L5.34594 7.48693C5.28232 7.48944 5.21951 7.4938 5.1575 7.5H3.04142C2.88229 7.5 2.72968 7.56321 2.61716 7.67574L1 9.29289ZM5.2261 8.5C5.05764 8.51995 4.90154 8.55901 4.75781 8.61719C4.53906 8.70573 4.35156 8.86719 4.19531 9.10156C5.19531 9.28385 6.08073 9.63021 6.85156 10.1406C7.6276 10.651 8.29167 11.3359 8.84375 12.1953C8.91146 12.2995 8.98958 12.3984 9.07812 12.4922C9.16667 12.5859 9.26562 12.6693 9.375 12.7422C9.48438 12.8151 9.59896 12.875 9.71875 12.9219C9.83854 12.9635 9.96354 12.9844 10.0938 12.9844H10.1797C10.2109 12.9792 10.2396 12.974 10.2656 12.9688L11.7812 12.7031C12.0469 12.6562 12.2812 12.5469 12.4844 12.375C12.6875 12.2031 12.8359 11.9922 12.9297 11.7422L13.9141 9.07812C13.9766 8.91667 14.0078 8.74479 14.0078 8.5625C14.0078 8.38021 13.9766 8.20833 13.9141 8.04688C13.8516 7.88021 13.7656 7.73177 13.6562 7.60156C13.5469 7.46615 13.4141 7.35417 13.2578 7.26562C13.1068 7.17188 12.9427 7.10938 12.7656 7.07812L9.41406 6.49219C9.29427 6.47135 9.19531 6.41406 9.11719 6.32031C9.03906 6.22656 9 6.11979 9 6V3.5C9 3.36458 8.95052 3.2474 8.85156 3.14844C8.7526 3.04948 8.63542 3 8.5 3C8.36458 3 8.2474 3.04948 8.14844 3.14844C8.04948 3.2474 8 3.36458 8 3.5V8.5C8 8.64062 7.95052 8.76042 7.85156 8.85938C7.75781 8.95312 7.64062 9 7.5 9C7.45312 9 7.41406 8.9974 7.38281 8.99219C7.35156 8.98177 7.3151 8.96615 7.27344 8.94531C6.99219 8.8151 6.70312 8.70573 6.40625 8.61719C6.21461 8.55901 6.01847 8.51995 5.81784 8.5H5.2261Z" />
</svg>
