<svg width="16" height="16" viewBox="0 0 16 16" xmlns="http://www.w3.org/2000/svg">
	<path d="M7.49372 1.11661C7.80585 0.933787 8.19239 0.933787 8.50452 1.11661L14.5134 4.63608C15.1737 5.02281 15.1727 5.97759 14.5116 6.36292L8.50268 9.86524C8.19148 10.0466 7.80676 10.0466 7.49555 9.86524L4.44456 8.08695C4.65404 7.82489 4.81231 7.52414 4.90529 7.19802L7.49555 8.70778C7.80676 8.88917 8.19148 8.88917 8.50268 8.70778L14.008 5.49896L8.50452 2.27551C8.19239 2.09269 7.80585 2.09269 7.49372 2.27551L3.85636 4.40595C3.82037 4.3814 3.78373 4.35765 3.74647 4.33473C3.90659 4.09611 4 3.80896 4 3.5C4 3.39111 3.98839 3.28492 3.96636 3.18262L7.49372 1.11661Z" />
	<path d="M4.83674 13.3156L7.49555 14.8653C7.80676 15.0467 8.19148 15.0467 8.50268 14.8653L14.5116 11.3629C14.9757 11.0924 15.1145 10.5412 14.9275 10.103L8.48949 13.7254C8.18502 13.8967 7.81322 13.8967 7.50875 13.7254L4.99137 12.309C4.99709 12.372 5 12.4357 5 12.5C5 12.7856 4.94254 13.0599 4.83674 13.3156Z" />
	<path d="M4.4613 10.6438L7.49555 12.4123C7.80676 12.5937 8.19148 12.5937 8.50268 12.4123L14.5116 8.91C14.9757 8.63948 15.1145 8.0883 14.9275 7.65004L8.48949 11.2725C8.18502 11.4438 7.81322 11.4438 7.50875 11.2725L4.95759 9.83701C4.8822 10.1332 4.70915 10.4072 4.4613 10.6438Z" />
	<path d="M3.00011 -0.500125C3.00011 -0.732013 2.84067 -0.933472 2.61499 -0.986749C2.38621 -1.04076 2.15942 -0.925231 2.05148 -0.721047C2.0295 -0.679155 2.00531 -0.638383 1.98053 -0.598111C1.92681 -0.510821 1.8447 -0.387507 1.73468 -0.249972C1.51178 0.028645 1.19011 0.345857 0.776503 0.552662C0.529514 0.676156 0.429401 0.976493 0.552896 1.22348C0.676391 1.47047 0.976727 1.57058 1.22372 1.44709C1.52353 1.29718 1.78202 1.11079 2.00011 0.918104V3.49988C2.00011 3.77602 2.22397 3.99988 2.50011 3.99988C2.77625 3.99988 3.00011 3.77602 3.00011 3.49988V-0.500125ZM0.646421 5.64639C0.451173 5.84166 0.451196 6.15825 0.646473 6.35349C0.840587 6.54758 1.15457 6.54871 1.35008 6.35691L1.35665 6.35089C1.36458 6.34379 1.37911 6.3312 1.39988 6.31488C1.44165 6.28204 1.50709 6.23533 1.59323 6.18792C1.76518 6.09329 2.01033 6.00073 2.31294 5.99988C2.54021 6.00441 2.72387 6.06465 2.83732 6.14866C2.93306 6.21956 3 6.31935 3 6.49997C3 6.70224 2.92979 6.8191 2.78928 6.93618C2.63792 7.06232 2.44136 7.15961 2.17109 7.29339C2.12524 7.31608 2.07662 7.34015 2.0264 7.36526C1.71266 7.52213 1.32368 7.72875 1.02065 8.06208C0.699189 8.41569 0.5 8.88078 0.5 9.49999C0.5 9.77614 0.723858 9.99999 1 9.99999H3.49944C3.77558 9.99999 4 9.77614 4 9.49999C4 9.22385 3.77614 8.99999 3.5 8.99999H1.58925C1.63458 8.89327 1.69413 8.80786 1.7606 8.73475C1.92632 8.55245 2.16234 8.41532 2.4736 8.25969C2.51206 8.24046 2.55257 8.22059 2.5946 8.19997C2.85655 8.07147 3.17854 7.91351 3.42947 7.7044C3.75771 7.43086 4 7.04771 4 6.49997C4 5.99553 3.77725 5.60036 3.43244 5.34502C3.10604 5.10332 2.69985 5.00626 2.32563 4.99995L2.31722 4.99988C1.80459 4.99985 1.39261 5.15689 1.11107 5.31184C0.970064 5.38944 0.859422 5.46775 0.781908 5.52868C0.743031 5.55924 0.712117 5.58572 0.689507 5.60596C0.67819 5.6161 0.668917 5.62471 0.661731 5.63152L0.652509 5.64038L0.649072 5.64375L0.647648 5.64516L0.646421 5.64639ZM0.661731 5.63152L0.646421 5.64639C0.646421 5.64639 0.747103 5.55664 0.661731 5.63152ZM2.25011 12.9999C1.97397 12.9999 1.75011 13.2237 1.75011 13.4999C1.75011 13.776 1.97397 13.9999 2.25011 13.9999C2.5929 13.9999 2.78233 14.0966 2.87775 14.183C2.97201 14.2683 3.01072 14.3743 3.00671 14.4811C2.99946 14.6746 2.82083 14.9999 2.25011 14.9999C1.8376 14.9999 1.62396 14.8982 1.52746 14.8339C1.4769 14.8001 1.44973 14.7709 1.43891 14.7579L1.43482 14.7528C1.30449 14.5231 1.01552 14.4332 0.776503 14.5527C0.529514 14.6762 0.429401 14.9765 0.552896 15.2235L0.55361 15.2249L0.554355 15.2264L0.555938 15.2295L0.559484 15.2362L0.56815 15.252C0.574647 15.2635 0.582617 15.2768 0.592216 15.2917C0.611411 15.3216 0.63716 15.3579 0.670686 15.3981C0.737992 15.4789 0.835816 15.5746 0.972759 15.6659C1.25126 15.8516 1.66262 15.9999 2.25011 15.9999C3.27939 15.9999 3.97576 15.3251 4.00601 14.5186C4.01979 14.1511 3.88798 13.7829 3.60959 13.4999C3.88798 13.2168 4.01979 12.8486 4.00601 12.4811C3.97576 11.6746 3.27939 10.9999 2.25011 10.9999C1.66262 10.9999 1.25126 11.1482 0.972759 11.3339C0.835816 11.4251 0.737992 11.5209 0.670686 11.6017C0.63716 11.6419 0.611411 11.6782 0.592216 11.708C0.582617 11.7229 0.574647 11.7363 0.56815 11.7478L0.559484 11.7635L0.555938 11.7703L0.554355 11.7734L0.55361 11.7748L0.552896 11.7763C0.429401 12.0233 0.529514 12.3236 0.776503 12.4471C1.01552 12.5666 1.30449 12.4767 1.43482 12.2469L1.43891 12.2418C1.44973 12.2289 1.4769 12.1996 1.52746 12.1659C1.62396 12.1016 1.8376 11.9999 2.25011 11.9999C2.82083 11.9999 2.99946 12.3251 3.00671 12.5186C3.01072 12.6254 2.97201 12.7314 2.87775 12.8168C2.78233 12.9032 2.5929 12.9999 2.25011 12.9999ZM1.43482 12.2469L1.43279 12.2497L1.43339 12.2488C1.43339 12.2488 1.43583 12.2449 1.43817 12.2408L1.44223 12.2334L1.44465 12.2287L1.44596 12.2262L1.44698 12.2242C1.44309 12.2319 1.43904 12.2395 1.43482 12.2469Z" />
</svg>
