<svg width="16" height="16" viewBox="0 0 16 16" xmlns="http://www.w3.org/2000/svg">
	<path d="M4 3.5V1.5C4 1.36458 4.04948 1.2474 4.14844 1.14844C4.2474 1.04948 4.36458 1 4.5 1C4.63542 1 4.7526 1.04948 4.85156 1.14844C4.95052 1.2474 5 1.36458 5 1.5V3.5C5 3.63542 4.95052 3.7526 4.85156 3.85156C4.7526 3.95052 4.63542 4 4.5 4C4.36458 4 4.2474 3.95052 4.14844 3.85156C4.04948 3.7526 4 3.63542 4 3.5ZM11 3.5V1.5C11 1.36458 11.0495 1.2474 11.1484 1.14844C11.2474 1.04948 11.3646 1 11.5 1C11.6354 1 11.7526 1.04948 11.8516 1.14844C11.9505 1.2474 12 1.36458 12 1.5V3.5C12 3.63542 11.9505 3.7526 11.8516 3.85156C11.7526 3.95052 11.6354 4 11.5 4C11.3646 4 11.2474 3.95052 11.1484 3.85156C11.0495 3.7526 11 3.63542 11 3.5ZM0 10.5V5.5C0 5.36458 0.0494792 5.2474 0.148438 5.14844C0.247396 5.04948 0.364583 5 0.5 5C0.635417 5 0.752604 5.04948 0.851562 5.14844C0.950521 5.2474 1 5.36458 1 5.5V10.5C1 10.6354 0.950521 10.7526 0.851562 10.8516C0.752604 10.9505 0.635417 11 0.5 11C0.364583 11 0.247396 10.9505 0.148438 10.8516C0.0494792 10.7526 0 10.6354 0 10.5ZM2 10.5V5.5C2 5.36458 2.04948 5.2474 2.14844 5.14844C2.2474 5.04948 2.36458 5 2.5 5C2.63542 5 2.7526 5.04948 2.85156 5.14844C2.95052 5.2474 3 5.36458 3 5.5V10.5C3 10.6354 2.95052 10.7526 2.85156 10.8516C2.7526 10.9505 2.63542 11 2.5 11C2.36458 11 2.2474 10.9505 2.14844 10.8516C2.04948 10.7526 2 10.6354 2 10.5ZM5.5 11C5.29688 11 5.10417 10.9609 4.92188 10.8828C4.73958 10.8047 4.57812 10.6979 4.4375 10.5625C4.30208 10.4219 4.19531 10.2604 4.11719 10.0781C4.03906 9.89583 4 9.70312 4 9.5V6.5C4 6.29688 4.03906 6.10417 4.11719 5.92188C4.19531 5.73958 4.30208 5.58073 4.4375 5.44531C4.57812 5.30469 4.73958 5.19531 4.92188 5.11719C5.10417 5.03906 5.29688 5 5.5 5H10.5C10.7031 5 10.8958 5.03906 11.0781 5.11719C11.2604 5.19531 11.4193 5.30469 11.5547 5.44531C11.6953 5.58073 11.8047 5.73958 11.8828 5.92188C11.9609 6.10417 12 6.29688 12 6.5V9.5C12 9.70312 11.9609 9.89583 11.8828 10.0781C11.8047 10.2604 11.6953 10.4219 11.5547 10.5625C11.4193 10.6979 11.2604 10.8047 11.0781 10.8828C10.8958 10.9609 10.7031 11 10.5 11H5.5ZM13 10.5V5.5C13 5.36458 13.0495 5.2474 13.1484 5.14844C13.2474 5.04948 13.3646 5 13.5 5C13.6354 5 13.7526 5.04948 13.8516 5.14844C13.9505 5.2474 14 5.36458 14 5.5V10.5C14 10.6354 13.9505 10.7526 13.8516 10.8516C13.7526 10.9505 13.6354 11 13.5 11C13.3646 11 13.2474 10.9505 13.1484 10.8516C13.0495 10.7526 13 10.6354 13 10.5ZM15 10.5V5.5C15 5.36458 15.0495 5.2474 15.1484 5.14844C15.2474 5.04948 15.3646 5 15.5 5C15.6354 5 15.7526 5.04948 15.8516 5.14844C15.9505 5.2474 16 5.36458 16 5.5V10.5C16 10.6354 15.9505 10.7526 15.8516 10.8516C15.7526 10.9505 15.6354 11 15.5 11C15.3646 11 15.2474 10.9505 15.1484 10.8516C15.0495 10.7526 15 10.6354 15 10.5ZM10.5 10C10.6354 10 10.7526 9.95052 10.8516 9.85156C10.9505 9.7526 11 9.63542 11 9.5V6.5C11 6.36458 10.9505 6.2474 10.8516 6.14844C10.7526 6.04948 10.6354 6 10.5 6H5.5C5.36458 6 5.2474 6.04948 5.14844 6.14844C5.04948 6.2474 5 6.36458 5 6.5V9.5C5 9.63542 5.04948 9.7526 5.14844 9.85156C5.2474 9.95052 5.36458 10 5.5 10H10.5ZM4 14.5V12.5C4 12.3646 4.04948 12.2474 4.14844 12.1484C4.2474 12.0495 4.36458 12 4.5 12C4.63542 12 4.7526 12.0495 4.85156 12.1484C4.95052 12.2474 5 12.3646 5 12.5V14.5C5 14.6354 4.95052 14.7526 4.85156 14.8516C4.7526 14.9505 4.63542 15 4.5 15C4.36458 15 4.2474 14.9505 4.14844 14.8516C4.04948 14.7526 4 14.6354 4 14.5ZM11 14.5V12.5C11 12.3646 11.0495 12.2474 11.1484 12.1484C11.2474 12.0495 11.3646 12 11.5 12C11.6354 12 11.7526 12.0495 11.8516 12.1484C11.9505 12.2474 12 12.3646 12 12.5V14.5C12 14.6354 11.9505 14.7526 11.8516 14.8516C11.7526 14.9505 11.6354 15 11.5 15C11.3646 15 11.2474 14.9505 11.1484 14.8516C11.0495 14.7526 11 14.6354 11 14.5Z" />
</svg>
