<svg width="16" height="16" viewBox="0 0 16 16" xmlns="http://www.w3.org/2000/svg">
	<path d="M7.64645 0.146447C7.84171 -0.0488155 8.15829 -0.0488155 8.35355 0.146447L10.8536 2.64645C11.0488 2.84171 11.0488 3.15829 10.8536 3.35355C10.6583 3.54882 10.3417 3.54882 10.1464 3.35355L8 1.20711L5.85355 3.35355C5.65829 3.54882 5.34171 3.54882 5.14645 3.35355C4.95118 3.15829 4.95118 2.84171 5.14645 2.64645L7.64645 0.146447Z" />
	<path d="M8.35355 15.8536L10.8536 13.3536C11.0488 13.1583 11.0488 12.8417 10.8536 12.6464C10.6583 12.4512 10.3417 12.4512 10.1464 12.6464L8 14.7929L5.85355 12.6464C5.65829 12.4512 5.34171 12.4512 5.14645 12.6464C4.95118 12.8417 4.95118 13.1583 5.14645 13.3536L7.64645 15.8536C7.84171 16.0488 8.15829 16.0488 8.35355 15.8536Z" />
	<path d="M0.146447 7.64645C-0.0488155 7.84171 -0.0488155 8.15829 0.146447 8.35355L2.64645 10.8536C2.84171 11.0488 3.15829 11.0488 3.35355 10.8536C3.54882 10.6583 3.54882 10.3417 3.35355 10.1464L1.20711 8L3.35355 5.85355C3.54882 5.65829 3.54882 5.34171 3.35355 5.14645C3.15829 4.95118 2.84171 4.95118 2.64645 5.14645L0.146447 7.64645Z" />
	<path d="M15.8536 7.64645L13.3536 5.14645C13.1583 4.95118 12.8417 4.95118 12.6464 5.14645C12.4512 5.34171 12.4512 5.65829 12.6464 5.85355L14.7929 8L12.6464 10.1464C12.4512 10.3417 12.4512 10.6583 12.6464 10.8536C12.8417 11.0488 13.1583 11.0488 13.3536 10.8536L15.8536 8.35355C16.0488 8.15829 16.0488 7.84171 15.8536 7.64645Z" />
	<path fill-rule="evenodd" clip-rule="evenodd" d="M11 8C11 9.65685 9.65685 11 8 11C6.34315 11 5 9.65685 5 8C5 6.34315 6.34315 5 8 5C9.65685 5 11 6.34315 11 8ZM10 8C10 9.10457 9.10457 10 8 10C6.89543 10 6 9.10457 6 8C6 6.89543 6.89543 6 8 6C9.10457 6 10 6.89543 10 8Z" />
</svg>
