<svg width="16" height="16" viewBox="0 0 16 16" xmlns="http://www.w3.org/2000/svg">
	<path d="M0 6.5V3.96094C0 3.70052 0.0520833 3.45312 0.15625 3.21875C0.265625 2.97917 0.408854 2.77083 0.585938 2.59375C0.768229 2.41146 0.976562 2.26823 1.21094 2.16406C1.45052 2.05469 1.70052 2 1.96094 2H2.25781C2.34635 2 2.4349 2.00521 2.52344 2.01562C2.61198 2.02604 2.6901 2.04948 2.75781 2.08594C2.83073 2.11719 2.88802 2.16667 2.92969 2.23438C2.97656 2.29688 3 2.38542 3 2.5C3 2.63542 2.95052 2.7526 2.85156 2.85156C2.7526 2.95052 2.63542 3 2.5 3H2.14844C1.98698 3 1.83594 3.01562 1.69531 3.04688C1.5599 3.07812 1.42448 3.16146 1.28906 3.29688C1.09635 3.48958 1 3.72396 1 4V6.5C1 6.63542 0.950521 6.7526 0.851562 6.85156C0.752604 6.95052 0.635417 7 0.5 7C0.364583 7 0.247396 6.95052 0.148438 6.85156C0.0494792 6.7526 0 6.63542 0 6.5ZM5.5 14C5.29688 14 5.10417 13.9609 4.92188 13.8828C4.73958 13.8047 4.57812 13.6979 4.4375 13.5625C4.30208 13.4219 4.19531 13.2604 4.11719 13.0781C4.03906 12.8958 4 12.7031 4 12.5V3.5C4 3.29688 4.03906 3.10417 4.11719 2.92188C4.19531 2.73958 4.30208 2.58073 4.4375 2.44531C4.57812 2.30469 4.73958 2.19531 4.92188 2.11719C5.10417 2.03906 5.29688 2 5.5 2H10.5C10.7031 2 10.8958 2.03906 11.0781 2.11719C11.2604 2.19531 11.4193 2.30469 11.5547 2.44531C11.6953 2.58073 11.8047 2.73958 11.8828 2.92188C11.9609 3.10417 12 3.29688 12 3.5V12.5C12 12.7031 11.9609 12.8958 11.8828 13.0781C11.8047 13.2604 11.6953 13.4219 11.5547 13.5625C11.4193 13.6979 11.2604 13.8047 11.0781 13.8828C10.8958 13.9609 10.7031 14 10.5 14H5.5ZM13 2.5C13 2.36458 13.0495 2.2474 13.1484 2.14844C13.2474 2.04948 13.3646 2 13.5 2H14.0391C14.2995 2 14.5469 2.05469 14.7812 2.16406C15.0208 2.26823 15.2292 2.41146 15.4062 2.59375C15.5885 2.77083 15.7318 2.97917 15.8359 3.21875C15.9453 3.45312 16 3.70052 16 3.96094V6.5C16 6.63542 15.9505 6.7526 15.8516 6.85156C15.7526 6.95052 15.6354 7 15.5 7C15.3646 7 15.2474 6.95052 15.1484 6.85156C15.0495 6.7526 15 6.63542 15 6.5V4C15 3.86458 14.974 3.73698 14.9219 3.61719C14.8698 3.4974 14.7969 3.39062 14.7031 3.29688C14.5677 3.16146 14.4297 3.07812 14.2891 3.04688C14.1536 3.01562 14.0078 3 13.8516 3H13.5C13.3646 3 13.2474 2.95052 13.1484 2.85156C13.0495 2.7526 13 2.63542 13 2.5ZM10.5 13C10.6354 13 10.7526 12.9505 10.8516 12.8516C10.9505 12.7526 11 12.6354 11 12.5V3.5C11 3.36458 10.9505 3.2474 10.8516 3.14844C10.7526 3.04948 10.6354 3 10.5 3H5.5C5.36458 3 5.2474 3.04948 5.14844 3.14844C5.04948 3.2474 5 3.36458 5 3.5V12.5C5 12.6354 5.04948 12.7526 5.14844 12.8516C5.2474 12.9505 5.36458 13 5.5 13H10.5ZM1.96094 14C1.70052 14 1.45052 13.9479 1.21094 13.8438C0.976562 13.7344 0.768229 13.5911 0.585938 13.4141C0.408854 13.2318 0.265625 13.0234 0.15625 12.7891C0.0520833 12.5495 0 12.2995 0 12.0391V9.5C0 9.36458 0.0494792 9.2474 0.148438 9.14844C0.247396 9.04948 0.364583 9 0.5 9C0.635417 9 0.752604 9.04948 0.851562 9.14844C0.950521 9.2474 1 9.36458 1 9.5V12C1 12.2812 1.09635 12.5182 1.28906 12.7109C1.41927 12.8411 1.55469 12.9245 1.69531 12.9609C1.84115 12.9922 1.99219 13.0078 2.14844 13.0078C2.20573 13.0078 2.26302 13.0078 2.32031 13.0078C2.3776 13.0026 2.4375 13 2.5 13C2.63542 13 2.7526 13.0495 2.85156 13.1484C2.95052 13.2474 3 13.3646 3 13.5C3 13.6354 2.95052 13.7526 2.85156 13.8516C2.7526 13.9505 2.63542 14 2.5 14H1.96094ZM13 13.5C13 13.3646 13.0495 13.2474 13.1484 13.1484C13.2474 13.0495 13.3646 13 13.5 13C13.5625 13 13.6224 13.0026 13.6797 13.0078C13.737 13.0078 13.7943 13.0078 13.8516 13.0078C14.0078 13.0078 14.1562 12.9922 14.2969 12.9609C14.4375 12.9245 14.5729 12.8411 14.7031 12.7109C14.901 12.513 15 12.276 15 12V9.5C15 9.36458 15.0495 9.2474 15.1484 9.14844C15.2474 9.04948 15.3646 9 15.5 9C15.6354 9 15.7526 9.04948 15.8516 9.14844C15.9505 9.2474 16 9.36458 16 9.5V12.0391C16 12.2995 15.9453 12.5495 15.8359 12.7891C15.7318 13.0234 15.5885 13.2318 15.4062 13.4141C15.2292 13.5911 15.0208 13.7344 14.7812 13.8438C14.5469 13.9479 14.2995 14 14.0391 14C13.9974 14 13.9505 14.0026 13.8984 14.0078C13.8516 14.0078 13.7995 14.0078 13.7422 14.0078C13.6536 14.0078 13.5651 14.0026 13.4766 13.9922C13.388 13.9818 13.3073 13.9609 13.2344 13.9297C13.1667 13.8932 13.1094 13.8411 13.0625 13.7734C13.0208 13.7057 13 13.6146 13 13.5Z" />
</svg>
