<svg width="16" height="16" viewBox="0 0 16 16" xmlns="http://www.w3.org/2000/svg">
	<path d="M8.5 0.5C8.5 0.223858 8.27614 0 8 0C7.72386 0 7.5 0.223858 7.5 0.5V15.5C7.5 15.7761 7.72386 16 8 16C8.27614 16 8.5 15.7761 8.5 15.5V0.5Z" />
	<path d="M2 3C1.44772 3 1 3.44772 1 4V12C1 12.5527 1.44715 13 1.999 13H6C6.27614 13 6.5 13.2239 6.5 13.5C6.5 13.7761 6.27614 14 6 14H1.999C0.893992 14 0 13.1041 0 12V4C0 2.89543 0.895431 2 2 2H6C6.27614 2 6.5 2.22386 6.5 2.5C6.5 2.77614 6.27614 3 6 3H2Z" />
	<path d="M9.5 2.5C9.5 2.22386 9.72386 2 10 2H11.5C11.7761 2 12 2.22386 12 2.5C12 2.77614 11.7761 3 11.5 3H10C9.72386 3 9.5 2.77614 9.5 2.5Z" />
	<path d="M9.5 13.5C9.5 13.2239 9.72386 13 10 13H11.5C11.7761 13 12 13.2239 12 13.5C12 13.7761 11.7761 14 11.5 14H10C9.72386 14 9.5 13.7761 9.5 13.5Z" />
	<path d="M16 6.5C16 6.22386 15.7761 6 15.5 6C15.2239 6 15 6.22386 15 6.5V9.5C15 9.77614 15.2239 10 15.5 10C15.7761 10 16 9.77614 16 9.5V6.5Z" />
	<path d="M13 2.5C13 2.22386 13.2239 2 13.5 2H14C15.1046 2 16 2.89543 16 4V4.5C16 4.77614 15.7761 5 15.5 5C15.2239 5 15 4.77614 15 4.5V4C15 3.44772 14.5523 3 14 3H13.5C13.2239 3 13 2.77614 13 2.5Z" />
	<path d="M13.5 14C13.2239 14 13 13.7761 13 13.5C13 13.2239 13.2239 13 13.5 13H14C14.5523 13 15 12.5523 15 12V11.5C15 11.2239 15.2239 11 15.5 11C15.7761 11 16 11.2239 16 11.5V12C16 13.1046 15.1046 14 14 14H13.5Z" />
</svg>
