<svg width="16" height="16" viewBox="0 0 16 16" xmlns="http://www.w3.org/2000/svg">
	<path fill-rule="evenodd" clip-rule="evenodd" d="M6 0C6.27614 0 6.5 0.223858 6.5 0.5V8.9334C6.64414 9.42037 7.11333 10 8 10C8.88667 10 9.35586 9.42037 9.5 8.9334V0.5C9.5 0.223858 9.72386 0 10 0C10.2761 0 10.5 0.223858 10.5 0.5V9.06155L10.4851 9.12127C10.3009 9.85788 9.66126 10.7545 8.5 10.9577V13.0854C9.0826 13.2913 9.5 13.8469 9.5 14.5C9.5 15.3284 8.82843 16 8 16C7.17157 16 6.5 15.3284 6.5 14.5C6.5 13.8469 6.9174 13.2913 7.5 13.0854V10.9577C6.33874 10.7545 5.69908 9.85788 5.51493 9.12127L5.5 9.06155V0.5C5.5 0.223858 5.72386 0 6 0ZM8 14C7.72386 14 7.5 14.2239 7.5 14.5C7.5 14.7761 7.72386 15 8 15C8.27614 15 8.5 14.7761 8.5 14.5C8.5 14.2239 8.27614 14 8 14Z" />
</svg>
