<svg width="16" height="16" viewBox="0 0 16 16" xmlns="http://www.w3.org/2000/svg">
	<path fill-rule="evenodd" clip-rule="evenodd" d="M1 0C1.27614 0 1.5 0.223858 1.5 0.5V8.9334C1.64414 9.42037 2.11333 10 3 10C3.88667 10 4.35586 9.42037 4.5 8.9334V0.5C4.5 0.223858 4.72386 0 5 0C5.27614 0 5.5 0.223858 5.5 0.5V9.06155L5.48507 9.12127C5.30092 9.85788 4.66126 10.7545 3.5 10.9577V13.0854C4.0826 13.2913 4.5 13.8469 4.5 14.5C4.5 15.3284 3.82843 16 3 16C2.17157 16 1.5 15.3284 1.5 14.5C1.5 13.8469 1.9174 13.2913 2.5 13.0854V10.9577C1.33874 10.7545 0.699082 9.85788 0.514929 9.12127L0.5 9.06155V0.5C0.5 0.223858 0.723858 0 1 0ZM3 14C2.72386 14 2.5 14.2239 2.5 14.5C2.5 14.7761 2.72386 15 3 15C3.27614 15 3.5 14.7761 3.5 14.5C3.5 14.2239 3.27614 14 3 14Z" />
	<path d="M13.1021 6.76585C13.3631 6.50482 13.2582 6.06644 12.8916 6.02374C11.8603 5.90365 10.7861 6.23917 9.99496 7.0303C9.00271 8.02255 8.72716 9.46009 9.16831 10.6997L6.44156 13.4264C5.85281 14.0152 5.85281 14.9697 6.44156 15.5584C7.0303 16.1472 7.98484 16.1472 8.57359 15.5584L11.3003 12.8317C12.5399 13.2728 13.9775 12.9973 14.9697 12.005C15.7608 11.2139 16.0964 10.1397 15.9763 9.10845C15.9336 8.74177 15.4952 8.63685 15.2341 8.89788L14.259 9.87301C13.6703 10.4618 12.7157 10.4618 12.127 9.87301C11.5382 9.28427 11.5382 8.32972 12.127 7.74098L13.1021 6.76585Z" />
</svg>
