<svg width="16" height="16" viewBox="0 0 16 16" xmlns="http://www.w3.org/2000/svg">
	<path d="M12 1C13.6569 1 15 2.34315 15 4V12C15 13.6569 13.6569 15 12 15H11.25C10.9739 15 10.75 14.7761 10.75 14.5C10.75 14.2239 10.9739 14 11.25 14H12C13.1046 14 14 13.1046 14 12V4C14 2.89543 13.1046 2 12 2H11.25C10.9739 2 10.75 1.77614 10.75 1.5C10.75 1.22386 10.9739 1 11.25 1H12Z" />
	<path d="M4.5 1C4.77614 1 5 1.22386 5 1.5V5C4.61612 5 4.23223 5.14645 3.93934 5.43934L2.43934 6.93934C1.85355 7.52513 1.85355 8.47487 2.43934 9.06066L3.93934 10.5607C4.23223 10.8536 4.61612 11 5 11V14.5C5 14.7761 4.77614 15 4.5 15H3.5C2.11929 15 1 13.8807 1 12.5V3.5C1 2.11929 2.11929 1 3.5 1H4.5Z" />
	<path d="M6 5.38191C6.02062 5.40038 6.04085 5.41953 6.06066 5.43934C6.35355 5.73223 6.5 6.11612 6.5 6.5H7.5C8.32843 6.5 9 7.17157 9 8C9 8.82843 8.32843 9.5 7.5 9.5H6.5C6.5 9.88388 6.35355 10.2678 6.06066 10.5607C6.04085 10.5805 6.02062 10.5996 6 10.6181V14.5C6 14.7761 6.22386 15 6.5 15H9.5C9.77614 15 10 14.7761 10 14.5V1.5C10 1.22386 9.77614 1 9.5 1H6.5C6.22386 1 6 1.22386 6 1.5V5.38191Z" />
	<path fill-rule="evenodd" clip-rule="evenodd" d="M5.35355 6.14645C5.15829 5.95118 4.84171 5.95118 4.64645 6.14645L3.14645 7.64645C2.95118 7.84171 2.95118 8.15829 3.14645 8.35355L4.64645 9.85355C4.84171 10.0488 5.15829 10.0488 5.35355 9.85355C5.54882 9.65829 5.54882 9.34171 5.35355 9.14645L4.70711 8.5H7.5C7.77614 8.5 8 8.27614 8 8C8 7.72386 7.77614 7.5 7.5 7.5H4.70711L5.35355 6.85355C5.54882 6.65829 5.54882 6.34171 5.35355 6.14645Z" />
</svg>
