<svg width="16" height="16" viewBox="0 0 16 16" xmlns="http://www.w3.org/2000/svg">
	<path fill-rule="evenodd" clip-rule="evenodd" d="M11 2H5V14H6.59971C6.78261 14.3578 7.00353 14.6929 7.25716 15H4C2.34315 15 1 13.6569 1 12V4C1 2.34315 2.34315 1 4 1H12C13.6569 1 15 2.34315 15 4V7.25716C14.6929 7.00353 14.3578 6.78261 14 6.59971V4C14 2.89543 13.1046 2 12 2V6.02242C11.8353 6.00758 11.6685 6 11.5 6C11.3315 6 11.1647 6.00758 11 6.02242V2ZM2 4C2 2.89543 2.89543 2 4 2L4 14C2.89543 14 2 13.1046 2 12V4Z" />
	<path fill-rule="evenodd" clip-rule="evenodd" d="M11.5 7C9.01472 7 7 9.01472 7 11.5C7 13.9853 9.01472 16 11.5 16C13.9853 16 16 13.9853 16 11.5C16 9.01472 13.9853 7 11.5 7ZM11.4999 13.3804C11.8448 13.3804 12.1244 13.66 12.1244 14.0049C12.1244 14.3498 11.8448 14.6294 11.4999 14.6294C11.155 14.6294 10.8754 14.3498 10.8754 14.0049C10.8754 13.66 11.155 13.3804 11.4999 13.3804ZM11.5 8.50345C12.531 8.50345 13.3534 9.34924 13.3534 10.4529C13.3534 11.0387 13.1391 11.3607 12.6257 11.7715L12.3487 11.9858C12.103 12.1804 12.0202 12.2863 12.0034 12.4341L11.9919 12.5902C11.9495 12.8234 11.7454 13.0003 11.4999 13.0003C11.2238 13.0003 10.9999 12.7764 10.9999 12.5003C11 11.9294 11.2099 11.6161 11.7157 11.2118L11.9937 10.9968C12.2822 10.7679 12.3534 10.6547 12.3534 10.4529C12.3534 9.89534 11.9723 9.50345 11.5 9.50345C11.0062 9.50345 10.641 9.86913 10.6465 10.4481C10.6492 10.7243 10.4275 10.9503 10.1514 10.9529C9.87524 10.9556 9.64924 10.7339 9.64659 10.4577C9.63568 9.32084 10.452 8.50345 11.5 8.50345Z" />
</svg>
