<svg width="16" height="16" viewBox="0 0 16 16" xmlns="http://www.w3.org/2000/svg">
	<path fill-rule="evenodd" clip-rule="evenodd" d="M4.5 1C4.7144 1 4.89729 1.13495 4.96835 1.32454L4.96966 1.32808C4.98929 1.38169 5 1.43959 5 1.5V14.5C5 14.7761 4.77614 15 4.5 15H3.5C3.43292 15 3.36646 14.9974 3.30072 14.9922C2.86704 14.958 2.4645 14.8131 2.12131 14.5858C2.11493 14.5816 2.10857 14.5773 2.10223 14.573C1.82989 14.389 1.59575 14.1528 1.4142 13.8787C1.1869 13.5355 1.04203 13.133 1.00783 12.6993C1.00764 12.697 1.00747 12.6947 1.00729 12.6924C1.00246 12.6289 1 12.5647 1 12.5V3.5C1 2.11929 2.11929 1 3.5 1H4.5ZM2 5.70711V7.29289L4 5.29289V3.70711L2 5.70711ZM4 2.29289L2 4.29289V3.5C2 2.67157 2.67157 2 3.5 2H4V2.29289ZM4 6.70711L2 8.70711V10.2929L4 8.29289V6.70711ZM4 9.70711L2 11.7071V12.5C2 12.7316 2.05248 12.9509 2.14619 13.1467L4 11.2929V9.70711ZM4 12.7071L2.85329 13.8538C3.04911 13.9475 3.26843 14 3.5 14H4V12.7071Z" />
	<path fill-rule="evenodd" clip-rule="evenodd" d="M12.6924 1.00729C12.6289 1.00246 12.5647 1 12.5 1H11.5C11.2239 1 11 1.22386 11 1.5V14.5C11 14.5617 11.0112 14.6209 11.0317 14.6755C11.1027 14.865 11.2856 15 11.5 15H12.5C13.8807 15 15 13.8807 15 12.5V3.5C15 3.43292 14.9974 3.36646 14.9922 3.30072C14.958 2.86704 14.8131 2.4645 14.5858 2.12131C14.5816 2.11492 14.5773 2.10857 14.573 2.10223C14.389 1.82989 14.1528 1.59575 13.8787 1.4142C13.5355 1.1869 13.133 1.04203 12.6993 1.00783C12.697 1.00764 12.6947 1.00747 12.6924 1.00729ZM13.1467 2.14619C12.9509 2.05248 12.7316 2 12.5 2H12V3.29289L13.1467 2.14619ZM12 4.70711V6.29289L14 4.29289V3.5C14 3.26843 13.9475 3.04911 13.8538 2.85329L12 4.70711ZM14 5.70711L12 7.70711V9.29289L14 7.29289V5.70711ZM14 8.70711L12 10.7071V12.2929L14 10.2929V8.70711ZM14 11.7071L12 13.7071V14H12.5C13.3284 14 14 13.3284 14 12.5V11.7071Z" />
	<path fill-rule="evenodd" clip-rule="evenodd" d="M6.5 1C6.22386 1 6 1.22386 6 1.5V14.5C6 14.7144 6.13495 14.8973 6.32454 14.9683L6.32808 14.9697C6.38169 14.9893 6.43959 15 6.5 15H9.5C9.77614 15 10 14.7761 10 14.5V1.5C10 1.2856 9.86505 1.10271 9.67546 1.03165L9.67192 1.03034C9.61831 1.01071 9.56041 1 9.5 1H6.5ZM7.29289 2H7V2.29289L7.29289 2ZM7 3.70711V5.29289L9 3.29289V2H8.70711L7 3.70711ZM9 4.70711L7 6.70711V8.29289L9 6.29289V4.70711ZM9 7.70711L7 9.70711V11.2929L9 9.29289V7.70711ZM9 10.7071L7 12.7071V14H7.29289L9 12.2929V10.7071ZM9 13.7071L8.70711 14H9V13.7071Z" />
</svg>
