<svg width="16" height="16" viewBox="0 0 16 16" xmlns="http://www.w3.org/2000/svg">
	<path d="M4 1C2.34315 1 1 2.34315 1 4V12C1 13.6569 2.34315 15 4 15H4.75C5.02614 15 5.25 14.7761 5.25 14.5C5.25 14.2239 5.02614 14 4.75 14H4C2.89543 14 2 13.1046 2 12V4C2 2.89543 2.89543 2 4 2H4.75C5.02614 2 5.25 1.77614 5.25 1.5C5.25 1.22386 5.02614 1 4.75 1H4Z" />
	<path d="M11.5 1C11.2239 1 11 1.22386 11 1.5V5C11.3839 5 11.7678 5.14645 12.0607 5.43934L13.5607 6.93934C14.1464 7.52513 14.1464 8.47487 13.5607 9.06066L12.0607 10.5607C11.7678 10.8536 11.3839 11 11 11V14.5C11 14.7761 11.2239 15 11.5 15H12.5C13.8807 15 15 13.8807 15 12.5V3.5C15 2.11929 13.8807 1 12.5 1H11.5Z" />
	<path d="M10 5.38191C9.97938 5.40038 9.95915 5.41953 9.93934 5.43934C9.64645 5.73223 9.5 6.11612 9.5 6.5H8.5C7.67157 6.5 7 7.17157 7 8C7 8.82843 7.67157 9.5 8.5 9.5H9.5C9.5 9.88388 9.64645 10.2678 9.93934 10.5607C9.95915 10.5805 9.97938 10.5996 10 10.6181V14.5C10 14.7761 9.77614 15 9.5 15H6.5C6.22386 15 6 14.7761 6 14.5V1.5C6 1.22386 6.22386 1 6.5 1H9.5C9.77614 1 10 1.22386 10 1.5V5.38191Z" />
	<path fill-rule="evenodd" clip-rule="evenodd" d="M10.6464 6.14645C10.8417 5.95118 11.1583 5.95118 11.3536 6.14645L12.8536 7.64645C13.0488 7.84171 13.0488 8.15829 12.8536 8.35355L11.3536 9.85355C11.1583 10.0488 10.8417 10.0488 10.6464 9.85355C10.4512 9.65829 10.4512 9.34171 10.6464 9.14645L11.2929 8.5H8.5C8.22386 8.5 8 8.27614 8 8C8 7.72386 8.22386 7.5 8.5 7.5H11.2929L10.6464 6.85355C10.4512 6.65829 10.4512 6.34171 10.6464 6.14645Z" />
</svg>
