<svg width="16" height="16" viewBox="0 0 16 16" xmlns="http://www.w3.org/2000/svg">
	<path d="M4 1C3.72386 1 3.5 1.22386 3.5 1.5C3.5 1.77614 3.72386 2 4 2H5C5.27614 2 5.5 1.77614 5.5 1.5C5.5 1.22386 5.27614 1 5 1H4Z" />
	<path d="M9 1C8.72386 1 8.5 1.22386 8.5 1.5C8.5 1.77614 8.72386 2 9 2H10C10.2761 2 10.5 1.77614 10.5 1.5C10.5 1.22386 10.2761 1 10 1H9Z" />
	<path d="M4 14C3.72386 14 3.5 14.2239 3.5 14.5C3.5 14.7761 3.72386 15 4 15H5C5.27614 15 5.5 14.7761 5.5 14.5C5.5 14.2239 5.27614 14 5 14H4Z" />
	<path d="M9 14C8.72386 14 8.5 14.2239 8.5 14.5C8.5 14.7761 8.72386 15 9 15H10C10.2761 15 10.5 14.7761 10.5 14.5C10.5 14.2239 10.2761 14 10 14H9Z" />
	<path d="M14.4 2.19971C14.2341 1.97892 13.9207 1.93437 13.6999 2.10022C13.4791 2.26606 13.4346 2.57949 13.6004 2.80029C13.8514 3.13451 14 3.54918 14 4V12C14 12.4508 13.8514 12.8655 13.6004 13.1997C13.4346 13.4205 13.4791 13.7339 13.6999 13.8998C13.9207 14.0656 14.2341 14.0211 14.4 13.8003C14.7766 13.2988 15 12.6748 15 12V4C15 3.32521 14.7766 2.70115 14.4 2.19971Z" />
	<path d="M3 1.5C3 1.22386 2.77267 0.993587 2.50506 1.06171C1.63988 1.28197 1 2.06626 1 3V13C1 13.9337 1.63988 14.718 2.50506 14.9383C2.77267 15.0064 3 14.7761 3 14.5V1.5Z" />
	<path d="M7.5 1C7.77614 1 8 1.22386 8 1.5V3.51067C7.91729 3.5036 7.8339 3.5 7.75001 3.5C7.10843 3.5 6.49562 3.71057 6 4.07526V1.5C6 1.22386 6.22386 1 6.5 1H7.5Z" />
	<path d="M6 12.0008V14.5C6 14.7761 6.22386 15 6.5 15H7.5C7.77614 15 8 14.7761 8 14.5V12.4913C7.91724 12.4976 7.83386 12.5008 7.75 12.5008C7.11807 12.5008 6.51305 12.3197 6 12.0008Z" />
	<path d="M11 14.5C11 14.7761 11.2239 15 11.5 15H12C12.5523 15 13 14.5523 13 14V2C13 1.44772 12.5523 1 12 1H11.5C11.2239 1 11 1.22386 11 1.5V14.5Z" />
	<path fill-rule="evenodd" clip-rule="evenodd" d="M7.75001 4.5C6.72387 4.5 5.85001 5.29824 5.85001 6.3335C5.85001 6.83665 6.05642 7.28381 6.38641 7.61056C5.85131 8.00267 5.5 8.62193 5.5 9.33388C5.5 10.5533 6.53057 11.5008 7.75 11.5008C8.96943 11.5008 10 10.5533 10 9.33388C10 8.62194 9.64869 8.00268 9.1136 7.61057C9.44359 7.28382 9.65001 6.83665 9.65001 6.3335C9.65001 5.29824 8.77614 4.5 7.75001 4.5ZM6.85001 6.3335C6.85001 5.89582 7.22974 5.5 7.75001 5.5C8.27027 5.5 8.65001 5.89582 8.65001 6.3335C8.65001 6.77118 8.27027 7.167 7.75001 7.167C7.22974 7.167 6.85001 6.77118 6.85001 6.3335ZM6.5 9.33388C6.5 8.71209 7.03644 8.16701 7.75 8.16701C8.46356 8.16701 9 8.71209 9 9.33388C9 9.95568 8.46356 10.5008 7.75 10.5008C7.03644 10.5008 6.5 9.95568 6.5 9.33388Z" />
</svg>
