<svg width="16" height="16" viewBox="0 0 16 16" xmlns="http://www.w3.org/2000/svg">
	<path fill-rule="evenodd" clip-rule="evenodd" d="M8.19723 0.0373802C7.85031 -0.0682018 7.5 0.191359 7.5 0.553984V8.20236C7.03542 7.82392 6.44271 7.59705 5.79706 7.59705C4.3059 7.59705 3.09706 8.8072 3.09706 10.3C3.09706 11.7928 4.3059 13.0029 5.79706 13.0029C7.26812 13.0029 8.4644 11.8252 8.49641 10.3602C8.49878 10.3405 8.5 10.3204 8.5 10.3V4.37698L13.0012 5.76196C13.3471 5.86839 13.7 5.61063 13.7 5.24591V3.3C13.7 3.11917 13.671 2.90186 13.6198 2.68799C13.4989 2.18385 13.181 1.83634 12.8243 1.59667C12.4765 1.36301 12.0691 1.21578 11.7133 1.10748L8.19723 0.0373802ZM12.7 4.62302L8.5 3.33071V1.17482L11.4221 2.06415C11.6781 2.14207 11.9107 2.22728 12.1054 2.33071C12.2474 2.43335 12.3854 2.54136 12.5193 2.65472C12.582 2.73616 12.624 2.824 12.6473 2.92106C12.6847 3.07697 12.7 3.21456 12.7 3.3V4.62302ZM5.79706 12.0029C6.73492 12.0029 7.49707 11.2415 7.49707 10.3C7.49707 9.35846 6.73492 8.59705 5.79706 8.59705C4.85921 8.59705 4.09706 9.35846 4.09706 10.3C4.09706 11.2415 4.85921 12.0029 5.79706 12.0029Z" />
	<path d="M6.49997 0.140891C6.28927 0.181502 6.08095 0.230892 5.875 0.289061C5.19271 0.476561 4.55469 0.744791 3.96094 1.09375C3.36719 1.44271 2.82552 1.86198 2.33594 2.35156C1.85156 2.83594 1.4349 3.375 1.08594 3.96875C0.742188 4.5625 0.473958 5.20312 0.28125 5.89062C0.09375 6.57292 0 7.28125 0 8.01562C0 8.66667 0.078125 9.30469 0.234375 9.92969C0.390625 10.5547 0.622396 11.1536 0.929688 11.7266C0.809896 12.2214 0.684896 12.7109 0.554688 13.1953C0.424479 13.6797 0.299479 14.1693 0.179688 14.6641C0.148438 14.7943 0.109375 14.9323 0.0625 15.0781C0.0208333 15.224 0 15.3646 0 15.5C0 15.6406 0.046875 15.7604 0.140625 15.8594C0.239583 15.9531 0.359375 16 0.5 16C0.526042 16 0.565104 15.9948 0.617188 15.9844L4.33594 15.1094C4.90885 15.4062 5.50781 15.6302 6.13281 15.7812C6.75781 15.9271 7.39323 16 8.03906 16C8.77344 16 9.47917 15.9036 10.1562 15.7109C10.8333 15.5182 11.4661 15.2474 12.0547 14.8984C12.6484 14.5495 13.1875 14.1302 13.6719 13.6406C14.1562 13.151 14.5703 12.6094 14.9141 12.0156C15.2578 11.4219 15.5234 10.7865 15.7109 10.1094C15.9036 9.42708 16 8.72135 16 7.99219C16 7.25781 15.9036 6.55208 15.7109 5.875C15.5234 5.19271 15.2552 4.55469 14.9062 3.96094C14.84 3.84827 14.7712 3.73756 14.7 3.62883V5.9612C14.7173 6.01802 14.734 6.07522 14.75 6.13281C14.9167 6.72656 15 7.34635 15 7.99219C15 8.63802 14.9167 9.26042 14.75 9.85938C14.5833 10.4583 14.3464 11.0182 14.0391 11.5391C13.737 12.0599 13.3698 12.5339 12.9375 12.9609C12.5104 13.3828 12.0365 13.7448 11.5156 14.0469C10.9948 14.349 10.4349 14.5833 9.83594 14.75C9.23698 14.9167 8.61458 15 7.96875 15C7.65104 15 7.35156 14.9792 7.07031 14.9375C6.78906 14.8958 6.51562 14.8385 6.25 14.7656C5.98438 14.6927 5.71875 14.6042 5.45312 14.5C5.19271 14.3906 4.92188 14.2708 4.64062 14.1406C4.59896 14.125 4.5599 14.112 4.52344 14.1016C4.48698 14.0859 4.44792 14.0781 4.40625 14.0781C4.22396 14.0781 4.03646 14.1068 3.84375 14.1641C3.65104 14.2214 3.46615 14.2708 3.28906 14.3125C2.9349 14.401 2.58333 14.487 2.23438 14.5703C1.89062 14.6536 1.54167 14.737 1.1875 14.8203C1.20833 14.737 1.24219 14.6094 1.28906 14.4375C1.33594 14.2604 1.38802 14.0651 1.44531 13.8516C1.5026 13.638 1.5599 13.4141 1.61719 13.1797C1.67969 12.9453 1.73698 12.7266 1.78906 12.5234C1.84115 12.3203 1.88281 12.1406 1.91406 11.9844C1.94531 11.8281 1.96094 11.7214 1.96094 11.6641C1.96094 11.5859 1.9401 11.5052 1.89844 11.4219C1.75781 11.125 1.63281 10.8411 1.52344 10.5703C1.41406 10.2995 1.32031 10.0286 1.24219 9.75781C1.16406 9.48177 1.10417 9.20052 1.0625 8.91406C1.02083 8.6276 1 8.3151 1 7.97656C1 7.33594 1.08333 6.71875 1.25 6.125C1.41667 5.52604 1.65104 4.96875 1.95312 4.45312C2.26042 3.9375 2.625 3.46875 3.04688 3.04688C3.47396 2.61979 3.94531 2.25521 4.46094 1.95312C4.98177 1.65104 5.53906 1.41667 6.13281 1.25C6.25434 1.21618 6.37673 1.1858 6.49997 1.15884V0.140891Z" />
</svg>
