<svg width="16" height="16" viewBox="0 0 16 16" xmlns="http://www.w3.org/2000/svg">
	<path d="M16 11.5C16 13.9854 13.9853 16 11.5 16C9.01471 16 7 13.9854 7 11.5C7 9.01465 9.01471 7 11.5 7C13.9853 7 16 9.01465 16 11.5ZM11.0201 9.53394C10.9421 9.48096 10.8556 9.45459 10.7607 9.45459C10.6946 9.45459 10.6319 9.46875 10.5725 9.49683C10.5132 9.52344 10.4615 9.55957 10.4174 9.60547C10.3733 9.65137 10.3377 9.70508 10.3106 9.76685C10.2852 9.82861 10.2725 9.8938 10.2725 9.96265V13.0374C10.2725 13.1045 10.2852 13.1689 10.3106 13.2307C10.3377 13.2922 10.3733 13.3469 10.4174 13.3948C10.4632 13.4404 10.5157 13.4775 10.5751 13.5059C10.6344 13.5322 10.6963 13.5454 10.7607 13.5454C10.8099 13.5454 10.8556 13.5383 10.898 13.5244C10.9103 13.5205 10.9225 13.5161 10.9346 13.511C10.9661 13.498 10.9971 13.4812 11.0277 13.4609L13.3239 11.8943C13.3756 11.8601 13.4189 11.8174 13.4536 11.7656C13.4657 11.7478 13.4767 11.729 13.4867 11.709C13.5257 11.6313 13.5452 11.5503 13.5452 11.4656C13.5452 11.3774 13.5248 11.2964 13.4842 11.2222C13.4435 11.1462 13.3875 11.0854 13.3163 11.0396L11.0201 9.53394Z" />
	<path d="M6.36804 13.4822C5.9706 13.7404 5.63818 14.0902 5.40055 14.5018C2.82127 13.4697 1 10.9465 1 8C1 4.13401 4.13401 1 8 1C11.6031 1 14.5704 3.72227 14.9573 7.22224C15.3512 7.54103 15.7003 7.91314 15.9934 8.32759C15.9978 8.21894 16 8.10973 16 8C16 3.58172 12.4183 0 8 0C3.58172 0 0 3.58172 0 8C0 11.3774 2.09286 14.2659 5.05245 15.4395C5.36424 15.5631 5.68565 15.6677 6.01524 15.7519C6.0363 15.5817 6.07874 15.4181 6.13979 15.264C6.27943 14.9114 6.51641 14.6079 6.8176 14.3868C6.64136 14.1015 6.49046 13.799 6.36804 13.4822Z" />
	<path d="M5 8C5 8.55229 4.55228 9 4 9C3.44772 9 3 8.55229 3 8C3 7.44772 3.44772 7 4 7C4.55228 7 5 7.44772 5 8Z" />
	<path d="M5 6C5.55228 6 6 5.55228 6 5C6 4.44772 5.55228 4 5 4C4.44772 4 4 4.44772 4 5C4 5.55228 4.44772 6 5 6Z" />
	<path d="M9 4C9 4.55228 8.55229 5 8 5C7.44772 5 7 4.55228 7 4C7 3.44772 7.44772 3 8 3C8.55229 3 9 3.44772 9 4Z" />
	<path d="M11 6C11.5523 6 12 5.55228 12 5C12 4.44772 11.5523 4 11 4C10.4477 4 10 4.44772 10 5C10 5.55228 10.4477 6 11 6Z" />
</svg>
