<svg width="16" height="16" viewBox="0 0 16 16" xmlns="http://www.w3.org/2000/svg">
	<path d="M5.82 9.10001L3.78 15.72C3.73 15.88 3.58 16 3.4 16H2.42C2.24 16 2.09 15.88 2.04 15.72L0 9.10001H1.03L2.59 14.47C2.66 14.72 2.72 14.98 2.78 15.23H3.05C3.1 14.98 3.17 14.72 3.24 14.47L4.79 9.10001H5.82Z" />
	<path fill-rule="evenodd" clip-rule="evenodd" d="M2 2C2 0.895431 2.89543 0 4 0H8.58579C8.98361 0 9.36514 0.158035 9.64645 0.43934L13.5607 4.35355C13.842 4.63486 14 5.01639 14 5.41421V14C14 15.1046 13.1046 16 12 16H4.71636L5.02557 15H12C12.5523 15 13 14.5523 13 14V6H9.5C8.67157 6 8 5.32843 8 4.5V1H4C3.44772 1 3 1.44772 3 2V9.09218H2V2ZM9.5 5H12.7929L9 1.20711V4.5C9 4.77614 9.22386 5 9.5 5Z" />
</svg>
