<svg width="16" height="16" viewBox="0 0 16 16" xmlns="http://www.w3.org/2000/svg">
	<path d="M5.00005 0C3.89548 0 3.00005 0.895431 3.00005 2V14C3.00005 15.1046 3.89548 16 5.00005 16H11.0001C12.1046 16 13.0001 15.1046 13.0001 14V2C13.0001 0.89543 12.1046 0 11.0001 0H5.00005ZM4.00005 2C4.00005 1.44772 4.44777 1 5.00005 1H11.0001C11.5523 1 12.0001 1.44772 12.0001 2V14C12.0001 14.5523 11.5523 15 11.0001 15H5.00005C4.44777 15 4.00005 14.5523 4.00005 14V2ZM0.916078 5.22265C0.762902 4.99289 0.452467 4.9308 0.222703 5.08397C-0.00706133 5.23715 -0.0691482 5.54759 0.084028 5.77735L0.463854 6.34709C0.747825 6.77305 0.781784 7.3185 0.55284 7.77639C0.163409 8.55525 0.221173 9.48307 0.704202 10.2076L1.08403 10.7773C1.2372 11.0071 1.54764 11.0692 1.7774 10.916C2.00717 10.7628 2.06925 10.4524 1.91608 10.2227L1.53625 9.65291C1.25228 9.22695 1.21832 8.6815 1.44727 8.22361C1.8367 7.44475 1.77893 6.51693 1.2959 5.79239L0.916078 5.22265ZM14.2227 5.08397C14.4525 4.9308 14.7629 4.99289 14.9161 5.22265L15.2959 5.79239C15.7789 6.51693 15.8367 7.44475 15.4473 8.22361C15.2183 8.6815 15.2523 9.22695 15.5363 9.65291L15.9161 10.2227C16.0693 10.4524 16.0072 10.7628 15.7774 10.916C15.5476 11.0692 15.2372 11.0071 15.084 10.7773L14.7042 10.2076C14.2212 9.48307 14.1634 8.55525 14.5528 7.77639C14.7818 7.3185 14.7478 6.77305 14.4639 6.34709L14.084 5.77735C13.9309 5.54759 13.9929 5.23715 14.2227 5.08397Z" />
	<path d="M6.00005 6.12603C6.00005 5.64336 6.46094 5.34281 6.82761 5.58635L9.7672 7.53883C10.0777 7.74505 10.0777 8.25497 9.7672 8.46119L6.82761 10.4136C6.46094 10.6572 6.00005 10.3566 6.00005 9.87397V6.12603Z" />
</svg>
