<svg width="16" height="16" viewBox="0 0 16 16" xmlns="http://www.w3.org/2000/svg">
	<path d="M5.02738 1.52024C4.89481 1.278 4.98372 0.974157 5.22596 0.841588L5.82663 0.512863C6.59052 0.0948209 7.51983 0.118141 8.26179 0.573972C8.69798 0.841953 9.24432 0.855663 9.69341 0.609897L10.2941 0.281172C10.5363 0.148605 10.8402 0.237511 10.9727 0.479751C11.1053 0.721992 11.0164 1.02583 10.7742 1.1584L10.1735 1.48713C9.4096 1.90517 8.48028 1.88185 7.73832 1.42602C7.30213 1.15804 6.75579 1.14433 6.3067 1.39009L5.70603 1.71882C5.46379 1.85139 5.15995 1.76248 5.02738 1.52024Z" />
	<path d="M6.82756 5.58635C6.46089 5.3428 6 5.64336 6 6.12603V9.87397C6 10.3566 6.46088 10.6572 6.82756 10.4136L9.76714 8.46118C10.0776 8.25497 10.0776 7.74505 9.76715 7.53883L6.82756 5.58635Z" />
	<path fill-rule="evenodd" clip-rule="evenodd" d="M2 3C0.89543 3 0 3.89543 0 5V11C0 12.1046 0.895431 13 2 13H14C15.1046 13 16 12.1046 16 11V5C16 3.89543 15.1046 3 14 3H2ZM1 5C1 4.44771 1.44772 4 2 4H14C14.5523 4 15 4.44771 15 5V11C15 11.5523 14.5523 12 14 12H2C1.44772 12 1 11.5523 1 11V5Z" />
	<path d="M5.02745 15.5202C4.89489 15.278 4.98379 14.9742 5.22603 14.8416L5.82671 14.5129C6.59059 14.0948 7.51991 14.1181 8.26187 14.574C8.69806 14.842 9.2444 14.8557 9.69349 14.6099L10.2942 14.2812C10.5364 14.1486 10.8402 14.2375 10.9728 14.4797C11.1054 14.722 11.0165 15.0258 10.7742 15.1584L10.1736 15.4871C9.40967 15.9052 8.48036 15.8818 7.7384 15.426C7.30221 15.158 6.75587 15.1443 6.30678 15.3901L5.7061 15.7188C5.46386 15.8514 5.16002 15.7625 5.02745 15.5202Z" />
</svg>
