<svg width="16" height="16" viewBox="0 0 16 16" xmlns="http://www.w3.org/2000/svg">
	<path d="M5 9.25181V4.75555C5 4.15362 5.67339 3.79693 6.17135 4.1351L9.78169 6.58689C10.0736 6.78514 10.0739 7.21523 9.78219 7.41383L6.17209 9.87176C5.6742 10.2108 5 9.85415 5 9.25181ZM0 3.5C0 2.11929 1.11929 1 2.5 1H11.5C12.8807 1 14 2.11929 14 3.5V10.5C14 11.8807 12.8807 13 11.5 13H2.5C1.11929 13 0 11.8807 0 10.5V3.5ZM2.5 2C1.67157 2 1 2.67157 1 3.5V10.5C1 11.3284 1.67157 12 2.5 12H11.5C12.3284 12 13 11.3284 13 10.5V3.5C13 2.67157 12.3284 2 11.5 2H2.5ZM2.5 14.0002C2.9561 14.6074 3.68227 15.0002 4.50018 15.0002H12.0002C14.2093 15.0002 16.0002 13.2093 16.0002 11.0002V5.50018C16.0002 4.68227 15.6074 3.9561 15.0002 3.5V11.0002C15.0002 12.657 13.657 14.0002 12.0002 14.0002H2.5Z" />
</svg>
