<svg width="16" height="16" viewBox="0 0 16 16" xmlns="http://www.w3.org/2000/svg">
	<path d="M12.0625 1C12.4531 1 12.8255 1.08073 13.1797 1.24219C13.5391 1.39844 13.8516 1.61198 14.1172 1.88281C14.388 2.14844 14.6016 2.46094 14.7578 2.82031C14.9193 3.17448 15 3.54688 15 3.9375V12.0625C15 12.4531 14.9193 12.8281 14.7578 13.1875C14.6016 13.5417 14.388 13.8542 14.1172 14.125C13.8516 14.3906 13.5391 14.6042 13.1797 14.7656C12.8255 14.9219 12.4531 15 12.0625 15H3.9375C3.54688 15 3.17188 14.9219 2.8125 14.7656C2.45833 14.6042 2.14583 14.3906 1.875 14.125C1.60938 13.8542 1.39583 13.5417 1.23438 13.1875C1.07812 12.8281 1 12.4531 1 12.0625V3.9375C1 3.54688 1.07812 3.17448 1.23438 2.82031C1.39583 2.46094 1.60938 2.14844 1.875 1.88281C2.14583 1.61198 2.45833 1.39844 2.8125 1.24219C3.17188 1.08073 3.54688 1 3.9375 1H12.0625ZM2.28125 13.0156L6.76562 8.53125C6.93229 8.36458 7.11979 8.23958 7.32812 8.15625C7.54167 8.06771 7.76562 8.02344 8 8.02344C8.23438 8.02344 8.45573 8.06771 8.66406 8.15625C8.8776 8.23958 9.06771 8.36458 9.23438 8.53125L13.7188 13.0156C13.8125 12.8646 13.8828 12.7031 13.9297 12.5312C13.9766 12.3594 14 12.1823 14 12V3.96094C14 3.70052 13.9453 3.45312 13.8359 3.21875C13.7318 2.97917 13.5885 2.77083 13.4062 2.59375C13.2292 2.41146 13.0208 2.26823 12.7812 2.16406C12.5469 2.05469 12.2995 2 12.0391 2H3.96094C3.70052 2 3.45052 2.05469 3.21094 2.16406C2.97656 2.26823 2.76823 2.41146 2.58594 2.59375C2.40885 2.77083 2.26562 2.97917 2.15625 3.21875C2.05208 3.45312 2 3.70052 2 3.96094V12C2 12.1823 2.02344 12.3594 2.07031 12.5312C2.11719 12.7031 2.1875 12.8646 2.28125 13.0156ZM9 5.5C9 5.29688 9.03906 5.10417 9.11719 4.92188C9.19531 4.73958 9.30208 4.58073 9.4375 4.44531C9.57812 4.30469 9.73958 4.19531 9.92188 4.11719C10.1042 4.03906 10.2969 4 10.5 4C10.7031 4 10.8958 4.03906 11.0781 4.11719C11.2604 4.19531 11.4193 4.30469 11.5547 4.44531C11.6953 4.58073 11.8047 4.73958 11.8828 4.92188C11.9609 5.10417 12 5.29688 12 5.5C12 5.70312 11.9609 5.89583 11.8828 6.07812C11.8047 6.26042 11.6953 6.42188 11.5547 6.5625C11.4193 6.69792 11.2604 6.80469 11.0781 6.88281C10.8958 6.96094 10.7031 7 10.5 7C10.2969 7 10.1042 6.96094 9.92188 6.88281C9.73958 6.80469 9.57812 6.69792 9.4375 6.5625C9.30208 6.42188 9.19531 6.26042 9.11719 6.07812C9.03906 5.89583 9 5.70312 9 5.5ZM10 5.5C10 5.63542 10.0495 5.7526 10.1484 5.85156C10.2474 5.95052 10.3646 6 10.5 6C10.6354 6 10.7526 5.95052 10.8516 5.85156C10.9505 5.7526 11 5.63542 11 5.5C11 5.36458 10.9505 5.2474 10.8516 5.14844C10.7526 5.04948 10.6354 5 10.5 5C10.3646 5 10.2474 5.04948 10.1484 5.14844C10.0495 5.2474 10 5.36458 10 5.5ZM12 14C12.3698 14 12.7083 13.9062 13.0156 13.7188L8.53125 9.23438C8.38542 9.08854 8.20833 9.01562 8 9.01562C7.79167 9.01562 7.61458 9.08854 7.46875 9.23438L2.98438 13.7188C3.13542 13.8125 3.29688 13.8828 3.46875 13.9297C3.64062 13.9766 3.81771 14 4 14H12Z" />
</svg>
