<svg width="16" height="16" viewBox="0 0 16 16" xmlns="http://www.w3.org/2000/svg">
	<path d="M12 14.2422C12 14.1536 12.0156 14.0833 12.0469 14.0312C12.0833 13.974 12.1302 13.9141 12.1875 13.8516C12.2604 13.7786 12.3385 13.7109 12.4219 13.6484C12.5052 13.5807 12.5859 13.5104 12.6641 13.4375C13.0391 13.0938 13.3724 12.7135 13.6641 12.2969C13.9557 11.875 14.2005 11.4297 14.3984 10.9609C14.5964 10.4922 14.7448 10.0078 14.8438 9.50781C14.9479 9.00781 15 8.50521 15 8C15 7.5 14.9479 7 14.8438 6.5C14.7448 5.99479 14.5938 5.50781 14.3906 5.03906C14.1927 4.5651 13.9479 4.11719 13.6562 3.69531C13.3698 3.27344 13.0391 2.89323 12.6641 2.55469C12.5859 2.48177 12.5052 2.41406 12.4219 2.35156C12.3385 2.28385 12.2604 2.21354 12.1875 2.14062C12.125 2.07812 12.0781 2.02083 12.0469 1.96875C12.0156 1.91667 12 1.84375 12 1.75C12 1.60938 12.0469 1.49219 12.1406 1.39844C12.2396 1.30469 12.3594 1.25781 12.5 1.25781C12.5625 1.25781 12.6172 1.26823 12.6641 1.28906C12.7109 1.30469 12.7604 1.33073 12.8125 1.36719C13.0469 1.51823 13.2786 1.71094 13.5078 1.94531C13.737 2.17969 13.9531 2.43229 14.1562 2.70312C14.3646 2.96875 14.5547 3.24219 14.7266 3.52344C14.8984 3.80469 15.0443 4.07031 15.1641 4.32031C15.4401 4.89844 15.6484 5.4974 15.7891 6.11719C15.9297 6.73177 16 7.35938 16 8C16 8.63542 15.9297 9.26562 15.7891 9.89062C15.6484 10.5104 15.4401 11.1068 15.1641 11.6797C15.0443 11.9245 14.8984 12.1901 14.7266 12.4766C14.5547 12.7578 14.3646 13.0339 14.1562 13.3047C13.9479 13.5703 13.7292 13.8203 13.5 14.0547C13.2708 14.2891 13.0417 14.4818 12.8125 14.6328C12.7552 14.6693 12.7031 14.6979 12.6562 14.7188C12.6146 14.7344 12.5625 14.7422 12.5 14.7422C12.3646 14.7422 12.2474 14.6927 12.1484 14.5938C12.0495 14.4948 12 14.3776 12 14.2422ZM3.29688 11H1.5C1.29688 11 1.10417 10.9609 0.921875 10.8828C0.739583 10.8047 0.578125 10.6979 0.4375 10.5625C0.302083 10.4219 0.195312 10.2604 0.117188 10.0781C0.0390625 9.89583 0 9.70312 0 9.5V6.5C0 6.29688 0.0390625 6.10417 0.117188 5.92188C0.195312 5.73958 0.302083 5.58073 0.4375 5.44531C0.578125 5.30469 0.739583 5.19531 0.921875 5.11719C1.10417 5.03906 1.29688 5 1.5 5H3.29688L5.71875 2.57031C5.79167 2.4974 5.8724 2.44531 5.96094 2.41406C6.05469 2.3776 6.15104 2.35938 6.25 2.35938C6.46354 2.35938 6.64062 2.42969 6.78125 2.57031C6.92708 2.71094 7 2.88802 7 3.10156V12.8984C7 13.0026 6.97917 13.099 6.9375 13.1875C6.90104 13.276 6.84635 13.3568 6.77344 13.4297C6.70573 13.4974 6.625 13.5521 6.53125 13.5938C6.44271 13.6302 6.34896 13.6484 6.25 13.6484C6.04167 13.6484 5.86458 13.5755 5.71875 13.4297L3.29688 11ZM10.0312 12.4453C10.0312 12.3568 10.0443 12.2891 10.0703 12.2422C10.1016 12.1953 10.1458 12.138 10.2031 12.0703C10.4896 11.7474 10.7448 11.4375 10.9688 11.1406C11.1927 10.8438 11.3802 10.5391 11.5312 10.2266C11.6823 9.90885 11.7969 9.57031 11.875 9.21094C11.9583 8.85156 12 8.44792 12 8C12 7.55208 11.9583 7.14844 11.875 6.78906C11.7969 6.42969 11.6823 6.09375 11.5312 5.78125C11.3802 5.46354 11.1927 5.15625 10.9688 4.85938C10.7448 4.5625 10.4896 4.2526 10.2031 3.92969C10.1458 3.86198 10.1016 3.80469 10.0703 3.75781C10.0443 3.71094 10.0312 3.64323 10.0312 3.55469C10.0312 3.41927 10.0807 3.30469 10.1797 3.21094C10.2839 3.11198 10.4036 3.0625 10.5391 3.0625C10.6172 3.0625 10.6771 3.07292 10.7188 3.09375C10.7604 3.10938 10.8125 3.14062 10.875 3.1875C11.0312 3.30729 11.1849 3.45573 11.3359 3.63281C11.4922 3.80469 11.638 3.98958 11.7734 4.1875C11.9141 4.38542 12.0417 4.58854 12.1562 4.79688C12.2708 5 12.3672 5.19271 12.4453 5.375C12.8151 6.20833 13 7.08333 13 8C13 8.91667 12.8151 9.79167 12.4453 10.625C12.3724 10.7917 12.276 10.9818 12.1562 11.1953C12.0417 11.4036 11.9141 11.612 11.7734 11.8203C11.6328 12.0234 11.4844 12.2135 11.3281 12.3906C11.1771 12.5677 11.026 12.7083 10.875 12.8125C10.8177 12.849 10.763 12.8802 10.7109 12.9062C10.6641 12.9271 10.6068 12.9375 10.5391 12.9375C10.4036 12.9375 10.2839 12.8906 10.1797 12.7969C10.0807 12.6979 10.0312 12.5807 10.0312 12.4453ZM6 12.2891V3.70312L3.85156 5.85156C3.7526 5.95052 3.63542 6 3.5 6H1.5C1.36458 6 1.2474 6.04948 1.14844 6.14844C1.04948 6.2474 1 6.36458 1 6.5V9.5C1 9.63542 1.04948 9.7526 1.14844 9.85156C1.2474 9.95052 1.36458 10 1.5 10H3.5C3.63542 10 3.7526 10.0495 3.85156 10.1484L6 12.2891ZM8.09375 10.5391C8.09375 10.4661 8.10156 10.4089 8.11719 10.3672C8.13802 10.3255 8.16927 10.276 8.21094 10.2188C8.33073 10.0365 8.4401 9.86198 8.53906 9.69531C8.63802 9.52344 8.72135 9.35156 8.78906 9.17969C8.85677 9.0026 8.90885 8.82031 8.94531 8.63281C8.98177 8.4401 9 8.22917 9 8C9 7.77604 8.98177 7.56771 8.94531 7.375C8.90885 7.18229 8.85677 7 8.78906 6.82812C8.72135 6.65104 8.63802 6.47917 8.53906 6.3125C8.4401 6.14062 8.33073 5.96354 8.21094 5.78125C8.16927 5.72396 8.13802 5.67448 8.11719 5.63281C8.10156 5.59115 8.09375 5.53385 8.09375 5.46094C8.09375 5.32552 8.14323 5.20833 8.24219 5.10938C8.34115 5.01042 8.45833 4.96094 8.59375 4.96094C8.68229 4.96094 8.75521 4.97656 8.8125 5.00781C8.86979 5.03906 8.92708 5.08594 8.98438 5.14844C9.15104 5.33073 9.29688 5.53646 9.42188 5.76562C9.54688 5.98958 9.65104 6.22917 9.73438 6.48438C9.82292 6.73438 9.88802 6.98958 9.92969 7.25C9.97656 7.51042 10 7.76042 10 8C10 8.22917 9.97656 8.47656 9.92969 8.74219C9.88802 9.0026 9.82292 9.26302 9.73438 9.52344C9.65104 9.77865 9.54427 10.0234 9.41406 10.2578C9.28906 10.487 9.14583 10.6849 8.98438 10.8516C8.875 10.9714 8.74479 11.0312 8.59375 11.0312C8.45833 11.0312 8.34115 10.9844 8.24219 10.8906C8.14323 10.7917 8.09375 10.6745 8.09375 10.5391Z"  />
</svg>
