<svg width="16" height="16" viewBox="0 0 16 16" xmlns="http://www.w3.org/2000/svg">
	<path d="M1 4C1 2.34315 2.34315 1 4 1H6.5C6.77614 1 7 1.22386 7 1.5C7 1.77614 6.77614 2 6.5 2H4C2.89543 2 2 2.89543 2 4V6.5C2 6.77614 1.77614 7 1.5 7C1.22386 7 1 6.77614 1 6.5V4ZM9 1.5C9 1.22386 9.22386 1 9.5 1H12C13.6569 1 15 2.34315 15 4V6.5C15 6.77614 14.7761 7 14.5 7C14.2239 7 14 6.77614 14 6.5V4C14 2.89543 13.1046 2 12 2H9.5C9.22386 2 9 1.77614 9 1.5ZM1.5 9C1.77614 9 2 9.22386 2 9.5V12C2 12.3709 2.10096 12.7182 2.27691 13.016L6.76256 8.53033C7.44598 7.84691 8.55402 7.84691 9.23744 8.53033L13.7231 13.016C13.899 12.7182 14 12.3709 14 12V9.5C14 9.22386 14.2239 9 14.5 9C14.7761 9 15 9.22386 15 9.5V12C15 13.6569 13.6569 15 12 15H9.5C9.22386 15 9 14.7761 9 14.5C9 14.2239 9.22386 14 9.5 14H12C12.3709 14 12.7182 13.899 13.016 13.7231L8.53033 9.23744C8.23744 8.94454 7.76256 8.94454 7.46967 9.23744L2.98402 13.7231C3.28177 13.899 3.6291 14 4 14H6.5C6.77614 14 7 14.2239 7 14.5C7 14.7761 6.77614 15 6.5 15H4C2.34315 15 1 13.6569 1 12V9.5C1 9.22386 1.22386 9 1.5 9ZM10.5 5C10.2239 5 10 5.22386 10 5.5C10 5.77614 10.2239 6 10.5 6C10.7761 6 11 5.77614 11 5.5C11 5.22386 10.7761 5 10.5 5ZM9 5.5C9 4.67157 9.67157 4 10.5 4C11.3284 4 12 4.67157 12 5.5C12 6.32843 11.3284 7 10.5 7C9.67157 7 9 6.32843 9 5.5Z" />
</svg>
