<svg width="16" height="16" viewBox="0 0 16 16" xmlns="http://www.w3.org/2000/svg">
		<path d="M14.9068 12.0422C15.2556 11.4486 15.5251 10.8121 15.7152 10.1326C15.9153 9.45314 16.002 8.74642 16.002 8.01226C16.002 7.87694 15.9508 7.75978 15.852 7.66081C15.753 7.56196 15.6359 7.51242 15.5005 7.51242C15.3651 7.51242 15.2479 7.56196 15.1491 7.66081C15.0501 7.75978 15.0007 7.87694 15.0007 8.01226C15.0007 8.78286 14.8757 9.53263 14.6258 10.2615C14.3759 10.9906 14.0204 11.6623 13.548 12.2766C13.22 12.7036 12.8562 13.0863 12.4351 13.4304C12.0211 13.7632 11.5759 14.0624 11.0995 14.2838C10.6231 14.5181 10.1232 14.6977 9.59997 14.8227C9.07669 14.9477 8.54683 15.0101 8.01061 15.0101C7.43776 15.0101 6.87811 14.9425 6.33141 14.8071C5.78469 14.6717 5.26397 14.4751 4.78032 14.2174C4.27465 13.9597 3.8152 13.646 3.39088 13.2763C2.96645 12.9066 2.59035 12.4849 2.26232 12.011H2.9881C2.86791 11.7008 2.80142 11.3637 2.80002 11.0114H1.50987C1.39534 11.0114 1.30675 11.0336 1.23915 11.0777C1.17142 11.122 1.12555 11.1793 1.08685 11.2632C1.05293 11.3198 1.02949 11.3993 1.01656 11.4878C1.0035 11.5764 0.997038 11.6623 0.997038 11.7586C0.997038 12.3755 0.998254 13.0029 1.00094 13.6277C1.0035 14.2525 1.00485 14.88 1.00485 15.51C1.00485 15.6454 1.05427 15.7626 1.16331 15.8614C1.25208 15.9604 1.36923 16.0098 1.50987 16.0098C1.64003 16.0098 1.75718 15.9604 1.85931 15.8614C1.95499 15.7626 2.00454 15.6454 2.00454 15.51V13.2997C2.37942 13.732 2.79592 14.1159 3.25416 14.4517C3.71371 14.7875 4.19918 15.0714 4.71465 15.303C5.23011 15.5348 5.7651 15.7105 6.31961 15.8302C6.87413 15.95 7.43768 16.0098 8.01049 16.0098C8.74469 16.0098 9.4515 15.9149 10.131 15.7248C10.8105 15.5348 11.447 15.2767 12.0406 14.9164C12.6341 14.5676 13.173 14.1498 13.6572 13.6629C14.1415 13.1761 14.558 12.6358 14.9068 12.0422Z" />
		<path d="M14.7663 4.94671C14.8339 4.90254 14.8846 4.84518 14.9186 4.77489C14.9524 4.71022 14.9758 4.62655 14.9888 4.54063C15.0018 4.45473 15.011 4.36759 15.011 4.279C15.011 3.81415 15.0088 3.34016 15.0066 2.86895L15.0045 2.39676C15.0018 1.77194 15.0006 1.14457 15.0006 0.51452C15.0006 0.379176 14.951 0.262024 14.8522 0.163064C14.7633 0.0659444 14.636 0.0146644 14.5007 0.0146644C14.3653 0.0146644 14.2481 0.0659444 14.1493 0.163064C14.0503 0.262024 14.0079 0.379176 14.0079 0.51452V2.72476C13.626 2.2979 13.2094 1.91641 12.7512 1.58058C12.293 1.24474 11.8074 0.970088 11.2947 0.729272C10.7817 0.497656 10.248 0.325768 9.69353 0.198184C9.13905 0.0759124 8.57795 0.0146484 8.01049 0.0146484C7.27638 0.0146484 6.56822 0.10972 5.88617 0.29972C5.20406 0.489848 4.5663 0.75796 3.97273 1.10561C3.37912 1.45049 2.83888 1.86698 2.35209 2.35378C1.86518 2.84073 1.44734 3.38084 1.09856 3.97442C0.749678 4.56796 0.49131 5.20582 0.290222 5.88786C0.100094 6.57001 0.00514984 7.27804 0.00514984 8.01218C0.00514984 8.14764 0.0545738 8.26479 0.153534 8.36364C0.252382 8.46262 0.38235 8.51838 0.50499 8.51838C0.64235 8.51838 0.757486 8.46262 0.856446 8.36364C0.955294 8.26479 1.00485 8.14764 1.00485 8.01218C1.00485 7.2417 1.12981 6.49193 1.37973 5.7629C1.62965 5.03396 1.98893 4.3623 2.45752 3.74786C2.79851 3.31574 3.15776 2.93049 3.57438 2.59196C3.99088 2.25356 4.43739 1.96714 4.91381 1.73284C5.39022 1.49854 5.89435 1.32025 6.40945 1.19785C6.93005 1.07558 7.46113 1.01431 8.00272 1.01431C8.57544 1.01431 9.1352 1.08204 9.68192 1.23006C10.2286 1.35284 10.748 1.5493 11.24 1.80705C11.7321 2.07198 12.1902 2.37986 12.6146 2.76158C13.0389 3.12439 13.4151 3.54479 13.7432 4.0134H12.1529L11.5031 5.0131H14.5007C14.6101 5.0131 14.6985 4.99102 14.7663 4.94671Z" />
		<path d="M5.71922 3.2275C5.56873 2.99597 5.25903 2.93028 5.0275 3.08077C4.79597 3.23127 4.73028 3.54096 4.88078 3.77249L7.40366 7.65384L6.3054 9.34347C6.08878 9.25111 5.85036 9.2 5.6 9.2C4.60589 9.2 3.8 10.0059 3.8 11C3.8 11.9941 4.60589 12.8 5.6 12.8C6.59411 12.8 7.4 11.9941 7.4 11C7.4 10.6216 7.28326 10.2705 7.08384 9.98077L8 8.57129L8.91616 9.98077C8.71674 10.2705 8.6 10.6216 8.6 11C8.6 11.9941 9.40589 12.8 10.4 12.8C11.3941 12.8 12.2 11.9941 12.2 11C12.2 10.0059 11.3941 9.2 10.4 9.2C10.1496 9.2 9.91122 9.25111 9.6946 9.34347L5.71922 3.2275ZM5.6 11.8C6.04183 11.8 6.4 11.4418 6.4 11C6.4 10.5582 6.04183 10.2 5.6 10.2C5.15817 10.2 4.8 10.5582 4.8 11C4.8 11.4418 5.15817 11.8 5.6 11.8ZM10.4 11.8C10.8418 11.8 11.2 11.4418 11.2 11C11.2 10.5582 10.8418 10.2 10.4 10.2C9.95817 10.2 9.6 10.5582 9.6 11C9.6 11.4418 9.95817 11.8 10.4 11.8Z" />
		<path d="M8.95376 7.10397L11.1192 3.77249C11.2697 3.54097 11.204 3.23127 10.9725 3.08078C10.741 2.93028 10.4313 2.99598 10.2808 3.22751L8.35742 6.18652L8.95376 7.10397Z" />
</svg>
