<svg width="16" height="16" viewBox="0 0 16 16" xmlns="http://www.w3.org/2000/svg">
	<path d="M8 1C4.13401 1 1 4.13401 1 8C1 8.27614 0.776142 8.5 0.5 8.5C0.223858 8.5 0 8.27614 0 8C0 3.58172 3.58172 0 8 0C10.3898 0 12.5346 1.04815 14 2.70842V0.5C14 0.223858 14.2239 0 14.5 0C14.7761 0 15 0.223858 15 0.5V4.5C15 4.77614 14.7761 5 14.5 5H11C10.7239 5 10.5 4.77614 10.5 4.5C10.5 4.22386 10.7239 4 11 4H13.7454C12.4797 2.18558 10.3781 1 8 1Z" />
	<path d="M8 15C11.866 15 15 11.866 15 8C15 7.72386 15.2239 7.5 15.5 7.5C15.7761 7.5 16 7.72386 16 8C16 12.4183 12.4183 16 8 16C5.61017 16 3.46541 14.9519 2 13.2916V15.5C2 15.7761 1.77614 16 1.5 16C1.22386 16 1 15.7761 1 15.5V11.5C1 11.2239 1.22386 11 1.5 11H5C5.27614 11 5.5 11.2239 5.5 11.5C5.5 11.7761 5.27614 12 5 12H2.25463C3.5203 13.8144 5.62186 15 8 15Z" />
	<path d="M4 8C4 7.72386 4.22386 7.5 4.5 7.5H7.5V4.5C7.5 4.22386 7.72386 4 8 4C8.27614 4 8.5 4.22386 8.5 4.5V7.5H11.5C11.7761 7.5 12 7.72386 12 8C12 8.27614 11.7761 8.5 11.5 8.5H8.5V11.5C8.5 11.7761 8.27614 12 8 12C7.72386 12 7.5 11.7761 7.5 11.5V8.5H4.5C4.22386 8.5 4 8.27614 4 8Z" />
</svg>
