<svg width="16" height="16" viewBox="0 0 16 16" xmlns="http://www.w3.org/2000/svg">
	<path d="M5.6556 2.638C5.45592 2.82875 5.44868 3.14525 5.63942 3.34492C5.83017 3.5446 6.14667 3.55185 6.34634 3.3611L7.65873 2.10744C7.85231 1.92252 8.15719 1.92289 8.35033 2.10827L9.65474 3.36028C9.85396 3.5515 10.1705 3.54501 10.3617 3.34579C10.5529 3.14656 10.5464 2.83005 10.3472 2.63883L9.0428 1.38682C8.46338 0.830678 7.54872 0.829587 6.96798 1.38434L5.6556 2.638ZM3.3627 6.34513C3.55345 6.14546 3.54622 5.82896 3.34655 5.63821C3.14688 5.44746 2.83038 5.45468 2.63963 5.65435L1.38873 6.96373C0.83481 7.54354 0.834868 8.45646 1.38886 9.0362L2.64032 10.3458C2.8311 10.5455 3.1476 10.5527 3.34725 10.3619C3.54689 10.1711 3.55408 9.8546 3.3633 9.65496L2.11184 8.34533C1.92717 8.15208 1.92716 7.84778 2.11179 7.65451L3.3627 6.34513ZM6.34644 12.6381C6.14681 12.4473 5.83031 12.4545 5.63951 12.6541C5.44872 12.8537 5.45588 13.1702 5.6555 13.361L6.97 14.6174C7.55157 15.1732 8.46806 15.1713 9.04731 14.613L10.3479 13.3596C10.5468 13.1679 10.5526 12.8514 10.361 12.6526C10.1694 12.4538 9.85284 12.4479 9.65401 12.6395L8.35337 13.893C8.16029 14.0791 7.85479 14.0797 7.66094 13.8944L6.34644 12.6381ZM13.3616 5.65346C13.1704 5.45426 12.8539 5.44782 12.6547 5.63907C12.4555 5.83031 12.449 6.14683 12.6403 6.34603L13.898 7.65604C14.084 7.84977 14.0838 8.15582 13.8974 8.34923L12.6409 9.65349C12.4493 9.85235 12.4552 10.1689 12.6541 10.3605C12.8529 10.5521 13.1695 10.5462 13.3611 10.3473L14.6176 9.04304C15.1766 8.46282 15.1774 7.54465 14.6194 6.96347L13.3616 5.65346ZM6.5 4.99998C5.67157 4.99998 5 5.67155 5 6.49998V9.49998C5 10.3284 5.67157 11 6.5 11H9.5C10.3284 11 11 10.3284 11 9.49998V6.49998C11 5.67155 10.3284 4.99998 9.5 4.99998H6.5ZM6 6.49998C6 6.22384 6.22385 5.99998 6.5 5.99998H9.5C9.77614 5.99998 10 6.22384 10 6.49998V9.49998C10 9.77612 9.77614 9.99998 9.5 9.99998H6.5C6.22385 9.99998 6 9.77612 6 9.49998V6.49998Z" />
</svg>
