<svg width="16" height="16" viewBox="0 0 16 16" xmlns="http://www.w3.org/2000/svg">
	<path d="M9.5 6.5C9.5 6.22386 9.27614 6 9 6H7V4C7 3.72386 6.77614 3.5 6.5 3.5C6.22386 3.5 6 3.72386 6 4V6H4C3.72386 6 3.5 6.22386 3.5 6.5C3.5 6.77614 3.72386 7 4 7H6V9C6 9.27614 6.22386 9.5 6.5 9.5C6.77614 9.5 7 9.27614 7 9V7H9C9.27614 7 9.5 6.77614 9.5 6.5ZM6.5 1C9.53757 1 12 3.46243 12 6.5C12 7.83879 11.5217 9.06586 10.7266 10.0196L14.8536 14.1464C15.0488 14.3417 15.0488 14.6583 14.8536 14.8536C14.68 15.0271 14.4106 15.0464 14.2157 14.9114L14.1464 14.8536L10.0196 10.7266C9.06586 11.5217 7.83879 12 6.5 12C3.46243 12 1 9.53757 1 6.5C1 3.46243 3.46243 1 6.5 1ZM6.5 2C4.01472 2 2 4.01472 2 6.5C2 8.98528 4.01472 11 6.5 11C8.98528 11 11 8.98528 11 6.5C11 4.01472 8.98528 2 6.5 2Z" />
</svg>
