<svg width="457" height="135" viewBox="0 0 457 135" fill="none" xmlns="http://www.w3.org/2000/svg">
	<g filter="url(#filter0_d_568_3127)">
		<path d="M86.7207 1.65603C81.3639 0.521376 75.7636 -0.064209 70 -0.064209C31.4817 -0.064209 0.256409 26.0896 0.256409 67.4999C0.256409 108.91 31.4817 135.064 70 135.064C108.518 135.064 139.744 108.91 139.744 67.4999C139.744 34.8466 120.328 11.6794 93.2314 3.34142C75.3238 12.0192 58.1144 24.755 49.1538 41.8092C54.8124 37.3256 62.077 34.8076 70 34.8076C88.0555 34.8076 102.692 47.8845 102.692 67.4999C102.692 87.1153 88.0555 100.192 70 100.192C51.9445 100.192 37.3077 87.1153 37.3077 67.4999C37.3077 39.7445 56.2284 17.1713 86.7207 1.65603Z" fill="#2FBDEC" fill-opacity="0.01" shape-rendering="crispEdges" />
	</g>
	<mask id="mask0_568_3127" style="mask-type:alpha" maskUnits="userSpaceOnUse" x="2" y="2" width="136" height="131">
		<path d="M70 2.11548C73.428 2.11548 76.7937 2.32807 80.0795 2.74442C52.4761 18.3372 35.1282 40.3961 35.1282 67.5001C35.1282 88.3874 50.8103 102.372 70 102.372C89.1898 102.372 104.872 88.3874 104.872 67.5001C104.872 46.6127 89.1898 32.6283 70 32.6283C64.9044 32.6283 60.0449 33.613 55.6557 35.4632C64.7789 22.8116 78.7202 12.9047 93.4068 5.68132C119.198 13.9589 137.564 36.1709 137.564 67.5001C137.564 107.557 107.47 132.885 70 132.885C32.5296 132.885 2.43591 107.557 2.43591 67.5001C2.43591 27.4436 32.5296 2.11548 70 2.11548Z" fill="#FF0000" />
	</mask>
	<g mask="url(#mask0_568_3127)">
		<g filter="url(#filter1_d_568_3127)">
			<path d="M86.7207 1.65603C81.3639 0.521376 75.7636 -0.064209 70 -0.064209C31.4817 -0.064209 0.256409 26.0896 0.256409 67.4999C0.256409 108.91 31.4817 135.064 70 135.064C108.518 135.064 139.744 108.91 139.744 67.4999C139.744 34.8466 120.328 11.6794 93.2314 3.34142C75.3238 12.0192 58.1144 24.755 49.1538 41.8092C54.8124 37.3256 62.077 34.8076 70 34.8076C88.0555 34.8076 102.692 47.8845 102.692 67.4999C102.692 87.1153 88.0555 100.192 70 100.192C51.9445 100.192 37.3077 87.1153 37.3077 67.4999C37.3077 39.7445 56.2284 17.1713 86.7207 1.65603Z" fill="#2FBDEC" />
		</g>
		<path d="M70 135.064C31.4817 135.064 0.256409 108.91 0.256409 67.4999C0.256409 26.0896 31.4817 -0.064209 70 -0.064209C75.7636 -0.064209 81.3639 0.521376 86.7207 1.65603C56.2284 17.1713 37.3077 39.7445 37.3077 67.4999C37.3077 87.1153 51.9445 100.192 70 100.192V135.064Z" fill="url(#paint0_linear_568_3127)" />
		<mask id="mask1_568_3127" style="mask-type:alpha" maskUnits="userSpaceOnUse" x="0" y="52" width="140" height="84">
			<rect x="0.256409" y="52.2437" width="139.487" height="82.8205" fill="url(#paint1_linear_568_3127)" />
		</mask>
		<g mask="url(#mask1_568_3127)">
			<path d="M86.7207 1.65603C81.3639 0.521376 75.7636 -0.064209 70 -0.064209C31.4817 -0.064209 0.256409 26.0896 0.256409 67.4999C0.256409 108.91 31.4817 135.064 70 135.064C108.518 135.064 139.744 108.91 139.744 67.4999C139.744 34.8466 120.328 11.6794 93.2314 3.34142C75.3238 12.0192 58.1144 24.755 49.1538 41.8092C54.8124 37.3256 62.077 34.8076 70 34.8076C88.0555 34.8076 102.692 47.8845 102.692 67.4999C102.692 87.1153 88.0555 100.192 70 100.192C51.9445 100.192 37.3077 87.1153 37.3077 67.4999C37.3077 39.7445 56.2284 17.1713 86.7207 1.65603Z" fill="url(#paint2_linear_568_3127)" />
		</g>
		<path d="M102.692 67.4998H139.744C139.744 34.8464 120.328 11.6793 93.2314 3.34131C75.3238 12.0191 58.1144 24.7549 49.1539 41.8091C54.8124 37.3255 62.0771 34.8075 70 34.8075C88.0555 34.8075 102.692 47.8844 102.692 67.4998Z" fill="url(#paint3_linear_568_3127)" />
	</g>
	<path d="M70 2.11528C73.428 2.11528 76.7937 2.32787 80.0795 2.74422C52.4761 18.337 35.1282 40.3959 35.1282 67.4999C35.1282 88.3873 50.8103 102.372 70 102.372C89.1897 102.372 104.872 88.3873 104.872 67.4999C104.872 46.6125 89.1897 32.6281 70 32.6281C64.9044 32.6281 60.0449 33.6128 55.6557 35.463C64.7789 22.8114 78.7202 12.9045 93.4068 5.68112C119.198 13.9587 137.564 36.1707 137.564 67.4999C137.564 107.556 107.47 132.885 70 132.885C32.5296 132.885 2.4359 107.556 2.4359 67.4999C2.4359 27.4434 32.5296 2.11528 70 2.11528Z" stroke="white" stroke-width="4.35897" />
	<g filter="url(#filter2_d_568_3127)">
		<mask id="path-9-outside-1_568_3127" maskUnits="userSpaceOnUse" x="146.575" y="-7.23999" width="317" height="146" fill="black">
			<rect fill="white" x="146.575" y="-7.23999" width="317" height="146" />
			<path fill-rule="evenodd" clip-rule="evenodd" d="M427.715 57.649H402.326V1.46501H427.715C436.151 1.46501 443.8 4.77001 448.284 9.30101C453.56 14.526 456.199 21.284 456.199 29.577C456.199 37.87 453.554 44.622 448.265 49.833C442.975 55.44 436.125 57.649 427.715 57.649ZM436.1 18.332C433.245 15.55 429.804 14.16 425.677 14.16H418.39V44.955H425.677C429.752 44.955 433.18 43.525 435.962 40.665C438.744 37.805 440.135 34.102 440.135 29.557C440.135 24.856 438.757 21.114 436.1 18.332ZM359.248 78.267H399.525V90.961H375.312V100.286H397.57V112.941H375.312V121.757H400.7V134.451H359.248V78.267ZM377.422 49.5H357.715L355.403 57.649H338.791L354.933 1.46501H380.165L396.346 57.649H379.695L377.422 49.5ZM367.588 14.669L361.319 36.845H373.779L367.588 14.669ZM316.708 31.399L299.978 44.994L283.248 31.399V57.649H267.185V0.76001L299.978 25.639L332.772 0.76001V57.649H316.708V31.399ZM276.265 121.757H297.187V134.451H260.24V78.267H276.304L276.265 121.757ZM244.945 54.789C240.426 57.166 235.359 58.355 229.743 58.355C224.127 58.355 219.6 57.166 214.541 54.789C210.22 52.413 206.451 49.24 203.826 44.622C201.201 40.221 199.888 35.199 199.888 29.557C199.888 23.915 201.201 18.894 203.826 14.493C206.451 10.92 210.22 6.70301 214.541 4.32501C219.6 1.94901 224.127 0.76001 229.743 0.76001C235.359 0.76001 240.426 1.94901 244.945 4.32501C249.464 6.70301 253.36 10.92 255.661 14.493C258.286 18.894 259.598 23.915 259.598 29.557C259.598 35.199 258.286 40.221 255.661 44.622C253.36 49.24 249.464 52.413 244.945 54.789ZM239.793 19.39C237.63 16.765 233.72 15.453 229.763 15.453C225.806 15.453 222.462 16.765 219.733 19.39C217.3 22.15 215.638 25.404 215.638 29.557C215.638 33.685 217.3 37.74 219.733 39.725C222.462 42.376 225.806 43.701 229.763 43.701C233.72 43.701 237.63 42.376 239.793 39.725C242.522 37.74 243.887 33.685 243.887 29.557C243.887 25.404 242.522 22.15 239.793 19.39ZM180.274 57.649H164.249V14.16H150.575V1.46501H193.908V14.16H180.274V57.649ZM168.206 101.618H186.425V78.267H202.41V134.451H186.386V114.313H168.245V134.451H152.182V78.267H168.206V101.618ZM250.876 90.961H226.663V100.286H248.408V112.941H226.663V121.757H252.51V134.451H210.599V78.267H250.876V90.961ZM346.691 83.889C350.7 87.638 352.705 92.653 352.705 98.934C352.705 105.217 350.7 110.225 346.691 113.96C342.681 117.696 336.902 119.563 329.353 119.563H321.361V134.451H305.297V78.267H329.353C336.902 78.267 342.681 80.142 346.691 83.889ZM321.322 90.961V106.908H327.669C330.333 106.908 332.494 106.15 334.153 104.635C335.811 103.121 336.641 101.226 336.641 98.954C336.641 96.656 335.818 94.749 334.173 93.234C332.527 91.719 330.359 90.961 327.669 90.961H321.322ZM450.283 83.889C454.292 87.638 456.297 92.66 456.297 98.954C456.297 103.133 455.396 106.784 453.593 109.905C451.791 113.26 449.113 115.423 445.561 117.94L456.179 134.451H440.76L431.261 119.563H424.953V134.451H408.889V78.267H432.945C440.494 78.267 446.273 80.142 450.283 83.889ZM424.913 90.961V106.908H431.261C433.925 106.908 436.86 106.15 437.745 104.635C439.403 103.121 440.233 101.226 440.233 98.954C440.233 96.656 439.41 94.749 437.765 93.234C436.119 91.719 433.951 90.961 431.261 90.961H424.913Z" />
		</mask>
		<path fill-rule="evenodd" clip-rule="evenodd" d="M427.715 57.649H402.326V1.46501H427.715C436.151 1.46501 443.8 4.77001 448.284 9.30101C453.56 14.526 456.199 21.284 456.199 29.577C456.199 37.87 453.554 44.622 448.265 49.833C442.975 55.44 436.125 57.649 427.715 57.649ZM436.1 18.332C433.245 15.55 429.804 14.16 425.677 14.16H418.39V44.955H425.677C429.752 44.955 433.18 43.525 435.962 40.665C438.744 37.805 440.135 34.102 440.135 29.557C440.135 24.856 438.757 21.114 436.1 18.332ZM359.248 78.267H399.525V90.961H375.312V100.286H397.57V112.941H375.312V121.757H400.7V134.451H359.248V78.267ZM377.422 49.5H357.715L355.403 57.649H338.791L354.933 1.46501H380.165L396.346 57.649H379.695L377.422 49.5ZM367.588 14.669L361.319 36.845H373.779L367.588 14.669ZM316.708 31.399L299.978 44.994L283.248 31.399V57.649H267.185V0.76001L299.978 25.639L332.772 0.76001V57.649H316.708V31.399ZM276.265 121.757H297.187V134.451H260.24V78.267H276.304L276.265 121.757ZM244.945 54.789C240.426 57.166 235.359 58.355 229.743 58.355C224.127 58.355 219.6 57.166 214.541 54.789C210.22 52.413 206.451 49.24 203.826 44.622C201.201 40.221 199.888 35.199 199.888 29.557C199.888 23.915 201.201 18.894 203.826 14.493C206.451 10.92 210.22 6.70301 214.541 4.32501C219.6 1.94901 224.127 0.76001 229.743 0.76001C235.359 0.76001 240.426 1.94901 244.945 4.32501C249.464 6.70301 253.36 10.92 255.661 14.493C258.286 18.894 259.598 23.915 259.598 29.557C259.598 35.199 258.286 40.221 255.661 44.622C253.36 49.24 249.464 52.413 244.945 54.789ZM239.793 19.39C237.63 16.765 233.72 15.453 229.763 15.453C225.806 15.453 222.462 16.765 219.733 19.39C217.3 22.15 215.638 25.404 215.638 29.557C215.638 33.685 217.3 37.74 219.733 39.725C222.462 42.376 225.806 43.701 229.763 43.701C233.72 43.701 237.63 42.376 239.793 39.725C242.522 37.74 243.887 33.685 243.887 29.557C243.887 25.404 242.522 22.15 239.793 19.39ZM180.274 57.649H164.249V14.16H150.575V1.46501H193.908V14.16H180.274V57.649ZM168.206 101.618H186.425V78.267H202.41V134.451H186.386V114.313H168.245V134.451H152.182V78.267H168.206V101.618ZM250.876 90.961H226.663V100.286H248.408V112.941H226.663V121.757H252.51V134.451H210.599V78.267H250.876V90.961ZM346.691 83.889C350.7 87.638 352.705 92.653 352.705 98.934C352.705 105.217 350.7 110.225 346.691 113.96C342.681 117.696 336.902 119.563 329.353 119.563H321.361V134.451H305.297V78.267H329.353C336.902 78.267 342.681 80.142 346.691 83.889ZM321.322 90.961V106.908H327.669C330.333 106.908 332.494 106.15 334.153 104.635C335.811 103.121 336.641 101.226 336.641 98.954C336.641 96.656 335.818 94.749 334.173 93.234C332.527 91.719 330.359 90.961 327.669 90.961H321.322ZM450.283 83.889C454.292 87.638 456.297 92.66 456.297 98.954C456.297 103.133 455.396 106.784 453.593 109.905C451.791 113.26 449.113 115.423 445.561 117.94L456.179 134.451H440.76L431.261 119.563H424.953V134.451H408.889V78.267H432.945C440.494 78.267 446.273 80.142 450.283 83.889ZM424.913 90.961V106.908H431.261C433.925 106.908 436.86 106.15 437.745 104.635C439.403 103.121 440.233 101.226 440.233 98.954C440.233 96.656 439.41 94.749 437.765 93.234C436.119 91.719 433.951 90.961 431.261 90.961H424.913Z" fill="url(#paint4_linear_568_3127)" />
		<path fill-rule="evenodd" clip-rule="evenodd" d="M427.715 57.649H402.326V1.46501H427.715C436.151 1.46501 443.8 4.77001 448.284 9.30101C453.56 14.526 456.199 21.284 456.199 29.577C456.199 37.87 453.554 44.622 448.265 49.833C442.975 55.44 436.125 57.649 427.715 57.649ZM436.1 18.332C433.245 15.55 429.804 14.16 425.677 14.16H418.39V44.955H425.677C429.752 44.955 433.18 43.525 435.962 40.665C438.744 37.805 440.135 34.102 440.135 29.557C440.135 24.856 438.757 21.114 436.1 18.332ZM359.248 78.267H399.525V90.961H375.312V100.286H397.57V112.941H375.312V121.757H400.7V134.451H359.248V78.267ZM377.422 49.5H357.715L355.403 57.649H338.791L354.933 1.46501H380.165L396.346 57.649H379.695L377.422 49.5ZM367.588 14.669L361.319 36.845H373.779L367.588 14.669ZM316.708 31.399L299.978 44.994L283.248 31.399V57.649H267.185V0.76001L299.978 25.639L332.772 0.76001V57.649H316.708V31.399ZM276.265 121.757H297.187V134.451H260.24V78.267H276.304L276.265 121.757ZM244.945 54.789C240.426 57.166 235.359 58.355 229.743 58.355C224.127 58.355 219.6 57.166 214.541 54.789C210.22 52.413 206.451 49.24 203.826 44.622C201.201 40.221 199.888 35.199 199.888 29.557C199.888 23.915 201.201 18.894 203.826 14.493C206.451 10.92 210.22 6.70301 214.541 4.32501C219.6 1.94901 224.127 0.76001 229.743 0.76001C235.359 0.76001 240.426 1.94901 244.945 4.32501C249.464 6.70301 253.36 10.92 255.661 14.493C258.286 18.894 259.598 23.915 259.598 29.557C259.598 35.199 258.286 40.221 255.661 44.622C253.36 49.24 249.464 52.413 244.945 54.789ZM239.793 19.39C237.63 16.765 233.72 15.453 229.763 15.453C225.806 15.453 222.462 16.765 219.733 19.39C217.3 22.15 215.638 25.404 215.638 29.557C215.638 33.685 217.3 37.74 219.733 39.725C222.462 42.376 225.806 43.701 229.763 43.701C233.72 43.701 237.63 42.376 239.793 39.725C242.522 37.74 243.887 33.685 243.887 29.557C243.887 25.404 242.522 22.15 239.793 19.39ZM180.274 57.649H164.249V14.16H150.575V1.46501H193.908V14.16H180.274V57.649ZM168.206 101.618H186.425V78.267H202.41V134.451H186.386V114.313H168.245V134.451H152.182V78.267H168.206V101.618ZM250.876 90.961H226.663V100.286H248.408V112.941H226.663V121.757H252.51V134.451H210.599V78.267H250.876V90.961ZM346.691 83.889C350.7 87.638 352.705 92.653 352.705 98.934C352.705 105.217 350.7 110.225 346.691 113.96C342.681 117.696 336.902 119.563 329.353 119.563H321.361V134.451H305.297V78.267H329.353C336.902 78.267 342.681 80.142 346.691 83.889ZM321.322 90.961V106.908H327.669C330.333 106.908 332.494 106.15 334.153 104.635C335.811 103.121 336.641 101.226 336.641 98.954C336.641 96.656 335.818 94.749 334.173 93.234C332.527 91.719 330.359 90.961 327.669 90.961H321.322ZM450.283 83.889C454.292 87.638 456.297 92.66 456.297 98.954C456.297 103.133 455.396 106.784 453.593 109.905C451.791 113.26 449.113 115.423 445.561 117.94L456.179 134.451H440.76L431.261 119.563H424.953V134.451H408.889V78.267H432.945C440.494 78.267 446.273 80.142 450.283 83.889ZM424.913 90.961V106.908H431.261C433.925 106.908 436.86 106.15 437.745 104.635C439.403 103.121 440.233 101.226 440.233 98.954C440.233 96.656 439.41 94.749 437.765 93.234C436.119 91.719 433.951 90.961 431.261 90.961H424.913Z" stroke="white" stroke-width="7" mask="url(#path-9-outside-1_568_3127)" />
	</g>
	<path fill-rule="evenodd" clip-rule="evenodd" d="M427.715 57.649H402.326V1.46501H427.715C436.151 1.46501 443.8 4.77001 448.284 9.30101C453.56 14.526 456.199 21.284 456.199 29.577C456.199 37.87 453.554 44.622 448.265 49.833C442.975 55.44 436.125 57.649 427.715 57.649ZM436.1 18.332C433.245 15.55 429.804 14.16 425.677 14.16H418.39V44.955H425.677C429.752 44.955 433.18 43.525 435.962 40.665C438.744 37.805 440.135 34.102 440.135 29.557C440.135 24.856 438.757 21.114 436.1 18.332ZM359.248 78.267H399.525V90.961H375.312V100.286H397.57V112.941H375.312V121.757H400.7V134.451H359.248V78.267ZM377.422 49.5H357.715L355.403 57.649H338.791L354.933 1.46501H380.165L396.346 57.649H379.695L377.422 49.5ZM367.588 14.669L361.319 36.845H373.779L367.588 14.669ZM316.708 31.399L299.978 44.994L283.248 31.399V57.649H267.185V0.76001L299.978 25.639L332.772 0.76001V57.649H316.708V31.399ZM276.265 121.757H297.187V134.451H260.24V78.267H276.304L276.265 121.757ZM244.945 54.789C240.426 57.166 235.359 58.355 229.743 58.355C224.127 58.355 219.6 57.166 214.541 54.789C210.22 52.413 206.451 49.24 203.826 44.622C201.201 40.221 199.888 35.199 199.888 29.557C199.888 23.915 201.201 18.894 203.826 14.493C206.451 10.92 210.22 6.70301 214.541 4.32501C219.6 1.94901 224.127 0.76001 229.743 0.76001C235.359 0.76001 240.426 1.94901 244.945 4.32501C249.464 6.70301 253.36 10.92 255.661 14.493C258.286 18.894 259.598 23.915 259.598 29.557C259.598 35.199 258.286 40.221 255.661 44.622C253.36 49.24 249.464 52.413 244.945 54.789ZM239.793 19.39C237.63 16.765 233.72 15.453 229.763 15.453C225.806 15.453 222.462 16.765 219.733 19.39C217.3 22.15 215.638 25.404 215.638 29.557C215.638 33.685 217.3 37.74 219.733 39.725C222.462 42.376 225.806 43.701 229.763 43.701C233.72 43.701 237.63 42.376 239.793 39.725C242.522 37.74 243.887 33.685 243.887 29.557C243.887 25.404 242.522 22.15 239.793 19.39ZM180.274 57.649H164.249V14.16H150.575V1.46501H193.908V14.16H180.274V57.649ZM168.206 101.618H186.425V78.267H202.41V134.451H186.386V114.313H168.245V134.451H152.182V78.267H168.206V101.618ZM250.876 90.961H226.663V100.286H248.408V112.941H226.663V121.757H252.51V134.451H210.599V78.267H250.876V90.961ZM346.691 83.889C350.7 87.638 352.705 92.653 352.705 98.934C352.705 105.217 350.7 110.225 346.691 113.96C342.681 117.696 336.902 119.563 329.353 119.563H321.361V134.451H305.297V78.267H329.353C336.902 78.267 342.681 80.142 346.691 83.889ZM321.322 90.961V106.908H327.669C330.333 106.908 332.494 106.15 334.153 104.635C335.811 103.121 336.641 101.226 336.641 98.954C336.641 96.656 335.818 94.749 334.173 93.234C332.527 91.719 330.359 90.961 327.669 90.961H321.322ZM450.283 83.889C454.292 87.638 456.297 92.66 456.297 98.954C456.297 103.133 455.396 106.784 453.593 109.905C451.791 113.26 449.113 115.423 445.561 117.94L456.179 134.451H440.76L431.261 119.563H424.953V134.451H408.889V78.267H432.945C440.494 78.267 446.273 80.142 450.283 83.889ZM424.913 90.961V106.908H431.261C433.925 106.908 436.86 106.15 437.745 104.635C439.403 103.121 440.233 101.226 440.233 98.954C440.233 96.656 439.41 94.749 437.765 93.234C436.119 91.719 433.951 90.961 431.261 90.961H424.913Z" fill="url(#paint5_linear_568_3127)" />
	<g style="mix-blend-mode:plus-lighter">
		<path fill-rule="evenodd" clip-rule="evenodd" d="M427.715 57.649H402.326V1.46501H427.715C436.151 1.46501 443.8 4.77001 448.284 9.30101C453.56 14.526 456.199 21.284 456.199 29.577C456.199 37.87 453.554 44.622 448.265 49.833C442.975 55.44 436.125 57.649 427.715 57.649ZM436.1 18.332C433.245 15.55 429.804 14.16 425.677 14.16H418.39V44.955H425.677C429.752 44.955 433.18 43.525 435.962 40.665C438.744 37.805 440.135 34.102 440.135 29.557C440.135 24.856 438.757 21.114 436.1 18.332ZM359.248 78.267H399.525V90.961H375.312V100.286H397.57V112.941H375.312V121.757H400.7V134.451H359.248V78.267ZM377.422 49.5H357.715L355.403 57.649H338.791L354.933 1.46501H380.165L396.346 57.649H379.695L377.422 49.5ZM367.588 14.669L361.319 36.845H373.779L367.588 14.669ZM316.708 31.399L299.978 44.994L283.248 31.399V57.649H267.185V0.76001L299.978 25.639L332.772 0.76001V57.649H316.708V31.399ZM276.265 121.757H297.187V134.451H260.24V78.267H276.304L276.265 121.757ZM244.945 54.789C240.426 57.166 235.359 58.355 229.743 58.355C224.127 58.355 219.6 57.166 214.541 54.789C210.22 52.413 206.451 49.24 203.826 44.622C201.201 40.221 199.888 35.199 199.888 29.557C199.888 23.915 201.201 18.894 203.826 14.493C206.451 10.92 210.22 6.70301 214.541 4.32501C219.6 1.94901 224.127 0.76001 229.743 0.76001C235.359 0.76001 240.426 1.94901 244.945 4.32501C249.464 6.70301 253.36 10.92 255.661 14.493C258.286 18.894 259.598 23.915 259.598 29.557C259.598 35.199 258.286 40.221 255.661 44.622C253.36 49.24 249.464 52.413 244.945 54.789ZM239.793 19.39C237.63 16.765 233.72 15.453 229.763 15.453C225.806 15.453 222.462 16.765 219.733 19.39C217.3 22.15 215.638 25.404 215.638 29.557C215.638 33.685 217.3 37.74 219.733 39.725C222.462 42.376 225.806 43.701 229.763 43.701C233.72 43.701 237.63 42.376 239.793 39.725C242.522 37.74 243.887 33.685 243.887 29.557C243.887 25.404 242.522 22.15 239.793 19.39ZM180.274 57.649H164.249V14.16H150.575V1.46501H193.908V14.16H180.274V57.649ZM168.206 101.618H186.425V78.267H202.41V134.451H186.386V114.313H168.245V134.451H152.182V78.267H168.206V101.618ZM250.876 90.961H226.663V100.286H248.408V112.941H226.663V121.757H252.51V134.451H210.599V78.267H250.876V90.961ZM346.691 83.889C350.7 87.638 352.705 92.653 352.705 98.934C352.705 105.217 350.7 110.225 346.691 113.96C342.681 117.696 336.902 119.563 329.353 119.563H321.361V134.451H305.297V78.267H329.353C336.902 78.267 342.681 80.142 346.691 83.889ZM321.322 90.961V106.908H327.669C330.333 106.908 332.494 106.15 334.153 104.635C335.811 103.121 336.641 101.226 336.641 98.954C336.641 96.656 335.818 94.749 334.173 93.234C332.527 91.719 330.359 90.961 327.669 90.961H321.322ZM450.283 83.889C454.292 87.638 456.297 92.66 456.297 98.954C456.297 103.133 455.396 106.784 453.593 109.905C451.791 113.26 449.113 115.423 445.561 117.94L456.179 134.451H440.76L431.261 119.563H424.953V134.451H408.889V78.267H432.945C440.494 78.267 446.273 80.142 450.283 83.889ZM424.913 90.961V106.908H431.261C433.925 106.908 436.86 106.15 437.745 104.635C439.403 103.121 440.233 101.226 440.233 98.954C440.233 96.656 439.41 94.749 437.765 93.234C436.119 91.719 433.951 90.961 431.261 90.961H424.913Z" fill="url(#paint6_radial_568_3127)" />
	</g>
	<defs>
		<filter id="filter0_d_568_3127" x="-8.46154" y="-0.064209" width="156.923" height="152.564" filterUnits="userSpaceOnUse" color-interpolation-filters="sRGB">
			<feFlood flood-opacity="0" result="BackgroundImageFix" />
			<feColorMatrix in="SourceAlpha" type="matrix" values="0 0 0 0 0 0 0 0 0 0 0 0 0 0 0 0 0 0 127 0" result="hardAlpha" />
			<feOffset dy="8.71795" />
			<feGaussianBlur stdDeviation="4.35897" />
			<feComposite in2="hardAlpha" operator="out" />
			<feColorMatrix type="matrix" values="0 0 0 0 0 0 0 0 0 0 0 0 0 0 0 0 0 0 0.3 0" />
			<feBlend mode="normal" in2="BackgroundImageFix" result="effect1_dropShadow_568_3127" />
			<feBlend mode="normal" in="SourceGraphic" in2="effect1_dropShadow_568_3127" result="shape" />
		</filter>
		<filter id="filter1_d_568_3127" x="-8.46154" y="-8.78216" width="156.923" height="152.564" filterUnits="userSpaceOnUse" color-interpolation-filters="sRGB">
			<feFlood flood-opacity="0" result="BackgroundImageFix" />
			<feColorMatrix in="SourceAlpha" type="matrix" values="0 0 0 0 0 0 0 0 0 0 0 0 0 0 0 0 0 0 127 0" result="hardAlpha" />
			<feOffset />
			<feGaussianBlur stdDeviation="4.35897" />
			<feComposite in2="hardAlpha" operator="out" />
			<feColorMatrix type="matrix" values="0 0 0 0 0 0 0 0 0 0 0 0 0 0 0 0 0 0 0.25 0" />
			<feBlend mode="normal" in2="BackgroundImageFix" result="effect1_dropShadow_568_3127" />
			<feBlend mode="normal" in="SourceGraphic" in2="effect1_dropShadow_568_3127" result="shape" />
		</filter>
		<filter id="filter2_d_568_3127" x="131.075" y="-14.2886" width="347.516" height="176.24" filterUnits="userSpaceOnUse" color-interpolation-filters="sRGB">
			<feFlood flood-opacity="0" result="BackgroundImageFix" />
			<feColorMatrix in="SourceAlpha" type="matrix" values="0 0 0 0 0 0 0 0 0 0 0 0 0 0 0 0 0 0 127 0" result="hardAlpha" />
			<feOffset dy="8" />
			<feGaussianBlur stdDeviation="8" />
			<feComposite in2="hardAlpha" operator="out" />
			<feColorMatrix type="matrix" values="0 0 0 0 0 0 0 0 0 0 0 0 0 0 0 0 0 0 0.2 0" />
			<feBlend mode="normal" in2="BackgroundImageFix" result="effect1_dropShadow_568_3127" />
			<feBlend mode="normal" in="SourceGraphic" in2="effect1_dropShadow_568_3127" result="shape" />
		</filter>
		<linearGradient id="paint0_linear_568_3127" x1="39.2134" y1="59.8262" x2="49.0709" y2="89.4284" gradientUnits="userSpaceOnUse">
			<stop stop-color="#FB7299" />
			<stop offset="1" stop-color="#FB7299" stop-opacity="0" />
		</linearGradient>
		<linearGradient id="paint1_linear_568_3127" x1="70" y1="58.6145" x2="70" y2="74.5415" gradientUnits="userSpaceOnUse">
			<stop stop-opacity="0" />
			<stop offset="1" />
		</linearGradient>
		<linearGradient id="paint2_linear_568_3127" x1="0.256408" y1="90.3845" x2="138.662" y2="69.7346" gradientUnits="userSpaceOnUse">
			<stop stop-color="#FB7299" />
			<stop offset="1" stop-color="#FB7299" stop-opacity="0" />
		</linearGradient>
		<linearGradient id="paint3_linear_568_3127" x1="43.8462" y1="-21.8592" x2="98.3333" y2="52.2434" gradientUnits="userSpaceOnUse">
			<stop />
			<stop offset="1" stop-opacity="0" />
		</linearGradient>
		<linearGradient id="paint4_linear_568_3127" x1="151" y1="1" x2="456" y2="134" gradientUnits="userSpaceOnUse">
			<stop stop-color="#FB7299" />
			<stop offset="1" stop-color="#2FBDEC" />
		</linearGradient>
		<linearGradient id="paint5_linear_568_3127" x1="456" y1="0.999997" x2="151" y2="134" gradientUnits="userSpaceOnUse">
			<stop stop-opacity="0.3" />
			<stop offset="0.300778" stop-opacity="0" />
			<stop offset="0.695359" stop-opacity="0" />
			<stop offset="1" stop-opacity="0.3" />
		</linearGradient>
		<radialGradient id="paint6_radial_568_3127" cx="0" cy="0" r="1" gradientUnits="userSpaceOnUse" gradientTransform="translate(303.5 67.5) rotate(156.44) scale(166.369 380.448)">
			<stop stop-color="white" stop-opacity="0.15" />
			<stop offset="1" stop-color="white" stop-opacity="0" />
		</radialGradient>
	</defs>
</svg>
