<svg width="457" height="135" viewBox="0 0 457 135" xmlns="http://www.w3.org/2000/svg">
	<path fill-rule="evenodd" clip-rule="evenodd" d="M38.9238 57.4804C37.8794 60.1271 37.4503 63.744 37.4503 67.6585C37.4503 77.2372 40.5138 85.1015 46.849 91.253C53.1815 98.0729 60.9416 100.481 70.1248 100.481C79.308 100.481 87.0654 98.0729 93.4006 91.253C99.734 85.1015 102.902 77.2372 102.902 67.6585C102.902 58.0215 99.734 50.1564 93.4006 44.0649C87.0654 37.9733 79.308 34.9276 70.1248 34.9276C62.5845 34.9276 56.0207 37.0155 50.4015 41.1224C62.8582 19.5019 85.2945 7.85823 93.5736 4.24922C97.6629 5.69353 101.595 7.12725 105.746 9.62213C115.842 14.6216 124.132 22.4867 130.223 32.6993C136.315 42.9137 139.361 54.5661 139.361 67.6585C139.361 80.7518 136.315 92.4051 130.223 102.618C124.132 112.833 115.842 120.697 105.746 126.212C94.8696 131.729 83.1103 135.169 70.786 135.169C57.0456 135.169 45.899 131.729 34.8019 126.212C24.3147 120.697 16.0267 112.833 9.93429 102.618C4.33538 92.4051 0.796997 80.7518 0.796997 67.6585C0.796997 54.5661 4.33538 42.9137 9.93429 32.6993C16.0267 22.4867 24.3147 14.6216 34.8019 9.62213C45.899 3.59063 57.0456 0.831787 70.786 0.831787C75.8649 0.831787 81.3844 1.40739 86.669 2.49504C52.8354 18.1847 42.2265 44.0437 38.9238 57.4804Z" />
	<path fill-rule="evenodd" clip-rule="evenodd" d="M427.715 57.649H402.326V1.46501H427.715C436.151 1.46501 443.8 4.77001 448.284 9.30101C453.56 14.526 456.199 21.284 456.199 29.577C456.199 37.87 453.554 44.622 448.265 49.833C442.975 55.44 436.125 57.649 427.715 57.649ZM436.1 18.332C433.245 15.55 429.804 14.16 425.677 14.16H418.39V44.955H425.677C429.752 44.955 433.18 43.525 435.962 40.665C438.744 37.805 440.135 34.102 440.135 29.557C440.135 24.856 438.757 21.114 436.1 18.332ZM359.248 78.267H399.525V90.961H375.312V100.286H397.57V112.941H375.312V121.757H400.7V134.451H359.248V78.267ZM377.422 49.5H357.715L355.403 57.649H338.791L354.933 1.46501H380.165L396.346 57.649H379.695L377.422 49.5ZM367.588 14.669L361.319 36.845H373.779L367.588 14.669ZM316.708 31.399L299.978 44.994L283.248 31.399V57.649H267.185V0.76001L299.978 25.639L332.772 0.76001V57.649H316.708V31.399ZM276.265 121.757H297.187V134.451H260.24V78.267H276.304L276.265 121.757ZM244.945 54.789C240.426 57.166 235.359 58.355 229.743 58.355C224.127 58.355 219.6 57.166 214.541 54.789C210.22 52.413 206.451 49.24 203.826 44.622C201.201 40.221 199.888 35.199 199.888 29.557C199.888 23.915 201.201 18.894 203.826 14.493C206.451 10.92 210.22 6.70301 214.541 4.32501C219.6 1.94901 224.127 0.76001 229.743 0.76001C235.359 0.76001 240.426 1.94901 244.945 4.32501C249.464 6.70301 253.36 10.92 255.661 14.493C258.286 18.894 259.598 23.915 259.598 29.557C259.598 35.199 258.286 40.221 255.661 44.622C253.36 49.24 249.464 52.413 244.945 54.789ZM239.793 19.39C237.63 16.765 233.72 15.453 229.763 15.453C225.806 15.453 222.462 16.765 219.733 19.39C217.3 22.15 215.638 25.404 215.638 29.557C215.638 33.685 217.3 37.74 219.733 39.725C222.462 42.376 225.806 43.701 229.763 43.701C233.72 43.701 237.63 42.376 239.793 39.725C242.522 37.74 243.887 33.685 243.887 29.557C243.887 25.404 242.522 22.15 239.793 19.39ZM180.274 57.649H164.249V14.16H150.575V1.46501H193.908V14.16H180.274V57.649ZM168.206 101.618H186.425V78.267H202.41V134.451H186.386V114.313H168.245V134.451H152.182V78.267H168.206V101.618ZM250.876 90.961H226.663V100.286H248.408V112.941H226.663V121.757H252.51V134.451H210.599V78.267H250.876V90.961ZM346.691 83.889C350.7 87.638 352.705 92.653 352.705 98.934C352.705 105.217 350.7 110.225 346.691 113.96C342.681 117.696 336.902 119.563 329.353 119.563H321.361V134.451H305.297V78.267H329.353C336.902 78.267 342.681 80.142 346.691 83.889ZM321.322 90.961V106.908H327.669C330.333 106.908 332.494 106.15 334.153 104.635C335.811 103.121 336.641 101.226 336.641 98.954C336.641 96.656 335.818 94.749 334.173 93.234C332.527 91.719 330.359 90.961 327.669 90.961H321.322ZM450.283 83.889C454.292 87.638 456.297 92.66 456.297 98.954C456.297 103.133 455.396 106.784 453.593 109.905C451.791 113.26 449.113 115.423 445.561 117.94L456.179 134.451H440.76L431.261 119.563H424.953V134.451H408.889V78.267H432.945C440.494 78.267 446.273 80.142 450.283 83.889ZM424.913 90.961V106.908H431.261C433.925 106.908 436.86 106.15 437.745 104.635C439.403 103.121 440.233 101.226 440.233 98.954C440.233 96.656 439.41 94.749 437.765 93.234C436.119 91.719 433.951 90.961 431.261 90.961H424.913Z" />
</svg>
