<svg width="457" height="135" viewBox="0 0 457 135" fill="none" xmlns="http://www.w3.org/2000/svg">
	<g>
		<g filter="url(#filter0_d_568_3127)">
			<path fill-rule="evenodd" clip-rule="evenodd" d="M38.9238 57.4804C37.8794 60.1271 37.4503 63.744 37.4503 67.6585C37.4503 77.2372 40.5138 85.1015 46.849 91.253C53.1815 98.0729 60.9416 100.481 70.1248 100.481C79.308 100.481 87.0654 98.0729 93.4006 91.253C99.734 85.1015 102.902 77.2372 102.902 67.6585C102.902 58.0215 99.734 50.1564 93.4006 44.0649C87.0654 37.9733 79.308 34.9276 70.1248 34.9276C62.5845 34.9276 56.0207 37.0155 50.4015 41.1224C62.8582 19.5019 85.2945 7.85823 93.5736 4.24922C97.6629 5.69353 101.595 7.12725 105.746 9.62213C115.842 14.6216 124.132 22.4867 130.223 32.6993C136.315 42.9137 139.361 54.5661 139.361 67.6585C139.361 80.7518 136.315 92.4051 130.223 102.618C124.132 112.833 115.842 120.697 105.746 126.212C94.8696 131.729 83.1103 135.169 70.786 135.169C57.0456 135.169 45.899 131.729 34.8019 126.212C24.3147 120.697 16.0267 112.833 9.93429 102.618C4.33538 92.4051 0.796997 80.7518 0.796997 67.6585C0.796997 54.5661 4.33538 42.9137 9.93429 32.6993C16.0267 22.4867 24.3147 14.6216 34.8019 9.62213C45.899 3.59063 57.0456 0.831787 70.786 0.831787C75.8649 0.831787 81.3844 1.40739 86.669 2.49504C52.8354 18.1847 42.2265 44.0437 38.9238 57.4804Z" fill="#2FBDEC" />
		</g>
		<g filter="url(#filter1_d_568_3127)">
			<path fill-rule="evenodd" clip-rule="evenodd" d="M38.9238 57.4804C37.8794 60.1271 37.4503 63.744 37.4503 67.6585C37.4503 77.2372 40.5138 85.1015 46.849 91.253C53.1815 98.0729 60.9416 100.481 70.1248 100.481C79.308 100.481 87.0654 98.0729 93.4006 91.253C99.734 85.1015 102.902 77.2372 102.902 67.6585C102.902 58.0215 99.734 50.1564 93.4006 44.0649C87.0654 37.9733 79.308 34.9276 70.1248 34.9276C62.5845 34.9276 56.0207 37.0155 50.4015 41.1224C62.8582 19.5019 85.2945 7.85823 93.5736 4.24922C97.6629 5.69353 101.595 7.12725 105.746 9.62213C115.842 14.6216 124.132 22.4867 130.223 32.6993C136.315 42.9137 139.361 54.5661 139.361 67.6585C139.361 80.7518 136.315 92.4051 130.223 102.618C124.132 112.833 115.842 120.697 105.746 126.212C94.8696 131.729 83.1103 135.169 70.786 135.169C57.0456 135.169 45.899 131.729 34.8019 126.212C24.3147 120.697 16.0267 112.833 9.93429 102.618C4.33538 92.4051 0.796997 80.7518 0.796997 67.6585C0.796997 54.5661 4.33538 42.9137 9.93429 32.6993C16.0267 22.4867 24.3147 14.6216 34.8019 9.62213C45.899 3.59063 57.0456 0.831787 70.786 0.831787C75.8649 0.831787 81.3844 1.40739 86.669 2.49504C52.8354 18.1847 42.2265 44.0437 38.9238 57.4804Z" fill="#2FBDEC" />
		</g>
		<path d="M37.4503 67.6585C37.4503 63.744 37.8794 60.1271 38.9238 57.4804C42.2265 44.0437 52.8354 18.1847 86.669 2.49504C81.3844 1.40739 75.8649 0.831787 70.786 0.831787C57.0457 0.831787 45.899 3.59063 34.8019 9.62213C24.3147 14.6216 16.0267 22.4867 9.93429 32.6993C4.33538 42.9137 0.796997 54.5661 0.796997 67.6585C0.796997 80.7518 4.33538 92.4051 9.93429 102.618C16.0267 112.833 24.3147 120.697 34.8019 126.212C45.899 131.729 56.3844 135.169 70.1248 135.169V100.481C60.9416 100.481 53.1815 98.0729 46.849 91.253C40.5138 85.1015 37.4503 77.2372 37.4503 67.6585Z" fill="url(#paint0_linear_568_3127)" />
		<mask id="mask0_568_3127" style="mask-type:alpha" maskUnits="userSpaceOnUse" x="0" y="52" width="140" height="86">
			<rect x="0.256409" y="52.7437" width="139.487" height="85" fill="url(#paint1_linear_568_3127)" />
		</mask>
		<g mask="url(#mask0_568_3127)">
			<path fill-rule="evenodd" clip-rule="evenodd" d="M38.9238 57.4804C37.8794 60.1271 37.4503 63.744 37.4503 67.6585C37.4503 77.2372 40.5138 85.1015 46.849 91.253C53.1815 98.0729 60.9416 100.481 70.1248 100.481C79.308 100.481 87.0654 98.0729 93.4006 91.253C99.734 85.1015 102.902 77.2372 102.902 67.6585C102.902 58.0215 99.734 50.1564 93.4006 44.0649C87.0654 37.9733 79.308 34.9276 70.1248 34.9276C62.5845 34.9276 56.0207 37.0155 50.4015 41.1224C62.8582 19.5019 85.2945 7.85823 93.5736 4.24922C97.6629 5.69353 101.595 7.12725 105.746 9.62213C115.842 14.6216 124.132 22.4867 130.223 32.6993C136.315 42.9137 139.361 54.5661 139.361 67.6585C139.361 80.7518 136.315 92.4051 130.223 102.618C124.132 112.833 115.842 120.697 105.746 126.212C94.8696 131.729 83.1103 135.169 70.786 135.169C57.0456 135.169 45.899 131.729 34.8019 126.212C24.3147 120.697 16.0267 112.833 9.93429 102.618C4.33538 92.4051 0.796997 80.7518 0.796997 67.6585C0.796997 54.5661 4.33538 42.9137 9.93429 32.6993C16.0267 22.4867 24.3147 14.6216 34.8019 9.62213C45.899 3.59063 57.0456 0.831787 70.786 0.831787C75.8649 0.831787 81.3844 1.40739 86.669 2.49504C52.8354 18.1847 42.2265 44.0437 38.9238 57.4804Z" fill="url(#paint2_linear_568_3127)" />
		</g>
		<path d="M94.9114 42.494L94.9112 42.4938C88.1504 35.993 79.8433 32.7481 70.1248 32.7481C65.4295 32.7481 61.0637 33.5173 57.0384 35.0485C69.0299 19.1463 86.0501 10.0174 93.6632 6.59323C97.4347 7.93511 100.943 9.27813 104.623 11.4902L104.699 11.5359L104.779 11.5753C114.472 16.375 122.458 23.9357 128.352 33.8157C134.222 43.659 137.181 54.9184 137.181 67.6585C137.181 80.3996 134.222 91.6598 128.352 101.501L128.352 101.501C122.468 111.368 114.475 118.954 104.73 124.284C94.0988 129.672 82.6867 132.99 70.786 132.99C57.4662 132.99 46.6576 129.669 35.7945 124.272C25.6859 118.951 17.7079 111.384 11.8264 101.535C6.39267 91.6122 2.97648 80.3277 2.97648 67.6585C2.97648 54.9903 6.39261 43.7067 11.8264 33.7818C17.7154 23.9236 25.6849 16.3829 35.7397 11.5895L35.7919 11.5646L35.8426 11.537C46.5981 5.6913 57.3829 3.01127 70.786 3.01127C73.6441 3.01127 76.6534 3.19964 79.6823 3.56495C49.9454 19.6968 40.0777 43.7677 36.8415 56.8217C35.6904 59.8252 35.2709 63.7031 35.2709 67.6585C35.2709 77.7322 38.5095 86.1722 45.2902 92.7773C52.1346 100.124 60.5298 102.661 70.1248 102.661C79.7201 102.661 88.1125 100.124 94.9592 92.7774C101.726 86.1843 105.081 77.7512 105.081 67.6585C105.081 57.4921 101.716 49.0384 94.9114 42.494Z" stroke="white" stroke-width="4.35897" />
		<g filter="url(#filter2_d_568_3127)">
			<mask id="path-7-outside-1_568_3127" maskUnits="userSpaceOnUse" x="146.575" y="-7.23999" width="317" height="146" fill="black">
				<rect fill="white" x="146.575" y="-7.23999" width="317" height="146" />
				<path fill-rule="evenodd" clip-rule="evenodd" d="M427.715 57.649H402.326V1.46501H427.715C436.151 1.46501 443.8 4.77001 448.284 9.30101C453.56 14.526 456.199 21.284 456.199 29.577C456.199 37.87 453.554 44.622 448.265 49.833C442.975 55.44 436.125 57.649 427.715 57.649ZM436.1 18.332C433.245 15.55 429.804 14.16 425.677 14.16H418.39V44.955H425.677C429.752 44.955 433.18 43.525 435.962 40.665C438.744 37.805 440.135 34.102 440.135 29.557C440.135 24.856 438.757 21.114 436.1 18.332ZM359.248 78.267H399.525V90.961H375.312V100.286H397.57V112.941H375.312V121.757H400.7V134.451H359.248V78.267ZM377.422 49.5H357.715L355.403 57.649H338.791L354.933 1.46501H380.165L396.346 57.649H379.695L377.422 49.5ZM367.588 14.669L361.319 36.845H373.779L367.588 14.669ZM316.708 31.399L299.978 44.994L283.248 31.399V57.649H267.185V0.76001L299.978 25.639L332.772 0.76001V57.649H316.708V31.399ZM276.265 121.757H297.187V134.451H260.24V78.267H276.304L276.265 121.757ZM244.945 54.789C240.426 57.166 235.359 58.355 229.743 58.355C224.127 58.355 219.6 57.166 214.541 54.789C210.22 52.413 206.451 49.24 203.826 44.622C201.201 40.221 199.888 35.199 199.888 29.557C199.888 23.915 201.201 18.894 203.826 14.493C206.451 10.92 210.22 6.70301 214.541 4.32501C219.6 1.94901 224.127 0.76001 229.743 0.76001C235.359 0.76001 240.426 1.94901 244.945 4.32501C249.464 6.70301 253.36 10.92 255.661 14.493C258.286 18.894 259.598 23.915 259.598 29.557C259.598 35.199 258.286 40.221 255.661 44.622C253.36 49.24 249.464 52.413 244.945 54.789ZM239.793 19.39C237.63 16.765 233.72 15.453 229.763 15.453C225.806 15.453 222.462 16.765 219.733 19.39C217.3 22.15 215.638 25.404 215.638 29.557C215.638 33.685 217.3 37.74 219.733 39.725C222.462 42.376 225.806 43.701 229.763 43.701C233.72 43.701 237.63 42.376 239.793 39.725C242.522 37.74 243.887 33.685 243.887 29.557C243.887 25.404 242.522 22.15 239.793 19.39ZM180.274 57.649H164.249V14.16H150.575V1.46501H193.908V14.16H180.274V57.649ZM168.206 101.618H186.425V78.267H202.41V134.451H186.386V114.313H168.245V134.451H152.182V78.267H168.206V101.618ZM250.876 90.961H226.663V100.286H248.408V112.941H226.663V121.757H252.51V134.451H210.599V78.267H250.876V90.961ZM346.691 83.889C350.7 87.638 352.705 92.653 352.705 98.934C352.705 105.217 350.7 110.225 346.691 113.96C342.681 117.696 336.902 119.563 329.353 119.563H321.361V134.451H305.297V78.267H329.353C336.902 78.267 342.681 80.142 346.691 83.889ZM321.322 90.961V106.908H327.669C330.333 106.908 332.494 106.15 334.153 104.635C335.811 103.121 336.641 101.226 336.641 98.954C336.641 96.656 335.818 94.749 334.173 93.234C332.527 91.719 330.359 90.961 327.669 90.961H321.322ZM450.283 83.889C454.292 87.638 456.297 92.66 456.297 98.954C456.297 103.133 455.396 106.784 453.593 109.905C451.791 113.26 449.113 115.423 445.561 117.94L456.179 134.451H440.76L431.261 119.563H424.953V134.451H408.889V78.267H432.945C440.494 78.267 446.273 80.142 450.283 83.889ZM424.913 90.961V106.908H431.261C433.925 106.908 436.86 106.15 437.745 104.635C439.403 103.121 440.233 101.226 440.233 98.954C440.233 96.656 439.41 94.749 437.765 93.234C436.119 91.719 433.951 90.961 431.261 90.961H424.913Z" />
			</mask>
			<path fill-rule="evenodd" clip-rule="evenodd" d="M427.715 57.649H402.326V1.46501H427.715C436.151 1.46501 443.8 4.77001 448.284 9.30101C453.56 14.526 456.199 21.284 456.199 29.577C456.199 37.87 453.554 44.622 448.265 49.833C442.975 55.44 436.125 57.649 427.715 57.649ZM436.1 18.332C433.245 15.55 429.804 14.16 425.677 14.16H418.39V44.955H425.677C429.752 44.955 433.18 43.525 435.962 40.665C438.744 37.805 440.135 34.102 440.135 29.557C440.135 24.856 438.757 21.114 436.1 18.332ZM359.248 78.267H399.525V90.961H375.312V100.286H397.57V112.941H375.312V121.757H400.7V134.451H359.248V78.267ZM377.422 49.5H357.715L355.403 57.649H338.791L354.933 1.46501H380.165L396.346 57.649H379.695L377.422 49.5ZM367.588 14.669L361.319 36.845H373.779L367.588 14.669ZM316.708 31.399L299.978 44.994L283.248 31.399V57.649H267.185V0.76001L299.978 25.639L332.772 0.76001V57.649H316.708V31.399ZM276.265 121.757H297.187V134.451H260.24V78.267H276.304L276.265 121.757ZM244.945 54.789C240.426 57.166 235.359 58.355 229.743 58.355C224.127 58.355 219.6 57.166 214.541 54.789C210.22 52.413 206.451 49.24 203.826 44.622C201.201 40.221 199.888 35.199 199.888 29.557C199.888 23.915 201.201 18.894 203.826 14.493C206.451 10.92 210.22 6.70301 214.541 4.32501C219.6 1.94901 224.127 0.76001 229.743 0.76001C235.359 0.76001 240.426 1.94901 244.945 4.32501C249.464 6.70301 253.36 10.92 255.661 14.493C258.286 18.894 259.598 23.915 259.598 29.557C259.598 35.199 258.286 40.221 255.661 44.622C253.36 49.24 249.464 52.413 244.945 54.789ZM239.793 19.39C237.63 16.765 233.72 15.453 229.763 15.453C225.806 15.453 222.462 16.765 219.733 19.39C217.3 22.15 215.638 25.404 215.638 29.557C215.638 33.685 217.3 37.74 219.733 39.725C222.462 42.376 225.806 43.701 229.763 43.701C233.72 43.701 237.63 42.376 239.793 39.725C242.522 37.74 243.887 33.685 243.887 29.557C243.887 25.404 242.522 22.15 239.793 19.39ZM180.274 57.649H164.249V14.16H150.575V1.46501H193.908V14.16H180.274V57.649ZM168.206 101.618H186.425V78.267H202.41V134.451H186.386V114.313H168.245V134.451H152.182V78.267H168.206V101.618ZM250.876 90.961H226.663V100.286H248.408V112.941H226.663V121.757H252.51V134.451H210.599V78.267H250.876V90.961ZM346.691 83.889C350.7 87.638 352.705 92.653 352.705 98.934C352.705 105.217 350.7 110.225 346.691 113.96C342.681 117.696 336.902 119.563 329.353 119.563H321.361V134.451H305.297V78.267H329.353C336.902 78.267 342.681 80.142 346.691 83.889ZM321.322 90.961V106.908H327.669C330.333 106.908 332.494 106.15 334.153 104.635C335.811 103.121 336.641 101.226 336.641 98.954C336.641 96.656 335.818 94.749 334.173 93.234C332.527 91.719 330.359 90.961 327.669 90.961H321.322ZM450.283 83.889C454.292 87.638 456.297 92.66 456.297 98.954C456.297 103.133 455.396 106.784 453.593 109.905C451.791 113.26 449.113 115.423 445.561 117.94L456.179 134.451H440.76L431.261 119.563H424.953V134.451H408.889V78.267H432.945C440.494 78.267 446.273 80.142 450.283 83.889ZM424.913 90.961V106.908H431.261C433.925 106.908 436.86 106.15 437.745 104.635C439.403 103.121 440.233 101.226 440.233 98.954C440.233 96.656 439.41 94.749 437.765 93.234C436.119 91.719 433.951 90.961 431.261 90.961H424.913Z" fill="url(#paint3_linear_568_3127)" />
			<path fill-rule="evenodd" clip-rule="evenodd" d="M427.715 57.649H402.326V1.46501H427.715C436.151 1.46501 443.8 4.77001 448.284 9.30101C453.56 14.526 456.199 21.284 456.199 29.577C456.199 37.87 453.554 44.622 448.265 49.833C442.975 55.44 436.125 57.649 427.715 57.649ZM436.1 18.332C433.245 15.55 429.804 14.16 425.677 14.16H418.39V44.955H425.677C429.752 44.955 433.18 43.525 435.962 40.665C438.744 37.805 440.135 34.102 440.135 29.557C440.135 24.856 438.757 21.114 436.1 18.332ZM359.248 78.267H399.525V90.961H375.312V100.286H397.57V112.941H375.312V121.757H400.7V134.451H359.248V78.267ZM377.422 49.5H357.715L355.403 57.649H338.791L354.933 1.46501H380.165L396.346 57.649H379.695L377.422 49.5ZM367.588 14.669L361.319 36.845H373.779L367.588 14.669ZM316.708 31.399L299.978 44.994L283.248 31.399V57.649H267.185V0.76001L299.978 25.639L332.772 0.76001V57.649H316.708V31.399ZM276.265 121.757H297.187V134.451H260.24V78.267H276.304L276.265 121.757ZM244.945 54.789C240.426 57.166 235.359 58.355 229.743 58.355C224.127 58.355 219.6 57.166 214.541 54.789C210.22 52.413 206.451 49.24 203.826 44.622C201.201 40.221 199.888 35.199 199.888 29.557C199.888 23.915 201.201 18.894 203.826 14.493C206.451 10.92 210.22 6.70301 214.541 4.32501C219.6 1.94901 224.127 0.76001 229.743 0.76001C235.359 0.76001 240.426 1.94901 244.945 4.32501C249.464 6.70301 253.36 10.92 255.661 14.493C258.286 18.894 259.598 23.915 259.598 29.557C259.598 35.199 258.286 40.221 255.661 44.622C253.36 49.24 249.464 52.413 244.945 54.789ZM239.793 19.39C237.63 16.765 233.72 15.453 229.763 15.453C225.806 15.453 222.462 16.765 219.733 19.39C217.3 22.15 215.638 25.404 215.638 29.557C215.638 33.685 217.3 37.74 219.733 39.725C222.462 42.376 225.806 43.701 229.763 43.701C233.72 43.701 237.63 42.376 239.793 39.725C242.522 37.74 243.887 33.685 243.887 29.557C243.887 25.404 242.522 22.15 239.793 19.39ZM180.274 57.649H164.249V14.16H150.575V1.46501H193.908V14.16H180.274V57.649ZM168.206 101.618H186.425V78.267H202.41V134.451H186.386V114.313H168.245V134.451H152.182V78.267H168.206V101.618ZM250.876 90.961H226.663V100.286H248.408V112.941H226.663V121.757H252.51V134.451H210.599V78.267H250.876V90.961ZM346.691 83.889C350.7 87.638 352.705 92.653 352.705 98.934C352.705 105.217 350.7 110.225 346.691 113.96C342.681 117.696 336.902 119.563 329.353 119.563H321.361V134.451H305.297V78.267H329.353C336.902 78.267 342.681 80.142 346.691 83.889ZM321.322 90.961V106.908H327.669C330.333 106.908 332.494 106.15 334.153 104.635C335.811 103.121 336.641 101.226 336.641 98.954C336.641 96.656 335.818 94.749 334.173 93.234C332.527 91.719 330.359 90.961 327.669 90.961H321.322ZM450.283 83.889C454.292 87.638 456.297 92.66 456.297 98.954C456.297 103.133 455.396 106.784 453.593 109.905C451.791 113.26 449.113 115.423 445.561 117.94L456.179 134.451H440.76L431.261 119.563H424.953V134.451H408.889V78.267H432.945C440.494 78.267 446.273 80.142 450.283 83.889ZM424.913 90.961V106.908H431.261C433.925 106.908 436.86 106.15 437.745 104.635C439.403 103.121 440.233 101.226 440.233 98.954C440.233 96.656 439.41 94.749 437.765 93.234C436.119 91.719 433.951 90.961 431.261 90.961H424.913Z" stroke="white" stroke-width="7" mask="url(#path-7-outside-1_568_3127)" />
		</g>
		<path fill-rule="evenodd" clip-rule="evenodd" d="M427.715 57.649H402.326V1.46501H427.715C436.151 1.46501 443.8 4.77001 448.284 9.30101C453.56 14.526 456.199 21.284 456.199 29.577C456.199 37.87 453.554 44.622 448.265 49.833C442.975 55.44 436.125 57.649 427.715 57.649ZM436.1 18.332C433.245 15.55 429.804 14.16 425.677 14.16H418.39V44.955H425.677C429.752 44.955 433.18 43.525 435.962 40.665C438.744 37.805 440.135 34.102 440.135 29.557C440.135 24.856 438.757 21.114 436.1 18.332ZM359.248 78.267H399.525V90.961H375.312V100.286H397.57V112.941H375.312V121.757H400.7V134.451H359.248V78.267ZM377.422 49.5H357.715L355.403 57.649H338.791L354.933 1.46501H380.165L396.346 57.649H379.695L377.422 49.5ZM367.588 14.669L361.319 36.845H373.779L367.588 14.669ZM316.708 31.399L299.978 44.994L283.248 31.399V57.649H267.185V0.76001L299.978 25.639L332.772 0.76001V57.649H316.708V31.399ZM276.265 121.757H297.187V134.451H260.24V78.267H276.304L276.265 121.757ZM244.945 54.789C240.426 57.166 235.359 58.355 229.743 58.355C224.127 58.355 219.6 57.166 214.541 54.789C210.22 52.413 206.451 49.24 203.826 44.622C201.201 40.221 199.888 35.199 199.888 29.557C199.888 23.915 201.201 18.894 203.826 14.493C206.451 10.92 210.22 6.70301 214.541 4.32501C219.6 1.94901 224.127 0.76001 229.743 0.76001C235.359 0.76001 240.426 1.94901 244.945 4.32501C249.464 6.70301 253.36 10.92 255.661 14.493C258.286 18.894 259.598 23.915 259.598 29.557C259.598 35.199 258.286 40.221 255.661 44.622C253.36 49.24 249.464 52.413 244.945 54.789ZM239.793 19.39C237.63 16.765 233.72 15.453 229.763 15.453C225.806 15.453 222.462 16.765 219.733 19.39C217.3 22.15 215.638 25.404 215.638 29.557C215.638 33.685 217.3 37.74 219.733 39.725C222.462 42.376 225.806 43.701 229.763 43.701C233.72 43.701 237.63 42.376 239.793 39.725C242.522 37.74 243.887 33.685 243.887 29.557C243.887 25.404 242.522 22.15 239.793 19.39ZM180.274 57.649H164.249V14.16H150.575V1.46501H193.908V14.16H180.274V57.649ZM168.206 101.618H186.425V78.267H202.41V134.451H186.386V114.313H168.245V134.451H152.182V78.267H168.206V101.618ZM250.876 90.961H226.663V100.286H248.408V112.941H226.663V121.757H252.51V134.451H210.599V78.267H250.876V90.961ZM346.691 83.889C350.7 87.638 352.705 92.653 352.705 98.934C352.705 105.217 350.7 110.225 346.691 113.96C342.681 117.696 336.902 119.563 329.353 119.563H321.361V134.451H305.297V78.267H329.353C336.902 78.267 342.681 80.142 346.691 83.889ZM321.322 90.961V106.908H327.669C330.333 106.908 332.494 106.15 334.153 104.635C335.811 103.121 336.641 101.226 336.641 98.954C336.641 96.656 335.818 94.749 334.173 93.234C332.527 91.719 330.359 90.961 327.669 90.961H321.322ZM450.283 83.889C454.292 87.638 456.297 92.66 456.297 98.954C456.297 103.133 455.396 106.784 453.593 109.905C451.791 113.26 449.113 115.423 445.561 117.94L456.179 134.451H440.76L431.261 119.563H424.953V134.451H408.889V78.267H432.945C440.494 78.267 446.273 80.142 450.283 83.889ZM424.913 90.961V106.908H431.261C433.925 106.908 436.86 106.15 437.745 104.635C439.403 103.121 440.233 101.226 440.233 98.954C440.233 96.656 439.41 94.749 437.765 93.234C436.119 91.719 433.951 90.961 431.261 90.961H424.913Z" fill="url(#paint4_linear_568_3127)" />
		<path fill-rule="evenodd" clip-rule="evenodd" d="M427.715 57.649H402.326V1.46501H427.715C436.151 1.46501 443.8 4.77001 448.284 9.30101C453.56 14.526 456.199 21.284 456.199 29.577C456.199 37.87 453.554 44.622 448.265 49.833C442.975 55.44 436.125 57.649 427.715 57.649ZM436.1 18.332C433.245 15.55 429.804 14.16 425.677 14.16H418.39V44.955H425.677C429.752 44.955 433.18 43.525 435.962 40.665C438.744 37.805 440.135 34.102 440.135 29.557C440.135 24.856 438.757 21.114 436.1 18.332ZM359.248 78.267H399.525V90.961H375.312V100.286H397.57V112.941H375.312V121.757H400.7V134.451H359.248V78.267ZM377.422 49.5H357.715L355.403 57.649H338.791L354.933 1.46501H380.165L396.346 57.649H379.695L377.422 49.5ZM367.588 14.669L361.319 36.845H373.779L367.588 14.669ZM316.708 31.399L299.978 44.994L283.248 31.399V57.649H267.185V0.76001L299.978 25.639L332.772 0.76001V57.649H316.708V31.399ZM276.265 121.757H297.187V134.451H260.24V78.267H276.304L276.265 121.757ZM244.945 54.789C240.426 57.166 235.359 58.355 229.743 58.355C224.127 58.355 219.6 57.166 214.541 54.789C210.22 52.413 206.451 49.24 203.826 44.622C201.201 40.221 199.888 35.199 199.888 29.557C199.888 23.915 201.201 18.894 203.826 14.493C206.451 10.92 210.22 6.70301 214.541 4.32501C219.6 1.94901 224.127 0.76001 229.743 0.76001C235.359 0.76001 240.426 1.94901 244.945 4.32501C249.464 6.70301 253.36 10.92 255.661 14.493C258.286 18.894 259.598 23.915 259.598 29.557C259.598 35.199 258.286 40.221 255.661 44.622C253.36 49.24 249.464 52.413 244.945 54.789ZM239.793 19.39C237.63 16.765 233.72 15.453 229.763 15.453C225.806 15.453 222.462 16.765 219.733 19.39C217.3 22.15 215.638 25.404 215.638 29.557C215.638 33.685 217.3 37.74 219.733 39.725C222.462 42.376 225.806 43.701 229.763 43.701C233.72 43.701 237.63 42.376 239.793 39.725C242.522 37.74 243.887 33.685 243.887 29.557C243.887 25.404 242.522 22.15 239.793 19.39ZM180.274 57.649H164.249V14.16H150.575V1.46501H193.908V14.16H180.274V57.649ZM168.206 101.618H186.425V78.267H202.41V134.451H186.386V114.313H168.245V134.451H152.182V78.267H168.206V101.618ZM250.876 90.961H226.663V100.286H248.408V112.941H226.663V121.757H252.51V134.451H210.599V78.267H250.876V90.961ZM346.691 83.889C350.7 87.638 352.705 92.653 352.705 98.934C352.705 105.217 350.7 110.225 346.691 113.96C342.681 117.696 336.902 119.563 329.353 119.563H321.361V134.451H305.297V78.267H329.353C336.902 78.267 342.681 80.142 346.691 83.889ZM321.322 90.961V106.908H327.669C330.333 106.908 332.494 106.15 334.153 104.635C335.811 103.121 336.641 101.226 336.641 98.954C336.641 96.656 335.818 94.749 334.173 93.234C332.527 91.719 330.359 90.961 327.669 90.961H321.322ZM450.283 83.889C454.292 87.638 456.297 92.66 456.297 98.954C456.297 103.133 455.396 106.784 453.593 109.905C451.791 113.26 449.113 115.423 445.561 117.94L456.179 134.451H440.76L431.261 119.563H424.953V134.451H408.889V78.267H432.945C440.494 78.267 446.273 80.142 450.283 83.889ZM424.913 90.961V106.908H431.261C433.925 106.908 436.86 106.15 437.745 104.635C439.403 103.121 440.233 101.226 440.233 98.954C440.233 96.656 439.41 94.749 437.765 93.234C436.119 91.719 433.951 90.961 431.261 90.961H424.913Z" fill="url(#paint5_radial_568_3127)" />
	</g>
	<defs>
		<filter id="filter0_d_568_3127" x="-7.92095" y="0.831787" width="156" height="151.774" filterUnits="userSpaceOnUse" color-interpolation-filters="sRGB">
			<feFlood flood-opacity="0" result="BackgroundImageFix" />
			<feColorMatrix in="SourceAlpha" type="matrix" values="0 0 0 0 0 0 0 0 0 0 0 0 0 0 0 0 0 0 127 0" result="hardAlpha" />
			<feOffset dy="8.71795" />
			<feGaussianBlur stdDeviation="4.35897" />
			<feComposite in2="hardAlpha" operator="out" />
			<feColorMatrix type="matrix" values="0 0 0 0 0 0 0 0 0 0 0 0 0 0 0 0 0 0 0.3 0" />
			<feBlend mode="normal" in2="BackgroundImageFix" result="effect1_dropShadow_568_3127" />
			<feBlend mode="normal" in="SourceGraphic" in2="effect1_dropShadow_568_3127" result="shape" />
		</filter>
		<filter id="filter1_d_568_3127" x="-7.92095" y="-7.88616" width="156" height="151.774" filterUnits="userSpaceOnUse" color-interpolation-filters="sRGB">
			<feFlood flood-opacity="0" result="BackgroundImageFix" />
			<feColorMatrix in="SourceAlpha" type="matrix" values="0 0 0 0 0 0 0 0 0 0 0 0 0 0 0 0 0 0 127 0" result="hardAlpha" />
			<feOffset />
			<feGaussianBlur stdDeviation="4.35897" />
			<feComposite in2="hardAlpha" operator="out" />
			<feColorMatrix type="matrix" values="0 0 0 0 0 0 0 0 0 0 0 0 0 0 0 0 0 0 0.25 0" />
			<feBlend mode="normal" in2="BackgroundImageFix" result="effect1_dropShadow_568_3127" />
			<feBlend mode="normal" in="SourceGraphic" in2="effect1_dropShadow_568_3127" result="shape" />
		</filter>
		<filter id="filter2_d_568_3127" x="131.075" y="-14.2886" width="347.516" height="176.24" filterUnits="userSpaceOnUse" color-interpolation-filters="sRGB">
			<feFlood flood-opacity="0" result="BackgroundImageFix" />
			<feColorMatrix in="SourceAlpha" type="matrix" values="0 0 0 0 0 0 0 0 0 0 0 0 0 0 0 0 0 0 127 0" result="hardAlpha" />
			<feOffset dy="8" />
			<feGaussianBlur stdDeviation="8" />
			<feComposite in2="hardAlpha" operator="out" />
			<feColorMatrix type="matrix" values="0 0 0 0 0 0 0 0 0 0 0 0 0 0 0 0 0 0 0.2 0" />
			<feBlend mode="normal" in2="BackgroundImageFix" result="effect1_dropShadow_568_3127" />
			<feBlend mode="normal" in="SourceGraphic" in2="effect1_dropShadow_568_3127" result="shape" />
		</filter>
		<linearGradient id="paint0_linear_568_3127" x1="39.4872" y1="60.3718" x2="49.2948" y2="89.7949" gradientUnits="userSpaceOnUse">
			<stop stop-color="#FB7299" />
			<stop offset="1" stop-color="#FB7299" stop-opacity="0" />
		</linearGradient>
		<linearGradient id="paint1_linear_568_3127" x1="70" y1="59.2821" x2="70" y2="75.6283" gradientUnits="userSpaceOnUse">
			<stop stop-opacity="0" />
			<stop offset="1" />
		</linearGradient>
		<linearGradient id="paint2_linear_568_3127" x1="-4.10259" y1="77.8078" x2="145.192" y2="119.218" gradientUnits="userSpaceOnUse">
			<stop stop-color="#FB7299" />
			<stop offset="1" stop-color="#FB7299" stop-opacity="0" />
		</linearGradient>
		<linearGradient id="paint3_linear_568_3127" x1="151" y1="1" x2="456" y2="134" gradientUnits="userSpaceOnUse">
			<stop stop-color="#FB7299" />
			<stop offset="1" stop-color="#2FBDEC" />
		</linearGradient>
		<linearGradient id="paint4_linear_568_3127" x1="456" y1="0.999997" x2="151" y2="134" gradientUnits="userSpaceOnUse">
			<stop stop-opacity="0.3" />
			<stop offset="0.300778" stop-opacity="0" />
			<stop offset="0.695359" stop-opacity="0" />
			<stop offset="1" stop-opacity="0.3" />
		</linearGradient>
		<radialGradient id="paint5_radial_568_3127" cx="0" cy="0" r="1" gradientUnits="userSpaceOnUse" gradientTransform="translate(303.5 67.5) rotate(156.44) scale(166.369 380.448)">
			<stop stop-color="white" stop-opacity="0.15" />
			<stop offset="1" stop-color="white" stop-opacity="0" />
		</radialGradient>
	</defs>
</svg>
