<svg xmlns="http://www.w3.org/2000/svg" xmlns:xlink="http://www.w3.org/1999/xlink" width="457px" height="135px" viewBox="0 0 457 135">
	<path fill-rule="evenodd" d="M38.360,56.941 C37.364,60.208 36.844,63.742 36.844,67.567 C36.844,77.154 40.13,85.25 46.354,91.182 C52.692,97.340 60.459,100.419 69.650,100.419 C78.841,100.419 86.606,97.340 92.946,91.182 C99.284,85.25 102.455,77.154 102.455,67.567 C102.455,57.921 99.284,50.50 92.946,43.953 C86.606,37.856 78.841,34.807 69.650,34.807 C62.123,34.807 55.568,36.887 49.953,40.976 C61.712,19.356 84.851,7.706 93.121,4.103 C97.213,5.373 101.148,6.984 104.912,8.963 C115.407,14.484 123.704,22.356 129.801,32.578 C135.898,42.801 138.946,54.463 138.946,67.567 C138.946,80.671 135.898,92.335 129.801,102.557 C123.704,112.780 115.407,120.652 104.912,126.172 C94.416,131.693 82.647,134.453 69.604,134.453 C56.560,134.453 44.791,131.693 34.296,126.172 C23.800,120.652 15.505,112.780 9.407,102.557 C3.310,92.335 0.262,80.671 0.262,67.567 C0.262,54.463 3.310,42.801 9.407,32.578 C15.505,22.356 23.800,14.484 34.296,8.963 C44.791,3.443 56.560,0.682 69.604,0.682 C75.395,0.682 80.920,1.258 86.208,2.347 C52.140,18.146 41.597,43.736 38.360,56.941 Z" />
	<path fill-rule="evenodd" d="M427.715,57.649 L402.326,57.649 L402.326,1.465 L427.715,1.465 C436.151,1.465 443.8,4.77 448.284,9.301 C453.560,14.526 456.199,21.284 456.199,29.577 C456.199,37.870 453.554,44.622 448.265,49.833 C442.975,55.44 436.125,57.649 427.715,57.649 ZM436.1,18.332 C433.245,15.550 429.804,14.160 425.677,14.160 L418.390,14.160 L418.390,44.955 L425.677,44.955 C429.752,44.955 433.180,43.525 435.962,40.665 C438.744,37.805 440.135,34.102 440.135,29.557 C440.135,24.856 438.757,21.114 436.1,18.332 ZM359.248,78.267 L399.525,78.267 L399.525,90.961 L375.312,90.961 L375.312,100.286 L397.57,100.286 L397.57,112.941 L375.312,112.941 L375.312,121.757 L400.700,121.757 L400.700,134.451 L359.248,134.451 L359.248,78.267 ZM377.422,49.500 L357.715,49.500 L355.403,57.649 L338.791,57.649 L354.933,1.465 L380.165,1.465 L396.346,57.649 L379.695,57.649 L377.422,49.500 ZM367.588,14.669 L361.319,36.845 L373.779,36.845 L367.588,14.669 ZM316.708,31.399 L299.978,44.994 L283.248,31.399 L283.248,57.649 L267.185,57.649 L267.185,0.760 L299.978,25.639 L332.772,0.760 L332.772,57.649 L316.708,57.649 L316.708,31.399 ZM276.265,121.757 L297.187,121.757 L297.187,134.451 L260.240,134.451 L260.240,78.267 L276.304,78.267 L276.265,121.757 ZM244.945,54.789 C240.426,57.166 235.359,58.355 229.743,58.355 C224.127,58.355 219.60,57.166 214.541,54.789 C210.22,52.413 206.451,49.24 203.826,44.622 C201.201,40.221 199.888,35.199 199.888,29.557 C199.888,23.915 201.201,18.894 203.826,14.493 C206.451,10.92 210.22,6.703 214.541,4.325 C219.60,1.949 224.127,0.760 229.743,0.760 C235.359,0.760 240.426,1.949 244.945,4.325 C249.464,6.703 253.36,10.92 255.661,14.493 C258.286,18.894 259.598,23.915 259.598,29.557 C259.598,35.199 258.286,40.221 255.661,44.622 C253.36,49.24 249.464,52.413 244.945,54.789 ZM239.793,19.390 C237.63,16.765 233.720,15.453 229.763,15.453 C225.806,15.453 222.462,16.765 219.733,19.390 C217.3,22.15 215.638,25.404 215.638,29.557 C215.638,33.685 217.3,37.74 219.733,39.725 C222.462,42.376 225.806,43.701 229.763,43.701 C233.720,43.701 237.63,42.376 239.793,39.725 C242.522,37.74 243.887,33.685 243.887,29.557 C243.887,25.404 242.522,22.15 239.793,19.390 ZM180.274,57.649 L164.249,57.649 L164.249,14.160 L150.575,14.160 L150.575,1.465 L193.908,1.465 L193.908,14.160 L180.274,14.160 L180.274,57.649 ZM168.206,101.618 L186.425,101.618 L186.425,78.267 L202.410,78.267 L202.410,134.451 L186.386,134.451 L186.386,114.313 L168.245,114.313 L168.245,134.451 L152.182,134.451 L152.182,78.267 L168.206,78.267 L168.206,101.618 ZM250.876,90.961 L226.663,90.961 L226.663,100.286 L248.408,100.286 L248.408,112.941 L226.663,112.941 L226.663,121.757 L252.51,121.757 L252.51,134.451 L210.599,134.451 L210.599,78.267 L250.876,78.267 L250.876,90.961 ZM346.691,83.889 C350.700,87.638 352.705,92.653 352.705,98.934 C352.705,105.217 350.700,110.225 346.691,113.960 C342.681,117.696 336.902,119.563 329.353,119.563 L321.361,119.563 L321.361,134.451 L305.297,134.451 L305.297,78.267 L329.353,78.267 C336.902,78.267 342.681,80.142 346.691,83.889 ZM321.322,90.961 L321.322,106.908 L327.669,106.908 C330.333,106.908 332.494,106.150 334.153,104.635 C335.811,103.121 336.641,101.226 336.641,98.954 C336.641,96.656 335.818,94.749 334.173,93.234 C332.527,91.719 330.359,90.961 327.669,90.961 L321.322,90.961 ZM450.283,83.889 C454.292,87.638 456.297,92.660 456.297,98.954 C456.297,103.133 455.396,106.784 453.593,109.905 C451.791,113.26 449.113,115.423 445.561,117.94 L456.179,134.451 L440.76,134.451 L431.261,119.563 L424.953,119.563 L424.953,134.451 L408.889,134.451 L408.889,78.267 L432.945,78.267 C440.494,78.267 446.273,80.142 450.283,83.889 ZM424.913,90.961 L424.913,106.908 L431.261,106.908 C433.925,106.908 436.86,106.150 437.745,104.635 C439.403,103.121 440.233,101.226 440.233,98.954 C440.233,96.656 439.410,94.749 437.765,93.234 C436.119,91.719 433.951,90.961 431.261,90.961 L424.913,90.961 Z" />
</svg>
