<svg width="500" height="400" overflow="hidden" version="1.1" viewBox="0 0 1375 1100" xml:space="preserve" xmlns="http://www.w3.org/2000/svg"><defs><clipPath id="clip0"><rect x="733" y="260" width="1467" height="1159"/></clipPath><clipPath id="clip1"><rect x="733" y="259" width="1467" height="1160"/></clipPath><clipPath id="clip2"><rect x="733" y="259" width="1467" height="1160"/></clipPath><clipPath id="clip3"><rect x="733" y="259" width="1467" height="1160"/></clipPath><clipPath id="clip5"><rect x="733" y="259" width="1467" height="1160"/></clipPath><clipPath id="clip7"><rect x="1227" y="336" width="926" height="889"/></clipPath><clipPath id="clip8"><rect x="733" y="259" width="1467" height="1160"/></clipPath><clipPath id="clip9"><rect x="733" y="259" width="1467" height="1160"/></clipPath><clipPath id="clip10"><rect x="733" y="259" width="1467" height="1160"/></clipPath><clipPath id="clip11"><rect x="733" y="259" width="1467" height="1160"/></clipPath><clipPath id="clip12"><rect x="733" y="259" width="1467" height="1160"/></clipPath></defs><g transform="translate(-795.5 -310)" clip-path="url(#clip0)"><g transform="translate(-81.279,37.336)"><g clip-path="url(#clip1)"><path d="m1227.5 867.53h922m-922-354.03h922" fill="none" stroke="#8daeef" stroke-linejoin="round" stroke-miterlimit="10" stroke-opacity=".70196" stroke-width="3.4375"/></g><g clip-path="url(#clip2)"><path d="m1688.1 513 0.5 708.5m460.94-708v708" fill="none" stroke="#8daeef" stroke-linejoin="round" stroke-miterlimit="10" stroke-opacity=".70196" stroke-width="3.4375"/></g><g clip-path="url(#clip3)"><path transform="matrix(1,0,0,-1,1227.5,1221.5)" d="m1.7188-7.0089e-7 3.5e-4 857.5h-3.4375l-3.5e-4 -857.5zm-1.7184 857.5 22.917-18.334-22.917 45.834-22.917-45.834z" fill="#8daeef"/></g><g clip-path="url(#clip5)"><path d="m1227.5 1219.8h894.5v3.44h-894.5zm894.5 1.72-18.33-22.92 45.83 22.92-45.83 22.92z" fill="#8daeef"/></g><g clip-path="url(#clip7)"><path d="m1227 868 461.06-355h461.94" fill="none" stroke="#8daeef" stroke-linecap="round" stroke-linejoin="round" stroke-miterlimit="10" stroke-width="18.333"/></g><g clip-path="url(#clip8)"><text transform="translate(1093.8,1251)" fill="#8daeef" font-family="Cambria, Cambria_MSFontService, sans-serif" font-size="92px" font-weight="400">0</text></g><g clip-path="url(#clip9)"><text transform="translate(1043.1,897)" fill="#8daeef" font-family="Cambria, Cambria_MSFontService, sans-serif" font-size="92px" font-weight="400">60</text></g><g clip-path="url(#clip10)"><text transform="translate(992.31,543)" fill="#8daeef" font-family="Cambria, Cambria_MSFontService, sans-serif" font-size="92px" font-weight="400">120</text></g><g clip-path="url(#clip11)"><text transform="translate(971.67,375)" fill="#8daeef" font-family="Cambria, Cambria_MSFontService, sans-serif" font-size="83px" font-weight="700">BPM</text></g><g clip-path="url(#clip12)"><text transform="translate(2015.4,1325)" fill="#8daeef" font-family="Cambria, Cambria_MSFontService, sans-serif" font-size="83px" font-weight="700">Bar</text></g></g></g></svg>
