<svg width="100" height="100" version="1.1" viewBox="0 0 158 158" xmlns="http://www.w3.org/2000/svg">
	<path d="m43.799 67.084c-1.183 2.998-1.669 7.095-1.669 11.529 0 10.85 3.47 19.758 10.646 26.726 7.173 7.725 15.963 10.453 26.365 10.453s19.189-2.728 26.365-10.453c7.174-6.968 10.762-15.876 10.762-26.726 0-10.916-3.588-19.825-10.762-26.725-7.176-6.9-15.963-10.35-26.365-10.35-8.541 0-15.976 2.365-22.341 7.017 14.11-24.49 39.524-37.679 48.902-41.767 4.632 1.636 9.086 3.26 13.788 6.086 11.436 5.663 20.826 14.572 27.726 26.14 6.9 11.57 10.35 24.769 10.35 39.599 0 14.831-3.45 28.031-10.35 39.599-6.9 11.571-16.29 20.479-27.726 26.726-12.32 6.249-25.64 10.146-39.6 10.146-15.564 0-28.19-3.897-40.76-10.146-11.879-6.247-21.267-15.155-28.168-26.726-6.342-11.568-10.35-24.768-10.35-39.599 0-14.83 4.008-28.029 10.35-39.599 6.901-11.568 16.289-20.477 28.168-26.14 12.57-6.832 25.196-9.957 40.76-9.957 5.753 0 12.005 0.652 17.991 1.884-38.324 17.772-50.341 47.063-54.082 62.283z" fill="#8daee6" fill-rule="evenodd"/>
</svg>
