<svg width="100" height="100" version="1.1" xmlns="http://www.w3.org/2000/svg">
	<path d="m93.237 30.723h-43.236c-2.3888 0-4.3247-1.9359-4.3247-4.3236v-11.53c0-2.3877 1.9359-4.3226 4.3247-4.3226h43.236c2.3877 0 4.3226 1.9348 4.3226 4.3226v11.53c0 2.3877-1.9348 4.3236-4.3226 4.3236zm-17.296 13.511v11.53c0 2.7963-1.9348 4.3236-4.3236 4.3236h-43.235c-2.3888 0-4.3236-1.5273-4.3236-4.3236v-11.53c0-2.3877 1.9348-4.3236 4.3236-4.3236h43.235c2.3888 0 4.3236 1.9359 4.3236 4.3236zm-21.617 29.365v11.53c0 2.3877-1.9359 4.3236-4.3236 4.3236h-43.237c-2.3877 0-4.3226-1.9359-4.3226-4.3236v-11.53c0-2.3877 1.9348-4.3236 4.3226-4.3236h43.237c2.3877 0 4.3236 1.9359 4.3236 4.3236z" fill="#8daee6" fill-rule="evenodd" stroke-width="1.0809"/>
</svg>
