<svg width="100" height="100" version="1.1" viewBox="0 0 1e3 1e3" xmlns="http://www.w3.org/2000/svg">
	<path d="m973.69 535.35-438.34 438.34c-19.526 19.527-51.184 19.527-70.711 0l-438.34-438.34c-19.525-19.526-19.525-51.184 0-70.711l438.34-438.34c19.527-19.525 51.185-19.525 70.711 0l438.34 438.34c19.527 19.527 19.527 51.185 0 70.711zm-137.29-56.568-315.19-315.19c-11.716-11.715-30.711-11.715-42.426 0l-315.19 315.19c-11.715 11.715-11.715 30.71 0 42.426l315.19 315.19c11.715 11.716 30.71 11.716 42.426 0l315.19-315.19c11.716-11.716 11.716-30.711 0-42.426zm-18.62-266.57c0-16.568-13.432-30-30-30h-36.548l-68.036-68.215h152.8c27.615 0 50 22.385 50 49.999v152.98l-68.215-68.216zm-605.57-30c-16.568 0-30 13.432-30 30v36.544l-68.215 68.216v-152.98c0-27.614 22.385-49.999 49.999-49.999h152.98l-68.216 68.215zm-30 605.57c0 16.568 13.432 30 30 30h36.548l68.216 68.215h-152.98c-27.614 0-49.999-22.385-49.999-50v-152.8l68.215 68.036zm605.57 30c16.568 0 30-13.432 30-30v-36.551l68.215-68.063v152.83c0 27.615-22.385 50-50 50h-152.83l68.063-68.215z" fill="#8daee6" fill-rule="evenodd"/>
</svg>
