<?xml version="1.0" encoding="UTF-8" standalone="no"?>
<svg
   xmlns:dc="http://purl.org/dc/elements/1.1/"
   xmlns:cc="http://creativecommons.org/ns#"
   xmlns:rdf="http://www.w3.org/1999/02/22-rdf-syntax-ns#"
   xmlns:svg="http://www.w3.org/2000/svg"
   xmlns="http://www.w3.org/2000/svg"
   xmlns:sodipodi="http://sodipodi.sourceforge.net/DTD/sodipodi-0.dtd"
   xmlns:inkscape="http://www.inkscape.org/namespaces/inkscape"
   height="48"
   width="48"
   version="1.1"
   id="svg4"
   sodipodi:docname="fullscreen_FILL0_wght400_GRAD0_opsz48.svg"
   inkscape:version="1.0.2-2 (e86c870879, 2021-01-15)">
  <metadata
     id="metadata10">
    <rdf:RDF>
      <cc:Work
         rdf:about="">
        <dc:format>image/svg+xml</dc:format>
        <dc:type
           rdf:resource="http://purl.org/dc/dcmitype/StillImage" />
        <dc:title></dc:title>
      </cc:Work>
    </rdf:RDF>
  </metadata>
  <defs
     id="defs8" />
  <sodipodi:namedview
     pagecolor="#ffffff"
     bordercolor="#666666"
     borderopacity="1"
     objecttolerance="10"
     gridtolerance="10"
     guidetolerance="10"
     inkscape:pageopacity="0"
     inkscape:pageshadow="2"
     inkscape:window-width="1920"
     inkscape:window-height="991"
     id="namedview6"
     showgrid="false"
     inkscape:zoom="17.083333"
     inkscape:cx="22.682927"
     inkscape:cy="21.658537"
     inkscape:window-x="-9"
     inkscape:window-y="-9"
     inkscape:window-maximized="1"
     inkscape:current-layer="layer1" />
  <g
     inkscape:groupmode="layer"
     id="layer1"
     inkscape:label="Layer 1"
     style="display:inline">
    <path
       d="M 9.5,40 C 9.066667,40 8.708333,39.858333 8.425,39.575 8.141667,39.291667 8,38.933333 8,38.5 V 33.85 C 8,33.416667 8.141667,33.058333 8.425,32.775 8.708333,32.491667 9.066667,32.35 9.5,32.35 c 0.433333,0 0.791667,0.141667 1.075,0.425 C 10.858333,33.058333 11,33.416667 11,33.85 V 37 h 3.15 c 0.433333,0 0.791667,0.141667 1.075,0.425 0.283333,0.283333 0.425,0.641667 0.425,1.075 0,0.433333 -0.141667,0.791667 -0.425,1.075 C 14.941667,39.858333 14.583333,40 14.15,40 Z m 0,-24.35 C 9.066667,15.65 8.708333,15.508333 8.425,15.225 8.141667,14.941667 8,14.583333 8,14.15 V 9.5 C 8,9.066667 8.141667,8.708333 8.425,8.425 8.708333,8.141667 9.066667,8 9.5,8 h 4.65 c 0.433333,0 0.791667,0.141667 1.075,0.425 0.283333,0.283333 0.425,0.641667 0.425,1.075 0,0.433333 -0.141667,0.791667 -0.425,1.075 C 14.941667,10.858333 14.583333,11 14.15,11 H 11 v 3.15 c 0,0.433333 -0.141667,0.791667 -0.425,1.075 C 10.291667,15.508333 9.933333,15.65 9.5,15.65 Z M 33.85,40 C 33.416667,40 33.058333,39.858333 32.775,39.575 32.491667,39.291667 32.35,38.933333 32.35,38.5 c 0,-0.433333 0.141667,-0.791667 0.425,-1.075 C 33.058333,37.141667 33.416667,37 33.85,37 H 37 v -3.15 c 0,-0.433333 0.141667,-0.791667 0.425,-1.075 0.283333,-0.283333 0.641667,-0.425 1.075,-0.425 0.433333,0 0.791667,0.141667 1.075,0.425 C 39.858333,33.058333 40,33.416667 40,33.85 v 4.65 c 0,0.433333 -0.141667,0.791667 -0.425,1.075 C 39.291667,39.858333 38.933333,40 38.5,40 Z M 38.5,15.65 c -0.433333,0 -0.791667,-0.141667 -1.075,-0.425 C 37.141667,14.941667 37,14.583333 37,14.15 V 11 H 33.85 C 33.416667,11 33.058333,10.858333 32.775,10.575 32.491667,10.291667 32.35,9.933333 32.35,9.5 32.35,9.066667 32.491667,8.708333 32.775,8.425 33.058333,8.141667 33.416667,8 33.85,8 h 4.65 c 0.433333,0 0.791667,0.141667 1.075,0.425 C 39.858333,8.708333 40,9.066667 40,9.5 v 4.65 c 0,0.433333 -0.141667,0.791667 -0.425,1.075 -0.283333,0.283333 -0.641667,0.425 -1.075,0.425 z"
       id="path2"
       sodipodi:nodetypes="sssssssscssssssssssssssssscsssssssscsssssssssssscsssssssssss" />
  </g>
  <g
     inkscape:groupmode="layer"
     id="g839"
     inkscape:label="Layer 1 复制">
    <path
       id="path837"
       d="m 24,4.8027344 c -0.400693,0 -0.754134,0.1525717 -1.060547,0.4589844 L 5.2617188,22.939453 C 4.955306,23.245866 4.8027344,23.599307 4.8027344,24 c 0,0.400693 0.1525717,0.754134 0.4589844,1.060547 L 22.939453,42.738281 c 0.306413,0.306412 0.659854,0.458985 1.060547,0.458985 0.400693,0 0.754134,-0.152573 1.060547,-0.458985 L 42.738281,25.060547 C 43.044693,24.754134 43.197266,24.400693 43.197266,24 c 0,-0.400693 -0.152573,-0.754134 -0.458985,-1.060547 L 25.060547,5.2617188 C 24.754134,4.955306 24.400693,4.8027344 24,4.8027344 Z M 24,8.4433594 39.556641,24 24,39.556641 8.4433594,24 Z"
       sodipodi:nodetypes="sccsccsccsccsccccc" />
  </g>
</svg>
