<svg xmlns="http://www.w3.org/2000/svg" width="500" height="300" viewBox="0 0 5000 3000">
  <defs>
    <style>
      .cls-1, .cls-2 {
        fill: #8daee6;
        fill-rule: evenodd;
      }

      .cls-2 {
        opacity: 0.7;
      }
    </style>
  </defs>
  <path id="tuning_fork" data-name="tuning fork" class="cls-1" d="M2659.83,1969.32l0.25,0.42a149.992,149.992,0,0,0-85.06,133.92H2575v241.92h0.03a99.882,99.882,0,0,0,39.38,76.98l-0.31.31A194.7,194.7,0,0,1,2695,2581c0,107.7-87.3,195-195,195s-195-87.3-195-195a194.675,194.675,0,0,1,79.03-156.76l-0.23-.35a99.856,99.856,0,0,0,41.17-78.67H2425V2102.43h-0.03a150.038,150.038,0,0,0-86.48-133.36l0.28-.43C2212.36,1908.35,2125,1779.38,2125,1630V305a75,75,0,0,1,150,0V1630c0,124.26,100.74,225,225,225s225-100.74,225-225V305a75,75,0,0,1,150,0V1630C2875,1779.94,2787,1909.31,2659.83,1969.32Zm-159.82,551.69a60,60,0,1,0,60,60A60,60,0,0,0,2500.01,2521.01Z"/>
  <path id="_3" data-name="+3" class="cls-2" d="M1092.9,878.4v-90h-179v-171h-91v171h-178v90h178v171h91v-171h179Zm364-388c-68,0-135,6-206,18l6,95c48-4,113-6,180-6,91,0,119,9,120,84,0,60-9,105-104,105h-128v93h128c97-1,117,37,117,107,0,87-35,112-136,112-62,0-115-3-190-8l-6,98c73,10,151,18,229,18,169,0,229-63,227-205-2-98-29-158-119-173v-4c80-15,101-82,101-174C1675.9,528.4,1610.9,490.4,1456.9,490.4Z"/>
  <path id="_-2" data-name="-2" class="cls-2" d="M3647.9,1822.4v-86h-300v86h300Zm391-411c-66,0-126,4-222,25l7,96c88-10,136-12,202-12,69,0,106,6,108,57,1,56-41,122-124,210l-180,199c-14,15-18,31-18,52v75h470v-118h-213c-34,0-73,1-107,6l183-197c91-99,115-155,115-237C4259.9,1438.4,4174.9,1411.4,4038.9,1411.4Z"/>
  <path id="vegas_8-9_icon" data-name="vegas 8-9 icon" class="cls-1" d="M816,1670c303.76,0,550,246.24,550,550s-246.24,550-550,550-550-246.24-550-550S512.243,1670,816,1670Zm305,846c8.11,0,14.55-4.44,19.86-9.87l80.27-80.27c5.18-5.1,9.87-11.75,9.87-19.86V2046c0-8.11-4.69-14.76-9.87-19.87l-80.27-80.27c-5.31-5.42-11.75-9.86-19.86-9.86H511c-8.111,0-14.548,4.44-19.865,9.86l-80.27,80.27c-5.173,5.11-9.865,11.76-9.865,19.87v360c0,8.11,4.692,14.76,9.865,19.86l80.27,80.27c5.317,5.43,11.754,9.87,19.865,9.87h610ZM561,2021h510a80,80,0,0,1,80,80v250a80,80,0,0,1-80,80H561a80,80,0,0,1-80-80V2101A80,80,0,0,1,561,2021Zm45,205a209.354,209.354,0,0,1,63.051-150h293.9a209.95,209.95,0,0,1,0,300h-293.9A209.354,209.354,0,0,1,606,2226Zm210-80a80,80,0,1,1-80,80A80,80,0,0,1,816,2146Z"/>
</svg>
