<svg xmlns="http://www.w3.org/2000/svg" width="500" height="300" viewBox="0 0 5000 3000">
  <defs>
    <style>
      .cls-1 {
        fill: #8daee6;
        fill-rule: evenodd;
      }
    </style>
  </defs>
  <path id="tuning_fork" data-name="tuning fork" class="cls-1" d="M2659.83,1969.32l0.25,0.42a149.992,149.992,0,0,0-85.06,133.92H2575v241.92h0.03a99.882,99.882,0,0,0,39.38,76.98l-0.31.31A194.7,194.7,0,0,1,2695,2581c0,107.7-87.3,195-195,195s-195-87.3-195-195a194.675,194.675,0,0,1,79.03-156.76l-0.23-.35a99.856,99.856,0,0,0,41.17-78.67H2425V2102.43h-0.03a150.038,150.038,0,0,0-86.48-133.36l0.28-.43C2212.36,1908.35,2125,1779.38,2125,1630V305a75,75,0,0,1,150,0V1630c0,124.26,100.74,225,225,225s225-100.74,225-225V305a75,75,0,0,1,150,0V1630C2875,1779.94,2787,1909.31,2659.83,1969.32Zm-159.82,551.69a60,60,0,1,0,60,60A60,60,0,0,0,2500.01,2521.01Z"/>
  <path id="plug" class="cls-1" d="M4176,2482.21V2716a60,60,0,0,1-120,0V2482.21c-181.36-28.77-320-185.83-320-375.28V1706a120.005,120.005,0,0,1,120-120h32V1158a60,60,0,0,1,120,0v428h216V1161a60,60,0,0,1,120,0v425h32a120.005,120.005,0,0,1,120,120v400.93C4496,2296.38,4357.36,2453.44,4176,2482.21Z"/>
</svg>
