<svg width="100" height="100" version="1.1" viewBox="0 0 1e3 1e3" xmlns="http://www.w3.org/2000/svg">
	<g fill="#8daee6">
		<path d="m982.2 633.29c-11.883 42.467-28.724 82.25-50.522 119.35-21.806 37.098-47.837 70.863-78.102 101.29-30.264 30.432-63.945 56.547-101.04 78.345-37.098 22.517-76.881 38.647-119.35 50.522-42.467 11.883-86.643 17.817-132.53 17.817-35.801 0-71.023-3.738-105.68-11.227-34.657-7.483-68.094-18.465-100.31-32.949-32.217-14.477-62.559-32.217-91.281-53.207-28.64-20.99-54.671-44.984-78.101-71.999v138.14c0 8.466-3.097 15.788-9.077 21.966-6.383 6.186-13.705 9.275-21.84 9.275-8.79 0-16.112-3.089-21.66-9.275-6.815-6.178-9.904-13.5-9.904-21.966 0-39.371-0.084-78.589-0.244-117.64-0.168-39.051-0.244-78.261-0.244-116.82 0-6.021 0.404-11.39 1.22-16.927 0.808-5.53 2.273-10.495 4.393-14.033 2.419-5.249 5.286-8.826 9.519-11.594 4.225-2.761 9.762-4.149 16.92-4.149h109.99c0.633 3.763-0.403 6.693-0.403 8.746 0 15.291 2.734 29.689 8.212 43.184 1.478 3.644 3.123 7.154 5.504 10.551h-76.275c20.502 29.616 44.008 55.975 70.535 79.077 26.52 23.11 55.236 42.712 86.84 58.82 30.228 16.109 62.773 28.396 96.943 36.854 34.169 8.466 69.147 12.692 104.95 12.692 33.514 0 66.63-3.905 99.335-11.716 32.705-7.81 63.946-19.037 93.722-33.681 29.776-13.834 57.6-32.537 83.471-53.334 26.321-21.51 49.057-45.429 69.559-72.116 29.522-38.395 51.742-80.374 67.362-125.94 15.62-45.557 23.43-92.418 23.43-140.58 0-8.458 3.089-15.78 9.275-21.966 6.178-6.178 13.5-9.274 21.966-9.274 8.458 0 15.78 3.096 21.966 9.274 6.178 6.186 9.373 13.508 9.373 21.966 0 45.885-5.41 90.061-17.915 132.53zm-49.79-334.86c-2.12 4.393-5.293 7.978-9.519 10.739-4.233 2.769-9.762 4.149-16.596 4.149h-218.66l40.604-62.481h130.71c-20.502-29.288-44.016-55.563-70.535-78.239-26.527-23.857-55.159-43.1-85.912-59.658-30.752-16.109-63.213-28.388-97.382-36.062-34.17-9.251-69.155-13.484-104.95-13.484-33.849 0-67.042 3.829-99.579 11.471-32.194 7.65-63.702 18.793-93.478 33.437s-57.683 32.545-83.714 53.695c-26.039 21.158-48.492 45.236-69.804 72.244-29.287 38.402-51.742 80.381-67.362 125.94-15.62 45.564-23.43 92.425-23.43 140.58 0 8.466-3.097 15.788-9.275 21.966-6.185 6.186-13.381 9.671-21.966 9.671-7.665 0-15.788-3.485-21.966-9.671-6.185-6.178-9.274-13.5-9.274-21.966 0-45.884 5.934-90.136 17.817-132.77 12.568-42.628 28.716-82.494 50.521-119.59 21.799-37.099 47.914-70.856 78.346-101.29 30.424-30.425 64.189-56.456 101.29-78.011 37.098-21.728 76.958-38.485 119.59-50.368 42.628-11.875 86.888-17.817 132.77-17.817 35.466 0 70.535 3.829 105.19 11.471 34.657 7.974 68.011 18.717 100.07 33.193 32.049 15.051 62.397 32.217 91.037 53.207 28.632 20.989 54.671 44.832 78.542 71.511v-138.14c0-8.459 2.648-15.781 8.834-21.966 6.178-6.07 13.5-9.275 21.966-9.275 8.458 0 16.41 3.205 21.966 9.275 6.178 6.185 9.274 13.507 9.274 21.966 0 39.378 0.077 78.589 0.244 117.64 0.161 39.05 0.406 78.854 0.406 117.64 0 5.537-0.573 10.983-1.382 16.352-0.816 5.37-2.28 10.602-4.393 14.644z"/>
		<path d="m660.11 215.92c-6.746 3e-3 -13.183 3.5714-17.288 8.8346-2.4581 3.192-4.4427 6.7118-6.6946 10.047-41.33 63.667-82.664 127.33-123.99 191 10.466 15.903 20.933 31.806 31.398 47.709 47.393-72.801 94.798-145.6 142.17-218.41 5.5844-9.2218 4.7791-21.861-2.0223-30.245-3.513-4.5937-8.8323-7.7997-14.585-8.5547-2.9722-0.45669-5.9879-0.40965-8.9857-0.37941zm-323.36-0.0156c-5.6755-0.0603-11.654 1.2408-16.055 5.0176-4.3403 3.82-7.8811 8.7961-9.0883 14.527-1.729 7.4098-0.12522 15.521 4.3299 21.695 51.055 78.394 102.11 156.79 153.16 235.18-20.952 32.279-41.904 64.559-62.855 96.838-8.2422-4.0702-17.003-7.0986-26.027-8.8653-13.42-2.8442-27.308-3.5651-40.938-1.97-16.417 2.0468-32.222 8.1155-46.127 17.022-8.3369 5.3143-16.089 11.594-22.828 18.837-8.9947 9.8186-16.695 20.977-21.655 33.383-2.2392 4.809-4.3876 9.678-5.893 14.775-3.7774 12.24-4.9342 25.195-4.0792 37.948 1.0503 17.036 5.6969 33.854 13.674 48.952 9.7637 18.665 24.622 34.713 42.768 45.471 6.9434 4.1186 14.28 7.5766 21.856 10.364 12.922 4.5928 26.751 6.1148 40.407 5.856 12.724-0.25517 25.434-2.5026 37.372-6.9477 8.3264-3.0196 16.425-6.7636 23.842-11.631 10.875-7.0515 20.542-15.939 28.619-26.067 8.4792-10.767 15.142-22.983 19.491-35.984 5.8704-18.103 6.4817-37.642 3.275-56.32-1.512-8.6732-3.988-17.163-7.1022-25.391-3.806-9.625-9.3813-18.466-15.787-26.562 17.689-27.297 35.378-54.594 53.066-81.891 17.771 27.333 35.542 54.667 53.312 82-8.5214 11.133-15.686 23.505-19.629 37.025-5.1955 17.15-6.7098 35.418-4.3602 53.185 1.7701 12.79 5.8812 25.276 12.308 36.488 7.0296 12.92 16.206 24.762 27.517 34.216 10.033 8.6006 21.567 15.45 33.948 20.077 22.604 8.8829 48.008 10.149 71.499 4.1441 11.519-2.9767 22.515-7.8345 32.673-14.002 7.8716-4.8161 15.123-10.654 21.42-17.405 8.6182-8.8882 15.844-19.129 21.235-30.279 3.3144-6.7847 6.3477-13.757 8.2112-21.094 3.0551-11.703 3.934-23.894 3.451-35.952-0.70937-14.952-4.3632-29.756-10.731-43.305-8.6951-18.815-22.326-35.385-39.377-47.213-11.871-8.2755-25.235-14.521-39.358-17.776-15.007-3.411-30.665-3.5296-45.834-1.1321-11.186 1.7968-22.108 5.2171-32.311 10.144-78.509-121.02-157.02-242.04-235.54-363.06-3.8328-5.547-10.012-9.7225-16.844-10.192-1.6697-0.13156-3.3438-0.11284-5.0172-0.1087zm18.428 413.82c9.773-0.0201 19.531 2.3213 28.235 6.7644 9.7979 4.8552 18.371 12.157 24.716 21.064 0.3247 0.45818 0.84381 1.2012 1.2219 1.782 5.5908 8.451 9.3738 18.224 10.104 28.378 0.7058 8.8577-0.36118 17.857-3.0838 26.314-0.3312 1.0131-0.77938 2.2599-1.2111 3.3431-2.3258 5.8823-5.2917 11.547-9.078 16.626-2.8435 3.7344-6.1883 7.0675-9.7398 10.126-3.8017 3.1643-8.0292 5.7958-12.479 7.9468-0.31413 0.15064-1.017 0.47775-1.4805 0.69531-5.8099 2.6446-11.973 4.5512-18.313 5.3654-3.4755 0.47054-6.9895 0.65159-10.495 0.55838-1.2118-0.0297-2.7908-0.12025-4.0039-0.22656-6.0356-0.49095-12.008-1.902-17.539-4.3908-3.056-1.3431-6.2122-2.4851-9.0856-4.2101-4.9108-2.7952-9.2784-6.4747-13.071-10.649-8.6681-8.0058-14.659-18.738-17.458-30.164-2.9527-12.223-2.0949-25.317 2.3956-37.06 3.2382-8.6957 8.4316-16.686 15.259-22.99 1.0936-1.1138 2.1968-2.2477 3.2729-3.2518 5.1601-4.8935 11.481-8.3722 18.017-11.069 4.8625-2.2638 10.08-3.7278 15.398-4.4018 1.8709-0.25566 3.9502-0.41181 5.7123-0.49184 0.90144-0.0341 1.803-0.0539 2.7051-0.0586zm290 0c3.3991-7e-3 6.797 0.27631 10.15 0.83008 0.59722 0.0992 1.5158 0.26775 2.2305 0.41406 6.65 1.357 13.221 3.9141 19.012 7.2129 2.6511 1.5044 5.1966 3.192 7.6289 5.0293 0.51178 0.39627 1.2797 0.99495 1.8789 1.4805 10.506 8.6094 18.39 20.504 21.822 33.676 2.6134 10.522 2.2044 21.69-0.56902 32.136-2.0835 7.5386-5.4642 14.699-9.7517 21.23-6.6922 9.7803-16.346 17.456-27.313 21.921-5.5472 2.3599-11.416 3.9748-17.416 4.6158-10.325 1.1909-20.969-0.01-30.653-3.8454-5.8078-2.2591-11.381-5.2333-16.18-9.2398-3.4287-2.7898-6.5026-5.9807-9.5167-9.204-2.7737-3.0908-5.2104-6.4794-7.3008-10.066-0.63893-1.1169-1.3762-2.4573-1.9831-3.6982-2.2698-4.5861-4.0354-9.4323-5.1224-14.437-0.1216-0.59876-0.31908-1.523-0.44488-2.2507-2.2063-12.201-0.67154-25.024 4.2771-36.387 3.4201-7.9783 8.5385-15.211 14.895-21.119 7.9035-8.0899 18.208-13.665 29.119-16.486 4.9785-1.2324 10.11-1.8008 15.235-1.812z"/>
	</g>
</svg>
