<svg width="156" height="156" viewBox="0 0 156 156" fill="none" xmlns="http://www.w3.org/2000/svg">
	<g filter="url(#filter0_d_108_2)">
		<circle cx="78" cy="75" r="72" fill="url(#paint0_linear_108_2)" />
	</g>
	<circle cx="78" cy="75" r="72" fill="url(#paint1_linear_108_2)" />
	<circle cx="78" cy="75" r="60" fill="url(#paint2_linear_108_2)" />
	<g clip-path="url(#clip0_108_2)">
		<g filter="url(#filter1_d_108_2)">
			<path d="M98 106.211C98 105.768 98.078 105.417 98.2345 105.156C98.4165 104.87 98.651 104.571 98.9375 104.258C99.302 103.893 99.6925 103.555 100.109 103.242C100.526 102.904 100.929 102.552 101.32 102.188C103.195 100.469 104.862 98.5675 106.32 96.4845C107.778 94.375 109.003 92.1485 109.992 89.8045C110.982 87.461 111.724 85.039 112.219 82.5391C112.739 80.0391 113 77.5261 113 75C113 72.5 112.739 70 112.219 67.5C111.724 64.974 110.969 62.5391 109.953 60.1953C108.964 57.8255 107.74 55.586 106.281 53.4766C104.849 51.3672 103.195 49.4662 101.32 47.7735C100.929 47.4089 100.526 47.0703 100.109 46.7578C99.6925 46.4193 99.302 46.0677 98.9375 45.7031C98.625 45.3906 98.3905 45.1042 98.2345 44.8438C98.078 44.5834 98 44.2188 98 43.75C98 43.0469 98.2345 42.461 98.703 41.9922C99.198 41.5235 99.797 41.2891 100.5 41.2891C100.812 41.2891 101.086 41.3412 101.32 41.4453C101.554 41.5235 101.802 41.6537 102.062 41.836C103.235 42.5912 104.393 43.5547 105.539 44.7266C106.685 45.8985 107.766 47.1615 108.781 48.5156C109.823 49.8438 110.773 51.211 111.633 52.6172C112.492 54.0235 113.221 55.3516 113.82 56.6016C115.2 59.4922 116.242 62.487 116.945 65.586C117.648 68.6589 118 71.7969 118 75C118 78.1771 117.648 81.3281 116.945 84.4531C116.242 87.552 115.2 90.534 113.82 93.3985C113.221 94.6225 112.492 95.9505 111.633 97.383C110.773 98.789 109.823 100.17 108.781 101.524C107.74 102.852 106.646 104.102 105.5 105.274C104.354 106.446 103.209 107.409 102.062 108.164C101.776 108.347 101.516 108.49 101.281 108.594C101.073 108.672 100.812 108.711 100.5 108.711C99.823 108.711 99.237 108.464 98.742 107.969C98.2475 107.474 98 106.888 98 106.211ZM55.3637 90.8821C54.8008 90.3174 54.0362 90 53.2389 90H45.5C44.4844 90 43.5208 89.8045 42.6094 89.414C41.6979 89.0235 40.8906 88.4895 40.1875 87.8125C39.5104 87.1095 38.9766 86.302 38.5859 85.3905C38.1953 84.4792 38 83.5156 38 82.5V67.5C38 66.4844 38.1953 65.5209 38.5859 64.6094C38.9766 63.6979 39.5104 62.9037 40.1875 62.2266C40.8906 61.5235 41.6979 60.9766 42.6094 60.586C43.5208 60.1953 44.4844 60 45.5 60H53.2389C54.0363 60 54.8008 59.6826 55.3637 59.1179L66.5938 47.8516C66.9584 47.487 67.362 47.2266 67.8047 47.0703C68.2734 46.888 68.7552 46.7969 69.25 46.7969C70.3177 46.7969 71.2031 47.1485 71.9062 47.8516C72.6354 48.5547 73 49.4401 73 50.5078V99.492C73 100.013 72.8958 100.495 72.6875 100.938C72.5052 101.38 72.2317 101.784 71.8672 102.149C71.5286 102.487 71.125 102.761 70.6562 102.969C70.2135 103.151 69.7448 103.242 69.25 103.242C68.2083 103.242 67.3229 102.878 66.5938 102.149L55.3637 90.8821ZM88.156 97.2265C88.156 96.784 88.2215 96.4455 88.3515 96.211C88.508 95.9765 88.729 95.69 89.0155 95.3515C90.448 93.737 91.724 92.1875 92.844 90.703C93.9635 89.219 94.901 87.6955 95.656 86.133C96.4115 84.5443 96.9845 82.8516 97.375 81.0547C97.7915 79.2578 98 77.2396 98 75C98 72.7604 97.7915 70.7422 97.375 68.9453C96.9845 67.1485 96.4115 65.4688 95.656 63.9063C94.901 62.3177 93.9635 60.7813 92.844 59.2969C91.724 57.8125 90.448 56.263 89.0155 54.6485C88.729 54.3099 88.508 54.0235 88.3515 53.7891C88.2215 53.5547 88.156 53.2162 88.156 52.7735C88.156 52.0964 88.4035 51.5235 88.8985 51.0547C89.4195 50.5599 90.018 50.3125 90.6955 50.3125C91.086 50.3125 91.3855 50.3646 91.594 50.4688C91.802 50.5469 92.0625 50.7031 92.375 50.9375C93.156 51.5365 93.9245 52.2787 94.6795 53.1641C95.461 54.0235 96.19 54.9479 96.867 55.9375C97.5705 56.9271 98.2085 57.9427 98.781 58.9844C99.354 60 99.836 60.9636 100.227 61.875C102.076 66.0417 103 70.4167 103 75C103 79.5834 102.076 83.9584 100.227 88.125C99.862 88.9585 99.38 89.909 98.781 90.9765C98.2085 92.018 97.5705 93.06 96.867 94.1015C96.164 95.117 95.422 96.0675 94.6405 96.953C93.8855 97.8385 93.13 98.5415 92.375 99.0625C92.0885 99.245 91.815 99.401 91.5545 99.531C91.3205 99.6355 91.034 99.6875 90.6955 99.6875C90.018 99.6875 89.4195 99.453 88.8985 98.9845C88.4035 98.4895 88.156 97.9035 88.156 97.2265ZM78.4688 87.6955C78.4688 87.3305 78.5078 87.0445 78.586 86.836C78.6901 86.6275 78.8464 86.38 79.0547 86.094C79.6537 85.1825 80.2005 84.3099 80.6953 83.4766C81.1901 82.6172 81.6067 81.7578 81.9453 80.8985C82.2838 80.013 82.5442 79.1016 82.7265 78.1641C82.9088 77.2005 83 76.1459 83 75C83 73.8802 82.9088 72.8386 82.7265 71.875C82.5442 70.9115 82.2838 70 81.9453 69.1406C81.6067 68.2552 81.1901 67.3959 80.6953 66.5625C80.2005 65.7031 79.6537 64.8177 79.0547 63.9063C78.8464 63.6198 78.6901 63.3724 78.586 63.1641C78.5078 62.9558 78.4688 62.6693 78.4688 62.3047C78.4688 61.6276 78.7162 61.0417 79.211 60.5469C79.7058 60.0521 80.2917 59.8047 80.9688 59.8047C81.4115 59.8047 81.7761 59.8828 82.0625 60.0391C82.3489 60.1953 82.6354 60.4297 82.9219 60.7422C83.7552 61.6537 84.4844 62.6823 85.1094 63.8281C85.7344 64.9479 86.2552 66.1459 86.6719 67.4219C87.1146 68.6719 87.4401 69.9479 87.6485 71.25C87.8828 72.5521 88 73.8021 88 75C88 76.1459 87.8828 77.3828 87.6485 78.711C87.4401 80.013 87.1146 81.3151 86.6719 82.6172C86.2552 83.8933 85.7213 85.117 85.0703 86.289C84.4453 87.435 83.7291 88.4245 82.9219 89.258C82.375 89.857 81.724 90.156 80.9688 90.156C80.2917 90.156 79.7058 89.922 79.211 89.453C78.7162 88.9585 78.4688 88.3725 78.4688 87.6955Z" fill="url(#paint3_linear_108_2)" />
		</g>
	</g>
	<defs>
		<filter id="filter0_d_108_2" x="0" y="0" width="156" height="156" filterUnits="userSpaceOnUse" color-interpolation-filters="sRGB">
			<feFlood flood-opacity="0" result="BackgroundImageFix" />
			<feColorMatrix in="SourceAlpha" type="matrix" values="0 0 0 0 0 0 0 0 0 0 0 0 0 0 0 0 0 0 127 0" result="hardAlpha" />
			<feOffset dy="3" />
			<feGaussianBlur stdDeviation="3" />
			<feComposite in2="hardAlpha" operator="out" />
			<feColorMatrix type="matrix" values="0 0 0 0 0.129412 0 0 0 0 0.14902 0 0 0 0 0.172549 0 0 0 0.5 0" />
			<feBlend mode="normal" in2="BackgroundImageFix" result="effect1_dropShadow_108_2" />
			<feBlend mode="normal" in="SourceGraphic" in2="effect1_dropShadow_108_2" result="shape" />
		</filter>
		<filter id="filter1_d_108_2" x="26" y="35.2891" width="104" height="91.4219" filterUnits="userSpaceOnUse" color-interpolation-filters="sRGB">
			<feFlood flood-opacity="0" result="BackgroundImageFix" />
			<feColorMatrix in="SourceAlpha" type="matrix" values="0 0 0 0 0 0 0 0 0 0 0 0 0 0 0 0 0 0 127 0" result="hardAlpha" />
			<feOffset dy="6" />
			<feGaussianBlur stdDeviation="6" />
			<feComposite in2="hardAlpha" operator="out" />
			<feColorMatrix type="matrix" values="0 0 0 0 0 0 0 0 0 0 0 0 0 0 0 0 0 0 0.25 0" />
			<feBlend mode="normal" in2="BackgroundImageFix" result="effect1_dropShadow_108_2" />
			<feBlend mode="normal" in="SourceGraphic" in2="effect1_dropShadow_108_2" result="shape" />
		</filter>
		<linearGradient id="paint0_linear_108_2" x1="6" y1="3" x2="150" y2="147" gradientUnits="userSpaceOnUse">
			<stop stop-color="#F8924C" />
			<stop offset="1" stop-color="#8A65BF" />
		</linearGradient>
		<linearGradient id="paint1_linear_108_2" x1="6" y1="3" x2="150" y2="147" gradientUnits="userSpaceOnUse">
			<stop stop-color="#F8924C" />
			<stop offset="1" stop-color="#8A65BF" />
		</linearGradient>
		<linearGradient id="paint2_linear_108_2" x1="18" y1="15" x2="138" y2="135" gradientUnits="userSpaceOnUse">
			<stop stop-color="#4D4D4D" />
			<stop offset="1" stop-color="#232323" />
		</linearGradient>
		<linearGradient id="paint3_linear_108_2" x1="48" y1="41.2891" x2="65.5615" y2="116.305" gradientUnits="userSpaceOnUse">
			<stop stop-color="white" />
			<stop offset="0.717682" stop-color="#DFDFDF" />
		</linearGradient>
		<clipPath id="clip0_108_2">
			<rect width="80" height="80" fill="white" transform="translate(38 35)" />
		</clipPath>
	</defs>
</svg>
