<svg width="700" height="394" fill="none" version="1.1" viewBox="0 0 700 394" xmlns="http://www.w3.org/2000/svg">
	<rect width="700" height="394" fill="#000"/>
	<path d="m0 328h211c2.209 0 4 1.791 4 4v51c0 2.209-1.791 4-4 4h-211v-59z" fill="#fff" fill-opacity=".07"/>
	<g clip-path="url(#clip0_1_50)" fill="#fff">
		<path d="m136.71 348.57c1.195 0.313 2.134 1.231 2.453 2.399 0.578 2.116 0.58 6.533 0.58 6.533s0 4.417-0.58 6.533c-0.319 1.169-1.258 2.087-2.453 2.4-2.162 0.567-10.839 0.567-10.839 0.567s-8.676 0-10.839-0.567c-1.195-0.313-2.133-1.231-2.453-2.4-0.58-2.116-0.58-6.533-0.58-6.533s0-4.417 0.58-6.533c0.32-1.168 1.258-2.086 2.453-2.399 2.163-0.568 10.839-0.568 10.839-0.568s8.677 0 10.839 0.568zm-6.408 8.932-7.208 4.071v-8.141l7.208 4.07z" clip-rule="evenodd" fill-rule="evenodd"/>
		<path d="m145.6 360.35-3.116-11.005h2.718l1.092 4.989c0.279 1.228 0.482 2.276 0.614 3.143h0.08c0.092-0.621 0.297-1.662 0.615-3.126l1.13-5.006h2.718l-3.154 11.005v5.28h-2.7v-5.28h3e-3z"/>
		<path d="m152.27 365.28c-0.548-0.362-0.939-0.925-1.172-1.689-0.231-0.764-0.347-1.778-0.347-3.048v-1.727c0-1.28 0.132-2.31 0.397-3.085s0.679-1.343 1.24-1.698c0.562-0.355 1.3-0.534 2.214-0.534 0.899 0 1.619 0.181 2.162 0.543 0.542 0.362 0.939 0.929 1.19 1.698 0.251 0.771 0.377 1.796 0.377 3.076v1.727c0 1.27-0.123 2.288-0.368 3.057-0.244 0.771-0.641 1.334-1.19 1.689-0.548 0.355-1.292 0.534-2.231 0.534-0.968 2e-3 -1.724-0.181-2.272-0.543zm3.074-1.863c0.15-0.389 0.228-1.021 0.228-1.902v-3.706c0-0.854-0.075-1.479-0.228-1.873-0.153-0.395-0.42-0.592-0.804-0.592-0.37 0-0.633 0.197-0.784 0.592-0.153 0.396-0.228 1.019-0.228 1.873v3.706c0 0.881 0.073 1.515 0.219 1.902 0.146 0.388 0.409 0.583 0.793 0.583s0.651-0.195 0.804-0.583z"/>
		<path d="m167.17 365.64h-2.142l-0.238-1.456h-0.059c-0.583 1.099-1.455 1.648-2.62 1.648-0.806 0-1.402-0.259-1.786-0.775-0.383-0.518-0.575-1.327-0.575-2.426v-8.89h2.738v8.733c0 0.532 0.059 0.91 0.178 1.135 0.119 0.226 0.318 0.34 0.596 0.34 0.238 0 0.466-0.072 0.685-0.215 0.22-0.143 0.38-0.324 0.487-0.542v-9.454h2.736v11.902z"/>
		<path d="m174.61 351.5h-2.718v14.132h-2.679v-14.132h-2.718v-2.154h8.115v2.154z"/>
		<path d="m181.22 365.64h-2.143l-0.237-1.456h-0.06c-0.582 1.099-1.454 1.648-2.619 1.648-0.806 0-1.403-0.259-1.786-0.775-0.384-0.518-0.576-1.327-0.576-2.426v-8.89h2.739v8.733c0 0.532 0.059 0.91 0.178 1.135 0.119 0.226 0.317 0.34 0.596 0.34 0.237 0 0.466-0.072 0.685-0.215s0.379-0.324 0.486-0.542v-9.454h2.737v11.902z"/>
		<path d="m190.28 355.64c-0.167-0.751-0.434-1.294-0.804-1.631-0.37-0.338-0.879-0.505-1.528-0.505-0.502 0-0.973 0.138-1.409 0.418-0.436 0.279-0.774 0.643-1.012 1.097h-0.02v-6.27h-2.638v16.887h2.261l0.279-1.126h0.059c0.212 0.402 0.53 0.717 0.952 0.952 0.423 0.232 0.893 0.348 1.41 0.348 0.925 0 1.607-0.418 2.044-1.251 0.436-0.836 0.655-2.138 0.655-3.912v-1.884c0-1.329-0.084-2.373-0.249-3.123zm-2.51 4.855c0 0.867-0.036 1.546-0.11 2.037-0.073 0.492-0.194 0.843-0.367 1.048-0.171 0.208-0.404 0.311-0.695 0.311-0.226 0-0.433-0.052-0.625-0.157-0.192-0.102-0.347-0.259-0.466-0.464v-6.754c0.091-0.324 0.251-0.588 0.477-0.796 0.224-0.208 0.471-0.31 0.733-0.31 0.279 0 0.494 0.107 0.644 0.319 0.153 0.215 0.258 0.572 0.318 1.077 0.059 0.505 0.089 1.222 0.089 2.154v1.535h2e-3z"/>
		<path d="m194.41 361.18c0 0.764 0.023 1.336 0.068 1.718 0.046 0.382 0.142 0.659 0.288 0.835 0.146 0.175 0.37 0.262 0.674 0.262 0.409 0 0.692-0.157 0.843-0.467 0.153-0.311 0.235-0.829 0.249-1.553l2.361 0.136c0.014 0.103 0.021 0.246 0.021 0.427 0 1.099-0.309 1.922-0.923 2.464-0.614 0.543-1.484 0.816-2.608 0.816-1.35 0-2.295-0.413-2.837-1.242-0.543-0.829-0.813-2.109-0.813-3.843v-2.078c0-1.785 0.281-3.09 0.843-3.912s1.523-1.233 2.887-1.233c0.938 0 1.66 0.167 2.163 0.504 0.502 0.338 0.856 0.861 1.062 1.573 0.205 0.713 0.308 1.696 0.308 2.952v2.037h-4.586v0.604zm0.347-5.608c-0.139 0.167-0.231 0.442-0.279 0.824-0.045 0.382-0.068 0.961-0.068 1.738v0.854h2.003v-0.854c0-0.764-0.027-1.342-0.08-1.738-0.053-0.395-0.149-0.672-0.288-0.835-0.139-0.161-0.354-0.244-0.644-0.244-0.292 2e-3 -0.507 0.087-0.644 0.255z"/>
	</g>
	<path d="m391.2 174.37c-0.991-3.69-3.901-6.59-7.604-7.578-6.703-1.792-33.598-1.792-33.598-1.792s-26.894 0-33.599 1.792c-3.702 0.988-6.612 3.888-7.603 7.578-1.798 6.681-1.798 20.63-1.798 20.63s0 13.949 1.798 20.63c0.991 3.69 3.901 6.59 7.603 7.578 6.705 1.792 33.599 1.792 33.599 1.792s26.895 0 33.598-1.792c3.703-0.988 6.613-3.888 7.604-7.578 1.798-6.681 1.798-20.63 1.798-20.63s-7e-3 -13.949-1.798-20.63z" fill="#f00"/>
	<path d="m341.39 207.86 22.342-12.855-22.342-12.855v25.71z" fill="#fff"/>
	<path d="m645.67 33.067v5.8333l9.366-8.7333c0.7-0.6667 0.7-1.7667 0-2.4334l-9.366-8.7333v5.6667c-10.367 1.4333-14.5 8.5333-16 15.667 3.7-5 8.6-7.2666 16-7.2666z" fill="#fff"/>
	<defs>
		<clipPath id="clip0_1_50">
			<rect transform="translate(112 348)" width="87" height="19" fill="#fff"/>
		</clipPath>
	</defs>
	<g>
		<text x="19.999969" y="48" fill="#ffffff" font-family="Roboto" font-size="24px" style="line-height:1.25" xml:space="preserve"><tspan x="19.999969" y="48" fill="#ffffff" font-family="Roboto" font-size="24px">Otomad Helper Tutorial</tspan></text>
		<text x="620.00861" y="70.000015" fill="#ffffff" font-family="Roboto" font-size="18px" style="line-height:1.25" xml:space="preserve"><tspan x="620.00861" y="70.000015" font-family="Roboto" font-size="18px" font-weight="500">Share</tspan></text>
		<text x="14.980484" y="363.99969" fill="#000000" font-family="Roboto" font-size="20px" style="line-height:1.25" xml:space="preserve"><tspan x="14.980484" y="363.99969" fill="#ffffff" font-family="Roboto" font-size="20px" font-weight="500">Watch on</tspan></text>
	</g>
</svg>
