<svg width="16" height="16" viewBox="0 0 16 16" xmlns="http://www.w3.org/2000/svg">
	<path d="M2 5.5C2 5.36458 2.04948 5.2474 2.14844 5.14844C2.2474 5.04948 2.36458 5 2.5 5C2.63542 5 2.7526 5.04948 2.85156 5.14844L8 10.2891L13.1484 5.14844C13.2474 5.04948 13.3646 5 13.5 5C13.6354 5 13.7526 5.04948 13.8516 5.14844C13.9505 5.2474 14 5.36458 14 5.5C14 5.63542 13.9505 5.7526 13.8516 5.85156L8.35156 11.3516C8.2526 11.4505 8.13542 11.5 8 11.5C7.86458 11.5 7.7474 11.4505 7.64844 11.3516L2.14844 5.85156C2.04948 5.7526 2 5.63542 2 5.5Z" />
</svg>
